<svg width="33" height="35" viewBox="0 0 33 35" fill="none" xmlns="http://www.w3.org/2000/svg">
<mask id="path-1-outside-1_164_1805" maskUnits="userSpaceOnUse" x="-0.698242" y="0.647827" width="34" height="34" fill="black">
<rect fill="white" x="-0.698242" y="0.647827" width="34" height="34"/>
<path fill-rule="evenodd" clip-rule="evenodd" d="M18.0211 4.47765C17.2473 3.73519 16.0256 3.73519 15.2518 4.47765L3.92112 15.349C2.62096 16.5965 3.50396 18.7922 5.30578 18.7922L9.10596 18.7922L9.10596 29.6478C9.10596 30.7524 10.0014 31.6478 11.106 31.6478L22.1669 31.6478C23.2715 31.6478 24.1669 30.7524 24.1669 29.6478L24.1669 18.7922L27.9671 18.7922C29.7689 18.7922 30.6519 16.5965 29.3517 15.349L18.0211 4.47765Z"/>
</mask>
<path fill-rule="evenodd" clip-rule="evenodd" d="M18.0211 4.47765C17.2473 3.73519 16.0256 3.73519 15.2518 4.47765L3.92112 15.349C2.62096 16.5965 3.50396 18.7922 5.30578 18.7922L9.10596 18.7922L9.10596 29.6478C9.10596 30.7524 10.0014 31.6478 11.106 31.6478L22.1669 31.6478C23.2715 31.6478 24.1669 30.7524 24.1669 29.6478L24.1669 18.7922L27.9671 18.7922C29.7689 18.7922 30.6519 16.5965 29.3517 15.349L18.0211 4.47765Z" fill="#FF5A80"/>
<path d="M15.2518 4.47765L17.3288 6.64239L17.3288 6.64239L15.2518 4.47765ZM18.0211 4.47765L15.9441 6.64239L15.9441 6.64239L18.0211 4.47765ZM3.92112 15.349L1.84412 13.1843L1.84412 13.1843L3.92112 15.349ZM5.30578 18.7922L5.30578 15.7922L5.30578 18.7922ZM9.10596 18.7922L12.106 18.7922L12.106 15.7922L9.10596 15.7922L9.10596 18.7922ZM24.1669 18.7922L24.1669 15.7922L21.1669 15.7922L21.1669 18.7922L24.1669 18.7922ZM29.3517 15.349L27.2748 17.5138L27.2748 17.5138L29.3517 15.349ZM17.3288 6.64239C16.9419 7.01362 16.331 7.01361 15.9441 6.64239L20.0981 2.31291C18.1635 0.456777 15.1093 0.456768 13.1748 2.31291L17.3288 6.64239ZM5.99811 17.5138L17.3288 6.64239L13.1748 2.31291L1.84412 13.1843L5.99811 17.5138ZM5.30578 15.7922C6.20669 15.7922 6.64819 16.89 5.99811 17.5138L1.84412 13.1843C-1.40628 16.3029 0.801226 21.7922 5.30578 21.7922L5.30578 15.7922ZM9.10596 15.7922L5.30578 15.7922L5.30578 21.7922L9.10596 21.7922L9.10596 15.7922ZM12.106 29.6478L12.106 18.7922L6.10596 18.7922L6.10596 29.6478L12.106 29.6478ZM11.106 28.6478C11.6582 28.6478 12.106 29.0955 12.106 29.6478L6.10596 29.6478C6.10596 32.4092 8.34453 34.6478 11.106 34.6478L11.106 28.6478ZM22.1669 28.6478L11.106 28.6478L11.106 34.6478L22.1669 34.6478L22.1669 28.6478ZM21.1669 29.6478C21.1669 29.0955 21.6146 28.6478 22.1669 28.6478L22.1669 34.6478C24.9283 34.6478 27.1669 32.4093 27.1669 29.6478L21.1669 29.6478ZM21.1669 18.7922L21.1669 29.6478L27.1669 29.6478L27.1669 18.7922L21.1669 18.7922ZM27.9671 15.7922L24.1669 15.7922L24.1669 21.7922L27.9671 21.7922L27.9671 15.7922ZM27.2748 17.5138C26.6247 16.89 27.0662 15.7922 27.9671 15.7922L27.9671 21.7922C32.4716 21.7922 34.6792 16.3029 31.4287 13.1843L27.2748 17.5138ZM15.9441 6.64239L27.2748 17.5138L31.4287 13.1843L20.0981 2.31291L15.9441 6.64239Z" fill="#3D2505" mask="url(#path-1-outside-1_164_1805)"/>
</svg>
