<svg width="35" height="34" viewBox="0 0 35 34" fill="none" xmlns="http://www.w3.org/2000/svg">
<mask id="path-1-outside-1_164_1805" maskUnits="userSpaceOnUse" x="0.499997" y="0.119018" width="34" height="34" fill="black">
<rect fill="white" x="0.499997" y="0.119018" width="34" height="34"/>
<path fill-rule="evenodd" clip-rule="evenodd" d="M4.32982 15.3997C3.58737 16.1735 3.58736 17.3952 4.32982 18.169L15.2012 29.4997C16.4487 30.7998 18.6444 29.9168 18.6444 28.115L18.6444 24.3148L29.5 24.3148C30.6046 24.3148 31.5 23.4194 31.5 22.3148L31.5 11.2539C31.5 10.1493 30.6046 9.25389 29.5 9.25389L18.6444 9.25389L18.6444 5.45369C18.6444 3.65187 16.4487 2.76887 15.2012 4.06903L4.32982 15.3997Z"/>
</mask>
<path fill-rule="evenodd" clip-rule="evenodd" d="M4.32982 15.3997C3.58737 16.1735 3.58736 17.3952 4.32982 18.169L15.2012 29.4997C16.4487 30.7998 18.6444 29.9168 18.6444 28.115L18.6444 24.3148L29.5 24.3148C30.6046 24.3148 31.5 23.4194 31.5 22.3148L31.5 11.2539C31.5 10.1493 30.6046 9.25389 29.5 9.25389L18.6444 9.25389L18.6444 5.45369C18.6444 3.65187 16.4487 2.76887 15.2012 4.06903L4.32982 15.3997Z" fill="#FF5A80"/>
<path d="M4.32982 18.169L6.49456 16.092L6.49456 16.092L4.32982 18.169ZM4.32982 15.3997L6.49456 17.4767L6.49456 17.4767L4.32982 15.3997ZM15.2012 29.4997L13.0365 31.5767L13.0365 31.5767L15.2012 29.4997ZM18.6444 28.115L15.6444 28.115L18.6444 28.115ZM18.6444 24.3148L18.6444 21.3148L15.6444 21.3148L15.6444 24.3148L18.6444 24.3148ZM18.6444 9.25389L15.6444 9.25389L15.6444 12.2539L18.6444 12.2539L18.6444 9.25389ZM15.2012 4.06903L17.3659 6.14602L17.3659 6.14602L15.2012 4.06903ZM6.49456 16.092C6.86579 16.4789 6.86578 17.0898 6.49456 17.4767L2.16508 13.3227C0.308949 15.2572 0.30894 18.3114 2.16508 20.246L6.49456 16.092ZM17.3659 27.4227L6.49456 16.092L2.16508 20.246L13.0365 31.5767L17.3659 27.4227ZM15.6444 28.115C15.6444 27.2141 16.7422 26.7726 17.3659 27.4227L13.0365 31.5767C16.1551 34.8271 21.6444 32.6196 21.6444 28.115L15.6444 28.115ZM15.6444 24.3148L15.6444 28.115L21.6444 28.115L21.6444 24.3148L15.6444 24.3148ZM29.5 21.3148L18.6444 21.3148L18.6444 27.3148L29.5 27.3148L29.5 21.3148ZM28.5 22.3148C28.5 21.7625 28.9477 21.3148 29.5 21.3148L29.5 27.3148C32.2614 27.3148 34.5 25.0762 34.5 22.3148L28.5 22.3148ZM28.5 11.2539L28.5 22.3148L34.5 22.3148L34.5 11.2539L28.5 11.2539ZM29.5 12.2539C28.9477 12.2539 28.5 11.8062 28.5 11.2539L34.5 11.2539C34.5 8.49247 32.2614 6.25389 29.5 6.25389L29.5 12.2539ZM18.6444 12.2539L29.5 12.2539L29.5 6.25389L18.6444 6.25389L18.6444 12.2539ZM15.6444 5.45369L15.6444 9.25389L21.6444 9.25389L21.6444 5.45369L15.6444 5.45369ZM17.3659 6.14602C16.7422 6.79611 15.6444 6.3546 15.6444 5.45369L21.6444 5.45369C21.6444 0.949145 16.1551 -1.25837 13.0365 1.99204L17.3659 6.14602ZM6.49456 17.4767L17.3659 6.14602L13.0365 1.99203L2.16508 13.3227L6.49456 17.4767Z" fill="#3D2505" mask="url(#path-1-outside-1_164_1805)"/>
</svg>
