<svg width="33" height="35" viewBox="0 0 33 35" fill="none" xmlns="http://www.w3.org/2000/svg">
<mask id="path-1-outside-1_164_1805" maskUnits="userSpaceOnUse" x="-0.028932" y="0.920836" width="34" height="34" fill="black">
<rect fill="white" x="-0.028932" y="0.920836" width="34" height="34"/>
<path fill-rule="evenodd" clip-rule="evenodd" d="M15.2517 31.091C16.0255 31.8335 17.2472 31.8335 18.0211 31.091L29.3517 20.2196C30.6519 18.9722 29.7689 16.7765 27.967 16.7765L24.1669 16.7765L24.1669 5.92084C24.1669 4.81627 23.2714 3.92084 22.1669 3.92084L11.1059 3.92084C10.0014 3.92084 9.10594 4.81627 9.10594 5.92084L9.10594 16.7765L5.30574 16.7765C3.50392 16.7765 2.62092 18.9722 3.92108 20.2196L15.2517 31.091Z"/>
</mask>
<path fill-rule="evenodd" clip-rule="evenodd" d="M15.2517 31.091C16.0255 31.8335 17.2472 31.8335 18.0211 31.091L29.3517 20.2196C30.6519 18.9722 29.7689 16.7765 27.967 16.7765L24.1669 16.7765L24.1669 5.92084C24.1669 4.81627 23.2714 3.92084 22.1669 3.92084L11.1059 3.92084C10.0014 3.92084 9.10594 4.81627 9.10594 5.92084L9.10594 16.7765L5.30574 16.7765C3.50392 16.7765 2.62092 18.9722 3.92108 20.2196L15.2517 31.091Z" fill="#FF5A80"/>
<path d="M18.0211 31.091L15.9441 28.9263L15.9441 28.9263L18.0211 31.091ZM15.2517 31.091L17.3287 28.9263L17.3287 28.9263L15.2517 31.091ZM29.3517 20.2196L31.4287 22.3844L31.4287 22.3844L29.3517 20.2196ZM27.967 16.7765L27.967 19.7765L27.967 16.7765ZM24.1669 16.7765L21.1669 16.7765L21.1669 19.7765L24.1669 19.7765L24.1669 16.7765ZM9.10594 16.7765L9.10594 19.7765L12.1059 19.7765L12.1059 16.7765L9.10594 16.7765ZM3.92108 20.2196L5.99807 18.0549L5.99807 18.0549L3.92108 20.2196ZM15.9441 28.9263C16.331 28.555 16.9418 28.5551 17.3287 28.9263L13.1747 33.2558C15.1093 35.1119 18.1635 35.1119 20.098 33.2558L15.9441 28.9263ZM27.2747 18.0549L15.9441 28.9263L20.098 33.2558L31.4287 22.3844L27.2747 18.0549ZM27.967 19.7765C27.0661 19.7765 26.6246 18.6786 27.2747 18.0549L31.4287 22.3844C34.6791 19.2657 32.4716 13.7765 27.967 13.7765L27.967 19.7765ZM24.1669 19.7765L27.967 19.7765L27.967 13.7765L24.1669 13.7765L24.1669 19.7765ZM21.1669 5.92084L21.1669 16.7765L27.1669 16.7765L27.1669 5.92084L21.1669 5.92084ZM22.1669 6.92084C21.6146 6.92084 21.1669 6.47312 21.1669 5.92084L27.1669 5.92084C27.1669 3.15942 24.9283 0.920837 22.1669 0.920837L22.1669 6.92084ZM11.1059 6.92084L22.1669 6.92084L22.1669 0.920837L11.1059 0.920837L11.1059 6.92084ZM12.1059 5.92084C12.1059 6.47312 11.6582 6.92084 11.1059 6.92084L11.1059 0.920837C8.34452 0.920836 6.10594 3.15941 6.10594 5.92084L12.1059 5.92084ZM12.1059 16.7765L12.1059 5.92084L6.10594 5.92084L6.10594 16.7765L12.1059 16.7765ZM5.30574 19.7765L9.10594 19.7765L9.10594 13.7765L5.30574 13.7765L5.30574 19.7765ZM5.99807 18.0549C6.64816 18.6786 6.20664 19.7765 5.30574 19.7765L5.30574 13.7765C0.801194 13.7765 -1.40632 19.2657 1.84408 22.3844L5.99807 18.0549ZM17.3287 28.9263L5.99807 18.0549L1.84408 22.3844L13.1747 33.2558L17.3287 28.9263Z" fill="#3D2505" mask="url(#path-1-outside-1_164_1805)"/>
</svg>
