<svg width="400" height="800" viewBox="0 0 400 800" fill="none" xmlns="http://www.w3.org/2000/svg">
<g clip-path="url(#clip0_157_14390)">
<rect width="400" height="800" fill="white"/>
<g opacity="0.6">
<rect width="100" height="100" fill="#F2E1CB"/>
<path d="M38.5014 43.6684C41.4968 37.6559 47.4184 40.6602 50.0063 42.3848C51.8954 40.8909 56.001 38.1963 60.1274 41.8282C66.5877 47.5141 54.6277 59.9861 50.0063 59.9861C44.8918 59.9861 35.7641 49.1627 38.5014 43.6684Z" fill="#E1CEB5" stroke="#E1CEB5" stroke-width="3"/>
<rect x="100" width="100" height="100" fill="#FBECD8"/>
<path fill-rule="evenodd" clip-rule="evenodd" d="M142.136 43.9545H142.039C142.739 41.6101 144.89 37.0599 147.799 36.6668C149.422 36.4475 150.16 37.4373 150.446 38.8153C151.567 37.4588 152.771 36.4441 153.814 36.4441C156.841 36.4441 157.25 40.2443 157.526 42.8018L157.526 42.8019C157.572 43.2285 157.614 43.6205 157.664 43.9546H157.651C161.119 45.3096 164.115 48.0557 163.997 53.5354C163.826 61.4613 156.492 63.5558 149.913 63.5558C143.335 63.5558 136 60.404 136 53.5354C136 48.053 138.797 45.3083 142.136 43.9545Z" fill="white"/>
<path d="M142.039 43.9545L140.122 43.3822C139.941 43.9875 140.057 44.6427 140.435 45.1493C140.812 45.656 141.407 45.9545 142.039 45.9545V43.9545ZM142.136 43.9545L142.887 45.8079C143.774 45.4484 144.282 44.5109 144.099 43.5717C143.916 42.6324 143.093 41.9545 142.136 41.9545V43.9545ZM147.799 36.6668L148.067 38.6488L148.067 38.6488L147.799 36.6668ZM150.446 38.8153L148.488 39.2219C148.644 39.975 149.219 40.5717 149.965 40.7567C150.712 40.9416 151.498 40.682 151.988 40.089L150.446 38.8153ZM157.526 42.8018L159.516 42.6076C159.516 42.6009 159.515 42.5942 159.514 42.5876L157.526 42.8018ZM157.526 42.8019L155.535 42.9961C155.536 43.0028 155.537 43.0094 155.537 43.0161L157.526 42.8019ZM157.664 43.9546V45.9546C158.246 45.9546 158.8 45.7009 159.18 45.2598C159.56 44.8187 159.728 44.234 159.642 43.6583L157.664 43.9546ZM157.651 43.9546V41.9546C156.69 41.9546 155.864 42.6391 155.686 43.5842C155.508 44.5293 156.028 45.4674 156.923 45.8174L157.651 43.9546ZM163.997 53.5354L161.997 53.4923L163.997 53.5354ZM136 53.5354L134 53.5354L136 53.5354ZM142.039 45.9545H142.136V41.9545H142.039V45.9545ZM147.531 34.6849C145.172 35.0036 143.479 36.8944 142.428 38.4676C141.308 40.1434 140.518 42.0568 140.122 43.3822L143.955 44.5268C144.259 43.5079 144.895 41.9739 145.753 40.6903C146.68 39.3041 147.517 38.7231 148.067 38.6488L147.531 34.6849ZM152.404 38.4088C152.221 37.5242 151.839 36.4681 150.983 35.6752C150.045 34.8058 148.823 34.5102 147.531 34.6849L148.067 38.6488C148.161 38.6361 148.226 38.6352 148.267 38.6372C148.288 38.6382 148.302 38.6399 148.311 38.6413C148.32 38.6427 148.324 38.6439 148.324 38.6439C148.324 38.6439 148.321 38.643 148.315 38.6408C148.31 38.6386 148.303 38.6355 148.296 38.6314C148.281 38.6227 148.27 38.6139 148.264 38.6089C148.254 38.5996 148.285 38.6242 148.334 38.7272C148.384 38.8324 148.44 38.9929 148.488 39.2219L152.404 38.4088ZM151.988 40.089C152.492 39.4788 152.957 39.0191 153.349 38.7282C153.775 38.4128 153.915 38.4441 153.814 38.4441V34.4441C152.669 34.4441 151.686 34.9828 150.969 35.5138C150.219 36.0694 149.521 36.7953 148.904 37.5417L151.988 40.089ZM153.814 38.4441C154.11 38.4441 154.242 38.522 154.34 38.6048C154.478 38.7214 154.663 38.9601 154.848 39.4159C155.239 40.3775 155.392 41.6705 155.537 43.0161L159.514 42.5876C159.384 41.3757 159.195 39.4898 158.555 37.9119C158.225 37.0979 157.723 36.2267 156.924 35.5509C156.085 34.8412 155.031 34.4441 153.814 34.4441V38.4441ZM155.535 42.996L155.535 42.9961L159.516 42.6077L159.516 42.6076L155.535 42.996ZM155.537 43.0161C155.582 43.4304 155.629 43.8674 155.686 44.2509L159.642 43.6583C159.599 43.3736 159.562 43.0266 159.514 42.5876L155.537 43.0161ZM157.664 41.9546H157.651V45.9546H157.664V41.9546ZM156.923 45.8174C158.422 46.4031 159.691 47.2401 160.575 48.4062C161.439 49.5466 162.048 51.1488 161.997 53.4923L165.996 53.5785C166.064 50.4423 165.234 47.9317 163.763 45.9903C162.311 44.0746 160.348 42.8611 158.379 42.0918L156.923 45.8174ZM161.997 53.4923C161.928 56.6983 160.483 58.5838 158.373 59.777C156.127 61.0476 153.047 61.5558 149.913 61.5558V65.5558C153.358 65.5558 157.234 65.0168 160.343 63.2586C163.587 61.4231 165.894 58.2983 165.996 53.5785L161.997 53.4923ZM149.913 61.5558C146.9 61.5558 143.81 60.8268 141.543 59.4215C139.335 58.0525 138 56.1267 138 53.5354L134 53.5354C134 57.8127 136.332 60.8972 139.436 62.8212C142.481 64.709 146.348 65.5558 149.913 65.5558V61.5558ZM138 53.5354C138 51.1505 138.602 49.5204 139.435 48.3704C140.279 47.2061 141.471 46.3823 142.887 45.8079L141.384 42.101C139.462 42.8805 137.586 44.106 136.196 46.0231C134.797 47.9544 134 50.4379 134 53.5354L138 53.5354Z" fill="#E1CEB5"/>
<path d="M150.392 39.3689V45.4956" stroke="#E1CEB5" stroke-width="4" stroke-linecap="round" stroke-linejoin="round"/>
<rect x="200" width="100" height="100" fill="#F2E1CB"/>
<path d="M238.501 43.6684C241.497 37.6559 247.418 40.6602 250.006 42.3848C251.895 40.8909 256.001 38.1963 260.127 41.8282C266.588 47.5141 254.628 59.9861 250.006 59.9861C244.892 59.9861 235.764 49.1627 238.501 43.6684Z" fill="#E1CEB5" stroke="#E1CEB5" stroke-width="3"/>
<rect x="300" width="100" height="100" fill="#FBECD8"/>
<path fill-rule="evenodd" clip-rule="evenodd" d="M342.136 43.9545H342.039C342.739 41.6101 344.89 37.0599 347.799 36.6668C349.422 36.4475 350.16 37.4373 350.446 38.8153C351.567 37.4588 352.771 36.4441 353.814 36.4441C356.841 36.4441 357.25 40.2443 357.526 42.8018L357.526 42.8019C357.572 43.2285 357.614 43.6205 357.664 43.9546H357.651C361.119 45.3096 364.115 48.0557 363.997 53.5354C363.826 61.4613 356.492 63.5558 349.913 63.5558C343.335 63.5558 336 60.404 336 53.5354C336 48.053 338.797 45.3083 342.136 43.9545Z" fill="white"/>
<path d="M342.039 43.9545L340.122 43.3822C339.941 43.9875 340.057 44.6427 340.435 45.1493C340.812 45.656 341.407 45.9545 342.039 45.9545V43.9545ZM342.136 43.9545L342.887 45.8079C343.774 45.4484 344.282 44.5109 344.099 43.5717C343.916 42.6324 343.093 41.9545 342.136 41.9545V43.9545ZM347.799 36.6668L348.067 38.6488L348.067 38.6488L347.799 36.6668ZM350.446 38.8153L348.488 39.2219C348.644 39.975 349.219 40.5717 349.965 40.7567C350.712 40.9416 351.498 40.682 351.988 40.089L350.446 38.8153ZM357.526 42.8018L359.516 42.6076C359.516 42.6009 359.515 42.5942 359.514 42.5876L357.526 42.8018ZM357.526 42.8019L355.535 42.9961C355.536 43.0028 355.537 43.0094 355.537 43.0161L357.526 42.8019ZM357.664 43.9546V45.9546C358.246 45.9546 358.8 45.7009 359.18 45.2598C359.56 44.8187 359.728 44.234 359.642 43.6583L357.664 43.9546ZM357.651 43.9546V41.9546C356.69 41.9546 355.864 42.6391 355.686 43.5842C355.508 44.5293 356.028 45.4674 356.923 45.8174L357.651 43.9546ZM363.997 53.5354L361.997 53.4923L363.997 53.5354ZM336 53.5354L334 53.5354L336 53.5354ZM342.039 45.9545H342.136V41.9545H342.039V45.9545ZM347.531 34.6849C345.172 35.0036 343.479 36.8944 342.428 38.4676C341.308 40.1434 340.518 42.0568 340.122 43.3822L343.955 44.5268C344.259 43.5079 344.895 41.9739 345.753 40.6903C346.68 39.3041 347.517 38.7231 348.067 38.6488L347.531 34.6849ZM352.404 38.4088C352.221 37.5242 351.839 36.4681 350.983 35.6752C350.045 34.8058 348.823 34.5102 347.531 34.6849L348.067 38.6488C348.161 38.6361 348.226 38.6352 348.267 38.6372C348.288 38.6382 348.302 38.6399 348.311 38.6413C348.32 38.6427 348.324 38.6439 348.324 38.6439C348.324 38.6439 348.321 38.643 348.315 38.6408C348.31 38.6386 348.303 38.6355 348.296 38.6314C348.281 38.6227 348.27 38.6139 348.264 38.6089C348.254 38.5996 348.285 38.6242 348.334 38.7272C348.384 38.8324 348.44 38.9929 348.488 39.2219L352.404 38.4088ZM351.988 40.089C352.492 39.4788 352.957 39.0191 353.349 38.7282C353.775 38.4128 353.915 38.4441 353.814 38.4441V34.4441C352.669 34.4441 351.686 34.9828 350.969 35.5138C350.219 36.0694 349.521 36.7953 348.904 37.5417L351.988 40.089ZM353.814 38.4441C354.11 38.4441 354.242 38.522 354.34 38.6048C354.478 38.7214 354.663 38.9601 354.848 39.4159C355.239 40.3775 355.392 41.6705 355.537 43.0161L359.514 42.5876C359.384 41.3757 359.195 39.4898 358.555 37.9119C358.225 37.0979 357.723 36.2267 356.924 35.5509C356.085 34.8412 355.031 34.4441 353.814 34.4441V38.4441ZM355.535 42.996L355.535 42.9961L359.516 42.6077L359.516 42.6076L355.535 42.996ZM355.537 43.0161C355.582 43.4304 355.629 43.8674 355.686 44.2509L359.642 43.6583C359.599 43.3736 359.562 43.0266 359.514 42.5876L355.537 43.0161ZM357.664 41.9546H357.651V45.9546H357.664V41.9546ZM356.923 45.8174C358.422 46.4031 359.691 47.2401 360.575 48.4062C361.439 49.5466 362.048 51.1488 361.997 53.4923L365.996 53.5785C366.064 50.4423 365.234 47.9317 363.763 45.9903C362.311 44.0746 360.348 42.8611 358.379 42.0918L356.923 45.8174ZM361.997 53.4923C361.928 56.6983 360.483 58.5838 358.373 59.777C356.127 61.0476 353.047 61.5558 349.913 61.5558V65.5558C353.358 65.5558 357.234 65.0168 360.343 63.2586C363.587 61.4231 365.894 58.2983 365.996 53.5785L361.997 53.4923ZM349.913 61.5558C346.9 61.5558 343.81 60.8268 341.543 59.4215C339.335 58.0525 338 56.1267 338 53.5354L334 53.5354C334 57.8127 336.332 60.8972 339.436 62.8212C342.481 64.709 346.348 65.5558 349.913 65.5558V61.5558ZM338 53.5354C338 51.1505 338.602 49.5204 339.435 48.3704C340.279 47.2061 341.471 46.3823 342.887 45.8079L341.384 42.101C339.462 42.8805 337.586 44.106 336.196 46.0231C334.797 47.9544 334 50.4379 334 53.5354L338 53.5354Z" fill="#E1CEB5"/>
<path d="M350.392 39.3689V45.4956" stroke="#E1CEB5" stroke-width="4" stroke-linecap="round" stroke-linejoin="round"/>
<rect y="100" width="100" height="100" fill="#FBECD8"/>
<path fill-rule="evenodd" clip-rule="evenodd" d="M42.1359 143.954H42.0386C42.7387 141.61 44.8903 137.06 47.7987 136.667C49.4216 136.447 50.1601 137.437 50.4462 138.815C51.5666 137.459 52.7709 136.444 53.8135 136.444C56.8409 136.444 57.2504 140.244 57.5259 142.802L57.5259 142.802C57.5719 143.228 57.6142 143.621 57.6642 143.955H57.6512C61.1187 145.31 64.1147 148.056 63.9966 153.535C63.8258 161.461 56.4918 163.556 49.9133 163.556C43.3347 163.556 36 160.404 36 153.535C36 148.053 38.7968 145.308 42.1359 143.954Z" fill="white"/>
<path d="M42.0386 143.954L40.1222 143.382C39.9414 143.988 40.0573 144.643 40.4347 145.149C40.8122 145.656 41.4068 145.954 42.0386 145.954V143.954ZM42.1359 143.954L42.8874 145.808C43.7743 145.448 44.2821 144.511 44.099 143.572C43.9158 142.632 43.0929 141.954 42.1359 141.954V143.954ZM47.7987 136.667L48.0666 138.649L48.0666 138.649L47.7987 136.667ZM50.4462 138.815L48.4879 139.222C48.6443 139.975 49.2187 140.572 49.9653 140.757C50.7119 140.942 51.4984 140.682 51.9882 140.089L50.4462 138.815ZM57.5259 142.802L59.5165 142.608C59.5158 142.601 59.5152 142.594 59.5144 142.588L57.5259 142.802ZM57.5259 142.802L55.5354 142.996C55.5361 143.003 55.5367 143.009 55.5375 143.016L57.5259 142.802ZM57.6642 143.955V145.955C58.2464 145.955 58.7996 145.701 59.1796 145.26C59.5595 144.819 59.7284 144.234 59.6421 143.658L57.6642 143.955ZM57.6512 143.955V141.955C56.6895 141.955 55.8639 142.639 55.6858 143.584C55.5077 144.529 56.0275 145.467 56.9233 145.817L57.6512 143.955ZM63.9966 153.535L61.9971 153.492L63.9966 153.535ZM36 153.535L34 153.535L36 153.535ZM42.0386 145.954H42.1359V141.954H42.0386V145.954ZM47.5308 134.685C45.1723 135.004 43.4792 136.894 42.4277 138.468C41.3077 140.143 40.518 142.057 40.1222 143.382L43.955 144.527C44.2592 143.508 44.8954 141.974 45.7533 140.69C46.6798 139.304 47.5167 138.723 48.0666 138.649L47.5308 134.685ZM52.4044 138.409C52.2208 137.524 51.8388 136.468 50.9833 135.675C50.0453 134.806 48.8228 134.51 47.5308 134.685L48.0666 138.649C48.1609 138.636 48.2264 138.635 48.2672 138.637C48.2876 138.638 48.3019 138.64 48.3108 138.641C48.3197 138.643 48.3238 138.644 48.3238 138.644C48.3238 138.644 48.3208 138.643 48.3153 138.641C48.3099 138.639 48.3033 138.635 48.296 138.631C48.2806 138.623 48.2695 138.614 48.2642 138.609C48.2542 138.6 48.2852 138.624 48.3343 138.727C48.3843 138.832 48.4404 138.993 48.4879 139.222L52.4044 138.409ZM51.9882 140.089C52.4922 139.479 52.9566 139.019 53.3494 138.728C53.7753 138.413 53.9155 138.444 53.8135 138.444V134.444C52.6689 134.444 51.6857 134.983 50.9687 135.514C50.2186 136.069 49.5206 136.795 48.9042 137.542L51.9882 140.089ZM53.8135 138.444C54.11 138.444 54.2425 138.522 54.3404 138.605C54.4783 138.721 54.6635 138.96 54.8484 139.416C55.2386 140.377 55.3925 141.67 55.5375 143.016L59.5144 142.588C59.3839 141.376 59.1952 139.49 58.5549 137.912C58.2246 137.098 57.7226 136.227 56.9237 135.551C56.0847 134.841 55.0308 134.444 53.8135 134.444V138.444ZM55.5354 142.996L55.5354 142.996L59.5165 142.608L59.5165 142.608L55.5354 142.996ZM55.5375 143.016C55.5821 143.43 55.6288 143.867 55.6863 144.251L59.6421 143.658C59.5995 143.374 59.5617 143.027 59.5144 142.588L55.5375 143.016ZM57.6642 141.955H57.6512V145.955H57.6642V141.955ZM56.9233 145.817C58.4221 146.403 59.6909 147.24 60.5745 148.406C61.4387 149.547 62.0476 151.149 61.9971 153.492L65.9962 153.578C66.0637 150.442 65.2337 147.932 63.7625 145.99C62.3108 144.075 60.3479 142.861 58.3792 142.092L56.9233 145.817ZM61.9971 153.492C61.928 156.698 60.4826 158.584 58.3732 159.777C56.127 161.048 53.0474 161.556 49.9133 161.556V165.556C53.3577 165.556 57.2344 165.017 60.3426 163.259C63.5874 161.423 65.8944 158.298 65.9962 153.578L61.9971 153.492ZM49.9133 161.556C46.9004 161.556 43.8103 160.827 41.5434 159.421C39.3351 158.052 38 156.127 38 153.535L34 153.535C34 157.813 36.3322 160.897 39.4359 162.821C42.481 164.709 46.3475 165.556 49.9133 165.556V161.556ZM38 153.535C38 151.15 38.6017 149.52 39.4352 148.37C40.279 147.206 41.4709 146.382 42.8874 145.808L41.3845 142.101C39.4619 142.881 37.5858 144.106 36.1964 146.023C34.7967 147.954 34 150.438 34 153.535L38 153.535Z" fill="#E1CEB5"/>
<path d="M50.3922 139.369V145.496" stroke="#E1CEB5" stroke-width="4" stroke-linecap="round" stroke-linejoin="round"/>
<rect x="100" y="100" width="100" height="100" fill="#F2E1CB"/>
<path d="M138.501 143.668C141.497 137.656 147.418 140.66 150.006 142.385C151.895 140.891 156.001 138.196 160.127 141.828C166.588 147.514 154.628 159.986 150.006 159.986C144.892 159.986 135.764 149.163 138.501 143.668Z" fill="#E1CEB5" stroke="#E1CEB5" stroke-width="3"/>
<rect x="200" y="100" width="100" height="100" fill="#FBECD8"/>
<path fill-rule="evenodd" clip-rule="evenodd" d="M242.136 143.954H242.039C242.739 141.61 244.89 137.06 247.799 136.667C249.422 136.447 250.16 137.437 250.446 138.815C251.567 137.459 252.771 136.444 253.814 136.444C256.841 136.444 257.25 140.244 257.526 142.802L257.526 142.802C257.572 143.228 257.614 143.621 257.664 143.955H257.651C261.119 145.31 264.115 148.056 263.997 153.535C263.826 161.461 256.492 163.556 249.913 163.556C243.335 163.556 236 160.404 236 153.535C236 148.053 238.797 145.308 242.136 143.954Z" fill="white"/>
<path d="M242.039 143.954L240.122 143.382C239.941 143.988 240.057 144.643 240.435 145.149C240.812 145.656 241.407 145.954 242.039 145.954V143.954ZM242.136 143.954L242.887 145.808C243.774 145.448 244.282 144.511 244.099 143.572C243.916 142.632 243.093 141.954 242.136 141.954V143.954ZM247.799 136.667L248.067 138.649L248.067 138.649L247.799 136.667ZM250.446 138.815L248.488 139.222C248.644 139.975 249.219 140.572 249.965 140.757C250.712 140.942 251.498 140.682 251.988 140.089L250.446 138.815ZM257.526 142.802L259.516 142.608C259.516 142.601 259.515 142.594 259.514 142.588L257.526 142.802ZM257.526 142.802L255.535 142.996C255.536 143.003 255.537 143.009 255.537 143.016L257.526 142.802ZM257.664 143.955V145.955C258.246 145.955 258.8 145.701 259.18 145.26C259.56 144.819 259.728 144.234 259.642 143.658L257.664 143.955ZM257.651 143.955V141.955C256.69 141.955 255.864 142.639 255.686 143.584C255.508 144.529 256.028 145.467 256.923 145.817L257.651 143.955ZM263.997 153.535L261.997 153.492L263.997 153.535ZM236 153.535L234 153.535L236 153.535ZM242.039 145.954H242.136V141.954H242.039V145.954ZM247.531 134.685C245.172 135.004 243.479 136.894 242.428 138.468C241.308 140.143 240.518 142.057 240.122 143.382L243.955 144.527C244.259 143.508 244.895 141.974 245.753 140.69C246.68 139.304 247.517 138.723 248.067 138.649L247.531 134.685ZM252.404 138.409C252.221 137.524 251.839 136.468 250.983 135.675C250.045 134.806 248.823 134.51 247.531 134.685L248.067 138.649C248.161 138.636 248.226 138.635 248.267 138.637C248.288 138.638 248.302 138.64 248.311 138.641C248.32 138.643 248.324 138.644 248.324 138.644C248.324 138.644 248.321 138.643 248.315 138.641C248.31 138.639 248.303 138.635 248.296 138.631C248.281 138.623 248.27 138.614 248.264 138.609C248.254 138.6 248.285 138.624 248.334 138.727C248.384 138.832 248.44 138.993 248.488 139.222L252.404 138.409ZM251.988 140.089C252.492 139.479 252.957 139.019 253.349 138.728C253.775 138.413 253.915 138.444 253.814 138.444V134.444C252.669 134.444 251.686 134.983 250.969 135.514C250.219 136.069 249.521 136.795 248.904 137.542L251.988 140.089ZM253.814 138.444C254.11 138.444 254.242 138.522 254.34 138.605C254.478 138.721 254.663 138.96 254.848 139.416C255.239 140.377 255.392 141.67 255.537 143.016L259.514 142.588C259.384 141.376 259.195 139.49 258.555 137.912C258.225 137.098 257.723 136.227 256.924 135.551C256.085 134.841 255.031 134.444 253.814 134.444V138.444ZM255.535 142.996L255.535 142.996L259.516 142.608L259.516 142.608L255.535 142.996ZM255.537 143.016C255.582 143.43 255.629 143.867 255.686 144.251L259.642 143.658C259.599 143.374 259.562 143.027 259.514 142.588L255.537 143.016ZM257.664 141.955H257.651V145.955H257.664V141.955ZM256.923 145.817C258.422 146.403 259.691 147.24 260.575 148.406C261.439 149.547 262.048 151.149 261.997 153.492L265.996 153.578C266.064 150.442 265.234 147.932 263.763 145.99C262.311 144.075 260.348 142.861 258.379 142.092L256.923 145.817ZM261.997 153.492C261.928 156.698 260.483 158.584 258.373 159.777C256.127 161.048 253.047 161.556 249.913 161.556V165.556C253.358 165.556 257.234 165.017 260.343 163.259C263.587 161.423 265.894 158.298 265.996 153.578L261.997 153.492ZM249.913 161.556C246.9 161.556 243.81 160.827 241.543 159.421C239.335 158.052 238 156.127 238 153.535L234 153.535C234 157.813 236.332 160.897 239.436 162.821C242.481 164.709 246.348 165.556 249.913 165.556V161.556ZM238 153.535C238 151.15 238.602 149.52 239.435 148.37C240.279 147.206 241.471 146.382 242.887 145.808L241.384 142.101C239.462 142.881 237.586 144.106 236.196 146.023C234.797 147.954 234 150.438 234 153.535L238 153.535Z" fill="#E1CEB5"/>
<path d="M250.392 139.369V145.496" stroke="#E1CEB5" stroke-width="4" stroke-linecap="round" stroke-linejoin="round"/>
<rect x="300" y="100" width="100" height="100" fill="#F2E1CB"/>
<path d="M338.501 143.668C341.497 137.656 347.418 140.66 350.006 142.385C351.895 140.891 356.001 138.196 360.127 141.828C366.588 147.514 354.628 159.986 350.006 159.986C344.892 159.986 335.764 149.163 338.501 143.668Z" fill="#E1CEB5" stroke="#E1CEB5" stroke-width="3"/>
<rect y="200" width="100" height="100" fill="#F2E1CB"/>
<path d="M38.5014 243.668C41.4968 237.656 47.4184 240.66 50.0063 242.385C51.8954 240.891 56.001 238.196 60.1274 241.828C66.5877 247.514 54.6277 259.986 50.0063 259.986C44.8918 259.986 35.7641 249.163 38.5014 243.668Z" fill="#E1CEB5" stroke="#E1CEB5" stroke-width="3"/>
<rect x="100" y="200" width="100" height="100" fill="#FBECD8"/>
<path fill-rule="evenodd" clip-rule="evenodd" d="M142.136 243.954H142.039C142.739 241.61 144.89 237.06 147.799 236.667C149.422 236.447 150.16 237.437 150.446 238.815C151.567 237.459 152.771 236.444 153.814 236.444C156.841 236.444 157.25 240.244 157.526 242.802L157.526 242.802C157.572 243.228 157.614 243.621 157.664 243.955H157.651C161.119 245.31 164.115 248.056 163.997 253.535C163.826 261.461 156.492 263.556 149.913 263.556C143.335 263.556 136 260.404 136 253.535C136 248.053 138.797 245.308 142.136 243.954Z" fill="white"/>
<path d="M142.039 243.954L140.122 243.382C139.941 243.988 140.057 244.643 140.435 245.149C140.812 245.656 141.407 245.954 142.039 245.954V243.954ZM142.136 243.954L142.887 245.808C143.774 245.448 144.282 244.511 144.099 243.572C143.916 242.632 143.093 241.954 142.136 241.954V243.954ZM147.799 236.667L148.067 238.649L148.067 238.649L147.799 236.667ZM150.446 238.815L148.488 239.222C148.644 239.975 149.219 240.572 149.965 240.757C150.712 240.942 151.498 240.682 151.988 240.089L150.446 238.815ZM157.526 242.802L159.516 242.608C159.516 242.601 159.515 242.594 159.514 242.588L157.526 242.802ZM157.526 242.802L155.535 242.996C155.536 243.003 155.537 243.009 155.537 243.016L157.526 242.802ZM157.664 243.955V245.955C158.246 245.955 158.8 245.701 159.18 245.26C159.56 244.819 159.728 244.234 159.642 243.658L157.664 243.955ZM157.651 243.955V241.955C156.69 241.955 155.864 242.639 155.686 243.584C155.508 244.529 156.028 245.467 156.923 245.817L157.651 243.955ZM163.997 253.535L161.997 253.492L163.997 253.535ZM136 253.535L134 253.535L136 253.535ZM142.039 245.954H142.136V241.954H142.039V245.954ZM147.531 234.685C145.172 235.004 143.479 236.894 142.428 238.468C141.308 240.143 140.518 242.057 140.122 243.382L143.955 244.527C144.259 243.508 144.895 241.974 145.753 240.69C146.68 239.304 147.517 238.723 148.067 238.649L147.531 234.685ZM152.404 238.409C152.221 237.524 151.839 236.468 150.983 235.675C150.045 234.806 148.823 234.51 147.531 234.685L148.067 238.649C148.161 238.636 148.226 238.635 148.267 238.637C148.288 238.638 148.302 238.64 148.311 238.641C148.32 238.643 148.324 238.644 148.324 238.644C148.324 238.644 148.321 238.643 148.315 238.641C148.31 238.639 148.303 238.635 148.296 238.631C148.281 238.623 148.27 238.614 148.264 238.609C148.254 238.6 148.285 238.624 148.334 238.727C148.384 238.832 148.44 238.993 148.488 239.222L152.404 238.409ZM151.988 240.089C152.492 239.479 152.957 239.019 153.349 238.728C153.775 238.413 153.915 238.444 153.814 238.444V234.444C152.669 234.444 151.686 234.983 150.969 235.514C150.219 236.069 149.521 236.795 148.904 237.542L151.988 240.089ZM153.814 238.444C154.11 238.444 154.242 238.522 154.34 238.605C154.478 238.721 154.663 238.96 154.848 239.416C155.239 240.377 155.392 241.67 155.537 243.016L159.514 242.588C159.384 241.376 159.195 239.49 158.555 237.912C158.225 237.098 157.723 236.227 156.924 235.551C156.085 234.841 155.031 234.444 153.814 234.444V238.444ZM155.535 242.996L155.535 242.996L159.516 242.608L159.516 242.608L155.535 242.996ZM155.537 243.016C155.582 243.43 155.629 243.867 155.686 244.251L159.642 243.658C159.599 243.374 159.562 243.027 159.514 242.588L155.537 243.016ZM157.664 241.955H157.651V245.955H157.664V241.955ZM156.923 245.817C158.422 246.403 159.691 247.24 160.575 248.406C161.439 249.547 162.048 251.149 161.997 253.492L165.996 253.578C166.064 250.442 165.234 247.932 163.763 245.99C162.311 244.075 160.348 242.861 158.379 242.092L156.923 245.817ZM161.997 253.492C161.928 256.698 160.483 258.584 158.373 259.777C156.127 261.048 153.047 261.556 149.913 261.556V265.556C153.358 265.556 157.234 265.017 160.343 263.259C163.587 261.423 165.894 258.298 165.996 253.578L161.997 253.492ZM149.913 261.556C146.9 261.556 143.81 260.827 141.543 259.421C139.335 258.052 138 256.127 138 253.535L134 253.535C134 257.813 136.332 260.897 139.436 262.821C142.481 264.709 146.348 265.556 149.913 265.556V261.556ZM138 253.535C138 251.15 138.602 249.52 139.435 248.37C140.279 247.206 141.471 246.382 142.887 245.808L141.384 242.101C139.462 242.881 137.586 244.106 136.196 246.023C134.797 247.954 134 250.438 134 253.535L138 253.535Z" fill="#E1CEB5"/>
<path d="M150.392 239.369V245.496" stroke="#E1CEB5" stroke-width="4" stroke-linecap="round" stroke-linejoin="round"/>
<rect x="200" y="200" width="100" height="100" fill="#F2E1CB"/>
<path d="M238.501 243.668C241.497 237.656 247.418 240.66 250.006 242.385C251.895 240.891 256.001 238.196 260.127 241.828C266.588 247.514 254.628 259.986 250.006 259.986C244.892 259.986 235.764 249.163 238.501 243.668Z" fill="#E1CEB5" stroke="#E1CEB5" stroke-width="3"/>
<rect x="300" y="200" width="100" height="100" fill="#FBECD8"/>
<path fill-rule="evenodd" clip-rule="evenodd" d="M342.136 243.954H342.039C342.739 241.61 344.89 237.06 347.799 236.667C349.422 236.447 350.16 237.437 350.446 238.815C351.567 237.459 352.771 236.444 353.814 236.444C356.841 236.444 357.25 240.244 357.526 242.802L357.526 242.802C357.572 243.228 357.614 243.621 357.664 243.955H357.651C361.119 245.31 364.115 248.056 363.997 253.535C363.826 261.461 356.492 263.556 349.913 263.556C343.335 263.556 336 260.404 336 253.535C336 248.053 338.797 245.308 342.136 243.954Z" fill="white"/>
<path d="M342.039 243.954L340.122 243.382C339.941 243.988 340.057 244.643 340.435 245.149C340.812 245.656 341.407 245.954 342.039 245.954V243.954ZM342.136 243.954L342.887 245.808C343.774 245.448 344.282 244.511 344.099 243.572C343.916 242.632 343.093 241.954 342.136 241.954V243.954ZM347.799 236.667L348.067 238.649L348.067 238.649L347.799 236.667ZM350.446 238.815L348.488 239.222C348.644 239.975 349.219 240.572 349.965 240.757C350.712 240.942 351.498 240.682 351.988 240.089L350.446 238.815ZM357.526 242.802L359.516 242.608C359.516 242.601 359.515 242.594 359.514 242.588L357.526 242.802ZM357.526 242.802L355.535 242.996C355.536 243.003 355.537 243.009 355.537 243.016L357.526 242.802ZM357.664 243.955V245.955C358.246 245.955 358.8 245.701 359.18 245.26C359.56 244.819 359.728 244.234 359.642 243.658L357.664 243.955ZM357.651 243.955V241.955C356.69 241.955 355.864 242.639 355.686 243.584C355.508 244.529 356.028 245.467 356.923 245.817L357.651 243.955ZM363.997 253.535L361.997 253.492L363.997 253.535ZM336 253.535L334 253.535L336 253.535ZM342.039 245.954H342.136V241.954H342.039V245.954ZM347.531 234.685C345.172 235.004 343.479 236.894 342.428 238.468C341.308 240.143 340.518 242.057 340.122 243.382L343.955 244.527C344.259 243.508 344.895 241.974 345.753 240.69C346.68 239.304 347.517 238.723 348.067 238.649L347.531 234.685ZM352.404 238.409C352.221 237.524 351.839 236.468 350.983 235.675C350.045 234.806 348.823 234.51 347.531 234.685L348.067 238.649C348.161 238.636 348.226 238.635 348.267 238.637C348.288 238.638 348.302 238.64 348.311 238.641C348.32 238.643 348.324 238.644 348.324 238.644C348.324 238.644 348.321 238.643 348.315 238.641C348.31 238.639 348.303 238.635 348.296 238.631C348.281 238.623 348.27 238.614 348.264 238.609C348.254 238.6 348.285 238.624 348.334 238.727C348.384 238.832 348.44 238.993 348.488 239.222L352.404 238.409ZM351.988 240.089C352.492 239.479 352.957 239.019 353.349 238.728C353.775 238.413 353.915 238.444 353.814 238.444V234.444C352.669 234.444 351.686 234.983 350.969 235.514C350.219 236.069 349.521 236.795 348.904 237.542L351.988 240.089ZM353.814 238.444C354.11 238.444 354.242 238.522 354.34 238.605C354.478 238.721 354.663 238.96 354.848 239.416C355.239 240.377 355.392 241.67 355.537 243.016L359.514 242.588C359.384 241.376 359.195 239.49 358.555 237.912C358.225 237.098 357.723 236.227 356.924 235.551C356.085 234.841 355.031 234.444 353.814 234.444V238.444ZM355.535 242.996L355.535 242.996L359.516 242.608L359.516 242.608L355.535 242.996ZM355.537 243.016C355.582 243.43 355.629 243.867 355.686 244.251L359.642 243.658C359.599 243.374 359.562 243.027 359.514 242.588L355.537 243.016ZM357.664 241.955H357.651V245.955H357.664V241.955ZM356.923 245.817C358.422 246.403 359.691 247.24 360.575 248.406C361.439 249.547 362.048 251.149 361.997 253.492L365.996 253.578C366.064 250.442 365.234 247.932 363.763 245.99C362.311 244.075 360.348 242.861 358.379 242.092L356.923 245.817ZM361.997 253.492C361.928 256.698 360.483 258.584 358.373 259.777C356.127 261.048 353.047 261.556 349.913 261.556V265.556C353.358 265.556 357.234 265.017 360.343 263.259C363.587 261.423 365.894 258.298 365.996 253.578L361.997 253.492ZM349.913 261.556C346.9 261.556 343.81 260.827 341.543 259.421C339.335 258.052 338 256.127 338 253.535L334 253.535C334 257.813 336.332 260.897 339.436 262.821C342.481 264.709 346.348 265.556 349.913 265.556V261.556ZM338 253.535C338 251.15 338.602 249.52 339.435 248.37C340.279 247.206 341.471 246.382 342.887 245.808L341.384 242.101C339.462 242.881 337.586 244.106 336.196 246.023C334.797 247.954 334 250.438 334 253.535L338 253.535Z" fill="#E1CEB5"/>
<path d="M350.392 239.369V245.496" stroke="#E1CEB5" stroke-width="4" stroke-linecap="round" stroke-linejoin="round"/>
<rect y="300" width="100" height="100" fill="#FBECD8"/>
<path fill-rule="evenodd" clip-rule="evenodd" d="M42.1359 343.954H42.0386C42.7387 341.61 44.8903 337.06 47.7987 336.667C49.4216 336.447 50.1601 337.437 50.4462 338.815C51.5666 337.459 52.7709 336.444 53.8135 336.444C56.8409 336.444 57.2504 340.244 57.5259 342.802L57.5259 342.802C57.5719 343.228 57.6142 343.621 57.6642 343.955H57.6512C61.1187 345.31 64.1147 348.056 63.9966 353.535C63.8258 361.461 56.4918 363.556 49.9133 363.556C43.3347 363.556 36 360.404 36 353.535C36 348.053 38.7968 345.308 42.1359 343.954Z" fill="white"/>
<path d="M42.0386 343.954L40.1222 343.382C39.9414 343.988 40.0573 344.643 40.4347 345.149C40.8122 345.656 41.4068 345.954 42.0386 345.954V343.954ZM42.1359 343.954L42.8874 345.808C43.7743 345.448 44.2821 344.511 44.099 343.572C43.9158 342.632 43.0929 341.954 42.1359 341.954V343.954ZM47.7987 336.667L48.0666 338.649L48.0666 338.649L47.7987 336.667ZM50.4462 338.815L48.4879 339.222C48.6443 339.975 49.2187 340.572 49.9653 340.757C50.7119 340.942 51.4984 340.682 51.9882 340.089L50.4462 338.815ZM57.5259 342.802L59.5165 342.608C59.5158 342.601 59.5152 342.594 59.5144 342.588L57.5259 342.802ZM57.5259 342.802L55.5354 342.996C55.5361 343.003 55.5367 343.009 55.5375 343.016L57.5259 342.802ZM57.6642 343.955V345.955C58.2464 345.955 58.7996 345.701 59.1796 345.26C59.5595 344.819 59.7284 344.234 59.6421 343.658L57.6642 343.955ZM57.6512 343.955V341.955C56.6895 341.955 55.8639 342.639 55.6858 343.584C55.5077 344.529 56.0275 345.467 56.9233 345.817L57.6512 343.955ZM63.9966 353.535L61.9971 353.492L63.9966 353.535ZM36 353.535L34 353.535L36 353.535ZM42.0386 345.954H42.1359V341.954H42.0386V345.954ZM47.5308 334.685C45.1723 335.004 43.4792 336.894 42.4277 338.468C41.3077 340.143 40.518 342.057 40.1222 343.382L43.955 344.527C44.2592 343.508 44.8954 341.974 45.7533 340.69C46.6798 339.304 47.5167 338.723 48.0666 338.649L47.5308 334.685ZM52.4044 338.409C52.2208 337.524 51.8388 336.468 50.9833 335.675C50.0453 334.806 48.8228 334.51 47.5308 334.685L48.0666 338.649C48.1609 338.636 48.2264 338.635 48.2672 338.637C48.2876 338.638 48.3019 338.64 48.3108 338.641C48.3197 338.643 48.3238 338.644 48.3238 338.644C48.3238 338.644 48.3208 338.643 48.3153 338.641C48.3099 338.639 48.3033 338.635 48.296 338.631C48.2806 338.623 48.2695 338.614 48.2642 338.609C48.2542 338.6 48.2852 338.624 48.3343 338.727C48.3843 338.832 48.4404 338.993 48.4879 339.222L52.4044 338.409ZM51.9882 340.089C52.4922 339.479 52.9566 339.019 53.3494 338.728C53.7753 338.413 53.9155 338.444 53.8135 338.444V334.444C52.6689 334.444 51.6857 334.983 50.9687 335.514C50.2186 336.069 49.5206 336.795 48.9042 337.542L51.9882 340.089ZM53.8135 338.444C54.11 338.444 54.2425 338.522 54.3404 338.605C54.4783 338.721 54.6635 338.96 54.8484 339.416C55.2386 340.377 55.3925 341.67 55.5375 343.016L59.5144 342.588C59.3839 341.376 59.1952 339.49 58.5549 337.912C58.2246 337.098 57.7226 336.227 56.9237 335.551C56.0847 334.841 55.0308 334.444 53.8135 334.444V338.444ZM55.5354 342.996L55.5354 342.996L59.5165 342.608L59.5165 342.608L55.5354 342.996ZM55.5375 343.016C55.5821 343.43 55.6288 343.867 55.6863 344.251L59.6421 343.658C59.5995 343.374 59.5617 343.027 59.5144 342.588L55.5375 343.016ZM57.6642 341.955H57.6512V345.955H57.6642V341.955ZM56.9233 345.817C58.4221 346.403 59.6909 347.24 60.5745 348.406C61.4387 349.547 62.0476 351.149 61.9971 353.492L65.9962 353.578C66.0637 350.442 65.2337 347.932 63.7625 345.99C62.3108 344.075 60.3479 342.861 58.3792 342.092L56.9233 345.817ZM61.9971 353.492C61.928 356.698 60.4826 358.584 58.3732 359.777C56.127 361.048 53.0474 361.556 49.9133 361.556V365.556C53.3577 365.556 57.2344 365.017 60.3426 363.259C63.5874 361.423 65.8944 358.298 65.9962 353.578L61.9971 353.492ZM49.9133 361.556C46.9004 361.556 43.8103 360.827 41.5434 359.421C39.3351 358.052 38 356.127 38 353.535L34 353.535C34 357.813 36.3322 360.897 39.4359 362.821C42.481 364.709 46.3475 365.556 49.9133 365.556V361.556ZM38 353.535C38 351.15 38.6017 349.52 39.4352 348.37C40.279 347.206 41.4709 346.382 42.8874 345.808L41.3845 342.101C39.4619 342.881 37.5858 344.106 36.1964 346.023C34.7967 347.954 34 350.438 34 353.535L38 353.535Z" fill="#E1CEB5"/>
<path d="M50.3922 339.369V345.496" stroke="#E1CEB5" stroke-width="4" stroke-linecap="round" stroke-linejoin="round"/>
<rect x="100" y="300" width="100" height="100" fill="#F2E1CB"/>
<path d="M138.501 343.668C141.497 337.656 147.418 340.66 150.006 342.385C151.895 340.891 156.001 338.196 160.127 341.828C166.588 347.514 154.628 359.986 150.006 359.986C144.892 359.986 135.764 349.163 138.501 343.668Z" fill="#E1CEB5" stroke="#E1CEB5" stroke-width="3"/>
<rect x="200" y="300" width="100" height="100" fill="#FBECD8"/>
<path fill-rule="evenodd" clip-rule="evenodd" d="M242.136 343.954H242.039C242.739 341.61 244.89 337.06 247.799 336.667C249.422 336.447 250.16 337.437 250.446 338.815C251.567 337.459 252.771 336.444 253.814 336.444C256.841 336.444 257.25 340.244 257.526 342.802L257.526 342.802C257.572 343.228 257.614 343.621 257.664 343.955H257.651C261.119 345.31 264.115 348.056 263.997 353.535C263.826 361.461 256.492 363.556 249.913 363.556C243.335 363.556 236 360.404 236 353.535C236 348.053 238.797 345.308 242.136 343.954Z" fill="white"/>
<path d="M242.039 343.954L240.122 343.382C239.941 343.988 240.057 344.643 240.435 345.149C240.812 345.656 241.407 345.954 242.039 345.954V343.954ZM242.136 343.954L242.887 345.808C243.774 345.448 244.282 344.511 244.099 343.572C243.916 342.632 243.093 341.954 242.136 341.954V343.954ZM247.799 336.667L248.067 338.649L248.067 338.649L247.799 336.667ZM250.446 338.815L248.488 339.222C248.644 339.975 249.219 340.572 249.965 340.757C250.712 340.942 251.498 340.682 251.988 340.089L250.446 338.815ZM257.526 342.802L259.516 342.608C259.516 342.601 259.515 342.594 259.514 342.588L257.526 342.802ZM257.526 342.802L255.535 342.996C255.536 343.003 255.537 343.009 255.537 343.016L257.526 342.802ZM257.664 343.955V345.955C258.246 345.955 258.8 345.701 259.18 345.26C259.56 344.819 259.728 344.234 259.642 343.658L257.664 343.955ZM257.651 343.955V341.955C256.69 341.955 255.864 342.639 255.686 343.584C255.508 344.529 256.028 345.467 256.923 345.817L257.651 343.955ZM263.997 353.535L261.997 353.492L263.997 353.535ZM236 353.535L234 353.535L236 353.535ZM242.039 345.954H242.136V341.954H242.039V345.954ZM247.531 334.685C245.172 335.004 243.479 336.894 242.428 338.468C241.308 340.143 240.518 342.057 240.122 343.382L243.955 344.527C244.259 343.508 244.895 341.974 245.753 340.69C246.68 339.304 247.517 338.723 248.067 338.649L247.531 334.685ZM252.404 338.409C252.221 337.524 251.839 336.468 250.983 335.675C250.045 334.806 248.823 334.51 247.531 334.685L248.067 338.649C248.161 338.636 248.226 338.635 248.267 338.637C248.288 338.638 248.302 338.64 248.311 338.641C248.32 338.643 248.324 338.644 248.324 338.644C248.324 338.644 248.321 338.643 248.315 338.641C248.31 338.639 248.303 338.635 248.296 338.631C248.281 338.623 248.27 338.614 248.264 338.609C248.254 338.6 248.285 338.624 248.334 338.727C248.384 338.832 248.44 338.993 248.488 339.222L252.404 338.409ZM251.988 340.089C252.492 339.479 252.957 339.019 253.349 338.728C253.775 338.413 253.915 338.444 253.814 338.444V334.444C252.669 334.444 251.686 334.983 250.969 335.514C250.219 336.069 249.521 336.795 248.904 337.542L251.988 340.089ZM253.814 338.444C254.11 338.444 254.242 338.522 254.34 338.605C254.478 338.721 254.663 338.96 254.848 339.416C255.239 340.377 255.392 341.67 255.537 343.016L259.514 342.588C259.384 341.376 259.195 339.49 258.555 337.912C258.225 337.098 257.723 336.227 256.924 335.551C256.085 334.841 255.031 334.444 253.814 334.444V338.444ZM255.535 342.996L255.535 342.996L259.516 342.608L259.516 342.608L255.535 342.996ZM255.537 343.016C255.582 343.43 255.629 343.867 255.686 344.251L259.642 343.658C259.599 343.374 259.562 343.027 259.514 342.588L255.537 343.016ZM257.664 341.955H257.651V345.955H257.664V341.955ZM256.923 345.817C258.422 346.403 259.691 347.24 260.575 348.406C261.439 349.547 262.048 351.149 261.997 353.492L265.996 353.578C266.064 350.442 265.234 347.932 263.763 345.99C262.311 344.075 260.348 342.861 258.379 342.092L256.923 345.817ZM261.997 353.492C261.928 356.698 260.483 358.584 258.373 359.777C256.127 361.048 253.047 361.556 249.913 361.556V365.556C253.358 365.556 257.234 365.017 260.343 363.259C263.587 361.423 265.894 358.298 265.996 353.578L261.997 353.492ZM249.913 361.556C246.9 361.556 243.81 360.827 241.543 359.421C239.335 358.052 238 356.127 238 353.535L234 353.535C234 357.813 236.332 360.897 239.436 362.821C242.481 364.709 246.348 365.556 249.913 365.556V361.556ZM238 353.535C238 351.15 238.602 349.52 239.435 348.37C240.279 347.206 241.471 346.382 242.887 345.808L241.384 342.101C239.462 342.881 237.586 344.106 236.196 346.023C234.797 347.954 234 350.438 234 353.535L238 353.535Z" fill="#E1CEB5"/>
<path d="M250.392 339.369V345.496" stroke="#E1CEB5" stroke-width="4" stroke-linecap="round" stroke-linejoin="round"/>
<rect x="300" y="300" width="100" height="100" fill="#F2E1CB"/>
<path d="M338.501 343.668C341.497 337.656 347.418 340.66 350.006 342.385C351.895 340.891 356.001 338.196 360.127 341.828C366.588 347.514 354.628 359.986 350.006 359.986C344.892 359.986 335.764 349.163 338.501 343.668Z" fill="#E1CEB5" stroke="#E1CEB5" stroke-width="3"/>
<rect y="400" width="100" height="100" fill="#F2E1CB"/>
<path d="M38.5014 443.668C41.4968 437.656 47.4184 440.66 50.0063 442.385C51.8954 440.891 56.001 438.196 60.1274 441.828C66.5877 447.514 54.6277 459.986 50.0063 459.986C44.8918 459.986 35.7641 449.163 38.5014 443.668Z" fill="#E1CEB5" stroke="#E1CEB5" stroke-width="3"/>
<rect x="100" y="400" width="100" height="100" fill="#FBECD8"/>
<path fill-rule="evenodd" clip-rule="evenodd" d="M142.136 443.954H142.039C142.739 441.61 144.89 437.06 147.799 436.667C149.422 436.447 150.16 437.437 150.446 438.815C151.567 437.459 152.771 436.444 153.814 436.444C156.841 436.444 157.25 440.244 157.526 442.802L157.526 442.802C157.572 443.228 157.614 443.621 157.664 443.955H157.651C161.119 445.31 164.115 448.056 163.997 453.535C163.826 461.461 156.492 463.556 149.913 463.556C143.335 463.556 136 460.404 136 453.535C136 448.053 138.797 445.308 142.136 443.954Z" fill="white"/>
<path d="M142.039 443.954L140.122 443.382C139.941 443.988 140.057 444.643 140.435 445.149C140.812 445.656 141.407 445.954 142.039 445.954V443.954ZM142.136 443.954L142.887 445.808C143.774 445.448 144.282 444.511 144.099 443.572C143.916 442.632 143.093 441.954 142.136 441.954V443.954ZM147.799 436.667L148.067 438.649L148.067 438.649L147.799 436.667ZM150.446 438.815L148.488 439.222C148.644 439.975 149.219 440.572 149.965 440.757C150.712 440.942 151.498 440.682 151.988 440.089L150.446 438.815ZM157.526 442.802L159.516 442.608C159.516 442.601 159.515 442.594 159.514 442.588L157.526 442.802ZM157.526 442.802L155.535 442.996C155.536 443.003 155.537 443.009 155.537 443.016L157.526 442.802ZM157.664 443.955V445.955C158.246 445.955 158.8 445.701 159.18 445.26C159.56 444.819 159.728 444.234 159.642 443.658L157.664 443.955ZM157.651 443.955V441.955C156.69 441.955 155.864 442.639 155.686 443.584C155.508 444.529 156.028 445.467 156.923 445.817L157.651 443.955ZM163.997 453.535L161.997 453.492L163.997 453.535ZM136 453.535L134 453.535L136 453.535ZM142.039 445.954H142.136V441.954H142.039V445.954ZM147.531 434.685C145.172 435.004 143.479 436.894 142.428 438.468C141.308 440.143 140.518 442.057 140.122 443.382L143.955 444.527C144.259 443.508 144.895 441.974 145.753 440.69C146.68 439.304 147.517 438.723 148.067 438.649L147.531 434.685ZM152.404 438.409C152.221 437.524 151.839 436.468 150.983 435.675C150.045 434.806 148.823 434.51 147.531 434.685L148.067 438.649C148.161 438.636 148.226 438.635 148.267 438.637C148.288 438.638 148.302 438.64 148.311 438.641C148.32 438.643 148.324 438.644 148.324 438.644C148.324 438.644 148.321 438.643 148.315 438.641C148.31 438.639 148.303 438.635 148.296 438.631C148.281 438.623 148.27 438.614 148.264 438.609C148.254 438.6 148.285 438.624 148.334 438.727C148.384 438.832 148.44 438.993 148.488 439.222L152.404 438.409ZM151.988 440.089C152.492 439.479 152.957 439.019 153.349 438.728C153.775 438.413 153.915 438.444 153.814 438.444V434.444C152.669 434.444 151.686 434.983 150.969 435.514C150.219 436.069 149.521 436.795 148.904 437.542L151.988 440.089ZM153.814 438.444C154.11 438.444 154.242 438.522 154.34 438.605C154.478 438.721 154.663 438.96 154.848 439.416C155.239 440.377 155.392 441.67 155.537 443.016L159.514 442.588C159.384 441.376 159.195 439.49 158.555 437.912C158.225 437.098 157.723 436.227 156.924 435.551C156.085 434.841 155.031 434.444 153.814 434.444V438.444ZM155.535 442.996L155.535 442.996L159.516 442.608L159.516 442.608L155.535 442.996ZM155.537 443.016C155.582 443.43 155.629 443.867 155.686 444.251L159.642 443.658C159.599 443.374 159.562 443.027 159.514 442.588L155.537 443.016ZM157.664 441.955H157.651V445.955H157.664V441.955ZM156.923 445.817C158.422 446.403 159.691 447.24 160.575 448.406C161.439 449.547 162.048 451.149 161.997 453.492L165.996 453.578C166.064 450.442 165.234 447.932 163.763 445.99C162.311 444.075 160.348 442.861 158.379 442.092L156.923 445.817ZM161.997 453.492C161.928 456.698 160.483 458.584 158.373 459.777C156.127 461.048 153.047 461.556 149.913 461.556V465.556C153.358 465.556 157.234 465.017 160.343 463.259C163.587 461.423 165.894 458.298 165.996 453.578L161.997 453.492ZM149.913 461.556C146.9 461.556 143.81 460.827 141.543 459.421C139.335 458.052 138 456.127 138 453.535L134 453.535C134 457.813 136.332 460.897 139.436 462.821C142.481 464.709 146.348 465.556 149.913 465.556V461.556ZM138 453.535C138 451.15 138.602 449.52 139.435 448.37C140.279 447.206 141.471 446.382 142.887 445.808L141.384 442.101C139.462 442.881 137.586 444.106 136.196 446.023C134.797 447.954 134 450.438 134 453.535L138 453.535Z" fill="#E1CEB5"/>
<path d="M150.392 439.369V445.496" stroke="#E1CEB5" stroke-width="4" stroke-linecap="round" stroke-linejoin="round"/>
<rect x="200" y="400" width="100" height="100" fill="#F2E1CB"/>
<path d="M238.501 443.668C241.497 437.656 247.418 440.66 250.006 442.385C251.895 440.891 256.001 438.196 260.127 441.828C266.588 447.514 254.628 459.986 250.006 459.986C244.892 459.986 235.764 449.163 238.501 443.668Z" fill="#E1CEB5" stroke="#E1CEB5" stroke-width="3"/>
<rect x="300" y="400" width="100" height="100" fill="#FBECD8"/>
<path fill-rule="evenodd" clip-rule="evenodd" d="M342.136 443.954H342.039C342.739 441.61 344.89 437.06 347.799 436.667C349.422 436.447 350.16 437.437 350.446 438.815C351.567 437.459 352.771 436.444 353.814 436.444C356.841 436.444 357.25 440.244 357.526 442.802L357.526 442.802C357.572 443.228 357.614 443.621 357.664 443.955H357.651C361.119 445.31 364.115 448.056 363.997 453.535C363.826 461.461 356.492 463.556 349.913 463.556C343.335 463.556 336 460.404 336 453.535C336 448.053 338.797 445.308 342.136 443.954Z" fill="white"/>
<path d="M342.039 443.954L340.122 443.382C339.941 443.988 340.057 444.643 340.435 445.149C340.812 445.656 341.407 445.954 342.039 445.954V443.954ZM342.136 443.954L342.887 445.808C343.774 445.448 344.282 444.511 344.099 443.572C343.916 442.632 343.093 441.954 342.136 441.954V443.954ZM347.799 436.667L348.067 438.649L348.067 438.649L347.799 436.667ZM350.446 438.815L348.488 439.222C348.644 439.975 349.219 440.572 349.965 440.757C350.712 440.942 351.498 440.682 351.988 440.089L350.446 438.815ZM357.526 442.802L359.516 442.608C359.516 442.601 359.515 442.594 359.514 442.588L357.526 442.802ZM357.526 442.802L355.535 442.996C355.536 443.003 355.537 443.009 355.537 443.016L357.526 442.802ZM357.664 443.955V445.955C358.246 445.955 358.8 445.701 359.18 445.26C359.56 444.819 359.728 444.234 359.642 443.658L357.664 443.955ZM357.651 443.955V441.955C356.69 441.955 355.864 442.639 355.686 443.584C355.508 444.529 356.028 445.467 356.923 445.817L357.651 443.955ZM363.997 453.535L361.997 453.492L363.997 453.535ZM336 453.535L334 453.535L336 453.535ZM342.039 445.954H342.136V441.954H342.039V445.954ZM347.531 434.685C345.172 435.004 343.479 436.894 342.428 438.468C341.308 440.143 340.518 442.057 340.122 443.382L343.955 444.527C344.259 443.508 344.895 441.974 345.753 440.69C346.68 439.304 347.517 438.723 348.067 438.649L347.531 434.685ZM352.404 438.409C352.221 437.524 351.839 436.468 350.983 435.675C350.045 434.806 348.823 434.51 347.531 434.685L348.067 438.649C348.161 438.636 348.226 438.635 348.267 438.637C348.288 438.638 348.302 438.64 348.311 438.641C348.32 438.643 348.324 438.644 348.324 438.644C348.324 438.644 348.321 438.643 348.315 438.641C348.31 438.639 348.303 438.635 348.296 438.631C348.281 438.623 348.27 438.614 348.264 438.609C348.254 438.6 348.285 438.624 348.334 438.727C348.384 438.832 348.44 438.993 348.488 439.222L352.404 438.409ZM351.988 440.089C352.492 439.479 352.957 439.019 353.349 438.728C353.775 438.413 353.915 438.444 353.814 438.444V434.444C352.669 434.444 351.686 434.983 350.969 435.514C350.219 436.069 349.521 436.795 348.904 437.542L351.988 440.089ZM353.814 438.444C354.11 438.444 354.242 438.522 354.34 438.605C354.478 438.721 354.663 438.96 354.848 439.416C355.239 440.377 355.392 441.67 355.537 443.016L359.514 442.588C359.384 441.376 359.195 439.49 358.555 437.912C358.225 437.098 357.723 436.227 356.924 435.551C356.085 434.841 355.031 434.444 353.814 434.444V438.444ZM355.535 442.996L355.535 442.996L359.516 442.608L359.516 442.608L355.535 442.996ZM355.537 443.016C355.582 443.43 355.629 443.867 355.686 444.251L359.642 443.658C359.599 443.374 359.562 443.027 359.514 442.588L355.537 443.016ZM357.664 441.955H357.651V445.955H357.664V441.955ZM356.923 445.817C358.422 446.403 359.691 447.24 360.575 448.406C361.439 449.547 362.048 451.149 361.997 453.492L365.996 453.578C366.064 450.442 365.234 447.932 363.763 445.99C362.311 444.075 360.348 442.861 358.379 442.092L356.923 445.817ZM361.997 453.492C361.928 456.698 360.483 458.584 358.373 459.777C356.127 461.048 353.047 461.556 349.913 461.556V465.556C353.358 465.556 357.234 465.017 360.343 463.259C363.587 461.423 365.894 458.298 365.996 453.578L361.997 453.492ZM349.913 461.556C346.9 461.556 343.81 460.827 341.543 459.421C339.335 458.052 338 456.127 338 453.535L334 453.535C334 457.813 336.332 460.897 339.436 462.821C342.481 464.709 346.348 465.556 349.913 465.556V461.556ZM338 453.535C338 451.15 338.602 449.52 339.435 448.37C340.279 447.206 341.471 446.382 342.887 445.808L341.384 442.101C339.462 442.881 337.586 444.106 336.196 446.023C334.797 447.954 334 450.438 334 453.535L338 453.535Z" fill="#E1CEB5"/>
<path d="M350.392 439.369V445.496" stroke="#E1CEB5" stroke-width="4" stroke-linecap="round" stroke-linejoin="round"/>
<rect y="500" width="100" height="100" fill="#FBECD8"/>
<path fill-rule="evenodd" clip-rule="evenodd" d="M42.1359 543.954H42.0386C42.7387 541.61 44.8903 537.06 47.7987 536.667C49.4216 536.447 50.1601 537.437 50.4462 538.815C51.5666 537.459 52.7709 536.444 53.8135 536.444C56.8409 536.444 57.2504 540.244 57.5259 542.802L57.5259 542.802C57.5719 543.228 57.6142 543.621 57.6642 543.955H57.6512C61.1187 545.31 64.1147 548.056 63.9966 553.535C63.8258 561.461 56.4918 563.556 49.9133 563.556C43.3347 563.556 36 560.404 36 553.535C36 548.053 38.7968 545.308 42.1359 543.954Z" fill="white"/>
<path d="M42.0386 543.954L40.1222 543.382C39.9414 543.988 40.0573 544.643 40.4347 545.149C40.8122 545.656 41.4068 545.954 42.0386 545.954V543.954ZM42.1359 543.954L42.8874 545.808C43.7743 545.448 44.2821 544.511 44.099 543.572C43.9158 542.632 43.0929 541.954 42.1359 541.954V543.954ZM47.7987 536.667L48.0666 538.649L48.0666 538.649L47.7987 536.667ZM50.4462 538.815L48.4879 539.222C48.6443 539.975 49.2187 540.572 49.9653 540.757C50.7119 540.942 51.4984 540.682 51.9882 540.089L50.4462 538.815ZM57.5259 542.802L59.5165 542.608C59.5158 542.601 59.5152 542.594 59.5144 542.588L57.5259 542.802ZM57.5259 542.802L55.5354 542.996C55.5361 543.003 55.5367 543.009 55.5375 543.016L57.5259 542.802ZM57.6642 543.955V545.955C58.2464 545.955 58.7996 545.701 59.1796 545.26C59.5595 544.819 59.7284 544.234 59.6421 543.658L57.6642 543.955ZM57.6512 543.955V541.955C56.6895 541.955 55.8639 542.639 55.6858 543.584C55.5077 544.529 56.0275 545.467 56.9233 545.817L57.6512 543.955ZM63.9966 553.535L61.9971 553.492L63.9966 553.535ZM36 553.535L34 553.535L36 553.535ZM42.0386 545.954H42.1359V541.954H42.0386V545.954ZM47.5308 534.685C45.1723 535.004 43.4792 536.894 42.4277 538.468C41.3077 540.143 40.518 542.057 40.1222 543.382L43.955 544.527C44.2592 543.508 44.8954 541.974 45.7533 540.69C46.6798 539.304 47.5167 538.723 48.0666 538.649L47.5308 534.685ZM52.4044 538.409C52.2208 537.524 51.8388 536.468 50.9833 535.675C50.0453 534.806 48.8228 534.51 47.5308 534.685L48.0666 538.649C48.1609 538.636 48.2264 538.635 48.2672 538.637C48.2876 538.638 48.3019 538.64 48.3108 538.641C48.3197 538.643 48.3238 538.644 48.3238 538.644C48.3238 538.644 48.3208 538.643 48.3153 538.641C48.3099 538.639 48.3033 538.635 48.296 538.631C48.2806 538.623 48.2695 538.614 48.2642 538.609C48.2542 538.6 48.2852 538.624 48.3343 538.727C48.3843 538.832 48.4404 538.993 48.4879 539.222L52.4044 538.409ZM51.9882 540.089C52.4922 539.479 52.9566 539.019 53.3494 538.728C53.7753 538.413 53.9155 538.444 53.8135 538.444V534.444C52.6689 534.444 51.6857 534.983 50.9687 535.514C50.2186 536.069 49.5206 536.795 48.9042 537.542L51.9882 540.089ZM53.8135 538.444C54.11 538.444 54.2425 538.522 54.3404 538.605C54.4783 538.721 54.6635 538.96 54.8484 539.416C55.2386 540.377 55.3925 541.67 55.5375 543.016L59.5144 542.588C59.3839 541.376 59.1952 539.49 58.5549 537.912C58.2246 537.098 57.7226 536.227 56.9237 535.551C56.0847 534.841 55.0308 534.444 53.8135 534.444V538.444ZM55.5354 542.996L55.5354 542.996L59.5165 542.608L59.5165 542.608L55.5354 542.996ZM55.5375 543.016C55.5821 543.43 55.6288 543.867 55.6863 544.251L59.6421 543.658C59.5995 543.374 59.5617 543.027 59.5144 542.588L55.5375 543.016ZM57.6642 541.955H57.6512V545.955H57.6642V541.955ZM56.9233 545.817C58.4221 546.403 59.6909 547.24 60.5745 548.406C61.4387 549.547 62.0476 551.149 61.9971 553.492L65.9962 553.578C66.0637 550.442 65.2337 547.932 63.7625 545.99C62.3108 544.075 60.3479 542.861 58.3792 542.092L56.9233 545.817ZM61.9971 553.492C61.928 556.698 60.4826 558.584 58.3732 559.777C56.127 561.048 53.0474 561.556 49.9133 561.556V565.556C53.3577 565.556 57.2344 565.017 60.3426 563.259C63.5874 561.423 65.8944 558.298 65.9962 553.578L61.9971 553.492ZM49.9133 561.556C46.9004 561.556 43.8103 560.827 41.5434 559.421C39.3351 558.052 38 556.127 38 553.535L34 553.535C34 557.813 36.3322 560.897 39.4359 562.821C42.481 564.709 46.3475 565.556 49.9133 565.556V561.556ZM38 553.535C38 551.15 38.6017 549.52 39.4352 548.37C40.279 547.206 41.4709 546.382 42.8874 545.808L41.3845 542.101C39.4619 542.881 37.5858 544.106 36.1964 546.023C34.7967 547.954 34 550.438 34 553.535L38 553.535Z" fill="#E1CEB5"/>
<path d="M50.3922 539.369V545.496" stroke="#E1CEB5" stroke-width="4" stroke-linecap="round" stroke-linejoin="round"/>
<rect x="100" y="500" width="100" height="100" fill="#F2E1CB"/>
<path d="M138.501 543.668C141.497 537.656 147.418 540.66 150.006 542.385C151.895 540.891 156.001 538.196 160.127 541.828C166.588 547.514 154.628 559.986 150.006 559.986C144.892 559.986 135.764 549.163 138.501 543.668Z" fill="#E1CEB5" stroke="#E1CEB5" stroke-width="3"/>
<rect x="200" y="500" width="100" height="100" fill="#FBECD8"/>
<path fill-rule="evenodd" clip-rule="evenodd" d="M242.136 543.954H242.039C242.739 541.61 244.89 537.06 247.799 536.667C249.422 536.447 250.16 537.437 250.446 538.815C251.567 537.459 252.771 536.444 253.814 536.444C256.841 536.444 257.25 540.244 257.526 542.802L257.526 542.802C257.572 543.228 257.614 543.621 257.664 543.955H257.651C261.119 545.31 264.115 548.056 263.997 553.535C263.826 561.461 256.492 563.556 249.913 563.556C243.335 563.556 236 560.404 236 553.535C236 548.053 238.797 545.308 242.136 543.954Z" fill="white"/>
<path d="M242.039 543.954L240.122 543.382C239.941 543.988 240.057 544.643 240.435 545.149C240.812 545.656 241.407 545.954 242.039 545.954V543.954ZM242.136 543.954L242.887 545.808C243.774 545.448 244.282 544.511 244.099 543.572C243.916 542.632 243.093 541.954 242.136 541.954V543.954ZM247.799 536.667L248.067 538.649L248.067 538.649L247.799 536.667ZM250.446 538.815L248.488 539.222C248.644 539.975 249.219 540.572 249.965 540.757C250.712 540.942 251.498 540.682 251.988 540.089L250.446 538.815ZM257.526 542.802L259.516 542.608C259.516 542.601 259.515 542.594 259.514 542.588L257.526 542.802ZM257.526 542.802L255.535 542.996C255.536 543.003 255.537 543.009 255.537 543.016L257.526 542.802ZM257.664 543.955V545.955C258.246 545.955 258.8 545.701 259.18 545.26C259.56 544.819 259.728 544.234 259.642 543.658L257.664 543.955ZM257.651 543.955V541.955C256.69 541.955 255.864 542.639 255.686 543.584C255.508 544.529 256.028 545.467 256.923 545.817L257.651 543.955ZM263.997 553.535L261.997 553.492L263.997 553.535ZM236 553.535L234 553.535L236 553.535ZM242.039 545.954H242.136V541.954H242.039V545.954ZM247.531 534.685C245.172 535.004 243.479 536.894 242.428 538.468C241.308 540.143 240.518 542.057 240.122 543.382L243.955 544.527C244.259 543.508 244.895 541.974 245.753 540.69C246.68 539.304 247.517 538.723 248.067 538.649L247.531 534.685ZM252.404 538.409C252.221 537.524 251.839 536.468 250.983 535.675C250.045 534.806 248.823 534.51 247.531 534.685L248.067 538.649C248.161 538.636 248.226 538.635 248.267 538.637C248.288 538.638 248.302 538.64 248.311 538.641C248.32 538.643 248.324 538.644 248.324 538.644C248.324 538.644 248.321 538.643 248.315 538.641C248.31 538.639 248.303 538.635 248.296 538.631C248.281 538.623 248.27 538.614 248.264 538.609C248.254 538.6 248.285 538.624 248.334 538.727C248.384 538.832 248.44 538.993 248.488 539.222L252.404 538.409ZM251.988 540.089C252.492 539.479 252.957 539.019 253.349 538.728C253.775 538.413 253.915 538.444 253.814 538.444V534.444C252.669 534.444 251.686 534.983 250.969 535.514C250.219 536.069 249.521 536.795 248.904 537.542L251.988 540.089ZM253.814 538.444C254.11 538.444 254.242 538.522 254.34 538.605C254.478 538.721 254.663 538.96 254.848 539.416C255.239 540.377 255.392 541.67 255.537 543.016L259.514 542.588C259.384 541.376 259.195 539.49 258.555 537.912C258.225 537.098 257.723 536.227 256.924 535.551C256.085 534.841 255.031 534.444 253.814 534.444V538.444ZM255.535 542.996L255.535 542.996L259.516 542.608L259.516 542.608L255.535 542.996ZM255.537 543.016C255.582 543.43 255.629 543.867 255.686 544.251L259.642 543.658C259.599 543.374 259.562 543.027 259.514 542.588L255.537 543.016ZM257.664 541.955H257.651V545.955H257.664V541.955ZM256.923 545.817C258.422 546.403 259.691 547.24 260.575 548.406C261.439 549.547 262.048 551.149 261.997 553.492L265.996 553.578C266.064 550.442 265.234 547.932 263.763 545.99C262.311 544.075 260.348 542.861 258.379 542.092L256.923 545.817ZM261.997 553.492C261.928 556.698 260.483 558.584 258.373 559.777C256.127 561.048 253.047 561.556 249.913 561.556V565.556C253.358 565.556 257.234 565.017 260.343 563.259C263.587 561.423 265.894 558.298 265.996 553.578L261.997 553.492ZM249.913 561.556C246.9 561.556 243.81 560.827 241.543 559.421C239.335 558.052 238 556.127 238 553.535L234 553.535C234 557.813 236.332 560.897 239.436 562.821C242.481 564.709 246.348 565.556 249.913 565.556V561.556ZM238 553.535C238 551.15 238.602 549.52 239.435 548.37C240.279 547.206 241.471 546.382 242.887 545.808L241.384 542.101C239.462 542.881 237.586 544.106 236.196 546.023C234.797 547.954 234 550.438 234 553.535L238 553.535Z" fill="#E1CEB5"/>
<path d="M250.392 539.369V545.496" stroke="#E1CEB5" stroke-width="4" stroke-linecap="round" stroke-linejoin="round"/>
<rect x="300" y="500" width="100" height="100" fill="#F2E1CB"/>
<path d="M338.501 543.668C341.497 537.656 347.418 540.66 350.006 542.385C351.895 540.891 356.001 538.196 360.127 541.828C366.588 547.514 354.628 559.986 350.006 559.986C344.892 559.986 335.764 549.163 338.501 543.668Z" fill="#E1CEB5" stroke="#E1CEB5" stroke-width="3"/>
<rect y="600" width="100" height="100" fill="#F2E1CB"/>
<path d="M38.5014 643.668C41.4968 637.656 47.4184 640.66 50.0063 642.385C51.8954 640.891 56.001 638.196 60.1274 641.828C66.5877 647.514 54.6277 659.986 50.0063 659.986C44.8918 659.986 35.7641 649.163 38.5014 643.668Z" fill="#E1CEB5" stroke="#E1CEB5" stroke-width="3"/>
<rect x="100" y="600" width="100" height="100" fill="#FBECD8"/>
<path fill-rule="evenodd" clip-rule="evenodd" d="M142.136 643.954H142.039C142.739 641.61 144.89 637.06 147.799 636.667C149.422 636.447 150.16 637.437 150.446 638.815C151.567 637.459 152.771 636.444 153.814 636.444C156.841 636.444 157.25 640.244 157.526 642.802L157.526 642.802C157.572 643.228 157.614 643.621 157.664 643.955H157.651C161.119 645.31 164.115 648.056 163.997 653.535C163.826 661.461 156.492 663.556 149.913 663.556C143.335 663.556 136 660.404 136 653.535C136 648.053 138.797 645.308 142.136 643.954Z" fill="white"/>
<path d="M142.039 643.954L140.122 643.382C139.941 643.988 140.057 644.643 140.435 645.149C140.812 645.656 141.407 645.954 142.039 645.954V643.954ZM142.136 643.954L142.887 645.808C143.774 645.448 144.282 644.511 144.099 643.572C143.916 642.632 143.093 641.954 142.136 641.954V643.954ZM147.799 636.667L148.067 638.649L148.067 638.649L147.799 636.667ZM150.446 638.815L148.488 639.222C148.644 639.975 149.219 640.572 149.965 640.757C150.712 640.942 151.498 640.682 151.988 640.089L150.446 638.815ZM157.526 642.802L159.516 642.608C159.516 642.601 159.515 642.594 159.514 642.588L157.526 642.802ZM157.526 642.802L155.535 642.996C155.536 643.003 155.537 643.009 155.537 643.016L157.526 642.802ZM157.664 643.955V645.955C158.246 645.955 158.8 645.701 159.18 645.26C159.56 644.819 159.728 644.234 159.642 643.658L157.664 643.955ZM157.651 643.955V641.955C156.69 641.955 155.864 642.639 155.686 643.584C155.508 644.529 156.028 645.467 156.923 645.817L157.651 643.955ZM163.997 653.535L161.997 653.492L163.997 653.535ZM136 653.535L134 653.535L136 653.535ZM142.039 645.954H142.136V641.954H142.039V645.954ZM147.531 634.685C145.172 635.004 143.479 636.894 142.428 638.468C141.308 640.143 140.518 642.057 140.122 643.382L143.955 644.527C144.259 643.508 144.895 641.974 145.753 640.69C146.68 639.304 147.517 638.723 148.067 638.649L147.531 634.685ZM152.404 638.409C152.221 637.524 151.839 636.468 150.983 635.675C150.045 634.806 148.823 634.51 147.531 634.685L148.067 638.649C148.161 638.636 148.226 638.635 148.267 638.637C148.288 638.638 148.302 638.64 148.311 638.641C148.32 638.643 148.324 638.644 148.324 638.644C148.324 638.644 148.321 638.643 148.315 638.641C148.31 638.639 148.303 638.635 148.296 638.631C148.281 638.623 148.27 638.614 148.264 638.609C148.254 638.6 148.285 638.624 148.334 638.727C148.384 638.832 148.44 638.993 148.488 639.222L152.404 638.409ZM151.988 640.089C152.492 639.479 152.957 639.019 153.349 638.728C153.775 638.413 153.915 638.444 153.814 638.444V634.444C152.669 634.444 151.686 634.983 150.969 635.514C150.219 636.069 149.521 636.795 148.904 637.542L151.988 640.089ZM153.814 638.444C154.11 638.444 154.242 638.522 154.34 638.605C154.478 638.721 154.663 638.96 154.848 639.416C155.239 640.377 155.392 641.67 155.537 643.016L159.514 642.588C159.384 641.376 159.195 639.49 158.555 637.912C158.225 637.098 157.723 636.227 156.924 635.551C156.085 634.841 155.031 634.444 153.814 634.444V638.444ZM155.535 642.996L155.535 642.996L159.516 642.608L159.516 642.608L155.535 642.996ZM155.537 643.016C155.582 643.43 155.629 643.867 155.686 644.251L159.642 643.658C159.599 643.374 159.562 643.027 159.514 642.588L155.537 643.016ZM157.664 641.955H157.651V645.955H157.664V641.955ZM156.923 645.817C158.422 646.403 159.691 647.24 160.575 648.406C161.439 649.547 162.048 651.149 161.997 653.492L165.996 653.578C166.064 650.442 165.234 647.932 163.763 645.99C162.311 644.075 160.348 642.861 158.379 642.092L156.923 645.817ZM161.997 653.492C161.928 656.698 160.483 658.584 158.373 659.777C156.127 661.048 153.047 661.556 149.913 661.556V665.556C153.358 665.556 157.234 665.017 160.343 663.259C163.587 661.423 165.894 658.298 165.996 653.578L161.997 653.492ZM149.913 661.556C146.9 661.556 143.81 660.827 141.543 659.421C139.335 658.052 138 656.127 138 653.535L134 653.535C134 657.813 136.332 660.897 139.436 662.821C142.481 664.709 146.348 665.556 149.913 665.556V661.556ZM138 653.535C138 651.15 138.602 649.52 139.435 648.37C140.279 647.206 141.471 646.382 142.887 645.808L141.384 642.101C139.462 642.881 137.586 644.106 136.196 646.023C134.797 647.954 134 650.438 134 653.535L138 653.535Z" fill="#E1CEB5"/>
<path d="M150.392 639.369V645.496" stroke="#E1CEB5" stroke-width="4" stroke-linecap="round" stroke-linejoin="round"/>
<rect x="200" y="600" width="100" height="100" fill="#F2E1CB"/>
<path d="M238.501 643.668C241.497 637.656 247.418 640.66 250.006 642.385C251.895 640.891 256.001 638.196 260.127 641.828C266.588 647.514 254.628 659.986 250.006 659.986C244.892 659.986 235.764 649.163 238.501 643.668Z" fill="#E1CEB5" stroke="#E1CEB5" stroke-width="3"/>
<rect x="300" y="600" width="100" height="100" fill="#FBECD8"/>
<path fill-rule="evenodd" clip-rule="evenodd" d="M342.136 643.954H342.039C342.739 641.61 344.89 637.06 347.799 636.667C349.422 636.447 350.16 637.437 350.446 638.815C351.567 637.459 352.771 636.444 353.814 636.444C356.841 636.444 357.25 640.244 357.526 642.802L357.526 642.802C357.572 643.228 357.614 643.621 357.664 643.955H357.651C361.119 645.31 364.115 648.056 363.997 653.535C363.826 661.461 356.492 663.556 349.913 663.556C343.335 663.556 336 660.404 336 653.535C336 648.053 338.797 645.308 342.136 643.954Z" fill="white"/>
<path d="M342.039 643.954L340.122 643.382C339.941 643.988 340.057 644.643 340.435 645.149C340.812 645.656 341.407 645.954 342.039 645.954V643.954ZM342.136 643.954L342.887 645.808C343.774 645.448 344.282 644.511 344.099 643.572C343.916 642.632 343.093 641.954 342.136 641.954V643.954ZM347.799 636.667L348.067 638.649L348.067 638.649L347.799 636.667ZM350.446 638.815L348.488 639.222C348.644 639.975 349.219 640.572 349.965 640.757C350.712 640.942 351.498 640.682 351.988 640.089L350.446 638.815ZM357.526 642.802L359.516 642.608C359.516 642.601 359.515 642.594 359.514 642.588L357.526 642.802ZM357.526 642.802L355.535 642.996C355.536 643.003 355.537 643.009 355.537 643.016L357.526 642.802ZM357.664 643.955V645.955C358.246 645.955 358.8 645.701 359.18 645.26C359.56 644.819 359.728 644.234 359.642 643.658L357.664 643.955ZM357.651 643.955V641.955C356.69 641.955 355.864 642.639 355.686 643.584C355.508 644.529 356.028 645.467 356.923 645.817L357.651 643.955ZM363.997 653.535L361.997 653.492L363.997 653.535ZM336 653.535L334 653.535L336 653.535ZM342.039 645.954H342.136V641.954H342.039V645.954ZM347.531 634.685C345.172 635.004 343.479 636.894 342.428 638.468C341.308 640.143 340.518 642.057 340.122 643.382L343.955 644.527C344.259 643.508 344.895 641.974 345.753 640.69C346.68 639.304 347.517 638.723 348.067 638.649L347.531 634.685ZM352.404 638.409C352.221 637.524 351.839 636.468 350.983 635.675C350.045 634.806 348.823 634.51 347.531 634.685L348.067 638.649C348.161 638.636 348.226 638.635 348.267 638.637C348.288 638.638 348.302 638.64 348.311 638.641C348.32 638.643 348.324 638.644 348.324 638.644C348.324 638.644 348.321 638.643 348.315 638.641C348.31 638.639 348.303 638.635 348.296 638.631C348.281 638.623 348.27 638.614 348.264 638.609C348.254 638.6 348.285 638.624 348.334 638.727C348.384 638.832 348.44 638.993 348.488 639.222L352.404 638.409ZM351.988 640.089C352.492 639.479 352.957 639.019 353.349 638.728C353.775 638.413 353.915 638.444 353.814 638.444V634.444C352.669 634.444 351.686 634.983 350.969 635.514C350.219 636.069 349.521 636.795 348.904 637.542L351.988 640.089ZM353.814 638.444C354.11 638.444 354.242 638.522 354.34 638.605C354.478 638.721 354.663 638.96 354.848 639.416C355.239 640.377 355.392 641.67 355.537 643.016L359.514 642.588C359.384 641.376 359.195 639.49 358.555 637.912C358.225 637.098 357.723 636.227 356.924 635.551C356.085 634.841 355.031 634.444 353.814 634.444V638.444ZM355.535 642.996L355.535 642.996L359.516 642.608L359.516 642.608L355.535 642.996ZM355.537 643.016C355.582 643.43 355.629 643.867 355.686 644.251L359.642 643.658C359.599 643.374 359.562 643.027 359.514 642.588L355.537 643.016ZM357.664 641.955H357.651V645.955H357.664V641.955ZM356.923 645.817C358.422 646.403 359.691 647.24 360.575 648.406C361.439 649.547 362.048 651.149 361.997 653.492L365.996 653.578C366.064 650.442 365.234 647.932 363.763 645.99C362.311 644.075 360.348 642.861 358.379 642.092L356.923 645.817ZM361.997 653.492C361.928 656.698 360.483 658.584 358.373 659.777C356.127 661.048 353.047 661.556 349.913 661.556V665.556C353.358 665.556 357.234 665.017 360.343 663.259C363.587 661.423 365.894 658.298 365.996 653.578L361.997 653.492ZM349.913 661.556C346.9 661.556 343.81 660.827 341.543 659.421C339.335 658.052 338 656.127 338 653.535L334 653.535C334 657.813 336.332 660.897 339.436 662.821C342.481 664.709 346.348 665.556 349.913 665.556V661.556ZM338 653.535C338 651.15 338.602 649.52 339.435 648.37C340.279 647.206 341.471 646.382 342.887 645.808L341.384 642.101C339.462 642.881 337.586 644.106 336.196 646.023C334.797 647.954 334 650.438 334 653.535L338 653.535Z" fill="#E1CEB5"/>
<path d="M350.392 639.369V645.496" stroke="#E1CEB5" stroke-width="4" stroke-linecap="round" stroke-linejoin="round"/>
<rect y="700" width="100" height="100" fill="#FBECD8"/>
<path fill-rule="evenodd" clip-rule="evenodd" d="M42.1359 743.954H42.0386C42.7387 741.61 44.8903 737.06 47.7987 736.667C49.4216 736.447 50.1601 737.437 50.4462 738.815C51.5666 737.459 52.7709 736.444 53.8135 736.444C56.8409 736.444 57.2504 740.244 57.5259 742.802L57.5259 742.802C57.5719 743.228 57.6142 743.621 57.6642 743.955H57.6512C61.1187 745.31 64.1147 748.056 63.9966 753.535C63.8258 761.461 56.4918 763.556 49.9133 763.556C43.3347 763.556 36 760.404 36 753.535C36 748.053 38.7968 745.308 42.1359 743.954Z" fill="white"/>
<path d="M42.0386 743.954L40.1222 743.382C39.9414 743.988 40.0573 744.643 40.4347 745.149C40.8122 745.656 41.4068 745.954 42.0386 745.954V743.954ZM42.1359 743.954L42.8874 745.808C43.7743 745.448 44.2821 744.511 44.099 743.572C43.9158 742.632 43.0929 741.954 42.1359 741.954V743.954ZM47.7987 736.667L48.0666 738.649L48.0666 738.649L47.7987 736.667ZM50.4462 738.815L48.4879 739.222C48.6443 739.975 49.2187 740.572 49.9653 740.757C50.7119 740.942 51.4984 740.682 51.9882 740.089L50.4462 738.815ZM57.5259 742.802L59.5165 742.608C59.5158 742.601 59.5152 742.594 59.5144 742.588L57.5259 742.802ZM57.5259 742.802L55.5354 742.996C55.5361 743.003 55.5367 743.009 55.5375 743.016L57.5259 742.802ZM57.6642 743.955V745.955C58.2464 745.955 58.7996 745.701 59.1796 745.26C59.5595 744.819 59.7284 744.234 59.6421 743.658L57.6642 743.955ZM57.6512 743.955V741.955C56.6895 741.955 55.8639 742.639 55.6858 743.584C55.5077 744.529 56.0275 745.467 56.9233 745.817L57.6512 743.955ZM63.9966 753.535L61.9971 753.492L63.9966 753.535ZM36 753.535L34 753.535L36 753.535ZM42.0386 745.954H42.1359V741.954H42.0386V745.954ZM47.5308 734.685C45.1723 735.004 43.4792 736.894 42.4277 738.468C41.3077 740.143 40.518 742.057 40.1222 743.382L43.955 744.527C44.2592 743.508 44.8954 741.974 45.7533 740.69C46.6798 739.304 47.5167 738.723 48.0666 738.649L47.5308 734.685ZM52.4044 738.409C52.2208 737.524 51.8388 736.468 50.9833 735.675C50.0453 734.806 48.8228 734.51 47.5308 734.685L48.0666 738.649C48.1609 738.636 48.2264 738.635 48.2672 738.637C48.2876 738.638 48.3019 738.64 48.3108 738.641C48.3197 738.643 48.3238 738.644 48.3238 738.644C48.3238 738.644 48.3208 738.643 48.3153 738.641C48.3099 738.639 48.3033 738.635 48.296 738.631C48.2806 738.623 48.2695 738.614 48.2642 738.609C48.2542 738.6 48.2852 738.624 48.3343 738.727C48.3843 738.832 48.4404 738.993 48.4879 739.222L52.4044 738.409ZM51.9882 740.089C52.4922 739.479 52.9566 739.019 53.3494 738.728C53.7753 738.413 53.9155 738.444 53.8135 738.444V734.444C52.6689 734.444 51.6857 734.983 50.9687 735.514C50.2186 736.069 49.5206 736.795 48.9042 737.542L51.9882 740.089ZM53.8135 738.444C54.11 738.444 54.2425 738.522 54.3404 738.605C54.4783 738.721 54.6635 738.96 54.8484 739.416C55.2386 740.377 55.3925 741.67 55.5375 743.016L59.5144 742.588C59.3839 741.376 59.1952 739.49 58.5549 737.912C58.2246 737.098 57.7226 736.227 56.9237 735.551C56.0847 734.841 55.0308 734.444 53.8135 734.444V738.444ZM55.5354 742.996L55.5354 742.996L59.5165 742.608L59.5165 742.608L55.5354 742.996ZM55.5375 743.016C55.5821 743.43 55.6288 743.867 55.6863 744.251L59.6421 743.658C59.5995 743.374 59.5617 743.027 59.5144 742.588L55.5375 743.016ZM57.6642 741.955H57.6512V745.955H57.6642V741.955ZM56.9233 745.817C58.4221 746.403 59.6909 747.24 60.5745 748.406C61.4387 749.547 62.0476 751.149 61.9971 753.492L65.9962 753.578C66.0637 750.442 65.2337 747.932 63.7625 745.99C62.3108 744.075 60.3479 742.861 58.3792 742.092L56.9233 745.817ZM61.9971 753.492C61.928 756.698 60.4826 758.584 58.3732 759.777C56.127 761.048 53.0474 761.556 49.9133 761.556V765.556C53.3577 765.556 57.2344 765.017 60.3426 763.259C63.5874 761.423 65.8944 758.298 65.9962 753.578L61.9971 753.492ZM49.9133 761.556C46.9004 761.556 43.8103 760.827 41.5434 759.421C39.3351 758.052 38 756.127 38 753.535L34 753.535C34 757.813 36.3322 760.897 39.4359 762.821C42.481 764.709 46.3475 765.556 49.9133 765.556V761.556ZM38 753.535C38 751.15 38.6017 749.52 39.4352 748.37C40.279 747.206 41.4709 746.382 42.8874 745.808L41.3845 742.101C39.4619 742.881 37.5858 744.106 36.1964 746.023C34.7967 747.954 34 750.438 34 753.535L38 753.535Z" fill="#E1CEB5"/>
<path d="M50.3922 739.369V745.496" stroke="#E1CEB5" stroke-width="4" stroke-linecap="round" stroke-linejoin="round"/>
<rect x="100" y="700" width="100" height="100" fill="#F2E1CB"/>
<path d="M138.501 743.668C141.497 737.656 147.418 740.66 150.006 742.385C151.895 740.891 156.001 738.196 160.127 741.828C166.588 747.514 154.628 759.986 150.006 759.986C144.892 759.986 135.764 749.163 138.501 743.668Z" fill="#E1CEB5" stroke="#E1CEB5" stroke-width="3"/>
<rect x="200" y="700" width="100" height="100" fill="#FBECD8"/>
<path fill-rule="evenodd" clip-rule="evenodd" d="M242.136 743.954H242.039C242.739 741.61 244.89 737.06 247.799 736.667C249.422 736.447 250.16 737.437 250.446 738.815C251.567 737.459 252.771 736.444 253.814 736.444C256.841 736.444 257.25 740.244 257.526 742.802L257.526 742.802C257.572 743.228 257.614 743.621 257.664 743.955H257.651C261.119 745.31 264.115 748.056 263.997 753.535C263.826 761.461 256.492 763.556 249.913 763.556C243.335 763.556 236 760.404 236 753.535C236 748.053 238.797 745.308 242.136 743.954Z" fill="white"/>
<path d="M242.039 743.954L240.122 743.382C239.941 743.988 240.057 744.643 240.435 745.149C240.812 745.656 241.407 745.954 242.039 745.954V743.954ZM242.136 743.954L242.887 745.808C243.774 745.448 244.282 744.511 244.099 743.572C243.916 742.632 243.093 741.954 242.136 741.954V743.954ZM247.799 736.667L248.067 738.649L248.067 738.649L247.799 736.667ZM250.446 738.815L248.488 739.222C248.644 739.975 249.219 740.572 249.965 740.757C250.712 740.942 251.498 740.682 251.988 740.089L250.446 738.815ZM257.526 742.802L259.516 742.608C259.516 742.601 259.515 742.594 259.514 742.588L257.526 742.802ZM257.526 742.802L255.535 742.996C255.536 743.003 255.537 743.009 255.537 743.016L257.526 742.802ZM257.664 743.955V745.955C258.246 745.955 258.8 745.701 259.18 745.26C259.56 744.819 259.728 744.234 259.642 743.658L257.664 743.955ZM257.651 743.955V741.955C256.69 741.955 255.864 742.639 255.686 743.584C255.508 744.529 256.028 745.467 256.923 745.817L257.651 743.955ZM263.997 753.535L261.997 753.492L263.997 753.535ZM236 753.535L234 753.535L236 753.535ZM242.039 745.954H242.136V741.954H242.039V745.954ZM247.531 734.685C245.172 735.004 243.479 736.894 242.428 738.468C241.308 740.143 240.518 742.057 240.122 743.382L243.955 744.527C244.259 743.508 244.895 741.974 245.753 740.69C246.68 739.304 247.517 738.723 248.067 738.649L247.531 734.685ZM252.404 738.409C252.221 737.524 251.839 736.468 250.983 735.675C250.045 734.806 248.823 734.51 247.531 734.685L248.067 738.649C248.161 738.636 248.226 738.635 248.267 738.637C248.288 738.638 248.302 738.64 248.311 738.641C248.32 738.643 248.324 738.644 248.324 738.644C248.324 738.644 248.321 738.643 248.315 738.641C248.31 738.639 248.303 738.635 248.296 738.631C248.281 738.623 248.27 738.614 248.264 738.609C248.254 738.6 248.285 738.624 248.334 738.727C248.384 738.832 248.44 738.993 248.488 739.222L252.404 738.409ZM251.988 740.089C252.492 739.479 252.957 739.019 253.349 738.728C253.775 738.413 253.915 738.444 253.814 738.444V734.444C252.669 734.444 251.686 734.983 250.969 735.514C250.219 736.069 249.521 736.795 248.904 737.542L251.988 740.089ZM253.814 738.444C254.11 738.444 254.242 738.522 254.34 738.605C254.478 738.721 254.663 738.96 254.848 739.416C255.239 740.377 255.392 741.67 255.537 743.016L259.514 742.588C259.384 741.376 259.195 739.49 258.555 737.912C258.225 737.098 257.723 736.227 256.924 735.551C256.085 734.841 255.031 734.444 253.814 734.444V738.444ZM255.535 742.996L255.535 742.996L259.516 742.608L259.516 742.608L255.535 742.996ZM255.537 743.016C255.582 743.43 255.629 743.867 255.686 744.251L259.642 743.658C259.599 743.374 259.562 743.027 259.514 742.588L255.537 743.016ZM257.664 741.955H257.651V745.955H257.664V741.955ZM256.923 745.817C258.422 746.403 259.691 747.24 260.575 748.406C261.439 749.547 262.048 751.149 261.997 753.492L265.996 753.578C266.064 750.442 265.234 747.932 263.763 745.99C262.311 744.075 260.348 742.861 258.379 742.092L256.923 745.817ZM261.997 753.492C261.928 756.698 260.483 758.584 258.373 759.777C256.127 761.048 253.047 761.556 249.913 761.556V765.556C253.358 765.556 257.234 765.017 260.343 763.259C263.587 761.423 265.894 758.298 265.996 753.578L261.997 753.492ZM249.913 761.556C246.9 761.556 243.81 760.827 241.543 759.421C239.335 758.052 238 756.127 238 753.535L234 753.535C234 757.813 236.332 760.897 239.436 762.821C242.481 764.709 246.348 765.556 249.913 765.556V761.556ZM238 753.535C238 751.15 238.602 749.52 239.435 748.37C240.279 747.206 241.471 746.382 242.887 745.808L241.384 742.101C239.462 742.881 237.586 744.106 236.196 746.023C234.797 747.954 234 750.438 234 753.535L238 753.535Z" fill="#E1CEB5"/>
<path d="M250.392 739.369V745.496" stroke="#E1CEB5" stroke-width="4" stroke-linecap="round" stroke-linejoin="round"/>
<rect x="300" y="700" width="100" height="100" fill="#F2E1CB"/>
<path d="M338.501 743.668C341.497 737.656 347.418 740.66 350.006 742.385C351.895 740.891 356.001 738.196 360.127 741.828C366.588 747.514 354.628 759.986 350.006 759.986C344.892 759.986 335.764 749.163 338.501 743.668Z" fill="#E1CEB5" stroke="#E1CEB5" stroke-width="3"/>
</g>
</g>
<defs>
<clipPath id="clip0_157_14390">
<rect width="400" height="800" fill="white"/>
</clipPath>
</defs>
</svg>
