<svg width="401" height="800" viewBox="0 0 401 800" fill="none" xmlns="http://www.w3.org/2000/svg">
<g clip-path="url(#clip0_157_14390)">
<rect width="400" height="800" transform="translate(0.0727539)" fill="white"/>
<g opacity="0.7">
<rect x="0.0727539" width="100" height="100" fill="#F2E1CB"/>
<path d="M38.5741 43.6684C41.5695 37.6559 47.4911 40.6602 50.0791 42.3848C51.9682 40.8909 56.0738 38.1963 60.2002 41.8282C66.6604 47.5141 54.7004 59.9861 50.0791 59.9861C44.9646 59.9861 35.8368 49.1627 38.5741 43.6684Z" fill="#E1CEB5" stroke="#E1CEB5" stroke-width="3"/>
<rect x="100.073" width="100" height="100" fill="#FBECD8"/>
<path fill-rule="evenodd" clip-rule="evenodd" d="M142.209 43.9545H142.111C142.811 41.6101 144.963 37.0599 147.871 36.6668C149.494 36.4475 150.233 37.4373 150.519 38.8153C151.639 37.4588 152.844 36.4441 153.886 36.4441C156.914 36.4441 157.323 40.2443 157.599 42.8018L157.599 42.8019C157.645 43.2285 157.687 43.6205 157.737 43.9546H157.724C161.191 45.3096 164.187 48.0557 164.069 53.5354C163.899 61.4613 156.565 63.5558 149.986 63.5558C143.407 63.5558 136.073 60.404 136.073 53.5354C136.073 48.053 138.87 45.3083 142.209 43.9545Z" fill="white"/>
<path d="M142.111 43.9545L140.195 43.3822C140.014 43.9875 140.13 44.6427 140.507 45.1493C140.885 45.656 141.48 45.9545 142.111 45.9545V43.9545ZM142.209 43.9545L142.96 45.8079C143.847 45.4484 144.355 44.5109 144.172 43.5717C143.989 42.6324 143.166 41.9545 142.209 41.9545V43.9545ZM147.871 36.6668L148.139 38.6488L147.871 36.6668ZM150.519 38.8153L148.561 39.2219C148.717 39.975 149.291 40.5717 150.038 40.7567C150.785 40.9416 151.571 40.682 152.061 40.089L150.519 38.8153ZM157.599 42.8018L159.589 42.6076C159.589 42.6009 159.588 42.5942 159.587 42.5876L157.599 42.8018ZM157.599 42.8019L155.608 42.9961C155.609 43.0028 155.609 43.0094 155.61 43.0161L157.599 42.8019ZM157.737 43.9546V45.9546C158.319 45.9546 158.872 45.7009 159.252 45.2598C159.632 44.8187 159.801 44.234 159.715 43.6583L157.737 43.9546ZM157.724 43.9546V41.9546C156.762 41.9546 155.937 42.6391 155.759 43.5842C155.58 44.5293 156.1 45.4674 156.996 45.8174L157.724 43.9546ZM164.069 53.5354L162.07 53.4923L164.069 53.5354ZM136.073 53.5354L134.073 53.5354L136.073 53.5354ZM142.111 45.9545H142.209V41.9545H142.111V45.9545ZM147.604 34.6849C145.245 35.0036 143.552 36.8944 142.5 38.4676C141.38 40.1434 140.591 42.0568 140.195 43.3822L144.028 44.5268C144.332 43.5079 144.968 41.9739 145.826 40.6903C146.753 39.3041 147.589 38.7231 148.139 38.6488L147.604 34.6849ZM152.477 38.4088C152.294 37.5242 151.912 36.4681 151.056 35.6752C150.118 34.8058 148.896 34.5102 147.604 34.6849L148.139 38.6488C148.234 38.6361 148.299 38.6352 148.34 38.6372C148.36 38.6382 148.375 38.6399 148.384 38.6413C148.392 38.6427 148.397 38.6439 148.397 38.6439C148.397 38.6439 148.394 38.643 148.388 38.6408C148.383 38.6386 148.376 38.6355 148.369 38.6314C148.353 38.6227 148.342 38.6139 148.337 38.6089C148.327 38.5996 148.358 38.6242 148.407 38.7272C148.457 38.8324 148.513 38.9929 148.561 39.2219L152.477 38.4088ZM152.061 40.089C152.565 39.4788 153.029 39.0191 153.422 38.7282C153.848 38.4128 153.988 38.4441 153.886 38.4441V34.4441C152.742 34.4441 151.758 34.9828 151.041 35.5138C150.291 36.0694 149.593 36.7953 148.977 37.5417L152.061 40.089ZM153.886 38.4441C154.183 38.4441 154.315 38.522 154.413 38.6048C154.551 38.7214 154.736 38.9601 154.921 39.4159C155.311 40.3775 155.465 41.6705 155.61 43.0161L159.587 42.5876C159.457 41.3757 159.268 39.4898 158.628 37.9119C158.297 37.0979 157.795 36.2267 156.996 35.5509C156.157 34.8412 155.104 34.4441 153.886 34.4441V38.4441ZM155.608 42.996L155.608 42.9961L159.589 42.6077L159.589 42.6076L155.608 42.996ZM155.61 43.0161C155.655 43.4304 155.702 43.8674 155.759 44.2509L159.715 43.6583C159.672 43.3736 159.634 43.0266 159.587 42.5876L155.61 43.0161ZM157.737 41.9546H157.724V45.9546H157.737V41.9546ZM156.996 45.8174C158.495 46.4031 159.764 47.2401 160.647 48.4062C161.511 49.5466 162.12 51.1488 162.07 53.4923L166.069 53.5785C166.136 50.4423 165.306 47.9317 163.835 45.9903C162.384 44.0746 160.421 42.8611 158.452 42.0918L156.996 45.8174ZM162.07 53.4923C162.001 56.6983 160.555 58.5838 158.446 59.777C156.2 61.0476 153.12 61.5558 149.986 61.5558V65.5558C153.43 65.5558 157.307 65.0168 160.415 63.2586C163.66 61.4231 165.967 58.2983 166.069 53.5785L162.07 53.4923ZM149.986 61.5558C146.973 61.5558 143.883 60.8268 141.616 59.4215C139.408 58.0525 138.073 56.1267 138.073 53.5354L134.073 53.5354C134.073 57.8127 136.405 60.8972 139.509 62.8212C142.554 64.709 146.42 65.5558 149.986 65.5558V61.5558ZM138.073 53.5354C138.073 51.1505 138.675 49.5204 139.508 48.3704C140.352 47.2061 141.544 46.3823 142.96 45.8079L141.457 42.101C139.535 42.8805 137.659 44.106 136.269 46.0231C134.869 47.9544 134.073 50.4379 134.073 53.5354L138.073 53.5354Z" fill="#E1CEB5"/>
<path d="M150.465 39.3689V45.4956" stroke="#E1CEB5" stroke-width="4" stroke-linecap="round" stroke-linejoin="round"/>
<rect x="200.073" width="100" height="100" fill="#F2E1CB"/>
<path d="M238.574 43.6684C241.57 37.6559 247.491 40.6602 250.079 42.3848C251.968 40.8909 256.074 38.1963 260.2 41.8282C266.66 47.5141 254.7 59.9861 250.079 59.9861C244.965 59.9861 235.837 49.1627 238.574 43.6684Z" fill="#E1CEB5" stroke="#E1CEB5" stroke-width="3"/>
<rect x="300.073" width="100" height="100" fill="#FBECD8"/>
<path fill-rule="evenodd" clip-rule="evenodd" d="M342.209 43.9545H342.111C342.811 41.6101 344.963 37.0599 347.871 36.6668C349.494 36.4475 350.233 37.4373 350.519 38.8153C351.639 37.4588 352.844 36.4441 353.886 36.4441C356.914 36.4441 357.323 40.2443 357.599 42.8018L357.599 42.8019C357.645 43.2285 357.687 43.6205 357.737 43.9546H357.724C361.191 45.3096 364.187 48.0557 364.069 53.5354C363.899 61.4613 356.565 63.5558 349.986 63.5558C343.407 63.5558 336.073 60.404 336.073 53.5354C336.073 48.053 338.87 45.3083 342.209 43.9545Z" fill="white"/>
<path d="M342.111 43.9545L340.195 43.3822C340.014 43.9875 340.13 44.6427 340.507 45.1493C340.885 45.656 341.48 45.9545 342.111 45.9545V43.9545ZM342.209 43.9545L342.96 45.8079C343.847 45.4484 344.355 44.5109 344.172 43.5717C343.989 42.6324 343.166 41.9545 342.209 41.9545V43.9545ZM347.871 36.6668L348.139 38.6488L347.871 36.6668ZM350.519 38.8153L348.561 39.2219C348.717 39.975 349.291 40.5717 350.038 40.7567C350.785 40.9416 351.571 40.682 352.061 40.089L350.519 38.8153ZM357.599 42.8018L359.589 42.6076C359.589 42.6009 359.588 42.5942 359.587 42.5876L357.599 42.8018ZM357.599 42.8019L355.608 42.9961C355.609 43.0028 355.609 43.0094 355.61 43.0161L357.599 42.8019ZM357.737 43.9546V45.9546C358.319 45.9546 358.872 45.7009 359.252 45.2598C359.632 44.8187 359.801 44.234 359.715 43.6583L357.737 43.9546ZM357.724 43.9546V41.9546C356.762 41.9546 355.937 42.6391 355.759 43.5842C355.58 44.5293 356.1 45.4674 356.996 45.8174L357.724 43.9546ZM364.069 53.5354L362.07 53.4923L364.069 53.5354ZM336.073 53.5354L334.073 53.5354L336.073 53.5354ZM342.111 45.9545H342.209V41.9545H342.111V45.9545ZM347.604 34.6849C345.245 35.0036 343.552 36.8944 342.5 38.4676C341.38 40.1434 340.591 42.0568 340.195 43.3822L344.028 44.5268C344.332 43.5079 344.968 41.9739 345.826 40.6903C346.753 39.3041 347.589 38.7231 348.139 38.6488L347.604 34.6849ZM352.477 38.4088C352.294 37.5242 351.912 36.4681 351.056 35.6752C350.118 34.8058 348.896 34.5102 347.604 34.6849L348.139 38.6488C348.234 38.6361 348.299 38.6352 348.34 38.6372C348.36 38.6382 348.375 38.6399 348.384 38.6413C348.392 38.6427 348.397 38.6439 348.397 38.6439C348.397 38.6439 348.394 38.643 348.388 38.6408C348.383 38.6386 348.376 38.6355 348.369 38.6314C348.353 38.6227 348.342 38.6139 348.337 38.6089C348.327 38.5996 348.358 38.6242 348.407 38.7272C348.457 38.8324 348.513 38.9929 348.561 39.2219L352.477 38.4088ZM352.061 40.089C352.565 39.4788 353.029 39.0191 353.422 38.7282C353.848 38.4128 353.988 38.4441 353.886 38.4441V34.4441C352.742 34.4441 351.758 34.9828 351.041 35.5138C350.291 36.0694 349.593 36.7953 348.977 37.5417L352.061 40.089ZM353.886 38.4441C354.183 38.4441 354.315 38.522 354.413 38.6048C354.551 38.7214 354.736 38.9601 354.921 39.4159C355.311 40.3775 355.465 41.6705 355.61 43.0161L359.587 42.5876C359.457 41.3757 359.268 39.4898 358.628 37.9119C358.297 37.0979 357.795 36.2267 356.996 35.5509C356.157 34.8412 355.104 34.4441 353.886 34.4441V38.4441ZM355.608 42.996L355.608 42.9961L359.589 42.6077L359.589 42.6076L355.608 42.996ZM355.61 43.0161C355.655 43.4304 355.702 43.8674 355.759 44.2509L359.715 43.6583C359.672 43.3736 359.634 43.0266 359.587 42.5876L355.61 43.0161ZM357.737 41.9546H357.724V45.9546H357.737V41.9546ZM356.996 45.8174C358.495 46.4031 359.764 47.2401 360.647 48.4062C361.511 49.5466 362.12 51.1488 362.07 53.4923L366.069 53.5785C366.136 50.4423 365.306 47.9317 363.835 45.9903C362.384 44.0746 360.421 42.8611 358.452 42.0918L356.996 45.8174ZM362.07 53.4923C362.001 56.6983 360.555 58.5838 358.446 59.777C356.2 61.0476 353.12 61.5558 349.986 61.5558V65.5558C353.43 65.5558 357.307 65.0168 360.415 63.2586C363.66 61.4231 365.967 58.2983 366.069 53.5785L362.07 53.4923ZM349.986 61.5558C346.973 61.5558 343.883 60.8268 341.616 59.4215C339.408 58.0525 338.073 56.1267 338.073 53.5354L334.073 53.5354C334.073 57.8127 336.405 60.8972 339.509 62.8212C342.554 64.709 346.42 65.5558 349.986 65.5558V61.5558ZM338.073 53.5354C338.073 51.1505 338.675 49.5204 339.508 48.3704C340.352 47.2061 341.544 46.3823 342.96 45.8079L341.457 42.101C339.535 42.8805 337.659 44.106 336.269 46.0231C334.869 47.9544 334.073 50.4379 334.073 53.5354L338.073 53.5354Z" fill="#E1CEB5"/>
<path d="M350.465 39.3689V45.4956" stroke="#E1CEB5" stroke-width="4" stroke-linecap="round" stroke-linejoin="round"/>
<rect x="0.0727539" y="100" width="100" height="100" fill="#FBECD8"/>
<path fill-rule="evenodd" clip-rule="evenodd" d="M42.2087 143.954H42.1113C42.8115 141.61 44.963 137.06 47.8714 136.667C49.4944 136.447 50.2328 137.437 50.5189 138.815C51.6394 137.459 52.8436 136.444 53.8863 136.444C56.9137 136.444 57.3231 140.244 57.5987 142.802L57.5987 142.802C57.6447 143.228 57.6869 143.621 57.737 143.955H57.724C61.1915 145.31 64.1875 148.056 64.0694 153.535C63.8986 161.461 56.5646 163.556 49.986 163.556C43.4074 163.556 36.0727 160.404 36.0728 153.535C36.0728 148.053 38.8696 145.308 42.2087 143.954Z" fill="white"/>
<path d="M42.1113 143.954L40.195 143.382C40.0142 143.988 40.1301 144.643 40.5075 145.149C40.8849 145.656 41.4796 145.954 42.1113 145.954V143.954ZM42.2087 143.954L42.9602 145.808C43.847 145.448 44.3549 144.511 44.1717 143.572C43.9885 142.632 43.1657 141.954 42.2087 141.954V143.954ZM47.8714 136.667L48.1393 138.649L47.8714 136.667ZM50.5189 138.815L48.5607 139.222C48.717 139.975 49.2914 140.572 50.038 140.757C50.7846 140.942 51.5711 140.682 52.0609 140.089L50.5189 138.815ZM57.5987 142.802L59.5892 142.608C59.5886 142.601 59.5879 142.594 59.5872 142.588L57.5987 142.802ZM57.5987 142.802L55.6082 142.996C55.6088 143.003 55.6095 143.009 55.6102 143.016L57.5987 142.802ZM57.737 143.955V145.955C58.3191 145.955 58.8724 145.701 59.2523 145.26C59.6323 144.819 59.8011 144.234 59.7149 143.658L57.737 143.955ZM57.724 143.955V141.955C56.7623 141.955 55.9367 142.639 55.7586 143.584C55.5805 144.529 56.1003 145.467 56.9961 145.817L57.724 143.955ZM64.0694 153.535L62.0698 153.492L64.0694 153.535ZM36.0728 153.535L34.0728 153.535L36.0728 153.535ZM42.1113 145.954H42.2087V141.954H42.1113V145.954ZM47.6036 134.685C45.245 135.004 43.5519 136.894 42.5005 138.468C41.3804 140.143 40.5908 142.057 40.195 143.382L44.0277 144.527C44.332 143.508 44.9682 141.974 45.8261 140.69C46.7525 139.304 47.5894 138.723 48.1393 138.649L47.6036 134.685ZM52.4772 138.409C52.2935 137.524 51.9115 136.468 51.0561 135.675C50.1181 134.806 48.8955 134.51 47.6036 134.685L48.1393 138.649C48.2336 138.636 48.2992 138.635 48.34 138.637C48.3603 138.638 48.3746 138.64 48.3835 138.641C48.3924 138.643 48.3965 138.644 48.3966 138.644C48.3966 138.644 48.3935 138.643 48.3881 138.641C48.3826 138.639 48.376 138.635 48.3688 138.631C48.3533 138.623 48.3423 138.614 48.337 138.609C48.3269 138.6 48.358 138.624 48.407 138.727C48.4571 138.832 48.5131 138.993 48.5607 139.222L52.4772 138.409ZM52.0609 140.089C52.5649 139.479 53.0293 139.019 53.4221 138.728C53.848 138.413 53.9882 138.444 53.8863 138.444V134.444C52.7417 134.444 51.7585 134.983 51.0414 135.514C50.2913 136.069 49.5934 136.795 48.9769 137.542L52.0609 140.089ZM53.8863 138.444C54.1827 138.444 54.3152 138.522 54.4131 138.605C54.551 138.721 54.7362 138.96 54.9212 139.416C55.3114 140.377 55.4652 141.67 55.6102 143.016L59.5872 142.588C59.4566 141.376 59.2679 139.49 58.6277 137.912C58.2974 137.098 57.7954 136.227 56.9964 135.551C56.1575 134.841 55.1035 134.444 53.8863 134.444V138.444ZM55.6081 142.996L55.6082 142.996L59.5893 142.608L59.5892 142.608L55.6081 142.996ZM55.6102 143.016C55.6548 143.43 55.7016 143.867 55.759 144.251L59.7149 143.658C59.6722 143.374 59.6345 143.027 59.5872 142.588L55.6102 143.016ZM57.737 141.955H57.724V145.955H57.737V141.955ZM56.9961 145.817C58.4949 146.403 59.7636 147.24 60.6473 148.406C61.5114 149.547 62.1203 151.149 62.0698 153.492L66.0689 153.578C66.1365 150.442 65.3065 147.932 63.8353 145.99C62.3836 144.075 60.4206 142.861 58.4519 142.092L56.9961 145.817ZM62.0698 153.492C62.0008 156.698 60.5554 158.584 58.4459 159.777C56.1998 161.048 53.1202 161.556 49.986 161.556V165.556C53.4304 165.556 57.3071 165.017 60.4153 163.259C63.6602 161.423 65.9672 158.298 66.0689 153.578L62.0698 153.492ZM49.986 161.556C46.9732 161.556 43.8831 160.827 41.6162 159.421C39.4078 158.052 38.0727 156.127 38.0728 153.535L34.0728 153.535C34.0727 157.813 36.405 160.897 39.5086 162.821C42.5537 164.709 46.4203 165.556 49.986 165.556V161.556ZM38.0728 153.535C38.0728 151.15 38.6745 149.52 39.508 148.37C40.3518 147.206 41.5436 146.382 42.9602 145.808L41.4572 142.101C39.5346 142.881 37.6585 144.106 36.2691 146.023C34.8694 147.954 34.0728 150.438 34.0728 153.535L38.0728 153.535Z" fill="#E1CEB5"/>
<path d="M50.465 139.369V145.496" stroke="#E1CEB5" stroke-width="4" stroke-linecap="round" stroke-linejoin="round"/>
<rect x="100.073" y="100" width="100" height="100" fill="#F2E1CB"/>
<path d="M138.574 143.668C141.57 137.656 147.491 140.66 150.079 142.385C151.968 140.891 156.074 138.196 160.2 141.828C166.66 147.514 154.7 159.986 150.079 159.986C144.965 159.986 135.837 149.163 138.574 143.668Z" fill="#E1CEB5" stroke="#E1CEB5" stroke-width="3"/>
<rect x="200.073" y="100" width="100" height="100" fill="#FBECD8"/>
<path fill-rule="evenodd" clip-rule="evenodd" d="M242.209 143.954H242.111C242.811 141.61 244.963 137.06 247.871 136.667C249.494 136.447 250.233 137.437 250.519 138.815C251.639 137.459 252.844 136.444 253.886 136.444C256.914 136.444 257.323 140.244 257.599 142.802L257.599 142.802C257.645 143.228 257.687 143.621 257.737 143.955H257.724C261.191 145.31 264.187 148.056 264.069 153.535C263.899 161.461 256.565 163.556 249.986 163.556C243.407 163.556 236.073 160.404 236.073 153.535C236.073 148.053 238.87 145.308 242.209 143.954Z" fill="white"/>
<path d="M242.111 143.954L240.195 143.382C240.014 143.988 240.13 144.643 240.507 145.149C240.885 145.656 241.48 145.954 242.111 145.954V143.954ZM242.209 143.954L242.96 145.808C243.847 145.448 244.355 144.511 244.172 143.572C243.989 142.632 243.166 141.954 242.209 141.954V143.954ZM247.871 136.667L248.139 138.649L247.871 136.667ZM250.519 138.815L248.561 139.222C248.717 139.975 249.291 140.572 250.038 140.757C250.785 140.942 251.571 140.682 252.061 140.089L250.519 138.815ZM257.599 142.802L259.589 142.608C259.589 142.601 259.588 142.594 259.587 142.588L257.599 142.802ZM257.599 142.802L255.608 142.996C255.609 143.003 255.609 143.009 255.61 143.016L257.599 142.802ZM257.737 143.955V145.955C258.319 145.955 258.872 145.701 259.252 145.26C259.632 144.819 259.801 144.234 259.715 143.658L257.737 143.955ZM257.724 143.955V141.955C256.762 141.955 255.937 142.639 255.759 143.584C255.58 144.529 256.1 145.467 256.996 145.817L257.724 143.955ZM264.069 153.535L262.07 153.492L264.069 153.535ZM236.073 153.535L234.073 153.535L236.073 153.535ZM242.111 145.954H242.209V141.954H242.111V145.954ZM247.604 134.685C245.245 135.004 243.552 136.894 242.5 138.468C241.38 140.143 240.591 142.057 240.195 143.382L244.028 144.527C244.332 143.508 244.968 141.974 245.826 140.69C246.753 139.304 247.589 138.723 248.139 138.649L247.604 134.685ZM252.477 138.409C252.294 137.524 251.912 136.468 251.056 135.675C250.118 134.806 248.896 134.51 247.604 134.685L248.139 138.649C248.234 138.636 248.299 138.635 248.34 138.637C248.36 138.638 248.375 138.64 248.384 138.641C248.392 138.643 248.397 138.644 248.397 138.644C248.397 138.644 248.394 138.643 248.388 138.641C248.383 138.639 248.376 138.635 248.369 138.631C248.353 138.623 248.342 138.614 248.337 138.609C248.327 138.6 248.358 138.624 248.407 138.727C248.457 138.832 248.513 138.993 248.561 139.222L252.477 138.409ZM252.061 140.089C252.565 139.479 253.029 139.019 253.422 138.728C253.848 138.413 253.988 138.444 253.886 138.444V134.444C252.742 134.444 251.758 134.983 251.041 135.514C250.291 136.069 249.593 136.795 248.977 137.542L252.061 140.089ZM253.886 138.444C254.183 138.444 254.315 138.522 254.413 138.605C254.551 138.721 254.736 138.96 254.921 139.416C255.311 140.377 255.465 141.67 255.61 143.016L259.587 142.588C259.457 141.376 259.268 139.49 258.628 137.912C258.297 137.098 257.795 136.227 256.996 135.551C256.157 134.841 255.104 134.444 253.886 134.444V138.444ZM255.608 142.996L255.608 142.996L259.589 142.608L259.589 142.608L255.608 142.996ZM255.61 143.016C255.655 143.43 255.702 143.867 255.759 144.251L259.715 143.658C259.672 143.374 259.634 143.027 259.587 142.588L255.61 143.016ZM257.737 141.955H257.724V145.955H257.737V141.955ZM256.996 145.817C258.495 146.403 259.764 147.24 260.647 148.406C261.511 149.547 262.12 151.149 262.07 153.492L266.069 153.578C266.136 150.442 265.306 147.932 263.835 145.99C262.384 144.075 260.421 142.861 258.452 142.092L256.996 145.817ZM262.07 153.492C262.001 156.698 260.555 158.584 258.446 159.777C256.2 161.048 253.12 161.556 249.986 161.556V165.556C253.43 165.556 257.307 165.017 260.415 163.259C263.66 161.423 265.967 158.298 266.069 153.578L262.07 153.492ZM249.986 161.556C246.973 161.556 243.883 160.827 241.616 159.421C239.408 158.052 238.073 156.127 238.073 153.535L234.073 153.535C234.073 157.813 236.405 160.897 239.509 162.821C242.554 164.709 246.42 165.556 249.986 165.556V161.556ZM238.073 153.535C238.073 151.15 238.675 149.52 239.508 148.37C240.352 147.206 241.544 146.382 242.96 145.808L241.457 142.101C239.535 142.881 237.659 144.106 236.269 146.023C234.869 147.954 234.073 150.438 234.073 153.535L238.073 153.535Z" fill="#E1CEB5"/>
<path d="M250.465 139.369V145.496" stroke="#E1CEB5" stroke-width="4" stroke-linecap="round" stroke-linejoin="round"/>
<rect x="300.073" y="100" width="100" height="100" fill="#F2E1CB"/>
<path d="M338.574 143.668C341.57 137.656 347.491 140.66 350.079 142.385C351.968 140.891 356.074 138.196 360.2 141.828C366.66 147.514 354.7 159.986 350.079 159.986C344.965 159.986 335.837 149.163 338.574 143.668Z" fill="#E1CEB5" stroke="#E1CEB5" stroke-width="3"/>
<rect x="0.0727539" y="200" width="100" height="100" fill="#F2E1CB"/>
<path d="M38.5741 243.668C41.5695 237.656 47.4911 240.66 50.0791 242.385C51.9682 240.891 56.0738 238.196 60.2002 241.828C66.6604 247.514 54.7004 259.986 50.0791 259.986C44.9646 259.986 35.8368 249.163 38.5741 243.668Z" fill="#E1CEB5" stroke="#E1CEB5" stroke-width="3"/>
<rect x="100.073" y="200" width="100" height="100" fill="#FBECD8"/>
<path fill-rule="evenodd" clip-rule="evenodd" d="M142.209 243.954H142.111C142.811 241.61 144.963 237.06 147.871 236.667C149.494 236.447 150.233 237.437 150.519 238.815C151.639 237.459 152.844 236.444 153.886 236.444C156.914 236.444 157.323 240.244 157.599 242.802L157.599 242.802C157.645 243.228 157.687 243.621 157.737 243.955H157.724C161.191 245.31 164.187 248.056 164.069 253.535C163.899 261.461 156.565 263.556 149.986 263.556C143.407 263.556 136.073 260.404 136.073 253.535C136.073 248.053 138.87 245.308 142.209 243.954Z" fill="white"/>
<path d="M142.111 243.954L140.195 243.382C140.014 243.988 140.13 244.643 140.507 245.149C140.885 245.656 141.48 245.954 142.111 245.954V243.954ZM142.209 243.954L142.96 245.808C143.847 245.448 144.355 244.511 144.172 243.572C143.989 242.632 143.166 241.954 142.209 241.954V243.954ZM147.871 236.667L148.139 238.649L147.871 236.667ZM150.519 238.815L148.561 239.222C148.717 239.975 149.291 240.572 150.038 240.757C150.785 240.942 151.571 240.682 152.061 240.089L150.519 238.815ZM157.599 242.802L159.589 242.608C159.589 242.601 159.588 242.594 159.587 242.588L157.599 242.802ZM157.599 242.802L155.608 242.996C155.609 243.003 155.609 243.009 155.61 243.016L157.599 242.802ZM157.737 243.955V245.955C158.319 245.955 158.872 245.701 159.252 245.26C159.632 244.819 159.801 244.234 159.715 243.658L157.737 243.955ZM157.724 243.955V241.955C156.762 241.955 155.937 242.639 155.759 243.584C155.58 244.529 156.1 245.467 156.996 245.817L157.724 243.955ZM164.069 253.535L162.07 253.492L164.069 253.535ZM136.073 253.535L134.073 253.535L136.073 253.535ZM142.111 245.954H142.209V241.954H142.111V245.954ZM147.604 234.685C145.245 235.004 143.552 236.894 142.5 238.468C141.38 240.143 140.591 242.057 140.195 243.382L144.028 244.527C144.332 243.508 144.968 241.974 145.826 240.69C146.753 239.304 147.589 238.723 148.139 238.649L147.604 234.685ZM152.477 238.409C152.294 237.524 151.912 236.468 151.056 235.675C150.118 234.806 148.896 234.51 147.604 234.685L148.139 238.649C148.234 238.636 148.299 238.635 148.34 238.637C148.36 238.638 148.375 238.64 148.384 238.641C148.392 238.643 148.397 238.644 148.397 238.644C148.397 238.644 148.394 238.643 148.388 238.641C148.383 238.639 148.376 238.635 148.369 238.631C148.353 238.623 148.342 238.614 148.337 238.609C148.327 238.6 148.358 238.624 148.407 238.727C148.457 238.832 148.513 238.993 148.561 239.222L152.477 238.409ZM152.061 240.089C152.565 239.479 153.029 239.019 153.422 238.728C153.848 238.413 153.988 238.444 153.886 238.444V234.444C152.742 234.444 151.758 234.983 151.041 235.514C150.291 236.069 149.593 236.795 148.977 237.542L152.061 240.089ZM153.886 238.444C154.183 238.444 154.315 238.522 154.413 238.605C154.551 238.721 154.736 238.96 154.921 239.416C155.311 240.377 155.465 241.67 155.61 243.016L159.587 242.588C159.457 241.376 159.268 239.49 158.628 237.912C158.297 237.098 157.795 236.227 156.996 235.551C156.157 234.841 155.104 234.444 153.886 234.444V238.444ZM155.608 242.996L155.608 242.996L159.589 242.608L159.589 242.608L155.608 242.996ZM155.61 243.016C155.655 243.43 155.702 243.867 155.759 244.251L159.715 243.658C159.672 243.374 159.634 243.027 159.587 242.588L155.61 243.016ZM157.737 241.955H157.724V245.955H157.737V241.955ZM156.996 245.817C158.495 246.403 159.764 247.24 160.647 248.406C161.511 249.547 162.12 251.149 162.07 253.492L166.069 253.578C166.136 250.442 165.306 247.932 163.835 245.99C162.384 244.075 160.421 242.861 158.452 242.092L156.996 245.817ZM162.07 253.492C162.001 256.698 160.555 258.584 158.446 259.777C156.2 261.048 153.12 261.556 149.986 261.556V265.556C153.43 265.556 157.307 265.017 160.415 263.259C163.66 261.423 165.967 258.298 166.069 253.578L162.07 253.492ZM149.986 261.556C146.973 261.556 143.883 260.827 141.616 259.421C139.408 258.052 138.073 256.127 138.073 253.535L134.073 253.535C134.073 257.813 136.405 260.897 139.509 262.821C142.554 264.709 146.42 265.556 149.986 265.556V261.556ZM138.073 253.535C138.073 251.15 138.675 249.52 139.508 248.37C140.352 247.206 141.544 246.382 142.96 245.808L141.457 242.101C139.535 242.881 137.659 244.106 136.269 246.023C134.869 247.954 134.073 250.438 134.073 253.535L138.073 253.535Z" fill="#E1CEB5"/>
<path d="M150.465 239.369V245.496" stroke="#E1CEB5" stroke-width="4" stroke-linecap="round" stroke-linejoin="round"/>
<rect x="200.073" y="200" width="100" height="100" fill="#F2E1CB"/>
<path d="M238.574 243.668C241.57 237.656 247.491 240.66 250.079 242.385C251.968 240.891 256.074 238.196 260.2 241.828C266.66 247.514 254.7 259.986 250.079 259.986C244.965 259.986 235.837 249.163 238.574 243.668Z" fill="#E1CEB5" stroke="#E1CEB5" stroke-width="3"/>
<rect x="300.073" y="200" width="100" height="100" fill="#FBECD8"/>
<path fill-rule="evenodd" clip-rule="evenodd" d="M342.209 243.954H342.111C342.811 241.61 344.963 237.06 347.871 236.667C349.494 236.447 350.233 237.437 350.519 238.815C351.639 237.459 352.844 236.444 353.886 236.444C356.914 236.444 357.323 240.244 357.599 242.802L357.599 242.802C357.645 243.228 357.687 243.621 357.737 243.955H357.724C361.191 245.31 364.187 248.056 364.069 253.535C363.899 261.461 356.565 263.556 349.986 263.556C343.407 263.556 336.073 260.404 336.073 253.535C336.073 248.053 338.87 245.308 342.209 243.954Z" fill="white"/>
<path d="M342.111 243.954L340.195 243.382C340.014 243.988 340.13 244.643 340.507 245.149C340.885 245.656 341.48 245.954 342.111 245.954V243.954ZM342.209 243.954L342.96 245.808C343.847 245.448 344.355 244.511 344.172 243.572C343.989 242.632 343.166 241.954 342.209 241.954V243.954ZM347.871 236.667L348.139 238.649L347.871 236.667ZM350.519 238.815L348.561 239.222C348.717 239.975 349.291 240.572 350.038 240.757C350.785 240.942 351.571 240.682 352.061 240.089L350.519 238.815ZM357.599 242.802L359.589 242.608C359.589 242.601 359.588 242.594 359.587 242.588L357.599 242.802ZM357.599 242.802L355.608 242.996C355.609 243.003 355.609 243.009 355.61 243.016L357.599 242.802ZM357.737 243.955V245.955C358.319 245.955 358.872 245.701 359.252 245.26C359.632 244.819 359.801 244.234 359.715 243.658L357.737 243.955ZM357.724 243.955V241.955C356.762 241.955 355.937 242.639 355.759 243.584C355.58 244.529 356.1 245.467 356.996 245.817L357.724 243.955ZM364.069 253.535L362.07 253.492L364.069 253.535ZM336.073 253.535L334.073 253.535L336.073 253.535ZM342.111 245.954H342.209V241.954H342.111V245.954ZM347.604 234.685C345.245 235.004 343.552 236.894 342.5 238.468C341.38 240.143 340.591 242.057 340.195 243.382L344.028 244.527C344.332 243.508 344.968 241.974 345.826 240.69C346.753 239.304 347.589 238.723 348.139 238.649L347.604 234.685ZM352.477 238.409C352.294 237.524 351.912 236.468 351.056 235.675C350.118 234.806 348.896 234.51 347.604 234.685L348.139 238.649C348.234 238.636 348.299 238.635 348.34 238.637C348.36 238.638 348.375 238.64 348.384 238.641C348.392 238.643 348.397 238.644 348.397 238.644C348.397 238.644 348.394 238.643 348.388 238.641C348.383 238.639 348.376 238.635 348.369 238.631C348.353 238.623 348.342 238.614 348.337 238.609C348.327 238.6 348.358 238.624 348.407 238.727C348.457 238.832 348.513 238.993 348.561 239.222L352.477 238.409ZM352.061 240.089C352.565 239.479 353.029 239.019 353.422 238.728C353.848 238.413 353.988 238.444 353.886 238.444V234.444C352.742 234.444 351.758 234.983 351.041 235.514C350.291 236.069 349.593 236.795 348.977 237.542L352.061 240.089ZM353.886 238.444C354.183 238.444 354.315 238.522 354.413 238.605C354.551 238.721 354.736 238.96 354.921 239.416C355.311 240.377 355.465 241.67 355.61 243.016L359.587 242.588C359.457 241.376 359.268 239.49 358.628 237.912C358.297 237.098 357.795 236.227 356.996 235.551C356.157 234.841 355.104 234.444 353.886 234.444V238.444ZM355.608 242.996L355.608 242.996L359.589 242.608L359.589 242.608L355.608 242.996ZM355.61 243.016C355.655 243.43 355.702 243.867 355.759 244.251L359.715 243.658C359.672 243.374 359.634 243.027 359.587 242.588L355.61 243.016ZM357.737 241.955H357.724V245.955H357.737V241.955ZM356.996 245.817C358.495 246.403 359.764 247.24 360.647 248.406C361.511 249.547 362.12 251.149 362.07 253.492L366.069 253.578C366.136 250.442 365.306 247.932 363.835 245.99C362.384 244.075 360.421 242.861 358.452 242.092L356.996 245.817ZM362.07 253.492C362.001 256.698 360.555 258.584 358.446 259.777C356.2 261.048 353.12 261.556 349.986 261.556V265.556C353.43 265.556 357.307 265.017 360.415 263.259C363.66 261.423 365.967 258.298 366.069 253.578L362.07 253.492ZM349.986 261.556C346.973 261.556 343.883 260.827 341.616 259.421C339.408 258.052 338.073 256.127 338.073 253.535L334.073 253.535C334.073 257.813 336.405 260.897 339.509 262.821C342.554 264.709 346.42 265.556 349.986 265.556V261.556ZM338.073 253.535C338.073 251.15 338.675 249.52 339.508 248.37C340.352 247.206 341.544 246.382 342.96 245.808L341.457 242.101C339.535 242.881 337.659 244.106 336.269 246.023C334.869 247.954 334.073 250.438 334.073 253.535L338.073 253.535Z" fill="#E1CEB5"/>
<path d="M350.465 239.369V245.496" stroke="#E1CEB5" stroke-width="4" stroke-linecap="round" stroke-linejoin="round"/>
<rect x="0.0727539" y="300" width="100" height="100" fill="#FBECD8"/>
<path fill-rule="evenodd" clip-rule="evenodd" d="M42.2087 343.954H42.1113C42.8115 341.61 44.963 337.06 47.8714 336.667C49.4944 336.447 50.2328 337.437 50.5189 338.815C51.6394 337.459 52.8436 336.444 53.8863 336.444C56.9137 336.444 57.3231 340.244 57.5987 342.802L57.5987 342.802C57.6447 343.228 57.6869 343.621 57.737 343.955H57.724C61.1915 345.31 64.1875 348.056 64.0694 353.535C63.8986 361.461 56.5646 363.556 49.986 363.556C43.4074 363.556 36.0727 360.404 36.0728 353.535C36.0728 348.053 38.8696 345.308 42.2087 343.954Z" fill="white"/>
<path d="M42.1113 343.954L40.195 343.382C40.0142 343.988 40.1301 344.643 40.5075 345.149C40.8849 345.656 41.4796 345.954 42.1113 345.954V343.954ZM42.2087 343.954L42.9602 345.808C43.847 345.448 44.3549 344.511 44.1717 343.572C43.9885 342.632 43.1657 341.954 42.2087 341.954V343.954ZM47.8714 336.667L48.1393 338.649L47.8714 336.667ZM50.5189 338.815L48.5607 339.222C48.717 339.975 49.2914 340.572 50.038 340.757C50.7846 340.942 51.5711 340.682 52.0609 340.089L50.5189 338.815ZM57.5987 342.802L59.5892 342.608C59.5886 342.601 59.5879 342.594 59.5872 342.588L57.5987 342.802ZM57.5987 342.802L55.6082 342.996C55.6088 343.003 55.6095 343.009 55.6102 343.016L57.5987 342.802ZM57.737 343.955V345.955C58.3191 345.955 58.8724 345.701 59.2523 345.26C59.6323 344.819 59.8011 344.234 59.7149 343.658L57.737 343.955ZM57.724 343.955V341.955C56.7623 341.955 55.9367 342.639 55.7586 343.584C55.5805 344.529 56.1003 345.467 56.9961 345.817L57.724 343.955ZM64.0694 353.535L62.0698 353.492L64.0694 353.535ZM36.0728 353.535L34.0728 353.535L36.0728 353.535ZM42.1113 345.954H42.2087V341.954H42.1113V345.954ZM47.6036 334.685C45.245 335.004 43.5519 336.894 42.5005 338.468C41.3804 340.143 40.5908 342.057 40.195 343.382L44.0277 344.527C44.332 343.508 44.9682 341.974 45.8261 340.69C46.7525 339.304 47.5894 338.723 48.1393 338.649L47.6036 334.685ZM52.4772 338.409C52.2935 337.524 51.9115 336.468 51.0561 335.675C50.1181 334.806 48.8955 334.51 47.6036 334.685L48.1393 338.649C48.2336 338.636 48.2992 338.635 48.34 338.637C48.3603 338.638 48.3746 338.64 48.3835 338.641C48.3924 338.643 48.3965 338.644 48.3966 338.644C48.3966 338.644 48.3935 338.643 48.3881 338.641C48.3826 338.639 48.376 338.635 48.3688 338.631C48.3533 338.623 48.3423 338.614 48.337 338.609C48.3269 338.6 48.358 338.624 48.407 338.727C48.4571 338.832 48.5131 338.993 48.5607 339.222L52.4772 338.409ZM52.0609 340.089C52.5649 339.479 53.0293 339.019 53.4221 338.728C53.848 338.413 53.9882 338.444 53.8863 338.444V334.444C52.7417 334.444 51.7585 334.983 51.0414 335.514C50.2913 336.069 49.5934 336.795 48.9769 337.542L52.0609 340.089ZM53.8863 338.444C54.1827 338.444 54.3152 338.522 54.4131 338.605C54.551 338.721 54.7362 338.96 54.9212 339.416C55.3114 340.377 55.4652 341.67 55.6102 343.016L59.5872 342.588C59.4566 341.376 59.2679 339.49 58.6277 337.912C58.2974 337.098 57.7954 336.227 56.9964 335.551C56.1575 334.841 55.1035 334.444 53.8863 334.444V338.444ZM55.6081 342.996L55.6082 342.996L59.5893 342.608L59.5892 342.608L55.6081 342.996ZM55.6102 343.016C55.6548 343.43 55.7016 343.867 55.759 344.251L59.7149 343.658C59.6722 343.374 59.6345 343.027 59.5872 342.588L55.6102 343.016ZM57.737 341.955H57.724V345.955H57.737V341.955ZM56.9961 345.817C58.4949 346.403 59.7636 347.24 60.6473 348.406C61.5114 349.547 62.1203 351.149 62.0698 353.492L66.0689 353.578C66.1365 350.442 65.3065 347.932 63.8353 345.99C62.3836 344.075 60.4206 342.861 58.4519 342.092L56.9961 345.817ZM62.0698 353.492C62.0008 356.698 60.5554 358.584 58.4459 359.777C56.1998 361.048 53.1202 361.556 49.986 361.556V365.556C53.4304 365.556 57.3071 365.017 60.4153 363.259C63.6602 361.423 65.9672 358.298 66.0689 353.578L62.0698 353.492ZM49.986 361.556C46.9732 361.556 43.8831 360.827 41.6162 359.421C39.4078 358.052 38.0727 356.127 38.0728 353.535L34.0728 353.535C34.0727 357.813 36.405 360.897 39.5086 362.821C42.5537 364.709 46.4203 365.556 49.986 365.556V361.556ZM38.0728 353.535C38.0728 351.15 38.6745 349.52 39.508 348.37C40.3518 347.206 41.5436 346.382 42.9602 345.808L41.4572 342.101C39.5346 342.881 37.6585 344.106 36.2691 346.023C34.8694 347.954 34.0728 350.438 34.0728 353.535L38.0728 353.535Z" fill="#E1CEB5"/>
<path d="M50.465 339.369V345.496" stroke="#E1CEB5" stroke-width="4" stroke-linecap="round" stroke-linejoin="round"/>
<rect x="100.073" y="300" width="100" height="100" fill="#F2E1CB"/>
<path d="M138.574 343.668C141.57 337.656 147.491 340.66 150.079 342.385C151.968 340.891 156.074 338.196 160.2 341.828C166.66 347.514 154.7 359.986 150.079 359.986C144.965 359.986 135.837 349.163 138.574 343.668Z" fill="#E1CEB5" stroke="#E1CEB5" stroke-width="3"/>
<rect x="200.073" y="300" width="100" height="100" fill="#FBECD8"/>
<path fill-rule="evenodd" clip-rule="evenodd" d="M242.209 343.954H242.111C242.811 341.61 244.963 337.06 247.871 336.667C249.494 336.447 250.233 337.437 250.519 338.815C251.639 337.459 252.844 336.444 253.886 336.444C256.914 336.444 257.323 340.244 257.599 342.802L257.599 342.802C257.645 343.228 257.687 343.621 257.737 343.955H257.724C261.191 345.31 264.187 348.056 264.069 353.535C263.899 361.461 256.565 363.556 249.986 363.556C243.407 363.556 236.073 360.404 236.073 353.535C236.073 348.053 238.87 345.308 242.209 343.954Z" fill="white"/>
<path d="M242.111 343.954L240.195 343.382C240.014 343.988 240.13 344.643 240.507 345.149C240.885 345.656 241.48 345.954 242.111 345.954V343.954ZM242.209 343.954L242.96 345.808C243.847 345.448 244.355 344.511 244.172 343.572C243.989 342.632 243.166 341.954 242.209 341.954V343.954ZM247.871 336.667L248.139 338.649L247.871 336.667ZM250.519 338.815L248.561 339.222C248.717 339.975 249.291 340.572 250.038 340.757C250.785 340.942 251.571 340.682 252.061 340.089L250.519 338.815ZM257.599 342.802L259.589 342.608C259.589 342.601 259.588 342.594 259.587 342.588L257.599 342.802ZM257.599 342.802L255.608 342.996C255.609 343.003 255.609 343.009 255.61 343.016L257.599 342.802ZM257.737 343.955V345.955C258.319 345.955 258.872 345.701 259.252 345.26C259.632 344.819 259.801 344.234 259.715 343.658L257.737 343.955ZM257.724 343.955V341.955C256.762 341.955 255.937 342.639 255.759 343.584C255.58 344.529 256.1 345.467 256.996 345.817L257.724 343.955ZM264.069 353.535L262.07 353.492L264.069 353.535ZM236.073 353.535L234.073 353.535L236.073 353.535ZM242.111 345.954H242.209V341.954H242.111V345.954ZM247.604 334.685C245.245 335.004 243.552 336.894 242.5 338.468C241.38 340.143 240.591 342.057 240.195 343.382L244.028 344.527C244.332 343.508 244.968 341.974 245.826 340.69C246.753 339.304 247.589 338.723 248.139 338.649L247.604 334.685ZM252.477 338.409C252.294 337.524 251.912 336.468 251.056 335.675C250.118 334.806 248.896 334.51 247.604 334.685L248.139 338.649C248.234 338.636 248.299 338.635 248.34 338.637C248.36 338.638 248.375 338.64 248.384 338.641C248.392 338.643 248.397 338.644 248.397 338.644C248.397 338.644 248.394 338.643 248.388 338.641C248.383 338.639 248.376 338.635 248.369 338.631C248.353 338.623 248.342 338.614 248.337 338.609C248.327 338.6 248.358 338.624 248.407 338.727C248.457 338.832 248.513 338.993 248.561 339.222L252.477 338.409ZM252.061 340.089C252.565 339.479 253.029 339.019 253.422 338.728C253.848 338.413 253.988 338.444 253.886 338.444V334.444C252.742 334.444 251.758 334.983 251.041 335.514C250.291 336.069 249.593 336.795 248.977 337.542L252.061 340.089ZM253.886 338.444C254.183 338.444 254.315 338.522 254.413 338.605C254.551 338.721 254.736 338.96 254.921 339.416C255.311 340.377 255.465 341.67 255.61 343.016L259.587 342.588C259.457 341.376 259.268 339.49 258.628 337.912C258.297 337.098 257.795 336.227 256.996 335.551C256.157 334.841 255.104 334.444 253.886 334.444V338.444ZM255.608 342.996L255.608 342.996L259.589 342.608L259.589 342.608L255.608 342.996ZM255.61 343.016C255.655 343.43 255.702 343.867 255.759 344.251L259.715 343.658C259.672 343.374 259.634 343.027 259.587 342.588L255.61 343.016ZM257.737 341.955H257.724V345.955H257.737V341.955ZM256.996 345.817C258.495 346.403 259.764 347.24 260.647 348.406C261.511 349.547 262.12 351.149 262.07 353.492L266.069 353.578C266.136 350.442 265.306 347.932 263.835 345.99C262.384 344.075 260.421 342.861 258.452 342.092L256.996 345.817ZM262.07 353.492C262.001 356.698 260.555 358.584 258.446 359.777C256.2 361.048 253.12 361.556 249.986 361.556V365.556C253.43 365.556 257.307 365.017 260.415 363.259C263.66 361.423 265.967 358.298 266.069 353.578L262.07 353.492ZM249.986 361.556C246.973 361.556 243.883 360.827 241.616 359.421C239.408 358.052 238.073 356.127 238.073 353.535L234.073 353.535C234.073 357.813 236.405 360.897 239.509 362.821C242.554 364.709 246.42 365.556 249.986 365.556V361.556ZM238.073 353.535C238.073 351.15 238.675 349.52 239.508 348.37C240.352 347.206 241.544 346.382 242.96 345.808L241.457 342.101C239.535 342.881 237.659 344.106 236.269 346.023C234.869 347.954 234.073 350.438 234.073 353.535L238.073 353.535Z" fill="#E1CEB5"/>
<path d="M250.465 339.369V345.496" stroke="#E1CEB5" stroke-width="4" stroke-linecap="round" stroke-linejoin="round"/>
<rect x="300.073" y="300" width="100" height="100" fill="#F2E1CB"/>
<path d="M338.574 343.668C341.57 337.656 347.491 340.66 350.079 342.385C351.968 340.891 356.074 338.196 360.2 341.828C366.66 347.514 354.7 359.986 350.079 359.986C344.965 359.986 335.837 349.163 338.574 343.668Z" fill="#E1CEB5" stroke="#E1CEB5" stroke-width="3"/>
<rect x="0.0727539" y="400" width="100" height="100" fill="#F2E1CB"/>
<path d="M38.5741 443.668C41.5695 437.656 47.4911 440.66 50.0791 442.385C51.9682 440.891 56.0738 438.196 60.2002 441.828C66.6604 447.514 54.7004 459.986 50.0791 459.986C44.9646 459.986 35.8368 449.163 38.5741 443.668Z" fill="#E1CEB5" stroke="#E1CEB5" stroke-width="3"/>
<rect x="100.073" y="400" width="100" height="100" fill="#FBECD8"/>
<path fill-rule="evenodd" clip-rule="evenodd" d="M142.209 443.954H142.111C142.811 441.61 144.963 437.06 147.871 436.667C149.494 436.447 150.233 437.437 150.519 438.815C151.639 437.459 152.844 436.444 153.886 436.444C156.914 436.444 157.323 440.244 157.599 442.802L157.599 442.802C157.645 443.228 157.687 443.621 157.737 443.955H157.724C161.191 445.31 164.187 448.056 164.069 453.535C163.899 461.461 156.565 463.556 149.986 463.556C143.407 463.556 136.073 460.404 136.073 453.535C136.073 448.053 138.87 445.308 142.209 443.954Z" fill="white"/>
<path d="M142.111 443.954L140.195 443.382C140.014 443.988 140.13 444.643 140.507 445.149C140.885 445.656 141.48 445.954 142.111 445.954V443.954ZM142.209 443.954L142.96 445.808C143.847 445.448 144.355 444.511 144.172 443.572C143.989 442.632 143.166 441.954 142.209 441.954V443.954ZM147.871 436.667L148.139 438.649L147.871 436.667ZM150.519 438.815L148.561 439.222C148.717 439.975 149.291 440.572 150.038 440.757C150.785 440.942 151.571 440.682 152.061 440.089L150.519 438.815ZM157.599 442.802L159.589 442.608C159.589 442.601 159.588 442.594 159.587 442.588L157.599 442.802ZM157.599 442.802L155.608 442.996C155.609 443.003 155.609 443.009 155.61 443.016L157.599 442.802ZM157.737 443.955V445.955C158.319 445.955 158.872 445.701 159.252 445.26C159.632 444.819 159.801 444.234 159.715 443.658L157.737 443.955ZM157.724 443.955V441.955C156.762 441.955 155.937 442.639 155.759 443.584C155.58 444.529 156.1 445.467 156.996 445.817L157.724 443.955ZM164.069 453.535L162.07 453.492L164.069 453.535ZM136.073 453.535L134.073 453.535L136.073 453.535ZM142.111 445.954H142.209V441.954H142.111V445.954ZM147.604 434.685C145.245 435.004 143.552 436.894 142.5 438.468C141.38 440.143 140.591 442.057 140.195 443.382L144.028 444.527C144.332 443.508 144.968 441.974 145.826 440.69C146.753 439.304 147.589 438.723 148.139 438.649L147.604 434.685ZM152.477 438.409C152.294 437.524 151.912 436.468 151.056 435.675C150.118 434.806 148.896 434.51 147.604 434.685L148.139 438.649C148.234 438.636 148.299 438.635 148.34 438.637C148.36 438.638 148.375 438.64 148.384 438.641C148.392 438.643 148.397 438.644 148.397 438.644C148.397 438.644 148.394 438.643 148.388 438.641C148.383 438.639 148.376 438.635 148.369 438.631C148.353 438.623 148.342 438.614 148.337 438.609C148.327 438.6 148.358 438.624 148.407 438.727C148.457 438.832 148.513 438.993 148.561 439.222L152.477 438.409ZM152.061 440.089C152.565 439.479 153.029 439.019 153.422 438.728C153.848 438.413 153.988 438.444 153.886 438.444V434.444C152.742 434.444 151.758 434.983 151.041 435.514C150.291 436.069 149.593 436.795 148.977 437.542L152.061 440.089ZM153.886 438.444C154.183 438.444 154.315 438.522 154.413 438.605C154.551 438.721 154.736 438.96 154.921 439.416C155.311 440.377 155.465 441.67 155.61 443.016L159.587 442.588C159.457 441.376 159.268 439.49 158.628 437.912C158.297 437.098 157.795 436.227 156.996 435.551C156.157 434.841 155.104 434.444 153.886 434.444V438.444ZM155.608 442.996L155.608 442.996L159.589 442.608L159.589 442.608L155.608 442.996ZM155.61 443.016C155.655 443.43 155.702 443.867 155.759 444.251L159.715 443.658C159.672 443.374 159.634 443.027 159.587 442.588L155.61 443.016ZM157.737 441.955H157.724V445.955H157.737V441.955ZM156.996 445.817C158.495 446.403 159.764 447.24 160.647 448.406C161.511 449.547 162.12 451.149 162.07 453.492L166.069 453.578C166.136 450.442 165.306 447.932 163.835 445.99C162.384 444.075 160.421 442.861 158.452 442.092L156.996 445.817ZM162.07 453.492C162.001 456.698 160.555 458.584 158.446 459.777C156.2 461.048 153.12 461.556 149.986 461.556V465.556C153.43 465.556 157.307 465.017 160.415 463.259C163.66 461.423 165.967 458.298 166.069 453.578L162.07 453.492ZM149.986 461.556C146.973 461.556 143.883 460.827 141.616 459.421C139.408 458.052 138.073 456.127 138.073 453.535L134.073 453.535C134.073 457.813 136.405 460.897 139.509 462.821C142.554 464.709 146.42 465.556 149.986 465.556V461.556ZM138.073 453.535C138.073 451.15 138.675 449.52 139.508 448.37C140.352 447.206 141.544 446.382 142.96 445.808L141.457 442.101C139.535 442.881 137.659 444.106 136.269 446.023C134.869 447.954 134.073 450.438 134.073 453.535L138.073 453.535Z" fill="#E1CEB5"/>
<path d="M150.465 439.369V445.496" stroke="#E1CEB5" stroke-width="4" stroke-linecap="round" stroke-linejoin="round"/>
<rect x="200.073" y="400" width="100" height="100" fill="#F2E1CB"/>
<path d="M238.574 443.668C241.57 437.656 247.491 440.66 250.079 442.385C251.968 440.891 256.074 438.196 260.2 441.828C266.66 447.514 254.7 459.986 250.079 459.986C244.965 459.986 235.837 449.163 238.574 443.668Z" fill="#E1CEB5" stroke="#E1CEB5" stroke-width="3"/>
<rect x="300.073" y="400" width="100" height="100" fill="#FBECD8"/>
<path fill-rule="evenodd" clip-rule="evenodd" d="M342.209 443.954H342.111C342.811 441.61 344.963 437.06 347.871 436.667C349.494 436.447 350.233 437.437 350.519 438.815C351.639 437.459 352.844 436.444 353.886 436.444C356.914 436.444 357.323 440.244 357.599 442.802L357.599 442.802C357.645 443.228 357.687 443.621 357.737 443.955H357.724C361.191 445.31 364.187 448.056 364.069 453.535C363.899 461.461 356.565 463.556 349.986 463.556C343.407 463.556 336.073 460.404 336.073 453.535C336.073 448.053 338.87 445.308 342.209 443.954Z" fill="white"/>
<path d="M342.111 443.954L340.195 443.382C340.014 443.988 340.13 444.643 340.507 445.149C340.885 445.656 341.48 445.954 342.111 445.954V443.954ZM342.209 443.954L342.96 445.808C343.847 445.448 344.355 444.511 344.172 443.572C343.989 442.632 343.166 441.954 342.209 441.954V443.954ZM347.871 436.667L348.139 438.649L347.871 436.667ZM350.519 438.815L348.561 439.222C348.717 439.975 349.291 440.572 350.038 440.757C350.785 440.942 351.571 440.682 352.061 440.089L350.519 438.815ZM357.599 442.802L359.589 442.608C359.589 442.601 359.588 442.594 359.587 442.588L357.599 442.802ZM357.599 442.802L355.608 442.996C355.609 443.003 355.609 443.009 355.61 443.016L357.599 442.802ZM357.737 443.955V445.955C358.319 445.955 358.872 445.701 359.252 445.26C359.632 444.819 359.801 444.234 359.715 443.658L357.737 443.955ZM357.724 443.955V441.955C356.762 441.955 355.937 442.639 355.759 443.584C355.58 444.529 356.1 445.467 356.996 445.817L357.724 443.955ZM364.069 453.535L362.07 453.492L364.069 453.535ZM336.073 453.535L334.073 453.535L336.073 453.535ZM342.111 445.954H342.209V441.954H342.111V445.954ZM347.604 434.685C345.245 435.004 343.552 436.894 342.5 438.468C341.38 440.143 340.591 442.057 340.195 443.382L344.028 444.527C344.332 443.508 344.968 441.974 345.826 440.69C346.753 439.304 347.589 438.723 348.139 438.649L347.604 434.685ZM352.477 438.409C352.294 437.524 351.912 436.468 351.056 435.675C350.118 434.806 348.896 434.51 347.604 434.685L348.139 438.649C348.234 438.636 348.299 438.635 348.34 438.637C348.36 438.638 348.375 438.64 348.384 438.641C348.392 438.643 348.397 438.644 348.397 438.644C348.397 438.644 348.394 438.643 348.388 438.641C348.383 438.639 348.376 438.635 348.369 438.631C348.353 438.623 348.342 438.614 348.337 438.609C348.327 438.6 348.358 438.624 348.407 438.727C348.457 438.832 348.513 438.993 348.561 439.222L352.477 438.409ZM352.061 440.089C352.565 439.479 353.029 439.019 353.422 438.728C353.848 438.413 353.988 438.444 353.886 438.444V434.444C352.742 434.444 351.758 434.983 351.041 435.514C350.291 436.069 349.593 436.795 348.977 437.542L352.061 440.089ZM353.886 438.444C354.183 438.444 354.315 438.522 354.413 438.605C354.551 438.721 354.736 438.96 354.921 439.416C355.311 440.377 355.465 441.67 355.61 443.016L359.587 442.588C359.457 441.376 359.268 439.49 358.628 437.912C358.297 437.098 357.795 436.227 356.996 435.551C356.157 434.841 355.104 434.444 353.886 434.444V438.444ZM355.608 442.996L355.608 442.996L359.589 442.608L359.589 442.608L355.608 442.996ZM355.61 443.016C355.655 443.43 355.702 443.867 355.759 444.251L359.715 443.658C359.672 443.374 359.634 443.027 359.587 442.588L355.61 443.016ZM357.737 441.955H357.724V445.955H357.737V441.955ZM356.996 445.817C358.495 446.403 359.764 447.24 360.647 448.406C361.511 449.547 362.12 451.149 362.07 453.492L366.069 453.578C366.136 450.442 365.306 447.932 363.835 445.99C362.384 444.075 360.421 442.861 358.452 442.092L356.996 445.817ZM362.07 453.492C362.001 456.698 360.555 458.584 358.446 459.777C356.2 461.048 353.12 461.556 349.986 461.556V465.556C353.43 465.556 357.307 465.017 360.415 463.259C363.66 461.423 365.967 458.298 366.069 453.578L362.07 453.492ZM349.986 461.556C346.973 461.556 343.883 460.827 341.616 459.421C339.408 458.052 338.073 456.127 338.073 453.535L334.073 453.535C334.073 457.813 336.405 460.897 339.509 462.821C342.554 464.709 346.42 465.556 349.986 465.556V461.556ZM338.073 453.535C338.073 451.15 338.675 449.52 339.508 448.37C340.352 447.206 341.544 446.382 342.96 445.808L341.457 442.101C339.535 442.881 337.659 444.106 336.269 446.023C334.869 447.954 334.073 450.438 334.073 453.535L338.073 453.535Z" fill="#E1CEB5"/>
<path d="M350.465 439.369V445.496" stroke="#E1CEB5" stroke-width="4" stroke-linecap="round" stroke-linejoin="round"/>
<rect x="0.0727539" y="500" width="100" height="100" fill="#FBECD8"/>
<path fill-rule="evenodd" clip-rule="evenodd" d="M42.2087 543.954H42.1113C42.8115 541.61 44.963 537.06 47.8714 536.667C49.4944 536.447 50.2328 537.437 50.5189 538.815C51.6394 537.459 52.8436 536.444 53.8863 536.444C56.9137 536.444 57.3231 540.244 57.5987 542.802L57.5987 542.802C57.6447 543.228 57.6869 543.621 57.737 543.955H57.724C61.1915 545.31 64.1875 548.056 64.0694 553.535C63.8986 561.461 56.5646 563.556 49.986 563.556C43.4074 563.556 36.0727 560.404 36.0728 553.535C36.0728 548.053 38.8696 545.308 42.2087 543.954Z" fill="white"/>
<path d="M42.1113 543.954L40.195 543.382C40.0142 543.988 40.1301 544.643 40.5075 545.149C40.8849 545.656 41.4796 545.954 42.1113 545.954V543.954ZM42.2087 543.954L42.9602 545.808C43.847 545.448 44.3549 544.511 44.1717 543.572C43.9885 542.632 43.1657 541.954 42.2087 541.954V543.954ZM47.8714 536.667L48.1393 538.649L47.8714 536.667ZM50.5189 538.815L48.5607 539.222C48.717 539.975 49.2914 540.572 50.038 540.757C50.7846 540.942 51.5711 540.682 52.0609 540.089L50.5189 538.815ZM57.5987 542.802L59.5892 542.608C59.5886 542.601 59.5879 542.594 59.5872 542.588L57.5987 542.802ZM57.5987 542.802L55.6082 542.996C55.6088 543.003 55.6095 543.009 55.6102 543.016L57.5987 542.802ZM57.737 543.955V545.955C58.3191 545.955 58.8724 545.701 59.2523 545.26C59.6323 544.819 59.8011 544.234 59.7149 543.658L57.737 543.955ZM57.724 543.955V541.955C56.7623 541.955 55.9367 542.639 55.7586 543.584C55.5805 544.529 56.1003 545.467 56.9961 545.817L57.724 543.955ZM64.0694 553.535L62.0698 553.492L64.0694 553.535ZM36.0728 553.535L34.0728 553.535L36.0728 553.535ZM42.1113 545.954H42.2087V541.954H42.1113V545.954ZM47.6036 534.685C45.245 535.004 43.5519 536.894 42.5005 538.468C41.3804 540.143 40.5908 542.057 40.195 543.382L44.0277 544.527C44.332 543.508 44.9682 541.974 45.8261 540.69C46.7525 539.304 47.5894 538.723 48.1393 538.649L47.6036 534.685ZM52.4772 538.409C52.2935 537.524 51.9115 536.468 51.0561 535.675C50.1181 534.806 48.8955 534.51 47.6036 534.685L48.1393 538.649C48.2336 538.636 48.2992 538.635 48.34 538.637C48.3603 538.638 48.3746 538.64 48.3835 538.641C48.3924 538.643 48.3965 538.644 48.3966 538.644C48.3966 538.644 48.3935 538.643 48.3881 538.641C48.3826 538.639 48.376 538.635 48.3688 538.631C48.3533 538.623 48.3423 538.614 48.337 538.609C48.3269 538.6 48.358 538.624 48.407 538.727C48.4571 538.832 48.5131 538.993 48.5607 539.222L52.4772 538.409ZM52.0609 540.089C52.5649 539.479 53.0293 539.019 53.4221 538.728C53.848 538.413 53.9882 538.444 53.8863 538.444V534.444C52.7417 534.444 51.7585 534.983 51.0414 535.514C50.2913 536.069 49.5934 536.795 48.9769 537.542L52.0609 540.089ZM53.8863 538.444C54.1827 538.444 54.3152 538.522 54.4131 538.605C54.551 538.721 54.7362 538.96 54.9212 539.416C55.3114 540.377 55.4652 541.67 55.6102 543.016L59.5872 542.588C59.4566 541.376 59.2679 539.49 58.6277 537.912C58.2974 537.098 57.7954 536.227 56.9964 535.551C56.1575 534.841 55.1035 534.444 53.8863 534.444V538.444ZM55.6081 542.996L55.6082 542.996L59.5893 542.608L59.5892 542.608L55.6081 542.996ZM55.6102 543.016C55.6548 543.43 55.7016 543.867 55.759 544.251L59.7149 543.658C59.6722 543.374 59.6345 543.027 59.5872 542.588L55.6102 543.016ZM57.737 541.955H57.724V545.955H57.737V541.955ZM56.9961 545.817C58.4949 546.403 59.7636 547.24 60.6473 548.406C61.5114 549.547 62.1203 551.149 62.0698 553.492L66.0689 553.578C66.1365 550.442 65.3065 547.932 63.8353 545.99C62.3836 544.075 60.4206 542.861 58.4519 542.092L56.9961 545.817ZM62.0698 553.492C62.0008 556.698 60.5554 558.584 58.4459 559.777C56.1998 561.048 53.1202 561.556 49.986 561.556V565.556C53.4304 565.556 57.3071 565.017 60.4153 563.259C63.6602 561.423 65.9672 558.298 66.0689 553.578L62.0698 553.492ZM49.986 561.556C46.9732 561.556 43.8831 560.827 41.6162 559.421C39.4078 558.052 38.0727 556.127 38.0728 553.535L34.0728 553.535C34.0727 557.813 36.405 560.897 39.5086 562.821C42.5537 564.709 46.4203 565.556 49.986 565.556V561.556ZM38.0728 553.535C38.0728 551.15 38.6745 549.52 39.508 548.37C40.3518 547.206 41.5436 546.382 42.9602 545.808L41.4572 542.101C39.5346 542.881 37.6585 544.106 36.2691 546.023C34.8694 547.954 34.0728 550.438 34.0728 553.535L38.0728 553.535Z" fill="#E1CEB5"/>
<path d="M50.465 539.369V545.496" stroke="#E1CEB5" stroke-width="4" stroke-linecap="round" stroke-linejoin="round"/>
<rect x="100.073" y="500" width="100" height="100" fill="#F2E1CB"/>
<path d="M138.574 543.668C141.57 537.656 147.491 540.66 150.079 542.385C151.968 540.891 156.074 538.196 160.2 541.828C166.66 547.514 154.7 559.986 150.079 559.986C144.965 559.986 135.837 549.163 138.574 543.668Z" fill="#E1CEB5" stroke="#E1CEB5" stroke-width="3"/>
<rect x="200.073" y="500" width="100" height="100" fill="#FBECD8"/>
<path fill-rule="evenodd" clip-rule="evenodd" d="M242.209 543.954H242.111C242.811 541.61 244.963 537.06 247.871 536.667C249.494 536.447 250.233 537.437 250.519 538.815C251.639 537.459 252.844 536.444 253.886 536.444C256.914 536.444 257.323 540.244 257.599 542.802L257.599 542.802C257.645 543.228 257.687 543.621 257.737 543.955H257.724C261.191 545.31 264.187 548.056 264.069 553.535C263.899 561.461 256.565 563.556 249.986 563.556C243.407 563.556 236.073 560.404 236.073 553.535C236.073 548.053 238.87 545.308 242.209 543.954Z" fill="white"/>
<path d="M242.111 543.954L240.195 543.382C240.014 543.988 240.13 544.643 240.507 545.149C240.885 545.656 241.48 545.954 242.111 545.954V543.954ZM242.209 543.954L242.96 545.808C243.847 545.448 244.355 544.511 244.172 543.572C243.989 542.632 243.166 541.954 242.209 541.954V543.954ZM247.871 536.667L248.139 538.649L247.871 536.667ZM250.519 538.815L248.561 539.222C248.717 539.975 249.291 540.572 250.038 540.757C250.785 540.942 251.571 540.682 252.061 540.089L250.519 538.815ZM257.599 542.802L259.589 542.608C259.589 542.601 259.588 542.594 259.587 542.588L257.599 542.802ZM257.599 542.802L255.608 542.996C255.609 543.003 255.609 543.009 255.61 543.016L257.599 542.802ZM257.737 543.955V545.955C258.319 545.955 258.872 545.701 259.252 545.26C259.632 544.819 259.801 544.234 259.715 543.658L257.737 543.955ZM257.724 543.955V541.955C256.762 541.955 255.937 542.639 255.759 543.584C255.58 544.529 256.1 545.467 256.996 545.817L257.724 543.955ZM264.069 553.535L262.07 553.492L264.069 553.535ZM236.073 553.535L234.073 553.535L236.073 553.535ZM242.111 545.954H242.209V541.954H242.111V545.954ZM247.604 534.685C245.245 535.004 243.552 536.894 242.5 538.468C241.38 540.143 240.591 542.057 240.195 543.382L244.028 544.527C244.332 543.508 244.968 541.974 245.826 540.69C246.753 539.304 247.589 538.723 248.139 538.649L247.604 534.685ZM252.477 538.409C252.294 537.524 251.912 536.468 251.056 535.675C250.118 534.806 248.896 534.51 247.604 534.685L248.139 538.649C248.234 538.636 248.299 538.635 248.34 538.637C248.36 538.638 248.375 538.64 248.384 538.641C248.392 538.643 248.397 538.644 248.397 538.644C248.397 538.644 248.394 538.643 248.388 538.641C248.383 538.639 248.376 538.635 248.369 538.631C248.353 538.623 248.342 538.614 248.337 538.609C248.327 538.6 248.358 538.624 248.407 538.727C248.457 538.832 248.513 538.993 248.561 539.222L252.477 538.409ZM252.061 540.089C252.565 539.479 253.029 539.019 253.422 538.728C253.848 538.413 253.988 538.444 253.886 538.444V534.444C252.742 534.444 251.758 534.983 251.041 535.514C250.291 536.069 249.593 536.795 248.977 537.542L252.061 540.089ZM253.886 538.444C254.183 538.444 254.315 538.522 254.413 538.605C254.551 538.721 254.736 538.96 254.921 539.416C255.311 540.377 255.465 541.67 255.61 543.016L259.587 542.588C259.457 541.376 259.268 539.49 258.628 537.912C258.297 537.098 257.795 536.227 256.996 535.551C256.157 534.841 255.104 534.444 253.886 534.444V538.444ZM255.608 542.996L255.608 542.996L259.589 542.608L259.589 542.608L255.608 542.996ZM255.61 543.016C255.655 543.43 255.702 543.867 255.759 544.251L259.715 543.658C259.672 543.374 259.634 543.027 259.587 542.588L255.61 543.016ZM257.737 541.955H257.724V545.955H257.737V541.955ZM256.996 545.817C258.495 546.403 259.764 547.24 260.647 548.406C261.511 549.547 262.12 551.149 262.07 553.492L266.069 553.578C266.136 550.442 265.306 547.932 263.835 545.99C262.384 544.075 260.421 542.861 258.452 542.092L256.996 545.817ZM262.07 553.492C262.001 556.698 260.555 558.584 258.446 559.777C256.2 561.048 253.12 561.556 249.986 561.556V565.556C253.43 565.556 257.307 565.017 260.415 563.259C263.66 561.423 265.967 558.298 266.069 553.578L262.07 553.492ZM249.986 561.556C246.973 561.556 243.883 560.827 241.616 559.421C239.408 558.052 238.073 556.127 238.073 553.535L234.073 553.535C234.073 557.813 236.405 560.897 239.509 562.821C242.554 564.709 246.42 565.556 249.986 565.556V561.556ZM238.073 553.535C238.073 551.15 238.675 549.52 239.508 548.37C240.352 547.206 241.544 546.382 242.96 545.808L241.457 542.101C239.535 542.881 237.659 544.106 236.269 546.023C234.869 547.954 234.073 550.438 234.073 553.535L238.073 553.535Z" fill="#E1CEB5"/>
<path d="M250.465 539.369V545.496" stroke="#E1CEB5" stroke-width="4" stroke-linecap="round" stroke-linejoin="round"/>
<rect x="300.073" y="500" width="100" height="100" fill="#F2E1CB"/>
<path d="M338.574 543.668C341.57 537.656 347.491 540.66 350.079 542.385C351.968 540.891 356.074 538.196 360.2 541.828C366.66 547.514 354.7 559.986 350.079 559.986C344.965 559.986 335.837 549.163 338.574 543.668Z" fill="#E1CEB5" stroke="#E1CEB5" stroke-width="3"/>
<rect x="0.0727539" y="600" width="100" height="100" fill="#F2E1CB"/>
<path d="M38.5741 643.668C41.5695 637.656 47.4911 640.66 50.0791 642.385C51.9682 640.891 56.0738 638.196 60.2002 641.828C66.6604 647.514 54.7004 659.986 50.0791 659.986C44.9646 659.986 35.8368 649.163 38.5741 643.668Z" fill="#E1CEB5" stroke="#E1CEB5" stroke-width="3"/>
<rect x="100.073" y="600" width="100" height="100" fill="#FBECD8"/>
<path fill-rule="evenodd" clip-rule="evenodd" d="M142.209 643.954H142.111C142.811 641.61 144.963 637.06 147.871 636.667C149.494 636.447 150.233 637.437 150.519 638.815C151.639 637.459 152.844 636.444 153.886 636.444C156.914 636.444 157.323 640.244 157.599 642.802L157.599 642.802C157.645 643.228 157.687 643.621 157.737 643.955H157.724C161.191 645.31 164.187 648.056 164.069 653.535C163.899 661.461 156.565 663.556 149.986 663.556C143.407 663.556 136.073 660.404 136.073 653.535C136.073 648.053 138.87 645.308 142.209 643.954Z" fill="white"/>
<path d="M142.111 643.954L140.195 643.382C140.014 643.988 140.13 644.643 140.507 645.149C140.885 645.656 141.48 645.954 142.111 645.954V643.954ZM142.209 643.954L142.96 645.808C143.847 645.448 144.355 644.511 144.172 643.572C143.989 642.632 143.166 641.954 142.209 641.954V643.954ZM147.871 636.667L148.139 638.649L147.871 636.667ZM150.519 638.815L148.561 639.222C148.717 639.975 149.291 640.572 150.038 640.757C150.785 640.942 151.571 640.682 152.061 640.089L150.519 638.815ZM157.599 642.802L159.589 642.608C159.589 642.601 159.588 642.594 159.587 642.588L157.599 642.802ZM157.599 642.802L155.608 642.996C155.609 643.003 155.609 643.009 155.61 643.016L157.599 642.802ZM157.737 643.955V645.955C158.319 645.955 158.872 645.701 159.252 645.26C159.632 644.819 159.801 644.234 159.715 643.658L157.737 643.955ZM157.724 643.955V641.955C156.762 641.955 155.937 642.639 155.759 643.584C155.58 644.529 156.1 645.467 156.996 645.817L157.724 643.955ZM164.069 653.535L162.07 653.492L164.069 653.535ZM136.073 653.535L134.073 653.535L136.073 653.535ZM142.111 645.954H142.209V641.954H142.111V645.954ZM147.604 634.685C145.245 635.004 143.552 636.894 142.5 638.468C141.38 640.143 140.591 642.057 140.195 643.382L144.028 644.527C144.332 643.508 144.968 641.974 145.826 640.69C146.753 639.304 147.589 638.723 148.139 638.649L147.604 634.685ZM152.477 638.409C152.294 637.524 151.912 636.468 151.056 635.675C150.118 634.806 148.896 634.51 147.604 634.685L148.139 638.649C148.234 638.636 148.299 638.635 148.34 638.637C148.36 638.638 148.375 638.64 148.384 638.641C148.392 638.643 148.397 638.644 148.397 638.644C148.397 638.644 148.394 638.643 148.388 638.641C148.383 638.639 148.376 638.635 148.369 638.631C148.353 638.623 148.342 638.614 148.337 638.609C148.327 638.6 148.358 638.624 148.407 638.727C148.457 638.832 148.513 638.993 148.561 639.222L152.477 638.409ZM152.061 640.089C152.565 639.479 153.029 639.019 153.422 638.728C153.848 638.413 153.988 638.444 153.886 638.444V634.444C152.742 634.444 151.758 634.983 151.041 635.514C150.291 636.069 149.593 636.795 148.977 637.542L152.061 640.089ZM153.886 638.444C154.183 638.444 154.315 638.522 154.413 638.605C154.551 638.721 154.736 638.96 154.921 639.416C155.311 640.377 155.465 641.67 155.61 643.016L159.587 642.588C159.457 641.376 159.268 639.49 158.628 637.912C158.297 637.098 157.795 636.227 156.996 635.551C156.157 634.841 155.104 634.444 153.886 634.444V638.444ZM155.608 642.996L155.608 642.996L159.589 642.608L159.589 642.608L155.608 642.996ZM155.61 643.016C155.655 643.43 155.702 643.867 155.759 644.251L159.715 643.658C159.672 643.374 159.634 643.027 159.587 642.588L155.61 643.016ZM157.737 641.955H157.724V645.955H157.737V641.955ZM156.996 645.817C158.495 646.403 159.764 647.24 160.647 648.406C161.511 649.547 162.12 651.149 162.07 653.492L166.069 653.578C166.136 650.442 165.306 647.932 163.835 645.99C162.384 644.075 160.421 642.861 158.452 642.092L156.996 645.817ZM162.07 653.492C162.001 656.698 160.555 658.584 158.446 659.777C156.2 661.048 153.12 661.556 149.986 661.556V665.556C153.43 665.556 157.307 665.017 160.415 663.259C163.66 661.423 165.967 658.298 166.069 653.578L162.07 653.492ZM149.986 661.556C146.973 661.556 143.883 660.827 141.616 659.421C139.408 658.052 138.073 656.127 138.073 653.535L134.073 653.535C134.073 657.813 136.405 660.897 139.509 662.821C142.554 664.709 146.42 665.556 149.986 665.556V661.556ZM138.073 653.535C138.073 651.15 138.675 649.52 139.508 648.37C140.352 647.206 141.544 646.382 142.96 645.808L141.457 642.101C139.535 642.881 137.659 644.106 136.269 646.023C134.869 647.954 134.073 650.438 134.073 653.535L138.073 653.535Z" fill="#E1CEB5"/>
<path d="M150.465 639.369V645.496" stroke="#E1CEB5" stroke-width="4" stroke-linecap="round" stroke-linejoin="round"/>
<rect x="200.073" y="600" width="100" height="100" fill="#F2E1CB"/>
<path d="M238.574 643.668C241.57 637.656 247.491 640.66 250.079 642.385C251.968 640.891 256.074 638.196 260.2 641.828C266.66 647.514 254.7 659.986 250.079 659.986C244.965 659.986 235.837 649.163 238.574 643.668Z" fill="#E1CEB5" stroke="#E1CEB5" stroke-width="3"/>
<rect x="300.073" y="600" width="100" height="100" fill="#FBECD8"/>
<path fill-rule="evenodd" clip-rule="evenodd" d="M342.209 643.954H342.111C342.811 641.61 344.963 637.06 347.871 636.667C349.494 636.447 350.233 637.437 350.519 638.815C351.639 637.459 352.844 636.444 353.886 636.444C356.914 636.444 357.323 640.244 357.599 642.802L357.599 642.802C357.645 643.228 357.687 643.621 357.737 643.955H357.724C361.191 645.31 364.187 648.056 364.069 653.535C363.899 661.461 356.565 663.556 349.986 663.556C343.407 663.556 336.073 660.404 336.073 653.535C336.073 648.053 338.87 645.308 342.209 643.954Z" fill="white"/>
<path d="M342.111 643.954L340.195 643.382C340.014 643.988 340.13 644.643 340.507 645.149C340.885 645.656 341.48 645.954 342.111 645.954V643.954ZM342.209 643.954L342.96 645.808C343.847 645.448 344.355 644.511 344.172 643.572C343.989 642.632 343.166 641.954 342.209 641.954V643.954ZM347.871 636.667L348.139 638.649L347.871 636.667ZM350.519 638.815L348.561 639.222C348.717 639.975 349.291 640.572 350.038 640.757C350.785 640.942 351.571 640.682 352.061 640.089L350.519 638.815ZM357.599 642.802L359.589 642.608C359.589 642.601 359.588 642.594 359.587 642.588L357.599 642.802ZM357.599 642.802L355.608 642.996C355.609 643.003 355.609 643.009 355.61 643.016L357.599 642.802ZM357.737 643.955V645.955C358.319 645.955 358.872 645.701 359.252 645.26C359.632 644.819 359.801 644.234 359.715 643.658L357.737 643.955ZM357.724 643.955V641.955C356.762 641.955 355.937 642.639 355.759 643.584C355.58 644.529 356.1 645.467 356.996 645.817L357.724 643.955ZM364.069 653.535L362.07 653.492L364.069 653.535ZM336.073 653.535L334.073 653.535L336.073 653.535ZM342.111 645.954H342.209V641.954H342.111V645.954ZM347.604 634.685C345.245 635.004 343.552 636.894 342.5 638.468C341.38 640.143 340.591 642.057 340.195 643.382L344.028 644.527C344.332 643.508 344.968 641.974 345.826 640.69C346.753 639.304 347.589 638.723 348.139 638.649L347.604 634.685ZM352.477 638.409C352.294 637.524 351.912 636.468 351.056 635.675C350.118 634.806 348.896 634.51 347.604 634.685L348.139 638.649C348.234 638.636 348.299 638.635 348.34 638.637C348.36 638.638 348.375 638.64 348.384 638.641C348.392 638.643 348.397 638.644 348.397 638.644C348.397 638.644 348.394 638.643 348.388 638.641C348.383 638.639 348.376 638.635 348.369 638.631C348.353 638.623 348.342 638.614 348.337 638.609C348.327 638.6 348.358 638.624 348.407 638.727C348.457 638.832 348.513 638.993 348.561 639.222L352.477 638.409ZM352.061 640.089C352.565 639.479 353.029 639.019 353.422 638.728C353.848 638.413 353.988 638.444 353.886 638.444V634.444C352.742 634.444 351.758 634.983 351.041 635.514C350.291 636.069 349.593 636.795 348.977 637.542L352.061 640.089ZM353.886 638.444C354.183 638.444 354.315 638.522 354.413 638.605C354.551 638.721 354.736 638.96 354.921 639.416C355.311 640.377 355.465 641.67 355.61 643.016L359.587 642.588C359.457 641.376 359.268 639.49 358.628 637.912C358.297 637.098 357.795 636.227 356.996 635.551C356.157 634.841 355.104 634.444 353.886 634.444V638.444ZM355.608 642.996L355.608 642.996L359.589 642.608L359.589 642.608L355.608 642.996ZM355.61 643.016C355.655 643.43 355.702 643.867 355.759 644.251L359.715 643.658C359.672 643.374 359.634 643.027 359.587 642.588L355.61 643.016ZM357.737 641.955H357.724V645.955H357.737V641.955ZM356.996 645.817C358.495 646.403 359.764 647.24 360.647 648.406C361.511 649.547 362.12 651.149 362.07 653.492L366.069 653.578C366.136 650.442 365.306 647.932 363.835 645.99C362.384 644.075 360.421 642.861 358.452 642.092L356.996 645.817ZM362.07 653.492C362.001 656.698 360.555 658.584 358.446 659.777C356.2 661.048 353.12 661.556 349.986 661.556V665.556C353.43 665.556 357.307 665.017 360.415 663.259C363.66 661.423 365.967 658.298 366.069 653.578L362.07 653.492ZM349.986 661.556C346.973 661.556 343.883 660.827 341.616 659.421C339.408 658.052 338.073 656.127 338.073 653.535L334.073 653.535C334.073 657.813 336.405 660.897 339.509 662.821C342.554 664.709 346.42 665.556 349.986 665.556V661.556ZM338.073 653.535C338.073 651.15 338.675 649.52 339.508 648.37C340.352 647.206 341.544 646.382 342.96 645.808L341.457 642.101C339.535 642.881 337.659 644.106 336.269 646.023C334.869 647.954 334.073 650.438 334.073 653.535L338.073 653.535Z" fill="#E1CEB5"/>
<path d="M350.465 639.369V645.496" stroke="#E1CEB5" stroke-width="4" stroke-linecap="round" stroke-linejoin="round"/>
<rect x="0.0727539" y="700" width="100" height="100" fill="#FBECD8"/>
<path fill-rule="evenodd" clip-rule="evenodd" d="M42.2087 743.954H42.1113C42.8115 741.61 44.963 737.06 47.8714 736.667C49.4944 736.447 50.2328 737.437 50.5189 738.815C51.6394 737.459 52.8436 736.444 53.8863 736.444C56.9137 736.444 57.3231 740.244 57.5987 742.802L57.5987 742.802C57.6447 743.228 57.6869 743.621 57.737 743.955H57.724C61.1915 745.31 64.1875 748.056 64.0694 753.535C63.8986 761.461 56.5646 763.556 49.986 763.556C43.4074 763.556 36.0727 760.404 36.0728 753.535C36.0728 748.053 38.8696 745.308 42.2087 743.954Z" fill="white"/>
<path d="M42.1113 743.954L40.195 743.382C40.0142 743.988 40.1301 744.643 40.5075 745.149C40.8849 745.656 41.4796 745.954 42.1113 745.954V743.954ZM42.2087 743.954L42.9602 745.808C43.847 745.448 44.3549 744.511 44.1717 743.572C43.9885 742.632 43.1657 741.954 42.2087 741.954V743.954ZM47.8714 736.667L48.1393 738.649L47.8714 736.667ZM50.5189 738.815L48.5607 739.222C48.717 739.975 49.2914 740.572 50.038 740.757C50.7846 740.942 51.5711 740.682 52.0609 740.089L50.5189 738.815ZM57.5987 742.802L59.5892 742.608C59.5886 742.601 59.5879 742.594 59.5872 742.588L57.5987 742.802ZM57.5987 742.802L55.6082 742.996C55.6088 743.003 55.6095 743.009 55.6102 743.016L57.5987 742.802ZM57.737 743.955V745.955C58.3191 745.955 58.8724 745.701 59.2523 745.26C59.6323 744.819 59.8011 744.234 59.7149 743.658L57.737 743.955ZM57.724 743.955V741.955C56.7623 741.955 55.9367 742.639 55.7586 743.584C55.5805 744.529 56.1003 745.467 56.9961 745.817L57.724 743.955ZM64.0694 753.535L62.0698 753.492L64.0694 753.535ZM36.0728 753.535L34.0728 753.535L36.0728 753.535ZM42.1113 745.954H42.2087V741.954H42.1113V745.954ZM47.6036 734.685C45.245 735.004 43.5519 736.894 42.5005 738.468C41.3804 740.143 40.5908 742.057 40.195 743.382L44.0277 744.527C44.332 743.508 44.9682 741.974 45.8261 740.69C46.7525 739.304 47.5894 738.723 48.1393 738.649L47.6036 734.685ZM52.4772 738.409C52.2935 737.524 51.9115 736.468 51.0561 735.675C50.1181 734.806 48.8955 734.51 47.6036 734.685L48.1393 738.649C48.2336 738.636 48.2992 738.635 48.34 738.637C48.3603 738.638 48.3746 738.64 48.3835 738.641C48.3924 738.643 48.3965 738.644 48.3966 738.644C48.3966 738.644 48.3935 738.643 48.3881 738.641C48.3826 738.639 48.376 738.635 48.3688 738.631C48.3533 738.623 48.3423 738.614 48.337 738.609C48.3269 738.6 48.358 738.624 48.407 738.727C48.4571 738.832 48.5131 738.993 48.5607 739.222L52.4772 738.409ZM52.0609 740.089C52.5649 739.479 53.0293 739.019 53.4221 738.728C53.848 738.413 53.9882 738.444 53.8863 738.444V734.444C52.7417 734.444 51.7585 734.983 51.0414 735.514C50.2913 736.069 49.5934 736.795 48.9769 737.542L52.0609 740.089ZM53.8863 738.444C54.1827 738.444 54.3152 738.522 54.4131 738.605C54.551 738.721 54.7362 738.96 54.9212 739.416C55.3114 740.377 55.4652 741.67 55.6102 743.016L59.5872 742.588C59.4566 741.376 59.2679 739.49 58.6277 737.912C58.2974 737.098 57.7954 736.227 56.9964 735.551C56.1575 734.841 55.1035 734.444 53.8863 734.444V738.444ZM55.6081 742.996L55.6082 742.996L59.5893 742.608L59.5892 742.608L55.6081 742.996ZM55.6102 743.016C55.6548 743.43 55.7016 743.867 55.759 744.251L59.7149 743.658C59.6722 743.374 59.6345 743.027 59.5872 742.588L55.6102 743.016ZM57.737 741.955H57.724V745.955H57.737V741.955ZM56.9961 745.817C58.4949 746.403 59.7636 747.24 60.6473 748.406C61.5114 749.547 62.1203 751.149 62.0698 753.492L66.0689 753.578C66.1365 750.442 65.3065 747.932 63.8353 745.99C62.3836 744.075 60.4206 742.861 58.4519 742.092L56.9961 745.817ZM62.0698 753.492C62.0008 756.698 60.5554 758.584 58.4459 759.777C56.1998 761.048 53.1202 761.556 49.986 761.556V765.556C53.4304 765.556 57.3071 765.017 60.4153 763.259C63.6602 761.423 65.9672 758.298 66.0689 753.578L62.0698 753.492ZM49.986 761.556C46.9732 761.556 43.8831 760.827 41.6162 759.421C39.4078 758.052 38.0727 756.127 38.0728 753.535L34.0728 753.535C34.0727 757.813 36.405 760.897 39.5086 762.821C42.5537 764.709 46.4203 765.556 49.986 765.556V761.556ZM38.0728 753.535C38.0728 751.15 38.6745 749.52 39.508 748.37C40.3518 747.206 41.5436 746.382 42.9602 745.808L41.4572 742.101C39.5346 742.881 37.6585 744.106 36.2691 746.023C34.8694 747.954 34.0728 750.438 34.0728 753.535L38.0728 753.535Z" fill="#E1CEB5"/>
<path d="M50.465 739.369V745.496" stroke="#E1CEB5" stroke-width="4" stroke-linecap="round" stroke-linejoin="round"/>
<rect x="100.073" y="700" width="100" height="100" fill="#F2E1CB"/>
<path d="M138.574 743.668C141.57 737.656 147.491 740.66 150.079 742.385C151.968 740.891 156.074 738.196 160.2 741.828C166.66 747.514 154.7 759.986 150.079 759.986C144.965 759.986 135.837 749.163 138.574 743.668Z" fill="#E1CEB5" stroke="#E1CEB5" stroke-width="3"/>
<rect x="200.073" y="700" width="100" height="100" fill="#FBECD8"/>
<path fill-rule="evenodd" clip-rule="evenodd" d="M242.209 743.954H242.111C242.811 741.61 244.963 737.06 247.871 736.667C249.494 736.447 250.233 737.437 250.519 738.815C251.639 737.459 252.844 736.444 253.886 736.444C256.914 736.444 257.323 740.244 257.599 742.802L257.599 742.802C257.645 743.228 257.687 743.621 257.737 743.955H257.724C261.191 745.31 264.187 748.056 264.069 753.535C263.899 761.461 256.565 763.556 249.986 763.556C243.407 763.556 236.073 760.404 236.073 753.535C236.073 748.053 238.87 745.308 242.209 743.954Z" fill="white"/>
<path d="M242.111 743.954L240.195 743.382C240.014 743.988 240.13 744.643 240.507 745.149C240.885 745.656 241.48 745.954 242.111 745.954V743.954ZM242.209 743.954L242.96 745.808C243.847 745.448 244.355 744.511 244.172 743.572C243.989 742.632 243.166 741.954 242.209 741.954V743.954ZM247.871 736.667L248.139 738.649L247.871 736.667ZM250.519 738.815L248.561 739.222C248.717 739.975 249.291 740.572 250.038 740.757C250.785 740.942 251.571 740.682 252.061 740.089L250.519 738.815ZM257.599 742.802L259.589 742.608C259.589 742.601 259.588 742.594 259.587 742.588L257.599 742.802ZM257.599 742.802L255.608 742.996C255.609 743.003 255.609 743.009 255.61 743.016L257.599 742.802ZM257.737 743.955V745.955C258.319 745.955 258.872 745.701 259.252 745.26C259.632 744.819 259.801 744.234 259.715 743.658L257.737 743.955ZM257.724 743.955V741.955C256.762 741.955 255.937 742.639 255.759 743.584C255.58 744.529 256.1 745.467 256.996 745.817L257.724 743.955ZM264.069 753.535L262.07 753.492L264.069 753.535ZM236.073 753.535L234.073 753.535L236.073 753.535ZM242.111 745.954H242.209V741.954H242.111V745.954ZM247.604 734.685C245.245 735.004 243.552 736.894 242.5 738.468C241.38 740.143 240.591 742.057 240.195 743.382L244.028 744.527C244.332 743.508 244.968 741.974 245.826 740.69C246.753 739.304 247.589 738.723 248.139 738.649L247.604 734.685ZM252.477 738.409C252.294 737.524 251.912 736.468 251.056 735.675C250.118 734.806 248.896 734.51 247.604 734.685L248.139 738.649C248.234 738.636 248.299 738.635 248.34 738.637C248.36 738.638 248.375 738.64 248.384 738.641C248.392 738.643 248.397 738.644 248.397 738.644C248.397 738.644 248.394 738.643 248.388 738.641C248.383 738.639 248.376 738.635 248.369 738.631C248.353 738.623 248.342 738.614 248.337 738.609C248.327 738.6 248.358 738.624 248.407 738.727C248.457 738.832 248.513 738.993 248.561 739.222L252.477 738.409ZM252.061 740.089C252.565 739.479 253.029 739.019 253.422 738.728C253.848 738.413 253.988 738.444 253.886 738.444V734.444C252.742 734.444 251.758 734.983 251.041 735.514C250.291 736.069 249.593 736.795 248.977 737.542L252.061 740.089ZM253.886 738.444C254.183 738.444 254.315 738.522 254.413 738.605C254.551 738.721 254.736 738.96 254.921 739.416C255.311 740.377 255.465 741.67 255.61 743.016L259.587 742.588C259.457 741.376 259.268 739.49 258.628 737.912C258.297 737.098 257.795 736.227 256.996 735.551C256.157 734.841 255.104 734.444 253.886 734.444V738.444ZM255.608 742.996L255.608 742.996L259.589 742.608L259.589 742.608L255.608 742.996ZM255.61 743.016C255.655 743.43 255.702 743.867 255.759 744.251L259.715 743.658C259.672 743.374 259.634 743.027 259.587 742.588L255.61 743.016ZM257.737 741.955H257.724V745.955H257.737V741.955ZM256.996 745.817C258.495 746.403 259.764 747.24 260.647 748.406C261.511 749.547 262.12 751.149 262.07 753.492L266.069 753.578C266.136 750.442 265.306 747.932 263.835 745.99C262.384 744.075 260.421 742.861 258.452 742.092L256.996 745.817ZM262.07 753.492C262.001 756.698 260.555 758.584 258.446 759.777C256.2 761.048 253.12 761.556 249.986 761.556V765.556C253.43 765.556 257.307 765.017 260.415 763.259C263.66 761.423 265.967 758.298 266.069 753.578L262.07 753.492ZM249.986 761.556C246.973 761.556 243.883 760.827 241.616 759.421C239.408 758.052 238.073 756.127 238.073 753.535L234.073 753.535C234.073 757.813 236.405 760.897 239.509 762.821C242.554 764.709 246.42 765.556 249.986 765.556V761.556ZM238.073 753.535C238.073 751.15 238.675 749.52 239.508 748.37C240.352 747.206 241.544 746.382 242.96 745.808L241.457 742.101C239.535 742.881 237.659 744.106 236.269 746.023C234.869 747.954 234.073 750.438 234.073 753.535L238.073 753.535Z" fill="#E1CEB5"/>
<path d="M250.465 739.369V745.496" stroke="#E1CEB5" stroke-width="4" stroke-linecap="round" stroke-linejoin="round"/>
<rect x="300.073" y="700" width="100" height="100" fill="#F2E1CB"/>
<path d="M338.574 743.668C341.57 737.656 347.491 740.66 350.079 742.385C351.968 740.891 356.074 738.196 360.2 741.828C366.66 747.514 354.7 759.986 350.079 759.986C344.965 759.986 335.837 749.163 338.574 743.668Z" fill="#E1CEB5" stroke="#E1CEB5" stroke-width="3"/>
</g>
</g>
<defs>
<clipPath id="clip0_157_14390">
<rect width="400" height="800" fill="white" transform="translate(0.0727539)"/>
</clipPath>
</defs>
</svg>
