<svg width="400" height="800" viewBox="0 0 400 800" fill="none" xmlns="http://www.w3.org/2000/svg">
<g clip-path="url(#clip0_157_12929)">
<rect width="400" height="800" fill="white"/>
<g clip-path="url(#clip1_157_12929)">
<rect width="400" height="800" fill="#FCDFE6"/>
<g clip-path="url(#clip2_157_12929)">
<rect width="100" height="100" fill="#FFEBF0"/>
<path d="M36.5849 42.6134C40.0796 35.5989 46.9881 39.1039 50.0074 41.1159C52.2114 39.373 57.0012 36.2294 61.8153 40.4665C69.3523 47.1002 55.399 61.6508 50.0074 61.6508C44.0404 61.6508 33.3914 49.0235 36.5849 42.6134Z" fill="#FCDFE6" stroke="#FCDFE6" stroke-width="3"/>
<rect x="100" width="100" height="100" fill="#FFF3F6"/>
<path fill-rule="evenodd" clip-rule="evenodd" d="M140.136 42.0182H140.039C140.739 39.6739 142.89 35.1237 145.799 34.7306C147.422 34.5112 148.16 35.5011 148.446 36.8791C149.567 35.5225 150.771 34.5078 151.814 34.5078C154.841 34.5078 155.25 38.308 155.526 40.8655L155.526 40.8656C155.572 41.2922 155.614 41.6843 155.664 42.0183H155.651C159.119 43.3733 162.115 46.1195 161.997 51.5991C161.826 59.525 154.492 61.6196 147.913 61.6196C141.335 61.6196 134 58.4677 134 51.5991C134 46.1167 136.797 43.372 140.136 42.0182Z" fill="white"/>
<path d="M140.039 42.0182L138.122 41.4459C137.941 42.0512 138.057 42.7064 138.435 43.2131C138.812 43.7197 139.407 44.0182 140.039 44.0182V42.0182ZM140.136 42.0182L140.887 43.8717C141.774 43.5121 142.282 42.5747 142.099 41.6354C141.916 40.6961 141.093 40.0182 140.136 40.0182V42.0182ZM145.799 34.7306L146.067 36.7125L146.067 36.7125L145.799 34.7306ZM148.446 36.8791L146.488 37.2856C146.644 38.0387 147.219 38.6355 147.965 38.8204C148.712 39.0054 149.498 38.7458 149.988 38.1528L148.446 36.8791ZM155.526 40.8655L157.516 40.6713C157.516 40.6646 157.515 40.658 157.514 40.6513L155.526 40.8655ZM155.526 40.8656L153.535 41.0598C153.536 41.0665 153.537 41.0732 153.537 41.0798L155.526 40.8656ZM155.664 42.0183V44.0183C156.246 44.0183 156.8 43.7647 157.18 43.3236C157.56 42.8825 157.728 42.2977 157.642 41.722L155.664 42.0183ZM155.651 42.0183V40.0183C154.69 40.0183 153.864 40.7028 153.686 41.6479C153.508 42.593 154.028 43.5311 154.923 43.8811L155.651 42.0183ZM161.997 51.5991L159.997 51.556L161.997 51.5991ZM134 51.5991L132 51.5991L134 51.5991ZM140.039 44.0182H140.136V40.0182H140.039V44.0182ZM145.531 32.7486C143.172 33.0674 141.479 34.9581 140.428 36.5313C139.308 38.2072 138.518 40.1205 138.122 41.4459L141.955 42.5905C142.259 41.5716 142.895 40.0376 143.753 38.754C144.68 37.3678 145.517 36.7869 146.067 36.7125L145.531 32.7486ZM150.404 36.4726C150.221 35.588 149.839 34.5319 148.983 33.739C148.045 32.8696 146.823 32.574 145.531 32.7486L146.067 36.7125C146.161 36.6998 146.226 36.6989 146.267 36.7009C146.288 36.7019 146.302 36.7037 146.311 36.7051C146.32 36.7065 146.324 36.7076 146.324 36.7076C146.324 36.7076 146.321 36.7068 146.315 36.7045C146.31 36.7023 146.303 36.6992 146.296 36.6951C146.281 36.6865 146.269 36.6776 146.264 36.6726C146.254 36.6633 146.285 36.688 146.334 36.791C146.384 36.8961 146.44 37.0566 146.488 37.2856L150.404 36.4726ZM149.988 38.1528C150.492 37.5426 150.957 37.0829 151.349 36.7919C151.775 36.4765 151.915 36.5078 151.814 36.5078V32.5078C150.669 32.5078 149.686 33.0465 148.969 33.5776C148.219 34.1331 147.521 34.8591 146.904 35.6055L149.988 38.1528ZM151.814 36.5078C152.11 36.5078 152.242 36.5857 152.34 36.6685C152.478 36.7852 152.663 37.0238 152.848 37.4796C153.239 38.4412 153.392 39.7342 153.537 41.0798L157.514 40.6513C157.384 39.4394 157.195 37.5535 156.555 35.9756C156.225 35.1616 155.723 34.2904 154.924 33.6146C154.085 32.9049 153.031 32.5078 151.814 32.5078V36.5078ZM153.535 41.0597L153.535 41.0598L157.516 40.6714L157.516 40.6713L153.535 41.0597ZM153.537 41.0798C153.582 41.4941 153.629 41.9312 153.686 42.3146L157.642 41.722C157.599 41.4374 157.562 41.0904 157.514 40.6513L153.537 41.0798ZM155.664 40.0183H155.651V44.0183H155.664V40.0183ZM154.923 43.8811C156.422 44.4668 157.691 45.3039 158.575 46.4699C159.439 47.6103 160.048 49.2125 159.997 51.556L163.996 51.6422C164.064 48.506 163.234 45.9954 161.763 44.054C160.311 42.1384 158.348 40.9248 156.379 40.1555L154.923 43.8811ZM159.997 51.556C159.928 54.762 158.483 56.6475 156.373 57.8407C154.127 59.1113 151.047 59.6196 147.913 59.6196V63.6196C151.358 63.6196 155.234 63.0805 158.343 61.3223C161.587 59.4868 163.894 56.3621 163.996 51.6422L159.997 51.556ZM147.913 59.6196C144.9 59.6196 141.81 58.8905 139.543 57.4852C137.335 56.1162 136 54.1905 136 51.5991L132 51.5991C132 55.8764 134.332 58.9609 137.436 60.8849C140.481 62.7727 144.348 63.6196 147.913 63.6196V59.6196ZM136 51.5991C136 49.2142 136.602 47.5842 137.435 46.4341C138.279 45.2698 139.471 44.446 140.887 43.8717L139.384 40.1648C137.462 40.9443 135.586 42.1697 134.196 44.0868C132.797 46.0181 132 48.5017 132 51.5991L136 51.5991Z" fill="#FCDFE6"/>
<path d="M148.392 37.4326V43.5593" stroke="#FCDFE6" stroke-width="4" stroke-linecap="round" stroke-linejoin="round"/>
<rect x="200" width="100" height="100" fill="#FFEBF0"/>
<path d="M236.585 42.6134C240.08 35.5989 246.988 39.1039 250.007 41.1159C252.211 39.373 257.001 36.2294 261.815 40.4665C269.352 47.1002 255.399 61.6508 250.007 61.6508C244.04 61.6508 233.391 49.0235 236.585 42.6134Z" fill="#FCDFE6" stroke="#FCDFE6" stroke-width="3"/>
<rect x="300" width="100" height="100" fill="#FFF3F6"/>
<path fill-rule="evenodd" clip-rule="evenodd" d="M340.136 42.0182H340.039C340.739 39.6739 342.89 35.1237 345.799 34.7306C347.422 34.5112 348.16 35.5011 348.446 36.8791C349.567 35.5225 350.771 34.5078 351.814 34.5078C354.841 34.5078 355.25 38.308 355.526 40.8655L355.526 40.8656C355.572 41.2922 355.614 41.6843 355.664 42.0183H355.651C359.119 43.3733 362.115 46.1195 361.997 51.5991C361.826 59.525 354.492 61.6196 347.913 61.6196C341.335 61.6196 334 58.4677 334 51.5991C334 46.1167 336.797 43.372 340.136 42.0182Z" fill="white"/>
<path d="M340.039 42.0182L338.122 41.4459C337.941 42.0512 338.057 42.7064 338.435 43.2131C338.812 43.7197 339.407 44.0182 340.039 44.0182V42.0182ZM340.136 42.0182L340.887 43.8717C341.774 43.5121 342.282 42.5747 342.099 41.6354C341.916 40.6961 341.093 40.0182 340.136 40.0182V42.0182ZM345.799 34.7306L346.067 36.7125L346.067 36.7125L345.799 34.7306ZM348.446 36.8791L346.488 37.2856C346.644 38.0387 347.219 38.6355 347.965 38.8204C348.712 39.0054 349.498 38.7458 349.988 38.1528L348.446 36.8791ZM355.526 40.8655L357.516 40.6713C357.516 40.6646 357.515 40.658 357.514 40.6513L355.526 40.8655ZM355.526 40.8656L353.535 41.0598C353.536 41.0665 353.537 41.0732 353.537 41.0798L355.526 40.8656ZM355.664 42.0183V44.0183C356.246 44.0183 356.8 43.7647 357.18 43.3236C357.56 42.8825 357.728 42.2977 357.642 41.722L355.664 42.0183ZM355.651 42.0183V40.0183C354.69 40.0183 353.864 40.7028 353.686 41.6479C353.508 42.593 354.028 43.5311 354.923 43.8811L355.651 42.0183ZM361.997 51.5991L359.997 51.556L361.997 51.5991ZM334 51.5991L332 51.5991L334 51.5991ZM340.039 44.0182H340.136V40.0182H340.039V44.0182ZM345.531 32.7486C343.172 33.0674 341.479 34.9581 340.428 36.5313C339.308 38.2072 338.518 40.1205 338.122 41.4459L341.955 42.5905C342.259 41.5716 342.895 40.0376 343.753 38.754C344.68 37.3678 345.517 36.7869 346.067 36.7125L345.531 32.7486ZM350.404 36.4726C350.221 35.588 349.839 34.5319 348.983 33.739C348.045 32.8696 346.823 32.574 345.531 32.7486L346.067 36.7125C346.161 36.6998 346.226 36.6989 346.267 36.7009C346.288 36.7019 346.302 36.7037 346.311 36.7051C346.32 36.7065 346.324 36.7076 346.324 36.7076C346.324 36.7076 346.321 36.7068 346.315 36.7045C346.31 36.7023 346.303 36.6992 346.296 36.6951C346.281 36.6865 346.269 36.6776 346.264 36.6726C346.254 36.6633 346.285 36.688 346.334 36.791C346.384 36.8961 346.44 37.0566 346.488 37.2856L350.404 36.4726ZM349.988 38.1528C350.492 37.5426 350.957 37.0829 351.349 36.7919C351.775 36.4765 351.915 36.5078 351.814 36.5078V32.5078C350.669 32.5078 349.686 33.0465 348.969 33.5776C348.219 34.1331 347.521 34.8591 346.904 35.6055L349.988 38.1528ZM351.814 36.5078C352.11 36.5078 352.242 36.5857 352.34 36.6685C352.478 36.7852 352.663 37.0238 352.848 37.4796C353.239 38.4412 353.392 39.7342 353.537 41.0798L357.514 40.6513C357.384 39.4394 357.195 37.5535 356.555 35.9756C356.225 35.1616 355.723 34.2904 354.924 33.6146C354.085 32.9049 353.031 32.5078 351.814 32.5078V36.5078ZM353.535 41.0597L353.535 41.0598L357.516 40.6714L357.516 40.6713L353.535 41.0597ZM353.537 41.0798C353.582 41.4941 353.629 41.9312 353.686 42.3146L357.642 41.722C357.599 41.4374 357.562 41.0904 357.514 40.6513L353.537 41.0798ZM355.664 40.0183H355.651V44.0183H355.664V40.0183ZM354.923 43.8811C356.422 44.4668 357.691 45.3039 358.575 46.4699C359.439 47.6103 360.048 49.2125 359.997 51.556L363.996 51.6422C364.064 48.506 363.234 45.9954 361.763 44.054C360.311 42.1384 358.348 40.9248 356.379 40.1555L354.923 43.8811ZM359.997 51.556C359.928 54.762 358.483 56.6475 356.373 57.8407C354.127 59.1113 351.047 59.6196 347.913 59.6196V63.6196C351.358 63.6196 355.234 63.0805 358.343 61.3223C361.587 59.4868 363.894 56.3621 363.996 51.6422L359.997 51.556ZM347.913 59.6196C344.9 59.6196 341.81 58.8905 339.543 57.4852C337.335 56.1162 336 54.1905 336 51.5991L332 51.5991C332 55.8764 334.332 58.9609 337.436 60.8849C340.481 62.7727 344.348 63.6196 347.913 63.6196V59.6196ZM336 51.5991C336 49.2142 336.602 47.5842 337.435 46.4341C338.279 45.2698 339.471 44.446 340.887 43.8717L339.384 40.1648C337.462 40.9443 335.586 42.1697 334.196 44.0868C332.797 46.0181 332 48.5017 332 51.5991L336 51.5991Z" fill="#FCDFE6"/>
<path d="M348.392 37.4326V43.5593" stroke="#FCDFE6" stroke-width="4" stroke-linecap="round" stroke-linejoin="round"/>
<rect y="100" width="100" height="100" fill="#FFF3F6"/>
<path fill-rule="evenodd" clip-rule="evenodd" d="M40.1359 142.018H40.0385C40.7387 139.674 42.8902 135.124 45.7986 134.731C47.4216 134.511 48.1601 135.501 48.4461 136.879C49.5666 135.523 50.7709 134.508 51.8135 134.508C54.8409 134.508 55.2504 138.308 55.5259 140.866L55.5259 140.866C55.5719 141.292 55.6142 141.684 55.6642 142.018H55.6512C59.1187 143.373 62.1147 146.119 61.9966 151.599C61.8258 159.525 54.4918 161.62 47.9133 161.62C41.3347 161.62 34 158.468 34 151.599C34 146.117 36.7968 143.372 40.1359 142.018Z" fill="white"/>
<path d="M40.0385 142.018L38.1222 141.446C37.9414 142.051 38.0572 142.706 38.4347 143.213C38.8121 143.72 39.4068 144.018 40.0385 144.018V142.018ZM40.1359 142.018L40.8874 143.872C41.7743 143.512 42.2821 142.575 42.099 141.635C41.9158 140.696 41.0929 140.018 40.1359 140.018V142.018ZM45.7986 134.731L46.0665 136.713L46.0665 136.713L45.7986 134.731ZM48.4461 136.879L46.4879 137.286C46.6442 138.039 47.2186 138.635 47.9652 138.82C48.7118 139.005 49.4983 138.746 49.9882 138.153L48.4461 136.879ZM55.5259 140.866L57.5165 140.671C57.5158 140.665 57.5152 140.658 57.5144 140.651L55.5259 140.866ZM55.5259 140.866L53.5354 141.06C53.5361 141.066 53.5367 141.073 53.5375 141.08L55.5259 140.866ZM55.6642 142.018V144.018C56.2464 144.018 56.7996 143.765 57.1796 143.324C57.5595 142.882 57.7284 142.298 57.6421 141.722L55.6642 142.018ZM55.6512 142.018V140.018C54.6895 140.018 53.8639 140.703 53.6858 141.648C53.5077 142.593 54.0275 143.531 54.9233 143.881L55.6512 142.018ZM61.9966 151.599L59.9971 151.556L61.9966 151.599ZM34 151.599L32 151.599L34 151.599ZM40.0385 144.018H40.1359V140.018H40.0385V144.018ZM45.5308 132.749C43.1722 133.067 41.4791 134.958 40.4277 136.531C39.3076 138.207 38.518 140.12 38.1222 141.446L41.9549 142.591C42.2592 141.572 42.8954 140.038 43.7533 138.754C44.6797 137.368 45.5166 136.787 46.0665 136.713L45.5308 132.749ZM50.4044 136.473C50.2208 135.588 49.8387 134.532 48.9833 133.739C48.0453 132.87 46.8227 132.574 45.5308 132.749L46.0665 136.713C46.1608 136.7 46.2263 136.699 46.2672 136.701C46.2875 136.702 46.3018 136.704 46.3107 136.705C46.3196 136.706 46.3237 136.708 46.3238 136.708C46.3238 136.708 46.3207 136.707 46.3153 136.705C46.3098 136.702 46.3032 136.699 46.296 136.695C46.2805 136.686 46.2695 136.678 46.2641 136.673C46.2541 136.663 46.2852 136.688 46.3342 136.791C46.3843 136.896 46.4403 137.057 46.4879 137.286L50.4044 136.473ZM49.9882 138.153C50.4921 137.543 50.9566 137.083 51.3494 136.792C51.7753 136.476 51.9155 136.508 51.8135 136.508V132.508C50.6689 132.508 49.6857 133.046 48.9686 133.578C48.2186 134.133 47.5206 134.859 46.9041 135.605L49.9882 138.153ZM51.8135 136.508C52.11 136.508 52.2425 136.586 52.3404 136.669C52.4783 136.785 52.6635 137.024 52.8484 137.48C53.2386 138.441 53.3925 139.734 53.5375 141.08L57.5144 140.651C57.3839 139.439 57.1952 137.553 56.5549 135.976C56.2246 135.162 55.7226 134.29 54.9237 133.615C54.0847 132.905 53.0308 132.508 51.8135 132.508V136.508ZM53.5354 141.06L53.5354 141.06L57.5165 140.671L57.5165 140.671L53.5354 141.06ZM53.5375 141.08C53.5821 141.494 53.6288 141.931 53.6863 142.315L57.6421 141.722C57.5995 141.437 57.5617 141.09 57.5144 140.651L53.5375 141.08ZM55.6642 140.018H55.6512V144.018H55.6642V140.018ZM54.9233 143.881C56.4221 144.467 57.6909 145.304 58.5745 146.47C59.4387 147.61 60.0476 149.213 59.9971 151.556L63.9962 151.642C64.0637 148.506 63.2337 145.995 61.7625 144.054C60.3108 142.138 58.3479 140.925 56.3792 140.155L54.9233 143.881ZM59.9971 151.556C59.928 154.762 58.4826 156.647 56.3732 157.841C54.127 159.111 51.0474 159.62 47.9133 159.62V163.62C51.3577 163.62 55.2344 163.081 58.3426 161.322C61.5874 159.487 63.8944 156.362 63.9962 151.642L59.9971 151.556ZM47.9133 159.62C44.9004 159.62 41.8103 158.891 39.5434 157.485C37.3351 156.116 36 154.19 36 151.599L32 151.599C32 155.876 34.3322 158.961 37.4359 160.885C40.481 162.773 44.3475 163.62 47.9133 163.62V159.62ZM36 151.599C36 149.214 36.6017 147.584 37.4352 146.434C38.279 145.27 39.4709 144.446 40.8874 143.872L39.3845 140.165C37.4619 140.944 35.5858 142.17 34.1964 144.087C32.7967 146.018 32 148.502 32 151.599L36 151.599Z" fill="#FCDFE6"/>
<path d="M48.3922 137.433V143.559" stroke="#FCDFE6" stroke-width="4" stroke-linecap="round" stroke-linejoin="round"/>
<rect x="100" y="100" width="100" height="100" fill="#FFEBF0"/>
<path d="M136.585 142.613C140.08 135.599 146.988 139.104 150.007 141.116C152.211 139.373 157.001 136.229 161.815 140.467C169.352 147.1 155.399 161.651 150.007 161.651C144.04 161.651 133.391 149.024 136.585 142.613Z" fill="#FCDFE6" stroke="#FCDFE6" stroke-width="3"/>
<rect x="200" y="100" width="100" height="100" fill="#FFF3F6"/>
<path fill-rule="evenodd" clip-rule="evenodd" d="M240.136 142.018H240.039C240.739 139.674 242.89 135.124 245.799 134.731C247.422 134.511 248.16 135.501 248.446 136.879C249.567 135.523 250.771 134.508 251.814 134.508C254.841 134.508 255.25 138.308 255.526 140.866L255.526 140.866C255.572 141.292 255.614 141.684 255.664 142.018H255.651C259.119 143.373 262.115 146.119 261.997 151.599C261.826 159.525 254.492 161.62 247.913 161.62C241.335 161.62 234 158.468 234 151.599C234 146.117 236.797 143.372 240.136 142.018Z" fill="white"/>
<path d="M240.039 142.018L238.122 141.446C237.941 142.051 238.057 142.706 238.435 143.213C238.812 143.72 239.407 144.018 240.039 144.018V142.018ZM240.136 142.018L240.887 143.872C241.774 143.512 242.282 142.575 242.099 141.635C241.916 140.696 241.093 140.018 240.136 140.018V142.018ZM245.799 134.731L246.067 136.713L246.067 136.713L245.799 134.731ZM248.446 136.879L246.488 137.286C246.644 138.039 247.219 138.635 247.965 138.82C248.712 139.005 249.498 138.746 249.988 138.153L248.446 136.879ZM255.526 140.866L257.516 140.671C257.516 140.665 257.515 140.658 257.514 140.651L255.526 140.866ZM255.526 140.866L253.535 141.06C253.536 141.066 253.537 141.073 253.537 141.08L255.526 140.866ZM255.664 142.018V144.018C256.246 144.018 256.8 143.765 257.18 143.324C257.56 142.882 257.728 142.298 257.642 141.722L255.664 142.018ZM255.651 142.018V140.018C254.69 140.018 253.864 140.703 253.686 141.648C253.508 142.593 254.028 143.531 254.923 143.881L255.651 142.018ZM261.997 151.599L259.997 151.556L261.997 151.599ZM234 151.599L232 151.599L234 151.599ZM240.039 144.018H240.136V140.018H240.039V144.018ZM245.531 132.749C243.172 133.067 241.479 134.958 240.428 136.531C239.308 138.207 238.518 140.12 238.122 141.446L241.955 142.591C242.259 141.572 242.895 140.038 243.753 138.754C244.68 137.368 245.517 136.787 246.067 136.713L245.531 132.749ZM250.404 136.473C250.221 135.588 249.839 134.532 248.983 133.739C248.045 132.87 246.823 132.574 245.531 132.749L246.067 136.713C246.161 136.7 246.226 136.699 246.267 136.701C246.288 136.702 246.302 136.704 246.311 136.705C246.32 136.706 246.324 136.708 246.324 136.708C246.324 136.708 246.321 136.707 246.315 136.705C246.31 136.702 246.303 136.699 246.296 136.695C246.281 136.686 246.269 136.678 246.264 136.673C246.254 136.663 246.285 136.688 246.334 136.791C246.384 136.896 246.44 137.057 246.488 137.286L250.404 136.473ZM249.988 138.153C250.492 137.543 250.957 137.083 251.349 136.792C251.775 136.476 251.915 136.508 251.814 136.508V132.508C250.669 132.508 249.686 133.046 248.969 133.578C248.219 134.133 247.521 134.859 246.904 135.605L249.988 138.153ZM251.814 136.508C252.11 136.508 252.242 136.586 252.34 136.669C252.478 136.785 252.663 137.024 252.848 137.48C253.239 138.441 253.392 139.734 253.537 141.08L257.514 140.651C257.384 139.439 257.195 137.553 256.555 135.976C256.225 135.162 255.723 134.29 254.924 133.615C254.085 132.905 253.031 132.508 251.814 132.508V136.508ZM253.535 141.06L253.535 141.06L257.516 140.671L257.516 140.671L253.535 141.06ZM253.537 141.08C253.582 141.494 253.629 141.931 253.686 142.315L257.642 141.722C257.599 141.437 257.562 141.09 257.514 140.651L253.537 141.08ZM255.664 140.018H255.651V144.018H255.664V140.018ZM254.923 143.881C256.422 144.467 257.691 145.304 258.575 146.47C259.439 147.61 260.048 149.213 259.997 151.556L263.996 151.642C264.064 148.506 263.234 145.995 261.763 144.054C260.311 142.138 258.348 140.925 256.379 140.155L254.923 143.881ZM259.997 151.556C259.928 154.762 258.483 156.647 256.373 157.841C254.127 159.111 251.047 159.62 247.913 159.62V163.62C251.358 163.62 255.234 163.081 258.343 161.322C261.587 159.487 263.894 156.362 263.996 151.642L259.997 151.556ZM247.913 159.62C244.9 159.62 241.81 158.891 239.543 157.485C237.335 156.116 236 154.19 236 151.599L232 151.599C232 155.876 234.332 158.961 237.436 160.885C240.481 162.773 244.348 163.62 247.913 163.62V159.62ZM236 151.599C236 149.214 236.602 147.584 237.435 146.434C238.279 145.27 239.471 144.446 240.887 143.872L239.384 140.165C237.462 140.944 235.586 142.17 234.196 144.087C232.797 146.018 232 148.502 232 151.599L236 151.599Z" fill="#FCDFE6"/>
<path d="M248.392 137.433V143.559" stroke="#FCDFE6" stroke-width="4" stroke-linecap="round" stroke-linejoin="round"/>
<rect x="300" y="100" width="100" height="100" fill="#FFEBF0"/>
<path d="M336.585 142.613C340.08 135.599 346.988 139.104 350.007 141.116C352.211 139.373 357.001 136.229 361.815 140.467C369.352 147.1 355.399 161.651 350.007 161.651C344.04 161.651 333.391 149.024 336.585 142.613Z" fill="#FCDFE6" stroke="#FCDFE6" stroke-width="3"/>
<rect y="200" width="100" height="100" fill="#FFEBF0"/>
<path d="M36.5849 242.613C40.0796 235.599 46.9881 239.104 50.0074 241.116C52.2114 239.373 57.0012 236.229 61.8153 240.467C69.3523 247.1 55.399 261.651 50.0074 261.651C44.0404 261.651 33.3914 249.024 36.5849 242.613Z" fill="#FCDFE6" stroke="#FCDFE6" stroke-width="3"/>
<rect x="100" y="200" width="100" height="100" fill="#FFF3F6"/>
<path fill-rule="evenodd" clip-rule="evenodd" d="M140.136 242.018H140.039C140.739 239.674 142.89 235.124 145.799 234.731C147.422 234.511 148.16 235.501 148.446 236.879C149.567 235.523 150.771 234.508 151.814 234.508C154.841 234.508 155.25 238.308 155.526 240.866L155.526 240.866C155.572 241.292 155.614 241.684 155.664 242.018H155.651C159.119 243.373 162.115 246.119 161.997 251.599C161.826 259.525 154.492 261.62 147.913 261.62C141.335 261.62 134 258.468 134 251.599C134 246.117 136.797 243.372 140.136 242.018Z" fill="white"/>
<path d="M140.039 242.018L138.122 241.446C137.941 242.051 138.057 242.706 138.435 243.213C138.812 243.72 139.407 244.018 140.039 244.018V242.018ZM140.136 242.018L140.887 243.872C141.774 243.512 142.282 242.575 142.099 241.635C141.916 240.696 141.093 240.018 140.136 240.018V242.018ZM145.799 234.731L146.067 236.713L146.067 236.713L145.799 234.731ZM148.446 236.879L146.488 237.286C146.644 238.039 147.219 238.635 147.965 238.82C148.712 239.005 149.498 238.746 149.988 238.153L148.446 236.879ZM155.526 240.866L157.516 240.671C157.516 240.665 157.515 240.658 157.514 240.651L155.526 240.866ZM155.526 240.866L153.535 241.06C153.536 241.066 153.537 241.073 153.537 241.08L155.526 240.866ZM155.664 242.018V244.018C156.246 244.018 156.8 243.765 157.18 243.324C157.56 242.882 157.728 242.298 157.642 241.722L155.664 242.018ZM155.651 242.018V240.018C154.69 240.018 153.864 240.703 153.686 241.648C153.508 242.593 154.028 243.531 154.923 243.881L155.651 242.018ZM161.997 251.599L159.997 251.556L161.997 251.599ZM134 251.599L132 251.599L134 251.599ZM140.039 244.018H140.136V240.018H140.039V244.018ZM145.531 232.749C143.172 233.067 141.479 234.958 140.428 236.531C139.308 238.207 138.518 240.12 138.122 241.446L141.955 242.591C142.259 241.572 142.895 240.038 143.753 238.754C144.68 237.368 145.517 236.787 146.067 236.713L145.531 232.749ZM150.404 236.473C150.221 235.588 149.839 234.532 148.983 233.739C148.045 232.87 146.823 232.574 145.531 232.749L146.067 236.713C146.161 236.7 146.226 236.699 146.267 236.701C146.288 236.702 146.302 236.704 146.311 236.705C146.32 236.706 146.324 236.708 146.324 236.708C146.324 236.708 146.321 236.707 146.315 236.705C146.31 236.702 146.303 236.699 146.296 236.695C146.281 236.686 146.269 236.678 146.264 236.673C146.254 236.663 146.285 236.688 146.334 236.791C146.384 236.896 146.44 237.057 146.488 237.286L150.404 236.473ZM149.988 238.153C150.492 237.543 150.957 237.083 151.349 236.792C151.775 236.476 151.915 236.508 151.814 236.508V232.508C150.669 232.508 149.686 233.046 148.969 233.578C148.219 234.133 147.521 234.859 146.904 235.605L149.988 238.153ZM151.814 236.508C152.11 236.508 152.242 236.586 152.34 236.669C152.478 236.785 152.663 237.024 152.848 237.48C153.239 238.441 153.392 239.734 153.537 241.08L157.514 240.651C157.384 239.439 157.195 237.553 156.555 235.976C156.225 235.162 155.723 234.29 154.924 233.615C154.085 232.905 153.031 232.508 151.814 232.508V236.508ZM153.535 241.06L153.535 241.06L157.516 240.671L157.516 240.671L153.535 241.06ZM153.537 241.08C153.582 241.494 153.629 241.931 153.686 242.315L157.642 241.722C157.599 241.437 157.562 241.09 157.514 240.651L153.537 241.08ZM155.664 240.018H155.651V244.018H155.664V240.018ZM154.923 243.881C156.422 244.467 157.691 245.304 158.575 246.47C159.439 247.61 160.048 249.213 159.997 251.556L163.996 251.642C164.064 248.506 163.234 245.995 161.763 244.054C160.311 242.138 158.348 240.925 156.379 240.155L154.923 243.881ZM159.997 251.556C159.928 254.762 158.483 256.647 156.373 257.841C154.127 259.111 151.047 259.62 147.913 259.62V263.62C151.358 263.62 155.234 263.081 158.343 261.322C161.587 259.487 163.894 256.362 163.996 251.642L159.997 251.556ZM147.913 259.62C144.9 259.62 141.81 258.891 139.543 257.485C137.335 256.116 136 254.19 136 251.599L132 251.599C132 255.876 134.332 258.961 137.436 260.885C140.481 262.773 144.348 263.62 147.913 263.62V259.62ZM136 251.599C136 249.214 136.602 247.584 137.435 246.434C138.279 245.27 139.471 244.446 140.887 243.872L139.384 240.165C137.462 240.944 135.586 242.17 134.196 244.087C132.797 246.018 132 248.502 132 251.599L136 251.599Z" fill="#FCDFE6"/>
<path d="M148.392 237.433V243.559" stroke="#FCDFE6" stroke-width="4" stroke-linecap="round" stroke-linejoin="round"/>
<rect x="200" y="200" width="100" height="100" fill="#FFEBF0"/>
<path d="M236.585 242.613C240.08 235.599 246.988 239.104 250.007 241.116C252.211 239.373 257.001 236.229 261.815 240.467C269.352 247.1 255.399 261.651 250.007 261.651C244.04 261.651 233.391 249.024 236.585 242.613Z" fill="#FCDFE6" stroke="#FCDFE6" stroke-width="3"/>
<rect x="300" y="200" width="100" height="100" fill="#FFF3F6"/>
<path fill-rule="evenodd" clip-rule="evenodd" d="M340.136 242.018H340.039C340.739 239.674 342.89 235.124 345.799 234.731C347.422 234.511 348.16 235.501 348.446 236.879C349.567 235.523 350.771 234.508 351.814 234.508C354.841 234.508 355.25 238.308 355.526 240.866L355.526 240.866C355.572 241.292 355.614 241.684 355.664 242.018H355.651C359.119 243.373 362.115 246.119 361.997 251.599C361.826 259.525 354.492 261.62 347.913 261.62C341.335 261.62 334 258.468 334 251.599C334 246.117 336.797 243.372 340.136 242.018Z" fill="white"/>
<path d="M340.039 242.018L338.122 241.446C337.941 242.051 338.057 242.706 338.435 243.213C338.812 243.72 339.407 244.018 340.039 244.018V242.018ZM340.136 242.018L340.887 243.872C341.774 243.512 342.282 242.575 342.099 241.635C341.916 240.696 341.093 240.018 340.136 240.018V242.018ZM345.799 234.731L346.067 236.713L346.067 236.713L345.799 234.731ZM348.446 236.879L346.488 237.286C346.644 238.039 347.219 238.635 347.965 238.82C348.712 239.005 349.498 238.746 349.988 238.153L348.446 236.879ZM355.526 240.866L357.516 240.671C357.516 240.665 357.515 240.658 357.514 240.651L355.526 240.866ZM355.526 240.866L353.535 241.06C353.536 241.066 353.537 241.073 353.537 241.08L355.526 240.866ZM355.664 242.018V244.018C356.246 244.018 356.8 243.765 357.18 243.324C357.56 242.882 357.728 242.298 357.642 241.722L355.664 242.018ZM355.651 242.018V240.018C354.69 240.018 353.864 240.703 353.686 241.648C353.508 242.593 354.028 243.531 354.923 243.881L355.651 242.018ZM361.997 251.599L359.997 251.556L361.997 251.599ZM334 251.599L332 251.599L334 251.599ZM340.039 244.018H340.136V240.018H340.039V244.018ZM345.531 232.749C343.172 233.067 341.479 234.958 340.428 236.531C339.308 238.207 338.518 240.12 338.122 241.446L341.955 242.591C342.259 241.572 342.895 240.038 343.753 238.754C344.68 237.368 345.517 236.787 346.067 236.713L345.531 232.749ZM350.404 236.473C350.221 235.588 349.839 234.532 348.983 233.739C348.045 232.87 346.823 232.574 345.531 232.749L346.067 236.713C346.161 236.7 346.226 236.699 346.267 236.701C346.288 236.702 346.302 236.704 346.311 236.705C346.32 236.706 346.324 236.708 346.324 236.708C346.324 236.708 346.321 236.707 346.315 236.705C346.31 236.702 346.303 236.699 346.296 236.695C346.281 236.686 346.269 236.678 346.264 236.673C346.254 236.663 346.285 236.688 346.334 236.791C346.384 236.896 346.44 237.057 346.488 237.286L350.404 236.473ZM349.988 238.153C350.492 237.543 350.957 237.083 351.349 236.792C351.775 236.476 351.915 236.508 351.814 236.508V232.508C350.669 232.508 349.686 233.046 348.969 233.578C348.219 234.133 347.521 234.859 346.904 235.605L349.988 238.153ZM351.814 236.508C352.11 236.508 352.242 236.586 352.34 236.669C352.478 236.785 352.663 237.024 352.848 237.48C353.239 238.441 353.392 239.734 353.537 241.08L357.514 240.651C357.384 239.439 357.195 237.553 356.555 235.976C356.225 235.162 355.723 234.29 354.924 233.615C354.085 232.905 353.031 232.508 351.814 232.508V236.508ZM353.535 241.06L353.535 241.06L357.516 240.671L357.516 240.671L353.535 241.06ZM353.537 241.08C353.582 241.494 353.629 241.931 353.686 242.315L357.642 241.722C357.599 241.437 357.562 241.09 357.514 240.651L353.537 241.08ZM355.664 240.018H355.651V244.018H355.664V240.018ZM354.923 243.881C356.422 244.467 357.691 245.304 358.575 246.47C359.439 247.61 360.048 249.213 359.997 251.556L363.996 251.642C364.064 248.506 363.234 245.995 361.763 244.054C360.311 242.138 358.348 240.925 356.379 240.155L354.923 243.881ZM359.997 251.556C359.928 254.762 358.483 256.647 356.373 257.841C354.127 259.111 351.047 259.62 347.913 259.62V263.62C351.358 263.62 355.234 263.081 358.343 261.322C361.587 259.487 363.894 256.362 363.996 251.642L359.997 251.556ZM347.913 259.62C344.9 259.62 341.81 258.891 339.543 257.485C337.335 256.116 336 254.19 336 251.599L332 251.599C332 255.876 334.332 258.961 337.436 260.885C340.481 262.773 344.348 263.62 347.913 263.62V259.62ZM336 251.599C336 249.214 336.602 247.584 337.435 246.434C338.279 245.27 339.471 244.446 340.887 243.872L339.384 240.165C337.462 240.944 335.586 242.17 334.196 244.087C332.797 246.018 332 248.502 332 251.599L336 251.599Z" fill="#FCDFE6"/>
<path d="M348.392 237.433V243.559" stroke="#FCDFE6" stroke-width="4" stroke-linecap="round" stroke-linejoin="round"/>
<rect y="300" width="100" height="100" fill="#FFF3F6"/>
<path fill-rule="evenodd" clip-rule="evenodd" d="M40.1359 342.018H40.0385C40.7387 339.674 42.8902 335.124 45.7986 334.731C47.4216 334.511 48.1601 335.501 48.4461 336.879C49.5666 335.523 50.7709 334.508 51.8135 334.508C54.8409 334.508 55.2504 338.308 55.5259 340.866L55.5259 340.866C55.5719 341.292 55.6142 341.684 55.6642 342.018H55.6512C59.1187 343.373 62.1147 346.119 61.9966 351.599C61.8258 359.525 54.4918 361.62 47.9133 361.62C41.3347 361.62 34 358.468 34 351.599C34 346.117 36.7968 343.372 40.1359 342.018Z" fill="white"/>
<path d="M40.0385 342.018L38.1222 341.446C37.9414 342.051 38.0572 342.706 38.4347 343.213C38.8121 343.72 39.4068 344.018 40.0385 344.018V342.018ZM40.1359 342.018L40.8874 343.872C41.7743 343.512 42.2821 342.575 42.099 341.635C41.9158 340.696 41.0929 340.018 40.1359 340.018V342.018ZM45.7986 334.731L46.0665 336.713L46.0665 336.713L45.7986 334.731ZM48.4461 336.879L46.4879 337.286C46.6442 338.039 47.2186 338.635 47.9652 338.82C48.7118 339.005 49.4983 338.746 49.9882 338.153L48.4461 336.879ZM55.5259 340.866L57.5165 340.671C57.5158 340.665 57.5152 340.658 57.5144 340.651L55.5259 340.866ZM55.5259 340.866L53.5354 341.06C53.5361 341.066 53.5367 341.073 53.5375 341.08L55.5259 340.866ZM55.6642 342.018V344.018C56.2464 344.018 56.7996 343.765 57.1796 343.324C57.5595 342.882 57.7284 342.298 57.6421 341.722L55.6642 342.018ZM55.6512 342.018V340.018C54.6895 340.018 53.8639 340.703 53.6858 341.648C53.5077 342.593 54.0275 343.531 54.9233 343.881L55.6512 342.018ZM61.9966 351.599L59.9971 351.556L61.9966 351.599ZM34 351.599L32 351.599L34 351.599ZM40.0385 344.018H40.1359V340.018H40.0385V344.018ZM45.5308 332.749C43.1722 333.067 41.4791 334.958 40.4277 336.531C39.3076 338.207 38.518 340.12 38.1222 341.446L41.9549 342.591C42.2592 341.572 42.8954 340.038 43.7533 338.754C44.6797 337.368 45.5166 336.787 46.0665 336.713L45.5308 332.749ZM50.4044 336.473C50.2208 335.588 49.8387 334.532 48.9833 333.739C48.0453 332.87 46.8227 332.574 45.5308 332.749L46.0665 336.713C46.1608 336.7 46.2263 336.699 46.2672 336.701C46.2875 336.702 46.3018 336.704 46.3107 336.705C46.3196 336.706 46.3237 336.708 46.3238 336.708C46.3238 336.708 46.3207 336.707 46.3153 336.705C46.3098 336.702 46.3032 336.699 46.296 336.695C46.2805 336.686 46.2695 336.678 46.2641 336.673C46.2541 336.663 46.2852 336.688 46.3342 336.791C46.3843 336.896 46.4403 337.057 46.4879 337.286L50.4044 336.473ZM49.9882 338.153C50.4921 337.543 50.9566 337.083 51.3494 336.792C51.7753 336.476 51.9155 336.508 51.8135 336.508V332.508C50.6689 332.508 49.6857 333.046 48.9686 333.578C48.2186 334.133 47.5206 334.859 46.9041 335.605L49.9882 338.153ZM51.8135 336.508C52.11 336.508 52.2425 336.586 52.3404 336.669C52.4783 336.785 52.6635 337.024 52.8484 337.48C53.2386 338.441 53.3925 339.734 53.5375 341.08L57.5144 340.651C57.3839 339.439 57.1952 337.553 56.5549 335.976C56.2246 335.162 55.7226 334.29 54.9237 333.615C54.0847 332.905 53.0308 332.508 51.8135 332.508V336.508ZM53.5354 341.06L53.5354 341.06L57.5165 340.671L57.5165 340.671L53.5354 341.06ZM53.5375 341.08C53.5821 341.494 53.6288 341.931 53.6863 342.315L57.6421 341.722C57.5995 341.437 57.5617 341.09 57.5144 340.651L53.5375 341.08ZM55.6642 340.018H55.6512V344.018H55.6642V340.018ZM54.9233 343.881C56.4221 344.467 57.6909 345.304 58.5745 346.47C59.4387 347.61 60.0476 349.213 59.9971 351.556L63.9962 351.642C64.0637 348.506 63.2337 345.995 61.7625 344.054C60.3108 342.138 58.3479 340.925 56.3792 340.155L54.9233 343.881ZM59.9971 351.556C59.928 354.762 58.4826 356.647 56.3732 357.841C54.127 359.111 51.0474 359.62 47.9133 359.62V363.62C51.3577 363.62 55.2344 363.081 58.3426 361.322C61.5874 359.487 63.8944 356.362 63.9962 351.642L59.9971 351.556ZM47.9133 359.62C44.9004 359.62 41.8103 358.891 39.5434 357.485C37.3351 356.116 36 354.19 36 351.599L32 351.599C32 355.876 34.3322 358.961 37.4359 360.885C40.481 362.773 44.3475 363.62 47.9133 363.62V359.62ZM36 351.599C36 349.214 36.6017 347.584 37.4352 346.434C38.279 345.27 39.4709 344.446 40.8874 343.872L39.3845 340.165C37.4619 340.944 35.5858 342.17 34.1964 344.087C32.7967 346.018 32 348.502 32 351.599L36 351.599Z" fill="#FCDFE6"/>
<path d="M48.3922 337.433V343.559" stroke="#FCDFE6" stroke-width="4" stroke-linecap="round" stroke-linejoin="round"/>
<rect x="100" y="300" width="100" height="100" fill="#FFEBF0"/>
<path d="M136.585 342.613C140.08 335.599 146.988 339.104 150.007 341.116C152.211 339.373 157.001 336.229 161.815 340.467C169.352 347.1 155.399 361.651 150.007 361.651C144.04 361.651 133.391 349.024 136.585 342.613Z" fill="#FCDFE6" stroke="#FCDFE6" stroke-width="3"/>
<rect x="200" y="300" width="100" height="100" fill="#FFF3F6"/>
<path fill-rule="evenodd" clip-rule="evenodd" d="M240.136 342.018H240.039C240.739 339.674 242.89 335.124 245.799 334.731C247.422 334.511 248.16 335.501 248.446 336.879C249.567 335.523 250.771 334.508 251.814 334.508C254.841 334.508 255.25 338.308 255.526 340.866L255.526 340.866C255.572 341.292 255.614 341.684 255.664 342.018H255.651C259.119 343.373 262.115 346.119 261.997 351.599C261.826 359.525 254.492 361.62 247.913 361.62C241.335 361.62 234 358.468 234 351.599C234 346.117 236.797 343.372 240.136 342.018Z" fill="white"/>
<path d="M240.039 342.018L238.122 341.446C237.941 342.051 238.057 342.706 238.435 343.213C238.812 343.72 239.407 344.018 240.039 344.018V342.018ZM240.136 342.018L240.887 343.872C241.774 343.512 242.282 342.575 242.099 341.635C241.916 340.696 241.093 340.018 240.136 340.018V342.018ZM245.799 334.731L246.067 336.713L246.067 336.713L245.799 334.731ZM248.446 336.879L246.488 337.286C246.644 338.039 247.219 338.635 247.965 338.82C248.712 339.005 249.498 338.746 249.988 338.153L248.446 336.879ZM255.526 340.866L257.516 340.671C257.516 340.665 257.515 340.658 257.514 340.651L255.526 340.866ZM255.526 340.866L253.535 341.06C253.536 341.066 253.537 341.073 253.537 341.08L255.526 340.866ZM255.664 342.018V344.018C256.246 344.018 256.8 343.765 257.18 343.324C257.56 342.882 257.728 342.298 257.642 341.722L255.664 342.018ZM255.651 342.018V340.018C254.69 340.018 253.864 340.703 253.686 341.648C253.508 342.593 254.028 343.531 254.923 343.881L255.651 342.018ZM261.997 351.599L259.997 351.556L261.997 351.599ZM234 351.599L232 351.599L234 351.599ZM240.039 344.018H240.136V340.018H240.039V344.018ZM245.531 332.749C243.172 333.067 241.479 334.958 240.428 336.531C239.308 338.207 238.518 340.12 238.122 341.446L241.955 342.591C242.259 341.572 242.895 340.038 243.753 338.754C244.68 337.368 245.517 336.787 246.067 336.713L245.531 332.749ZM250.404 336.473C250.221 335.588 249.839 334.532 248.983 333.739C248.045 332.87 246.823 332.574 245.531 332.749L246.067 336.713C246.161 336.7 246.226 336.699 246.267 336.701C246.288 336.702 246.302 336.704 246.311 336.705C246.32 336.706 246.324 336.708 246.324 336.708C246.324 336.708 246.321 336.707 246.315 336.705C246.31 336.702 246.303 336.699 246.296 336.695C246.281 336.686 246.269 336.678 246.264 336.673C246.254 336.663 246.285 336.688 246.334 336.791C246.384 336.896 246.44 337.057 246.488 337.286L250.404 336.473ZM249.988 338.153C250.492 337.543 250.957 337.083 251.349 336.792C251.775 336.476 251.915 336.508 251.814 336.508V332.508C250.669 332.508 249.686 333.046 248.969 333.578C248.219 334.133 247.521 334.859 246.904 335.605L249.988 338.153ZM251.814 336.508C252.11 336.508 252.242 336.586 252.34 336.669C252.478 336.785 252.663 337.024 252.848 337.48C253.239 338.441 253.392 339.734 253.537 341.08L257.514 340.651C257.384 339.439 257.195 337.553 256.555 335.976C256.225 335.162 255.723 334.29 254.924 333.615C254.085 332.905 253.031 332.508 251.814 332.508V336.508ZM253.535 341.06L253.535 341.06L257.516 340.671L257.516 340.671L253.535 341.06ZM253.537 341.08C253.582 341.494 253.629 341.931 253.686 342.315L257.642 341.722C257.599 341.437 257.562 341.09 257.514 340.651L253.537 341.08ZM255.664 340.018H255.651V344.018H255.664V340.018ZM254.923 343.881C256.422 344.467 257.691 345.304 258.575 346.47C259.439 347.61 260.048 349.213 259.997 351.556L263.996 351.642C264.064 348.506 263.234 345.995 261.763 344.054C260.311 342.138 258.348 340.925 256.379 340.155L254.923 343.881ZM259.997 351.556C259.928 354.762 258.483 356.647 256.373 357.841C254.127 359.111 251.047 359.62 247.913 359.62V363.62C251.358 363.62 255.234 363.081 258.343 361.322C261.587 359.487 263.894 356.362 263.996 351.642L259.997 351.556ZM247.913 359.62C244.9 359.62 241.81 358.891 239.543 357.485C237.335 356.116 236 354.19 236 351.599L232 351.599C232 355.876 234.332 358.961 237.436 360.885C240.481 362.773 244.348 363.62 247.913 363.62V359.62ZM236 351.599C236 349.214 236.602 347.584 237.435 346.434C238.279 345.27 239.471 344.446 240.887 343.872L239.384 340.165C237.462 340.944 235.586 342.17 234.196 344.087C232.797 346.018 232 348.502 232 351.599L236 351.599Z" fill="#FCDFE6"/>
<path d="M248.392 337.433V343.559" stroke="#FCDFE6" stroke-width="4" stroke-linecap="round" stroke-linejoin="round"/>
<rect x="300" y="300" width="100" height="100" fill="#FFEBF0"/>
<path d="M336.585 342.613C340.08 335.599 346.988 339.104 350.007 341.116C352.211 339.373 357.001 336.229 361.815 340.467C369.352 347.1 355.399 361.651 350.007 361.651C344.04 361.651 333.391 349.024 336.585 342.613Z" fill="#FCDFE6" stroke="#FCDFE6" stroke-width="3"/>
<rect y="400" width="100" height="100" fill="#FFEBF0"/>
<path d="M36.5849 442.613C40.0796 435.599 46.9881 439.104 50.0074 441.116C52.2114 439.373 57.0012 436.229 61.8153 440.467C69.3523 447.1 55.399 461.651 50.0074 461.651C44.0404 461.651 33.3914 449.024 36.5849 442.613Z" fill="#FCDFE6" stroke="#FCDFE6" stroke-width="3"/>
<rect x="100" y="400" width="100" height="100" fill="#FFF3F6"/>
<path fill-rule="evenodd" clip-rule="evenodd" d="M140.136 442.018H140.039C140.739 439.674 142.89 435.124 145.799 434.731C147.422 434.511 148.16 435.501 148.446 436.879C149.567 435.523 150.771 434.508 151.814 434.508C154.841 434.508 155.25 438.308 155.526 440.866L155.526 440.866C155.572 441.292 155.614 441.684 155.664 442.018H155.651C159.119 443.373 162.115 446.119 161.997 451.599C161.826 459.525 154.492 461.62 147.913 461.62C141.335 461.62 134 458.468 134 451.599C134 446.117 136.797 443.372 140.136 442.018Z" fill="white"/>
<path d="M140.039 442.018L138.122 441.446C137.941 442.051 138.057 442.706 138.435 443.213C138.812 443.72 139.407 444.018 140.039 444.018V442.018ZM140.136 442.018L140.887 443.872C141.774 443.512 142.282 442.575 142.099 441.635C141.916 440.696 141.093 440.018 140.136 440.018V442.018ZM145.799 434.731L146.067 436.713L146.067 436.713L145.799 434.731ZM148.446 436.879L146.488 437.286C146.644 438.039 147.219 438.635 147.965 438.82C148.712 439.005 149.498 438.746 149.988 438.153L148.446 436.879ZM155.526 440.866L157.516 440.671C157.516 440.665 157.515 440.658 157.514 440.651L155.526 440.866ZM155.526 440.866L153.535 441.06C153.536 441.066 153.537 441.073 153.537 441.08L155.526 440.866ZM155.664 442.018V444.018C156.246 444.018 156.8 443.765 157.18 443.324C157.56 442.882 157.728 442.298 157.642 441.722L155.664 442.018ZM155.651 442.018V440.018C154.69 440.018 153.864 440.703 153.686 441.648C153.508 442.593 154.028 443.531 154.923 443.881L155.651 442.018ZM161.997 451.599L159.997 451.556L161.997 451.599ZM134 451.599L132 451.599L134 451.599ZM140.039 444.018H140.136V440.018H140.039V444.018ZM145.531 432.749C143.172 433.067 141.479 434.958 140.428 436.531C139.308 438.207 138.518 440.12 138.122 441.446L141.955 442.591C142.259 441.572 142.895 440.038 143.753 438.754C144.68 437.368 145.517 436.787 146.067 436.713L145.531 432.749ZM150.404 436.473C150.221 435.588 149.839 434.532 148.983 433.739C148.045 432.87 146.823 432.574 145.531 432.749L146.067 436.713C146.161 436.7 146.226 436.699 146.267 436.701C146.288 436.702 146.302 436.704 146.311 436.705C146.32 436.706 146.324 436.708 146.324 436.708C146.324 436.708 146.321 436.707 146.315 436.705C146.31 436.702 146.303 436.699 146.296 436.695C146.281 436.686 146.269 436.678 146.264 436.673C146.254 436.663 146.285 436.688 146.334 436.791C146.384 436.896 146.44 437.057 146.488 437.286L150.404 436.473ZM149.988 438.153C150.492 437.543 150.957 437.083 151.349 436.792C151.775 436.476 151.915 436.508 151.814 436.508V432.508C150.669 432.508 149.686 433.046 148.969 433.578C148.219 434.133 147.521 434.859 146.904 435.605L149.988 438.153ZM151.814 436.508C152.11 436.508 152.242 436.586 152.34 436.669C152.478 436.785 152.663 437.024 152.848 437.48C153.239 438.441 153.392 439.734 153.537 441.08L157.514 440.651C157.384 439.439 157.195 437.553 156.555 435.976C156.225 435.162 155.723 434.29 154.924 433.615C154.085 432.905 153.031 432.508 151.814 432.508V436.508ZM153.535 441.06L153.535 441.06L157.516 440.671L157.516 440.671L153.535 441.06ZM153.537 441.08C153.582 441.494 153.629 441.931 153.686 442.315L157.642 441.722C157.599 441.437 157.562 441.09 157.514 440.651L153.537 441.08ZM155.664 440.018H155.651V444.018H155.664V440.018ZM154.923 443.881C156.422 444.467 157.691 445.304 158.575 446.47C159.439 447.61 160.048 449.213 159.997 451.556L163.996 451.642C164.064 448.506 163.234 445.995 161.763 444.054C160.311 442.138 158.348 440.925 156.379 440.155L154.923 443.881ZM159.997 451.556C159.928 454.762 158.483 456.647 156.373 457.841C154.127 459.111 151.047 459.62 147.913 459.62V463.62C151.358 463.62 155.234 463.081 158.343 461.322C161.587 459.487 163.894 456.362 163.996 451.642L159.997 451.556ZM147.913 459.62C144.9 459.62 141.81 458.891 139.543 457.485C137.335 456.116 136 454.19 136 451.599L132 451.599C132 455.876 134.332 458.961 137.436 460.885C140.481 462.773 144.348 463.62 147.913 463.62V459.62ZM136 451.599C136 449.214 136.602 447.584 137.435 446.434C138.279 445.27 139.471 444.446 140.887 443.872L139.384 440.165C137.462 440.944 135.586 442.17 134.196 444.087C132.797 446.018 132 448.502 132 451.599L136 451.599Z" fill="#FCDFE6"/>
<path d="M148.392 437.433V443.559" stroke="#FCDFE6" stroke-width="4" stroke-linecap="round" stroke-linejoin="round"/>
<rect x="200" y="400" width="100" height="100" fill="#FFEBF0"/>
<path d="M236.585 442.613C240.08 435.599 246.988 439.104 250.007 441.116C252.211 439.373 257.001 436.229 261.815 440.467C269.352 447.1 255.399 461.651 250.007 461.651C244.04 461.651 233.391 449.024 236.585 442.613Z" fill="#FCDFE6" stroke="#FCDFE6" stroke-width="3"/>
<rect x="300" y="400" width="100" height="100" fill="#FFF3F6"/>
<path fill-rule="evenodd" clip-rule="evenodd" d="M340.136 442.018H340.039C340.739 439.674 342.89 435.124 345.799 434.731C347.422 434.511 348.16 435.501 348.446 436.879C349.567 435.523 350.771 434.508 351.814 434.508C354.841 434.508 355.25 438.308 355.526 440.866L355.526 440.866C355.572 441.292 355.614 441.684 355.664 442.018H355.651C359.119 443.373 362.115 446.119 361.997 451.599C361.826 459.525 354.492 461.62 347.913 461.62C341.335 461.62 334 458.468 334 451.599C334 446.117 336.797 443.372 340.136 442.018Z" fill="white"/>
<path d="M340.039 442.018L338.122 441.446C337.941 442.051 338.057 442.706 338.435 443.213C338.812 443.72 339.407 444.018 340.039 444.018V442.018ZM340.136 442.018L340.887 443.872C341.774 443.512 342.282 442.575 342.099 441.635C341.916 440.696 341.093 440.018 340.136 440.018V442.018ZM345.799 434.731L346.067 436.713L346.067 436.713L345.799 434.731ZM348.446 436.879L346.488 437.286C346.644 438.039 347.219 438.635 347.965 438.82C348.712 439.005 349.498 438.746 349.988 438.153L348.446 436.879ZM355.526 440.866L357.516 440.671C357.516 440.665 357.515 440.658 357.514 440.651L355.526 440.866ZM355.526 440.866L353.535 441.06C353.536 441.066 353.537 441.073 353.537 441.08L355.526 440.866ZM355.664 442.018V444.018C356.246 444.018 356.8 443.765 357.18 443.324C357.56 442.882 357.728 442.298 357.642 441.722L355.664 442.018ZM355.651 442.018V440.018C354.69 440.018 353.864 440.703 353.686 441.648C353.508 442.593 354.028 443.531 354.923 443.881L355.651 442.018ZM361.997 451.599L359.997 451.556L361.997 451.599ZM334 451.599L332 451.599L334 451.599ZM340.039 444.018H340.136V440.018H340.039V444.018ZM345.531 432.749C343.172 433.067 341.479 434.958 340.428 436.531C339.308 438.207 338.518 440.12 338.122 441.446L341.955 442.591C342.259 441.572 342.895 440.038 343.753 438.754C344.68 437.368 345.517 436.787 346.067 436.713L345.531 432.749ZM350.404 436.473C350.221 435.588 349.839 434.532 348.983 433.739C348.045 432.87 346.823 432.574 345.531 432.749L346.067 436.713C346.161 436.7 346.226 436.699 346.267 436.701C346.288 436.702 346.302 436.704 346.311 436.705C346.32 436.706 346.324 436.708 346.324 436.708C346.324 436.708 346.321 436.707 346.315 436.705C346.31 436.702 346.303 436.699 346.296 436.695C346.281 436.686 346.269 436.678 346.264 436.673C346.254 436.663 346.285 436.688 346.334 436.791C346.384 436.896 346.44 437.057 346.488 437.286L350.404 436.473ZM349.988 438.153C350.492 437.543 350.957 437.083 351.349 436.792C351.775 436.476 351.915 436.508 351.814 436.508V432.508C350.669 432.508 349.686 433.046 348.969 433.578C348.219 434.133 347.521 434.859 346.904 435.605L349.988 438.153ZM351.814 436.508C352.11 436.508 352.242 436.586 352.34 436.669C352.478 436.785 352.663 437.024 352.848 437.48C353.239 438.441 353.392 439.734 353.537 441.08L357.514 440.651C357.384 439.439 357.195 437.553 356.555 435.976C356.225 435.162 355.723 434.29 354.924 433.615C354.085 432.905 353.031 432.508 351.814 432.508V436.508ZM353.535 441.06L353.535 441.06L357.516 440.671L357.516 440.671L353.535 441.06ZM353.537 441.08C353.582 441.494 353.629 441.931 353.686 442.315L357.642 441.722C357.599 441.437 357.562 441.09 357.514 440.651L353.537 441.08ZM355.664 440.018H355.651V444.018H355.664V440.018ZM354.923 443.881C356.422 444.467 357.691 445.304 358.575 446.47C359.439 447.61 360.048 449.213 359.997 451.556L363.996 451.642C364.064 448.506 363.234 445.995 361.763 444.054C360.311 442.138 358.348 440.925 356.379 440.155L354.923 443.881ZM359.997 451.556C359.928 454.762 358.483 456.647 356.373 457.841C354.127 459.111 351.047 459.62 347.913 459.62V463.62C351.358 463.62 355.234 463.081 358.343 461.322C361.587 459.487 363.894 456.362 363.996 451.642L359.997 451.556ZM347.913 459.62C344.9 459.62 341.81 458.891 339.543 457.485C337.335 456.116 336 454.19 336 451.599L332 451.599C332 455.876 334.332 458.961 337.436 460.885C340.481 462.773 344.348 463.62 347.913 463.62V459.62ZM336 451.599C336 449.214 336.602 447.584 337.435 446.434C338.279 445.27 339.471 444.446 340.887 443.872L339.384 440.165C337.462 440.944 335.586 442.17 334.196 444.087C332.797 446.018 332 448.502 332 451.599L336 451.599Z" fill="#FCDFE6"/>
<path d="M348.392 437.433V443.559" stroke="#FCDFE6" stroke-width="4" stroke-linecap="round" stroke-linejoin="round"/>
<rect y="500" width="100" height="100" fill="#FFF3F6"/>
<path fill-rule="evenodd" clip-rule="evenodd" d="M40.1359 542.018H40.0385C40.7387 539.674 42.8902 535.124 45.7986 534.731C47.4216 534.511 48.1601 535.501 48.4461 536.879C49.5666 535.523 50.7709 534.508 51.8135 534.508C54.8409 534.508 55.2504 538.308 55.5259 540.866L55.5259 540.866C55.5719 541.292 55.6142 541.684 55.6642 542.018H55.6512C59.1187 543.373 62.1147 546.119 61.9966 551.599C61.8258 559.525 54.4918 561.62 47.9133 561.62C41.3347 561.62 34 558.468 34 551.599C34 546.117 36.7968 543.372 40.1359 542.018Z" fill="white"/>
<path d="M40.0385 542.018L38.1222 541.446C37.9414 542.051 38.0572 542.706 38.4347 543.213C38.8121 543.72 39.4068 544.018 40.0385 544.018V542.018ZM40.1359 542.018L40.8874 543.872C41.7743 543.512 42.2821 542.575 42.099 541.635C41.9158 540.696 41.0929 540.018 40.1359 540.018V542.018ZM45.7986 534.731L46.0665 536.713L46.0665 536.713L45.7986 534.731ZM48.4461 536.879L46.4879 537.286C46.6442 538.039 47.2186 538.635 47.9652 538.82C48.7118 539.005 49.4983 538.746 49.9882 538.153L48.4461 536.879ZM55.5259 540.866L57.5165 540.671C57.5158 540.665 57.5152 540.658 57.5144 540.651L55.5259 540.866ZM55.5259 540.866L53.5354 541.06C53.5361 541.066 53.5367 541.073 53.5375 541.08L55.5259 540.866ZM55.6642 542.018V544.018C56.2464 544.018 56.7996 543.765 57.1796 543.324C57.5595 542.882 57.7284 542.298 57.6421 541.722L55.6642 542.018ZM55.6512 542.018V540.018C54.6895 540.018 53.8639 540.703 53.6858 541.648C53.5077 542.593 54.0275 543.531 54.9233 543.881L55.6512 542.018ZM61.9966 551.599L59.9971 551.556L61.9966 551.599ZM34 551.599L32 551.599L34 551.599ZM40.0385 544.018H40.1359V540.018H40.0385V544.018ZM45.5308 532.749C43.1722 533.067 41.4791 534.958 40.4277 536.531C39.3076 538.207 38.518 540.12 38.1222 541.446L41.9549 542.591C42.2592 541.572 42.8954 540.038 43.7533 538.754C44.6797 537.368 45.5166 536.787 46.0665 536.713L45.5308 532.749ZM50.4044 536.473C50.2208 535.588 49.8387 534.532 48.9833 533.739C48.0453 532.87 46.8227 532.574 45.5308 532.749L46.0665 536.713C46.1608 536.7 46.2263 536.699 46.2672 536.701C46.2875 536.702 46.3018 536.704 46.3107 536.705C46.3196 536.706 46.3237 536.708 46.3238 536.708C46.3238 536.708 46.3207 536.707 46.3153 536.705C46.3098 536.702 46.3032 536.699 46.296 536.695C46.2805 536.686 46.2695 536.678 46.2641 536.673C46.2541 536.663 46.2852 536.688 46.3342 536.791C46.3843 536.896 46.4403 537.057 46.4879 537.286L50.4044 536.473ZM49.9882 538.153C50.4921 537.543 50.9566 537.083 51.3494 536.792C51.7753 536.476 51.9155 536.508 51.8135 536.508V532.508C50.6689 532.508 49.6857 533.046 48.9686 533.578C48.2186 534.133 47.5206 534.859 46.9041 535.605L49.9882 538.153ZM51.8135 536.508C52.11 536.508 52.2425 536.586 52.3404 536.669C52.4783 536.785 52.6635 537.024 52.8484 537.48C53.2386 538.441 53.3925 539.734 53.5375 541.08L57.5144 540.651C57.3839 539.439 57.1952 537.553 56.5549 535.976C56.2246 535.162 55.7226 534.29 54.9237 533.615C54.0847 532.905 53.0308 532.508 51.8135 532.508V536.508ZM53.5354 541.06L53.5354 541.06L57.5165 540.671L57.5165 540.671L53.5354 541.06ZM53.5375 541.08C53.5821 541.494 53.6288 541.931 53.6863 542.315L57.6421 541.722C57.5995 541.437 57.5617 541.09 57.5144 540.651L53.5375 541.08ZM55.6642 540.018H55.6512V544.018H55.6642V540.018ZM54.9233 543.881C56.4221 544.467 57.6909 545.304 58.5745 546.47C59.4387 547.61 60.0476 549.213 59.9971 551.556L63.9962 551.642C64.0637 548.506 63.2337 545.995 61.7625 544.054C60.3108 542.138 58.3479 540.925 56.3792 540.155L54.9233 543.881ZM59.9971 551.556C59.928 554.762 58.4826 556.647 56.3732 557.841C54.127 559.111 51.0474 559.62 47.9133 559.62V563.62C51.3577 563.62 55.2344 563.081 58.3426 561.322C61.5874 559.487 63.8944 556.362 63.9962 551.642L59.9971 551.556ZM47.9133 559.62C44.9004 559.62 41.8103 558.891 39.5434 557.485C37.3351 556.116 36 554.19 36 551.599L32 551.599C32 555.876 34.3322 558.961 37.4359 560.885C40.481 562.773 44.3475 563.62 47.9133 563.62V559.62ZM36 551.599C36 549.214 36.6017 547.584 37.4352 546.434C38.279 545.27 39.4709 544.446 40.8874 543.872L39.3845 540.165C37.4619 540.944 35.5858 542.17 34.1964 544.087C32.7967 546.018 32 548.502 32 551.599L36 551.599Z" fill="#FCDFE6"/>
<path d="M48.3922 537.433V543.559" stroke="#FCDFE6" stroke-width="4" stroke-linecap="round" stroke-linejoin="round"/>
<rect x="100" y="500" width="100" height="100" fill="#FFEBF0"/>
<path d="M136.585 542.613C140.08 535.599 146.988 539.104 150.007 541.116C152.211 539.373 157.001 536.229 161.815 540.467C169.352 547.1 155.399 561.651 150.007 561.651C144.04 561.651 133.391 549.024 136.585 542.613Z" fill="#FCDFE6" stroke="#FCDFE6" stroke-width="3"/>
<rect x="200" y="500" width="100" height="100" fill="#FFF3F6"/>
<path fill-rule="evenodd" clip-rule="evenodd" d="M240.136 542.018H240.039C240.739 539.674 242.89 535.124 245.799 534.731C247.422 534.511 248.16 535.501 248.446 536.879C249.567 535.523 250.771 534.508 251.814 534.508C254.841 534.508 255.25 538.308 255.526 540.866L255.526 540.866C255.572 541.292 255.614 541.684 255.664 542.018H255.651C259.119 543.373 262.115 546.119 261.997 551.599C261.826 559.525 254.492 561.62 247.913 561.62C241.335 561.62 234 558.468 234 551.599C234 546.117 236.797 543.372 240.136 542.018Z" fill="white"/>
<path d="M240.039 542.018L238.122 541.446C237.941 542.051 238.057 542.706 238.435 543.213C238.812 543.72 239.407 544.018 240.039 544.018V542.018ZM240.136 542.018L240.887 543.872C241.774 543.512 242.282 542.575 242.099 541.635C241.916 540.696 241.093 540.018 240.136 540.018V542.018ZM245.799 534.731L246.067 536.713L246.067 536.713L245.799 534.731ZM248.446 536.879L246.488 537.286C246.644 538.039 247.219 538.635 247.965 538.82C248.712 539.005 249.498 538.746 249.988 538.153L248.446 536.879ZM255.526 540.866L257.516 540.671C257.516 540.665 257.515 540.658 257.514 540.651L255.526 540.866ZM255.526 540.866L253.535 541.06C253.536 541.066 253.537 541.073 253.537 541.08L255.526 540.866ZM255.664 542.018V544.018C256.246 544.018 256.8 543.765 257.18 543.324C257.56 542.882 257.728 542.298 257.642 541.722L255.664 542.018ZM255.651 542.018V540.018C254.69 540.018 253.864 540.703 253.686 541.648C253.508 542.593 254.028 543.531 254.923 543.881L255.651 542.018ZM261.997 551.599L259.997 551.556L261.997 551.599ZM234 551.599L232 551.599L234 551.599ZM240.039 544.018H240.136V540.018H240.039V544.018ZM245.531 532.749C243.172 533.067 241.479 534.958 240.428 536.531C239.308 538.207 238.518 540.12 238.122 541.446L241.955 542.591C242.259 541.572 242.895 540.038 243.753 538.754C244.68 537.368 245.517 536.787 246.067 536.713L245.531 532.749ZM250.404 536.473C250.221 535.588 249.839 534.532 248.983 533.739C248.045 532.87 246.823 532.574 245.531 532.749L246.067 536.713C246.161 536.7 246.226 536.699 246.267 536.701C246.288 536.702 246.302 536.704 246.311 536.705C246.32 536.706 246.324 536.708 246.324 536.708C246.324 536.708 246.321 536.707 246.315 536.705C246.31 536.702 246.303 536.699 246.296 536.695C246.281 536.686 246.269 536.678 246.264 536.673C246.254 536.663 246.285 536.688 246.334 536.791C246.384 536.896 246.44 537.057 246.488 537.286L250.404 536.473ZM249.988 538.153C250.492 537.543 250.957 537.083 251.349 536.792C251.775 536.476 251.915 536.508 251.814 536.508V532.508C250.669 532.508 249.686 533.046 248.969 533.578C248.219 534.133 247.521 534.859 246.904 535.605L249.988 538.153ZM251.814 536.508C252.11 536.508 252.242 536.586 252.34 536.669C252.478 536.785 252.663 537.024 252.848 537.48C253.239 538.441 253.392 539.734 253.537 541.08L257.514 540.651C257.384 539.439 257.195 537.553 256.555 535.976C256.225 535.162 255.723 534.29 254.924 533.615C254.085 532.905 253.031 532.508 251.814 532.508V536.508ZM253.535 541.06L253.535 541.06L257.516 540.671L257.516 540.671L253.535 541.06ZM253.537 541.08C253.582 541.494 253.629 541.931 253.686 542.315L257.642 541.722C257.599 541.437 257.562 541.09 257.514 540.651L253.537 541.08ZM255.664 540.018H255.651V544.018H255.664V540.018ZM254.923 543.881C256.422 544.467 257.691 545.304 258.575 546.47C259.439 547.61 260.048 549.213 259.997 551.556L263.996 551.642C264.064 548.506 263.234 545.995 261.763 544.054C260.311 542.138 258.348 540.925 256.379 540.155L254.923 543.881ZM259.997 551.556C259.928 554.762 258.483 556.647 256.373 557.841C254.127 559.111 251.047 559.62 247.913 559.62V563.62C251.358 563.62 255.234 563.081 258.343 561.322C261.587 559.487 263.894 556.362 263.996 551.642L259.997 551.556ZM247.913 559.62C244.9 559.62 241.81 558.891 239.543 557.485C237.335 556.116 236 554.19 236 551.599L232 551.599C232 555.876 234.332 558.961 237.436 560.885C240.481 562.773 244.348 563.62 247.913 563.62V559.62ZM236 551.599C236 549.214 236.602 547.584 237.435 546.434C238.279 545.27 239.471 544.446 240.887 543.872L239.384 540.165C237.462 540.944 235.586 542.17 234.196 544.087C232.797 546.018 232 548.502 232 551.599L236 551.599Z" fill="#FCDFE6"/>
<path d="M248.392 537.433V543.559" stroke="#FCDFE6" stroke-width="4" stroke-linecap="round" stroke-linejoin="round"/>
<rect x="300" y="500" width="100" height="100" fill="#FFEBF0"/>
<path d="M336.585 542.613C340.08 535.599 346.988 539.104 350.007 541.116C352.211 539.373 357.001 536.229 361.815 540.467C369.352 547.1 355.399 561.651 350.007 561.651C344.04 561.651 333.391 549.024 336.585 542.613Z" fill="#FCDFE6" stroke="#FCDFE6" stroke-width="3"/>
<rect y="600" width="100" height="100" fill="#FFEBF0"/>
<path d="M36.5849 642.613C40.0796 635.599 46.9881 639.104 50.0074 641.116C52.2114 639.373 57.0012 636.229 61.8153 640.467C69.3523 647.1 55.399 661.651 50.0074 661.651C44.0404 661.651 33.3914 649.024 36.5849 642.613Z" fill="#FCDFE6" stroke="#FCDFE6" stroke-width="3"/>
<rect x="100" y="600" width="100" height="100" fill="#FFF3F6"/>
<path fill-rule="evenodd" clip-rule="evenodd" d="M140.136 642.018H140.039C140.739 639.674 142.89 635.124 145.799 634.731C147.422 634.511 148.16 635.501 148.446 636.879C149.567 635.523 150.771 634.508 151.814 634.508C154.841 634.508 155.25 638.308 155.526 640.866L155.526 640.866C155.572 641.292 155.614 641.684 155.664 642.018H155.651C159.119 643.373 162.115 646.119 161.997 651.599C161.826 659.525 154.492 661.62 147.913 661.62C141.335 661.62 134 658.468 134 651.599C134 646.117 136.797 643.372 140.136 642.018Z" fill="white"/>
<path d="M140.039 642.018L138.122 641.446C137.941 642.051 138.057 642.706 138.435 643.213C138.812 643.72 139.407 644.018 140.039 644.018V642.018ZM140.136 642.018L140.887 643.872C141.774 643.512 142.282 642.575 142.099 641.635C141.916 640.696 141.093 640.018 140.136 640.018V642.018ZM145.799 634.731L146.067 636.713L146.067 636.713L145.799 634.731ZM148.446 636.879L146.488 637.286C146.644 638.039 147.219 638.635 147.965 638.82C148.712 639.005 149.498 638.746 149.988 638.153L148.446 636.879ZM155.526 640.866L157.516 640.671C157.516 640.665 157.515 640.658 157.514 640.651L155.526 640.866ZM155.526 640.866L153.535 641.06C153.536 641.066 153.537 641.073 153.537 641.08L155.526 640.866ZM155.664 642.018V644.018C156.246 644.018 156.8 643.765 157.18 643.324C157.56 642.882 157.728 642.298 157.642 641.722L155.664 642.018ZM155.651 642.018V640.018C154.69 640.018 153.864 640.703 153.686 641.648C153.508 642.593 154.028 643.531 154.923 643.881L155.651 642.018ZM161.997 651.599L159.997 651.556L161.997 651.599ZM134 651.599L132 651.599L134 651.599ZM140.039 644.018H140.136V640.018H140.039V644.018ZM145.531 632.749C143.172 633.067 141.479 634.958 140.428 636.531C139.308 638.207 138.518 640.12 138.122 641.446L141.955 642.591C142.259 641.572 142.895 640.038 143.753 638.754C144.68 637.368 145.517 636.787 146.067 636.713L145.531 632.749ZM150.404 636.473C150.221 635.588 149.839 634.532 148.983 633.739C148.045 632.87 146.823 632.574 145.531 632.749L146.067 636.713C146.161 636.7 146.226 636.699 146.267 636.701C146.288 636.702 146.302 636.704 146.311 636.705C146.32 636.706 146.324 636.708 146.324 636.708C146.324 636.708 146.321 636.707 146.315 636.705C146.31 636.702 146.303 636.699 146.296 636.695C146.281 636.686 146.269 636.678 146.264 636.673C146.254 636.663 146.285 636.688 146.334 636.791C146.384 636.896 146.44 637.057 146.488 637.286L150.404 636.473ZM149.988 638.153C150.492 637.543 150.957 637.083 151.349 636.792C151.775 636.476 151.915 636.508 151.814 636.508V632.508C150.669 632.508 149.686 633.046 148.969 633.578C148.219 634.133 147.521 634.859 146.904 635.605L149.988 638.153ZM151.814 636.508C152.11 636.508 152.242 636.586 152.34 636.669C152.478 636.785 152.663 637.024 152.848 637.48C153.239 638.441 153.392 639.734 153.537 641.08L157.514 640.651C157.384 639.439 157.195 637.553 156.555 635.976C156.225 635.162 155.723 634.29 154.924 633.615C154.085 632.905 153.031 632.508 151.814 632.508V636.508ZM153.535 641.06L153.535 641.06L157.516 640.671L157.516 640.671L153.535 641.06ZM153.537 641.08C153.582 641.494 153.629 641.931 153.686 642.315L157.642 641.722C157.599 641.437 157.562 641.09 157.514 640.651L153.537 641.08ZM155.664 640.018H155.651V644.018H155.664V640.018ZM154.923 643.881C156.422 644.467 157.691 645.304 158.575 646.47C159.439 647.61 160.048 649.213 159.997 651.556L163.996 651.642C164.064 648.506 163.234 645.995 161.763 644.054C160.311 642.138 158.348 640.925 156.379 640.155L154.923 643.881ZM159.997 651.556C159.928 654.762 158.483 656.647 156.373 657.841C154.127 659.111 151.047 659.62 147.913 659.62V663.62C151.358 663.62 155.234 663.081 158.343 661.322C161.587 659.487 163.894 656.362 163.996 651.642L159.997 651.556ZM147.913 659.62C144.9 659.62 141.81 658.891 139.543 657.485C137.335 656.116 136 654.19 136 651.599L132 651.599C132 655.876 134.332 658.961 137.436 660.885C140.481 662.773 144.348 663.62 147.913 663.62V659.62ZM136 651.599C136 649.214 136.602 647.584 137.435 646.434C138.279 645.27 139.471 644.446 140.887 643.872L139.384 640.165C137.462 640.944 135.586 642.17 134.196 644.087C132.797 646.018 132 648.502 132 651.599L136 651.599Z" fill="#FCDFE6"/>
<path d="M148.392 637.433V643.559" stroke="#FCDFE6" stroke-width="4" stroke-linecap="round" stroke-linejoin="round"/>
<rect x="200" y="600" width="100" height="100" fill="#FFEBF0"/>
<path d="M236.585 642.613C240.08 635.599 246.988 639.104 250.007 641.116C252.211 639.373 257.001 636.229 261.815 640.467C269.352 647.1 255.399 661.651 250.007 661.651C244.04 661.651 233.391 649.024 236.585 642.613Z" fill="#FCDFE6" stroke="#FCDFE6" stroke-width="3"/>
<rect x="300" y="600" width="100" height="100" fill="#FFF3F6"/>
<path fill-rule="evenodd" clip-rule="evenodd" d="M340.136 642.018H340.039C340.739 639.674 342.89 635.124 345.799 634.731C347.422 634.511 348.16 635.501 348.446 636.879C349.567 635.523 350.771 634.508 351.814 634.508C354.841 634.508 355.25 638.308 355.526 640.866L355.526 640.866C355.572 641.292 355.614 641.684 355.664 642.018H355.651C359.119 643.373 362.115 646.119 361.997 651.599C361.826 659.525 354.492 661.62 347.913 661.62C341.335 661.62 334 658.468 334 651.599C334 646.117 336.797 643.372 340.136 642.018Z" fill="white"/>
<path d="M340.039 642.018L338.122 641.446C337.941 642.051 338.057 642.706 338.435 643.213C338.812 643.72 339.407 644.018 340.039 644.018V642.018ZM340.136 642.018L340.887 643.872C341.774 643.512 342.282 642.575 342.099 641.635C341.916 640.696 341.093 640.018 340.136 640.018V642.018ZM345.799 634.731L346.067 636.713L346.067 636.713L345.799 634.731ZM348.446 636.879L346.488 637.286C346.644 638.039 347.219 638.635 347.965 638.82C348.712 639.005 349.498 638.746 349.988 638.153L348.446 636.879ZM355.526 640.866L357.516 640.671C357.516 640.665 357.515 640.658 357.514 640.651L355.526 640.866ZM355.526 640.866L353.535 641.06C353.536 641.066 353.537 641.073 353.537 641.08L355.526 640.866ZM355.664 642.018V644.018C356.246 644.018 356.8 643.765 357.18 643.324C357.56 642.882 357.728 642.298 357.642 641.722L355.664 642.018ZM355.651 642.018V640.018C354.69 640.018 353.864 640.703 353.686 641.648C353.508 642.593 354.028 643.531 354.923 643.881L355.651 642.018ZM361.997 651.599L359.997 651.556L361.997 651.599ZM334 651.599L332 651.599L334 651.599ZM340.039 644.018H340.136V640.018H340.039V644.018ZM345.531 632.749C343.172 633.067 341.479 634.958 340.428 636.531C339.308 638.207 338.518 640.12 338.122 641.446L341.955 642.591C342.259 641.572 342.895 640.038 343.753 638.754C344.68 637.368 345.517 636.787 346.067 636.713L345.531 632.749ZM350.404 636.473C350.221 635.588 349.839 634.532 348.983 633.739C348.045 632.87 346.823 632.574 345.531 632.749L346.067 636.713C346.161 636.7 346.226 636.699 346.267 636.701C346.288 636.702 346.302 636.704 346.311 636.705C346.32 636.706 346.324 636.708 346.324 636.708C346.324 636.708 346.321 636.707 346.315 636.705C346.31 636.702 346.303 636.699 346.296 636.695C346.281 636.686 346.269 636.678 346.264 636.673C346.254 636.663 346.285 636.688 346.334 636.791C346.384 636.896 346.44 637.057 346.488 637.286L350.404 636.473ZM349.988 638.153C350.492 637.543 350.957 637.083 351.349 636.792C351.775 636.476 351.915 636.508 351.814 636.508V632.508C350.669 632.508 349.686 633.046 348.969 633.578C348.219 634.133 347.521 634.859 346.904 635.605L349.988 638.153ZM351.814 636.508C352.11 636.508 352.242 636.586 352.34 636.669C352.478 636.785 352.663 637.024 352.848 637.48C353.239 638.441 353.392 639.734 353.537 641.08L357.514 640.651C357.384 639.439 357.195 637.553 356.555 635.976C356.225 635.162 355.723 634.29 354.924 633.615C354.085 632.905 353.031 632.508 351.814 632.508V636.508ZM353.535 641.06L353.535 641.06L357.516 640.671L357.516 640.671L353.535 641.06ZM353.537 641.08C353.582 641.494 353.629 641.931 353.686 642.315L357.642 641.722C357.599 641.437 357.562 641.09 357.514 640.651L353.537 641.08ZM355.664 640.018H355.651V644.018H355.664V640.018ZM354.923 643.881C356.422 644.467 357.691 645.304 358.575 646.47C359.439 647.61 360.048 649.213 359.997 651.556L363.996 651.642C364.064 648.506 363.234 645.995 361.763 644.054C360.311 642.138 358.348 640.925 356.379 640.155L354.923 643.881ZM359.997 651.556C359.928 654.762 358.483 656.647 356.373 657.841C354.127 659.111 351.047 659.62 347.913 659.62V663.62C351.358 663.62 355.234 663.081 358.343 661.322C361.587 659.487 363.894 656.362 363.996 651.642L359.997 651.556ZM347.913 659.62C344.9 659.62 341.81 658.891 339.543 657.485C337.335 656.116 336 654.19 336 651.599L332 651.599C332 655.876 334.332 658.961 337.436 660.885C340.481 662.773 344.348 663.62 347.913 663.62V659.62ZM336 651.599C336 649.214 336.602 647.584 337.435 646.434C338.279 645.27 339.471 644.446 340.887 643.872L339.384 640.165C337.462 640.944 335.586 642.17 334.196 644.087C332.797 646.018 332 648.502 332 651.599L336 651.599Z" fill="#FCDFE6"/>
<path d="M348.392 637.433V643.559" stroke="#FCDFE6" stroke-width="4" stroke-linecap="round" stroke-linejoin="round"/>
<rect y="700" width="100" height="100" fill="#FFF3F6"/>
<path fill-rule="evenodd" clip-rule="evenodd" d="M40.1359 742.018H40.0385C40.7387 739.674 42.8902 735.124 45.7986 734.731C47.4216 734.511 48.1601 735.501 48.4461 736.879C49.5666 735.523 50.7709 734.508 51.8135 734.508C54.8409 734.508 55.2504 738.308 55.5259 740.866L55.5259 740.866C55.5719 741.292 55.6142 741.684 55.6642 742.018H55.6512C59.1187 743.373 62.1147 746.119 61.9966 751.599C61.8258 759.525 54.4918 761.62 47.9133 761.62C41.3347 761.62 34 758.468 34 751.599C34 746.117 36.7968 743.372 40.1359 742.018Z" fill="white"/>
<path d="M40.0385 742.018L38.1222 741.446C37.9414 742.051 38.0572 742.706 38.4347 743.213C38.8121 743.72 39.4068 744.018 40.0385 744.018V742.018ZM40.1359 742.018L40.8874 743.872C41.7743 743.512 42.2821 742.575 42.099 741.635C41.9158 740.696 41.0929 740.018 40.1359 740.018V742.018ZM45.7986 734.731L46.0665 736.713L46.0665 736.713L45.7986 734.731ZM48.4461 736.879L46.4879 737.286C46.6442 738.039 47.2186 738.635 47.9652 738.82C48.7118 739.005 49.4983 738.746 49.9882 738.153L48.4461 736.879ZM55.5259 740.866L57.5165 740.671C57.5158 740.665 57.5152 740.658 57.5144 740.651L55.5259 740.866ZM55.5259 740.866L53.5354 741.06C53.5361 741.066 53.5367 741.073 53.5375 741.08L55.5259 740.866ZM55.6642 742.018V744.018C56.2464 744.018 56.7996 743.765 57.1796 743.324C57.5595 742.882 57.7284 742.298 57.6421 741.722L55.6642 742.018ZM55.6512 742.018V740.018C54.6895 740.018 53.8639 740.703 53.6858 741.648C53.5077 742.593 54.0275 743.531 54.9233 743.881L55.6512 742.018ZM61.9966 751.599L59.9971 751.556L61.9966 751.599ZM34 751.599L32 751.599L34 751.599ZM40.0385 744.018H40.1359V740.018H40.0385V744.018ZM45.5308 732.749C43.1722 733.067 41.4791 734.958 40.4277 736.531C39.3076 738.207 38.518 740.12 38.1222 741.446L41.9549 742.591C42.2592 741.572 42.8954 740.038 43.7533 738.754C44.6797 737.368 45.5166 736.787 46.0665 736.713L45.5308 732.749ZM50.4044 736.473C50.2208 735.588 49.8387 734.532 48.9833 733.739C48.0453 732.87 46.8227 732.574 45.5308 732.749L46.0665 736.713C46.1608 736.7 46.2263 736.699 46.2672 736.701C46.2875 736.702 46.3018 736.704 46.3107 736.705C46.3196 736.706 46.3237 736.708 46.3238 736.708C46.3238 736.708 46.3207 736.707 46.3153 736.705C46.3098 736.702 46.3032 736.699 46.296 736.695C46.2805 736.686 46.2695 736.678 46.2641 736.673C46.2541 736.663 46.2852 736.688 46.3342 736.791C46.3843 736.896 46.4403 737.057 46.4879 737.286L50.4044 736.473ZM49.9882 738.153C50.4921 737.543 50.9566 737.083 51.3494 736.792C51.7753 736.476 51.9155 736.508 51.8135 736.508V732.508C50.6689 732.508 49.6857 733.046 48.9686 733.578C48.2186 734.133 47.5206 734.859 46.9041 735.605L49.9882 738.153ZM51.8135 736.508C52.11 736.508 52.2425 736.586 52.3404 736.669C52.4783 736.785 52.6635 737.024 52.8484 737.48C53.2386 738.441 53.3925 739.734 53.5375 741.08L57.5144 740.651C57.3839 739.439 57.1952 737.553 56.5549 735.976C56.2246 735.162 55.7226 734.29 54.9237 733.615C54.0847 732.905 53.0308 732.508 51.8135 732.508V736.508ZM53.5354 741.06L53.5354 741.06L57.5165 740.671L57.5165 740.671L53.5354 741.06ZM53.5375 741.08C53.5821 741.494 53.6288 741.931 53.6863 742.315L57.6421 741.722C57.5995 741.437 57.5617 741.09 57.5144 740.651L53.5375 741.08ZM55.6642 740.018H55.6512V744.018H55.6642V740.018ZM54.9233 743.881C56.4221 744.467 57.6909 745.304 58.5745 746.47C59.4387 747.61 60.0476 749.213 59.9971 751.556L63.9962 751.642C64.0637 748.506 63.2337 745.995 61.7625 744.054C60.3108 742.138 58.3479 740.925 56.3792 740.155L54.9233 743.881ZM59.9971 751.556C59.928 754.762 58.4826 756.647 56.3732 757.841C54.127 759.111 51.0474 759.62 47.9133 759.62V763.62C51.3577 763.62 55.2344 763.081 58.3426 761.322C61.5874 759.487 63.8944 756.362 63.9962 751.642L59.9971 751.556ZM47.9133 759.62C44.9004 759.62 41.8103 758.891 39.5434 757.485C37.3351 756.116 36 754.19 36 751.599L32 751.599C32 755.876 34.3322 758.961 37.4359 760.885C40.481 762.773 44.3475 763.62 47.9133 763.62V759.62ZM36 751.599C36 749.214 36.6017 747.584 37.4352 746.434C38.279 745.27 39.4709 744.446 40.8874 743.872L39.3845 740.165C37.4619 740.944 35.5858 742.17 34.1964 744.087C32.7967 746.018 32 748.502 32 751.599L36 751.599Z" fill="#FCDFE6"/>
<path d="M48.3922 737.433V743.559" stroke="#FCDFE6" stroke-width="4" stroke-linecap="round" stroke-linejoin="round"/>
<rect x="100" y="700" width="100" height="100" fill="#FFEBF0"/>
<path d="M136.585 742.613C140.08 735.599 146.988 739.104 150.007 741.116C152.211 739.373 157.001 736.229 161.815 740.467C169.352 747.1 155.399 761.651 150.007 761.651C144.04 761.651 133.391 749.024 136.585 742.613Z" fill="#FCDFE6" stroke="#FCDFE6" stroke-width="3"/>
<rect x="200" y="700" width="100" height="100" fill="#FFF3F6"/>
<path fill-rule="evenodd" clip-rule="evenodd" d="M240.136 742.018H240.039C240.739 739.674 242.89 735.124 245.799 734.731C247.422 734.511 248.16 735.501 248.446 736.879C249.567 735.523 250.771 734.508 251.814 734.508C254.841 734.508 255.25 738.308 255.526 740.866L255.526 740.866C255.572 741.292 255.614 741.684 255.664 742.018H255.651C259.119 743.373 262.115 746.119 261.997 751.599C261.826 759.525 254.492 761.62 247.913 761.62C241.335 761.62 234 758.468 234 751.599C234 746.117 236.797 743.372 240.136 742.018Z" fill="white"/>
<path d="M240.039 742.018L238.122 741.446C237.941 742.051 238.057 742.706 238.435 743.213C238.812 743.72 239.407 744.018 240.039 744.018V742.018ZM240.136 742.018L240.887 743.872C241.774 743.512 242.282 742.575 242.099 741.635C241.916 740.696 241.093 740.018 240.136 740.018V742.018ZM245.799 734.731L246.067 736.713L246.067 736.713L245.799 734.731ZM248.446 736.879L246.488 737.286C246.644 738.039 247.219 738.635 247.965 738.82C248.712 739.005 249.498 738.746 249.988 738.153L248.446 736.879ZM255.526 740.866L257.516 740.671C257.516 740.665 257.515 740.658 257.514 740.651L255.526 740.866ZM255.526 740.866L253.535 741.06C253.536 741.066 253.537 741.073 253.537 741.08L255.526 740.866ZM255.664 742.018V744.018C256.246 744.018 256.8 743.765 257.18 743.324C257.56 742.882 257.728 742.298 257.642 741.722L255.664 742.018ZM255.651 742.018V740.018C254.69 740.018 253.864 740.703 253.686 741.648C253.508 742.593 254.028 743.531 254.923 743.881L255.651 742.018ZM261.997 751.599L259.997 751.556L261.997 751.599ZM234 751.599L232 751.599L234 751.599ZM240.039 744.018H240.136V740.018H240.039V744.018ZM245.531 732.749C243.172 733.067 241.479 734.958 240.428 736.531C239.308 738.207 238.518 740.12 238.122 741.446L241.955 742.591C242.259 741.572 242.895 740.038 243.753 738.754C244.68 737.368 245.517 736.787 246.067 736.713L245.531 732.749ZM250.404 736.473C250.221 735.588 249.839 734.532 248.983 733.739C248.045 732.87 246.823 732.574 245.531 732.749L246.067 736.713C246.161 736.7 246.226 736.699 246.267 736.701C246.288 736.702 246.302 736.704 246.311 736.705C246.32 736.706 246.324 736.708 246.324 736.708C246.324 736.708 246.321 736.707 246.315 736.705C246.31 736.702 246.303 736.699 246.296 736.695C246.281 736.686 246.269 736.678 246.264 736.673C246.254 736.663 246.285 736.688 246.334 736.791C246.384 736.896 246.44 737.057 246.488 737.286L250.404 736.473ZM249.988 738.153C250.492 737.543 250.957 737.083 251.349 736.792C251.775 736.476 251.915 736.508 251.814 736.508V732.508C250.669 732.508 249.686 733.046 248.969 733.578C248.219 734.133 247.521 734.859 246.904 735.605L249.988 738.153ZM251.814 736.508C252.11 736.508 252.242 736.586 252.34 736.669C252.478 736.785 252.663 737.024 252.848 737.48C253.239 738.441 253.392 739.734 253.537 741.08L257.514 740.651C257.384 739.439 257.195 737.553 256.555 735.976C256.225 735.162 255.723 734.29 254.924 733.615C254.085 732.905 253.031 732.508 251.814 732.508V736.508ZM253.535 741.06L253.535 741.06L257.516 740.671L257.516 740.671L253.535 741.06ZM253.537 741.08C253.582 741.494 253.629 741.931 253.686 742.315L257.642 741.722C257.599 741.437 257.562 741.09 257.514 740.651L253.537 741.08ZM255.664 740.018H255.651V744.018H255.664V740.018ZM254.923 743.881C256.422 744.467 257.691 745.304 258.575 746.47C259.439 747.61 260.048 749.213 259.997 751.556L263.996 751.642C264.064 748.506 263.234 745.995 261.763 744.054C260.311 742.138 258.348 740.925 256.379 740.155L254.923 743.881ZM259.997 751.556C259.928 754.762 258.483 756.647 256.373 757.841C254.127 759.111 251.047 759.62 247.913 759.62V763.62C251.358 763.62 255.234 763.081 258.343 761.322C261.587 759.487 263.894 756.362 263.996 751.642L259.997 751.556ZM247.913 759.62C244.9 759.62 241.81 758.891 239.543 757.485C237.335 756.116 236 754.19 236 751.599L232 751.599C232 755.876 234.332 758.961 237.436 760.885C240.481 762.773 244.348 763.62 247.913 763.62V759.62ZM236 751.599C236 749.214 236.602 747.584 237.435 746.434C238.279 745.27 239.471 744.446 240.887 743.872L239.384 740.165C237.462 740.944 235.586 742.17 234.196 744.087C232.797 746.018 232 748.502 232 751.599L236 751.599Z" fill="#FCDFE6"/>
<path d="M248.392 737.433V743.559" stroke="#FCDFE6" stroke-width="4" stroke-linecap="round" stroke-linejoin="round"/>
<rect x="300" y="700" width="100" height="100" fill="#FFEBF0"/>
<path d="M336.585 742.613C340.08 735.599 346.988 739.104 350.007 741.116C352.211 739.373 357.001 736.229 361.815 740.467C369.352 747.1 355.399 761.651 350.007 761.651C344.04 761.651 333.391 749.024 336.585 742.613Z" fill="#FCDFE6" stroke="#FCDFE6" stroke-width="3"/>
</g>
</g>
</g>
<defs>
<clipPath id="clip0_157_12929">
<rect width="400" height="800" fill="white"/>
</clipPath>
<clipPath id="clip1_157_12929">
<rect width="400" height="800" fill="white"/>
</clipPath>
<clipPath id="clip2_157_12929">
<rect width="400" height="800" fill="white"/>
</clipPath>
</defs>
</svg>
