<svg width="401" height="801" viewBox="0 0 401 801" fill="none" xmlns="http://www.w3.org/2000/svg">
<g clip-path="url(#clip0_126_6976)">
<rect x="100.719" y="0.533203" width="100" height="100" fill="#FFDBE3"/>
<path fill-rule="evenodd" clip-rule="evenodd" d="M141.732 43.6243H141.62C142.421 40.945 144.88 35.7448 148.203 35.2955C150.058 35.0449 150.902 36.1761 151.229 37.751C152.51 36.2007 153.886 35.041 155.078 35.041C158.537 35.041 159.005 39.3841 159.32 42.307L159.32 42.307C159.373 42.7946 159.421 43.2427 159.478 43.6244H159.463C163.426 45.173 166.85 48.3115 166.715 54.574C166.52 63.6322 158.139 66.026 150.62 66.026C143.102 66.026 134.719 62.4239 134.719 54.574C134.719 48.3083 137.916 45.1715 141.732 43.6243Z" fill="white"/>
<path d="M141.62 43.6243L139.704 43.052C139.523 43.6573 139.639 44.3125 140.017 44.8191C140.394 45.3258 140.989 45.6243 141.62 45.6243V43.6243ZM141.732 43.6243L142.483 45.4778C143.37 45.1182 143.878 44.1808 143.695 43.2415C143.512 42.3022 142.689 41.6243 141.732 41.6243V43.6243ZM148.203 35.2955L147.936 33.3136L148.203 35.2955ZM151.229 37.751L149.271 38.1575C149.427 38.9106 150.002 39.5074 150.748 39.6923C151.495 39.8773 152.281 39.6177 152.771 39.0247L151.229 37.751ZM159.32 42.307L157.332 42.5212L157.333 42.5341L159.32 42.307ZM159.32 42.307L161.309 42.0928L161.307 42.0799L159.32 42.307ZM159.478 43.6244V45.6244C160.06 45.6244 160.614 45.3708 160.994 44.9297C161.374 44.4886 161.542 43.9039 161.456 43.3281L159.478 43.6244ZM159.463 43.6244V41.6244C158.502 41.6244 157.676 42.309 157.498 43.2541C157.32 44.1992 157.84 45.1372 158.735 45.4873L159.463 43.6244ZM166.715 54.574L164.716 54.5309L164.716 54.5309L166.715 54.574ZM134.719 54.574L132.719 54.574L134.719 54.574ZM141.62 45.6243H141.732V41.6243H141.62V45.6243ZM147.936 33.3136C145.369 33.6604 143.495 35.7277 142.303 37.5123C141.041 39.3996 140.15 41.5591 139.704 43.052L143.537 44.1966C143.891 43.0102 144.629 41.23 145.628 39.735C146.696 38.1374 147.714 37.3799 148.471 37.2775L147.936 33.3136ZM153.187 37.3445C152.983 36.3615 152.565 35.2208 151.649 34.3718C150.65 33.4464 149.343 33.1233 147.936 33.3136L148.471 37.2775C148.718 37.2442 148.84 37.2687 148.88 37.2797C148.91 37.288 148.918 37.2944 148.93 37.3055C148.981 37.3532 149.148 37.5656 149.271 38.1575L153.187 37.3445ZM152.771 39.0247C153.355 38.3176 153.903 37.7732 154.377 37.4218C154.885 37.0459 155.105 37.041 155.078 37.041V33.041C153.858 33.041 152.795 33.6159 151.996 34.2075C151.165 34.8235 150.384 35.6341 149.687 36.4773L152.771 39.0247ZM155.078 37.041C155.482 37.041 155.699 37.1529 155.864 37.2923C156.069 37.4655 156.303 37.7835 156.525 38.3299C156.989 39.4729 157.167 40.9929 157.332 42.5212L161.309 42.0927C161.159 40.6982 160.945 38.5852 160.232 36.8259C159.864 35.9213 159.313 34.9708 158.447 34.2383C157.542 33.4721 156.403 33.041 155.078 33.041V37.041ZM157.333 42.5341L157.333 42.5341L161.307 42.0799L161.307 42.0799L157.333 42.5341ZM157.332 42.5213C157.383 42.9965 157.436 43.4896 157.5 43.9208L161.456 43.3281C161.406 42.9958 161.363 42.5928 161.309 42.0928L157.332 42.5213ZM159.478 41.6244H159.463V45.6244H159.478V41.6244ZM158.735 45.4873C160.482 46.1698 161.982 47.1532 163.032 48.5394C164.063 49.8999 164.775 51.796 164.716 54.5309L168.715 54.6171C168.791 51.0895 167.858 48.285 166.22 46.1235C164.602 43.9877 162.408 42.6277 160.191 41.7616L158.735 45.4873ZM164.716 54.5309C164.635 58.3031 162.921 60.5464 160.429 61.956C157.801 63.4429 154.224 64.026 150.62 64.026V68.026C154.534 68.026 158.908 67.4121 162.399 65.4376C166.026 63.3858 168.601 59.9031 168.715 54.6171L164.716 54.5309ZM150.62 64.026C147.137 64.026 143.55 63.1844 140.904 61.5438C138.316 59.9396 136.719 57.656 136.719 54.574L132.719 54.574C132.719 59.3419 135.313 62.7843 138.796 64.9436C142.221 67.0665 146.584 68.026 150.62 68.026V64.026ZM136.719 54.574C136.719 51.7974 137.421 49.8736 138.414 48.5034C139.417 47.119 140.828 46.1488 142.483 45.4778L140.981 41.7708C138.819 42.647 136.724 44.0188 135.175 46.156C133.616 48.3075 132.719 51.0849 132.719 54.574L136.719 54.574Z" fill="#FAA6B9"/>
<path d="M151.167 38.3838V45.3857" stroke="#FAA6B9" stroke-width="4" stroke-linecap="round" stroke-linejoin="round"/>
<rect x="0.719238" y="100.533" width="100" height="100" fill="#FFDBE3"/>
<path fill-rule="evenodd" clip-rule="evenodd" d="M41.732 143.624H41.6205C42.4206 140.945 44.8795 135.745 48.2034 135.296C50.0582 135.045 50.9022 136.176 51.2291 137.751C52.5097 136.201 53.886 135.041 55.0775 135.041C58.5374 135.041 59.0054 139.384 59.3203 142.307L59.3203 142.307C59.3728 142.795 59.4211 143.243 59.4783 143.624H59.4633C63.4263 145.173 66.8504 148.311 66.7154 154.574C66.5202 163.632 58.1385 166.026 50.6201 166.026C43.1017 166.026 34.7192 162.424 34.7192 154.574C34.7193 148.308 37.9158 145.171 41.732 143.624Z" fill="white"/>
<path d="M41.6205 143.624L39.7041 143.052C39.5233 143.657 39.6392 144.313 40.0166 144.819C40.3941 145.326 40.9887 145.624 41.6205 145.624V143.624ZM41.732 143.624L42.4835 145.478C43.3703 145.118 43.8782 144.181 43.6951 143.241C43.5119 142.302 42.689 141.624 41.732 141.624V143.624ZM48.2034 135.296L47.9356 133.314L48.2034 135.296ZM51.2291 137.751L49.2709 138.158C49.4272 138.911 50.0016 139.507 50.7482 139.692C51.4948 139.877 52.2813 139.618 52.7712 139.025L51.2291 137.751ZM59.3203 142.307L57.3318 142.521L57.3332 142.534L59.3203 142.307ZM59.3203 142.307L61.3088 142.093L61.3074 142.08L59.3203 142.307ZM59.4783 143.624V145.624C60.0605 145.624 60.6137 145.371 60.9937 144.93C61.3736 144.489 61.5425 143.904 61.4562 143.328L59.4783 143.624ZM59.4633 143.624V141.624C58.5016 141.624 57.676 142.309 57.4979 143.254C57.3198 144.199 57.8396 145.137 58.7354 145.487L59.4633 143.624ZM66.7154 154.574L64.7159 154.531L64.7159 154.531L66.7154 154.574ZM34.7192 154.574L32.7192 154.574L34.7192 154.574ZM41.6205 145.624H41.732V141.624H41.6205V145.624ZM47.9356 133.314C45.3693 133.66 43.4955 135.728 42.3027 137.512C41.0414 139.4 40.1499 141.559 39.7041 143.052L43.5368 144.197C43.8911 143.01 44.6292 141.23 45.6283 139.735C46.6961 138.137 47.7137 137.38 48.4713 137.278L47.9356 133.314ZM53.1874 137.344C52.9833 136.361 52.5647 135.221 51.6488 134.372C50.6503 133.446 49.3434 133.123 47.9356 133.314L48.4713 137.278C48.7177 137.244 48.8403 137.269 48.8797 137.28C48.9101 137.288 48.9177 137.294 48.9297 137.306C48.9812 137.353 49.148 137.566 49.2709 138.158L53.1874 137.344ZM52.7712 139.025C53.3552 138.318 53.9026 137.773 54.3771 137.422C54.8846 137.046 55.105 137.041 55.0775 137.041V133.041C53.8585 133.041 52.795 133.616 51.9963 134.207C51.1646 134.823 50.3836 135.634 49.6871 136.477L52.7712 139.025ZM55.0775 137.041C55.4821 137.041 55.6994 137.153 55.8642 137.292C56.069 137.466 56.3033 137.783 56.525 138.33C56.9888 139.473 57.1671 140.993 57.3318 142.521L61.3088 142.093C61.1585 140.698 60.9454 138.585 60.2315 136.826C59.8644 135.921 59.3134 134.971 58.4475 134.238C57.5416 133.472 56.4029 133.041 55.0775 133.041V137.041ZM57.3332 142.534L57.3332 142.534L61.3074 142.08L61.3074 142.08L57.3332 142.534ZM57.3318 142.521C57.383 142.996 57.4358 143.49 57.5004 143.921L61.4562 143.328C61.4064 142.996 61.3627 142.593 61.3088 142.093L57.3318 142.521ZM59.4783 141.624H59.4633V145.624H59.4783V141.624ZM58.7354 145.487C60.482 146.17 61.9816 147.153 63.0321 148.539C64.0631 149.9 64.7748 151.796 64.7159 154.531L68.7149 154.617C68.791 151.089 67.8581 148.285 66.2201 146.124C64.6015 143.988 62.4076 142.628 60.1912 141.762L58.7354 145.487ZM64.7159 154.531C64.6346 158.303 62.9212 160.546 60.4293 161.956C57.8007 163.443 54.2242 164.026 50.6201 164.026V168.026C54.5344 168.026 58.908 167.412 62.3987 165.438C66.026 163.386 68.601 159.903 68.7149 154.617L64.7159 154.531ZM50.6201 164.026C47.1374 164.026 43.5504 163.184 40.9041 161.544C38.3163 159.94 36.7192 157.656 36.7192 154.574L32.7192 154.574C32.7192 159.342 35.3134 162.784 38.7965 164.944C42.221 167.067 46.5845 168.026 50.6201 168.026V164.026ZM36.7192 154.574C36.7192 151.797 37.4209 149.874 38.414 148.503C39.4173 147.119 40.8284 146.149 42.4835 145.478L40.9806 141.771C38.8194 142.647 36.7241 144.019 35.1751 146.156C33.6159 148.307 32.7192 151.085 32.7192 154.574L36.7192 154.574Z" fill="#FAA6B9"/>
<path d="M51.1675 138.384V145.386" stroke="#FAA6B9" stroke-width="4" stroke-linecap="round" stroke-linejoin="round"/>
<rect x="200.719" y="100.533" width="100" height="100" fill="#FFDBE3"/>
<path fill-rule="evenodd" clip-rule="evenodd" d="M241.732 143.624H241.62C242.421 140.945 244.88 135.745 248.203 135.296C250.058 135.045 250.902 136.176 251.229 137.751C252.51 136.201 253.886 135.041 255.078 135.041C258.537 135.041 259.005 139.384 259.32 142.307L259.32 142.307C259.373 142.795 259.421 143.243 259.478 143.624H259.463C263.426 145.173 266.85 148.311 266.715 154.574C266.52 163.632 258.139 166.026 250.62 166.026C243.102 166.026 234.719 162.424 234.719 154.574C234.719 148.308 237.916 145.171 241.732 143.624Z" fill="white"/>
<path d="M241.62 143.624L239.704 143.052C239.523 143.657 239.639 144.313 240.017 144.819C240.394 145.326 240.989 145.624 241.62 145.624V143.624ZM241.732 143.624L242.483 145.478C243.37 145.118 243.878 144.181 243.695 143.241C243.512 142.302 242.689 141.624 241.732 141.624V143.624ZM248.203 135.296L247.936 133.314L248.203 135.296ZM251.229 137.751L249.271 138.158C249.427 138.911 250.002 139.507 250.748 139.692C251.495 139.877 252.281 139.618 252.771 139.025L251.229 137.751ZM259.32 142.307L257.332 142.521L257.333 142.534L259.32 142.307ZM259.32 142.307L261.309 142.093L261.307 142.08L259.32 142.307ZM259.478 143.624V145.624C260.06 145.624 260.614 145.371 260.994 144.93C261.374 144.489 261.542 143.904 261.456 143.328L259.478 143.624ZM259.463 143.624V141.624C258.502 141.624 257.676 142.309 257.498 143.254C257.32 144.199 257.84 145.137 258.735 145.487L259.463 143.624ZM266.715 154.574L264.716 154.531L264.716 154.531L266.715 154.574ZM234.719 154.574L232.719 154.574L234.719 154.574ZM241.62 145.624H241.732V141.624H241.62V145.624ZM247.936 133.314C245.369 133.66 243.495 135.728 242.303 137.512C241.041 139.4 240.15 141.559 239.704 143.052L243.537 144.197C243.891 143.01 244.629 141.23 245.628 139.735C246.696 138.137 247.714 137.38 248.471 137.278L247.936 133.314ZM253.187 137.344C252.983 136.361 252.565 135.221 251.649 134.372C250.65 133.446 249.343 133.123 247.936 133.314L248.471 137.278C248.718 137.244 248.84 137.269 248.88 137.28C248.91 137.288 248.918 137.294 248.93 137.306C248.981 137.353 249.148 137.566 249.271 138.158L253.187 137.344ZM252.771 139.025C253.355 138.318 253.903 137.773 254.377 137.422C254.885 137.046 255.105 137.041 255.078 137.041V133.041C253.858 133.041 252.795 133.616 251.996 134.207C251.165 134.823 250.384 135.634 249.687 136.477L252.771 139.025ZM255.078 137.041C255.482 137.041 255.699 137.153 255.864 137.292C256.069 137.466 256.303 137.783 256.525 138.33C256.989 139.473 257.167 140.993 257.332 142.521L261.309 142.093C261.159 140.698 260.945 138.585 260.232 136.826C259.864 135.921 259.313 134.971 258.447 134.238C257.542 133.472 256.403 133.041 255.078 133.041V137.041ZM257.333 142.534L257.333 142.534L261.307 142.08L261.307 142.08L257.333 142.534ZM257.332 142.521C257.383 142.996 257.436 143.49 257.5 143.921L261.456 143.328C261.406 142.996 261.363 142.593 261.309 142.093L257.332 142.521ZM259.478 141.624H259.463V145.624H259.478V141.624ZM258.735 145.487C260.482 146.17 261.982 147.153 263.032 148.539C264.063 149.9 264.775 151.796 264.716 154.531L268.715 154.617C268.791 151.089 267.858 148.285 266.22 146.124C264.602 143.988 262.408 142.628 260.191 141.762L258.735 145.487ZM264.716 154.531C264.635 158.303 262.921 160.546 260.429 161.956C257.801 163.443 254.224 164.026 250.62 164.026V168.026C254.534 168.026 258.908 167.412 262.399 165.438C266.026 163.386 268.601 159.903 268.715 154.617L264.716 154.531ZM250.62 164.026C247.137 164.026 243.55 163.184 240.904 161.544C238.316 159.94 236.719 157.656 236.719 154.574L232.719 154.574C232.719 159.342 235.313 162.784 238.796 164.944C242.221 167.067 246.584 168.026 250.62 168.026V164.026ZM236.719 154.574C236.719 151.797 237.421 149.874 238.414 148.503C239.417 147.119 240.828 146.149 242.483 145.478L240.981 141.771C238.819 142.647 236.724 144.019 235.175 146.156C233.616 148.307 232.719 151.085 232.719 154.574L236.719 154.574Z" fill="#FAA6B9"/>
<path d="M251.167 138.384V145.386" stroke="#FAA6B9" stroke-width="4" stroke-linecap="round" stroke-linejoin="round"/>
<rect x="300.719" y="0.533203" width="100" height="100" fill="#FFDBE3"/>
<path fill-rule="evenodd" clip-rule="evenodd" d="M341.732 43.6243H341.62C342.421 40.945 344.88 35.7448 348.203 35.2955C350.058 35.0449 350.902 36.1761 351.229 37.751C352.51 36.2007 353.886 35.041 355.078 35.041C358.537 35.041 359.005 39.3841 359.32 42.307L359.32 42.307C359.373 42.7946 359.421 43.2427 359.478 43.6244H359.463C363.426 45.173 366.85 48.3115 366.715 54.574C366.52 63.6322 358.139 66.026 350.62 66.026C343.102 66.026 334.719 62.4239 334.719 54.574C334.719 48.3083 337.916 45.1715 341.732 43.6243Z" fill="white"/>
<path d="M341.62 43.6243L339.704 43.052C339.523 43.6573 339.639 44.3125 340.017 44.8191C340.394 45.3258 340.989 45.6243 341.62 45.6243V43.6243ZM341.732 43.6243L342.483 45.4778C343.37 45.1182 343.878 44.1808 343.695 43.2415C343.512 42.3022 342.689 41.6243 341.732 41.6243V43.6243ZM348.203 35.2955L347.936 33.3136L348.203 35.2955ZM351.229 37.751L349.271 38.1575C349.427 38.9106 350.002 39.5074 350.748 39.6923C351.495 39.8773 352.281 39.6177 352.771 39.0247L351.229 37.751ZM359.32 42.307L357.332 42.5212L357.333 42.5341L359.32 42.307ZM359.32 42.307L361.309 42.0928L361.307 42.0799L359.32 42.307ZM359.478 43.6244V45.6244C360.06 45.6244 360.614 45.3708 360.994 44.9297C361.374 44.4886 361.542 43.9039 361.456 43.3281L359.478 43.6244ZM359.463 43.6244V41.6244C358.502 41.6244 357.676 42.309 357.498 43.2541C357.32 44.1992 357.84 45.1372 358.735 45.4873L359.463 43.6244ZM366.715 54.574L364.716 54.5309L364.716 54.5309L366.715 54.574ZM334.719 54.574L332.719 54.574L334.719 54.574ZM341.62 45.6243H341.732V41.6243H341.62V45.6243ZM347.936 33.3136C345.369 33.6604 343.495 35.7277 342.303 37.5123C341.041 39.3996 340.15 41.5591 339.704 43.052L343.537 44.1966C343.891 43.0102 344.629 41.23 345.628 39.735C346.696 38.1374 347.714 37.3799 348.471 37.2775L347.936 33.3136ZM353.187 37.3445C352.983 36.3615 352.565 35.2208 351.649 34.3718C350.65 33.4464 349.343 33.1233 347.936 33.3136L348.471 37.2775C348.718 37.2442 348.84 37.2687 348.88 37.2797C348.91 37.288 348.918 37.2944 348.93 37.3055C348.981 37.3532 349.148 37.5656 349.271 38.1575L353.187 37.3445ZM352.771 39.0247C353.355 38.3176 353.903 37.7732 354.377 37.4218C354.885 37.0459 355.105 37.041 355.078 37.041V33.041C353.858 33.041 352.795 33.6159 351.996 34.2075C351.165 34.8235 350.384 35.6341 349.687 36.4773L352.771 39.0247ZM355.078 37.041C355.482 37.041 355.699 37.1529 355.864 37.2923C356.069 37.4655 356.303 37.7835 356.525 38.3299C356.989 39.4729 357.167 40.9929 357.332 42.5212L361.309 42.0927C361.159 40.6982 360.945 38.5852 360.232 36.8259C359.864 35.9213 359.313 34.9708 358.447 34.2383C357.542 33.4721 356.403 33.041 355.078 33.041V37.041ZM357.333 42.5341L357.333 42.5341L361.307 42.0799L361.307 42.0799L357.333 42.5341ZM357.332 42.5213C357.383 42.9965 357.436 43.4896 357.5 43.9208L361.456 43.3281C361.406 42.9958 361.363 42.5928 361.309 42.0928L357.332 42.5213ZM359.478 41.6244H359.463V45.6244H359.478V41.6244ZM358.735 45.4873C360.482 46.1698 361.982 47.1532 363.032 48.5394C364.063 49.8999 364.775 51.796 364.716 54.5309L368.715 54.6171C368.791 51.0895 367.858 48.285 366.22 46.1235C364.602 43.9877 362.408 42.6277 360.191 41.7616L358.735 45.4873ZM364.716 54.5309C364.635 58.3031 362.921 60.5464 360.429 61.956C357.801 63.4429 354.224 64.026 350.62 64.026V68.026C354.534 68.026 358.908 67.4121 362.399 65.4376C366.026 63.3858 368.601 59.9031 368.715 54.6171L364.716 54.5309ZM350.62 64.026C347.137 64.026 343.55 63.1844 340.904 61.5438C338.316 59.9396 336.719 57.656 336.719 54.574L332.719 54.574C332.719 59.3419 335.313 62.7843 338.796 64.9436C342.221 67.0665 346.584 68.026 350.62 68.026V64.026ZM336.719 54.574C336.719 51.7974 337.421 49.8736 338.414 48.5034C339.417 47.119 340.828 46.1488 342.483 45.4778L340.981 41.7708C338.819 42.647 336.724 44.0188 335.175 46.156C333.616 48.3075 332.719 51.0849 332.719 54.574L336.719 54.574Z" fill="#FAA6B9"/>
<path d="M351.167 38.3838V45.3857" stroke="#FAA6B9" stroke-width="4" stroke-linecap="round" stroke-linejoin="round"/>
<rect x="0.719238" y="0.533203" width="100" height="100" fill="#FFC0CE"/>
<path d="M35.1355 41.9521C39.1951 33.8036 47.2205 37.8753 50.7279 40.2125C53.2882 38.1879 58.8523 34.536 64.4447 39.4582C73.2001 47.1642 56.9911 64.0671 50.7279 64.0671C43.7963 64.0671 31.4257 49.3985 35.1355 41.9521Z" fill="#FAA6B9" stroke="#FAA6B9" stroke-width="3"/>
<rect x="100.719" y="100.533" width="100" height="100" fill="#FFC0CE"/>
<path d="M135.136 141.952C139.195 133.804 147.221 137.875 150.728 140.213C153.288 138.188 158.852 134.536 164.445 139.458C173.2 147.164 156.991 164.067 150.728 164.067C143.796 164.067 131.426 149.399 135.136 141.952Z" fill="#FAA6B9" stroke="#FAA6B9" stroke-width="3"/>
<rect x="300.719" y="100.533" width="100" height="100" fill="#FFC0CE"/>
<path d="M335.136 141.952C339.195 133.804 347.221 137.875 350.728 140.213C353.288 138.188 358.852 134.536 364.445 139.458C373.2 147.164 356.991 164.067 350.728 164.067C343.796 164.067 331.426 149.399 335.136 141.952Z" fill="#FAA6B9" stroke="#FAA6B9" stroke-width="3"/>
<rect x="200.719" y="0.533203" width="100" height="100" fill="#FFC0CE"/>
<path d="M235.136 41.9521C239.195 33.8036 247.221 37.8753 250.728 40.2125C253.288 38.1879 258.852 34.536 264.445 39.4582C273.2 47.1642 256.991 64.0671 250.728 64.0671C243.796 64.0671 231.426 49.3985 235.136 41.9521Z" fill="#FAA6B9" stroke="#FAA6B9" stroke-width="3"/>
<rect x="100.719" y="200.533" width="100" height="100" fill="#FFDBE3"/>
<path fill-rule="evenodd" clip-rule="evenodd" d="M141.732 243.624H141.62C142.421 240.945 144.88 235.745 148.203 235.296C150.058 235.045 150.902 236.176 151.229 237.751C152.51 236.201 153.886 235.041 155.078 235.041C158.537 235.041 159.005 239.384 159.32 242.307L159.32 242.307C159.373 242.795 159.421 243.243 159.478 243.624H159.463C163.426 245.173 166.85 248.311 166.715 254.574C166.52 263.632 158.139 266.026 150.62 266.026C143.102 266.026 134.719 262.424 134.719 254.574C134.719 248.308 137.916 245.171 141.732 243.624Z" fill="white"/>
<path d="M141.62 243.624L139.704 243.052C139.523 243.657 139.639 244.313 140.017 244.819C140.394 245.326 140.989 245.624 141.62 245.624V243.624ZM141.732 243.624L142.483 245.478C143.37 245.118 143.878 244.181 143.695 243.241C143.512 242.302 142.689 241.624 141.732 241.624V243.624ZM148.203 235.296L147.936 233.314L148.203 235.296ZM151.229 237.751L149.271 238.158C149.427 238.911 150.002 239.507 150.748 239.692C151.495 239.877 152.281 239.618 152.771 239.025L151.229 237.751ZM159.32 242.307L157.332 242.521L157.333 242.534L159.32 242.307ZM159.32 242.307L161.309 242.093L161.307 242.08L159.32 242.307ZM159.478 243.624V245.624C160.06 245.624 160.614 245.371 160.994 244.93C161.374 244.489 161.542 243.904 161.456 243.328L159.478 243.624ZM159.463 243.624V241.624C158.502 241.624 157.676 242.309 157.498 243.254C157.32 244.199 157.84 245.137 158.735 245.487L159.463 243.624ZM166.715 254.574L164.716 254.531L164.716 254.531L166.715 254.574ZM134.719 254.574L132.719 254.574L134.719 254.574ZM141.62 245.624H141.732V241.624H141.62V245.624ZM147.936 233.314C145.369 233.66 143.495 235.728 142.303 237.512C141.041 239.4 140.15 241.559 139.704 243.052L143.537 244.197C143.891 243.01 144.629 241.23 145.628 239.735C146.696 238.137 147.714 237.38 148.471 237.278L147.936 233.314ZM153.187 237.344C152.983 236.361 152.565 235.221 151.649 234.372C150.65 233.446 149.343 233.123 147.936 233.314L148.471 237.278C148.718 237.244 148.84 237.269 148.88 237.28C148.91 237.288 148.918 237.294 148.93 237.306C148.981 237.353 149.148 237.566 149.271 238.158L153.187 237.344ZM152.771 239.025C153.355 238.318 153.903 237.773 154.377 237.422C154.885 237.046 155.105 237.041 155.078 237.041V233.041C153.858 233.041 152.795 233.616 151.996 234.207C151.165 234.823 150.384 235.634 149.687 236.477L152.771 239.025ZM155.078 237.041C155.482 237.041 155.699 237.153 155.864 237.292C156.069 237.466 156.303 237.783 156.525 238.33C156.989 239.473 157.167 240.993 157.332 242.521L161.309 242.093C161.159 240.698 160.945 238.585 160.232 236.826C159.864 235.921 159.313 234.971 158.447 234.238C157.542 233.472 156.403 233.041 155.078 233.041V237.041ZM157.333 242.534L157.333 242.534L161.307 242.08L161.307 242.08L157.333 242.534ZM157.332 242.521C157.383 242.996 157.436 243.49 157.5 243.921L161.456 243.328C161.406 242.996 161.363 242.593 161.309 242.093L157.332 242.521ZM159.478 241.624H159.463V245.624H159.478V241.624ZM158.735 245.487C160.482 246.17 161.982 247.153 163.032 248.539C164.063 249.9 164.775 251.796 164.716 254.531L168.715 254.617C168.791 251.089 167.858 248.285 166.22 246.124C164.602 243.988 162.408 242.628 160.191 241.762L158.735 245.487ZM164.716 254.531C164.635 258.303 162.921 260.546 160.429 261.956C157.801 263.443 154.224 264.026 150.62 264.026V268.026C154.534 268.026 158.908 267.412 162.399 265.438C166.026 263.386 168.601 259.903 168.715 254.617L164.716 254.531ZM150.62 264.026C147.137 264.026 143.55 263.184 140.904 261.544C138.316 259.94 136.719 257.656 136.719 254.574L132.719 254.574C132.719 259.342 135.313 262.784 138.796 264.944C142.221 267.067 146.584 268.026 150.62 268.026V264.026ZM136.719 254.574C136.719 251.797 137.421 249.874 138.414 248.503C139.417 247.119 140.828 246.149 142.483 245.478L140.981 241.771C138.819 242.647 136.724 244.019 135.175 246.156C133.616 248.307 132.719 251.085 132.719 254.574L136.719 254.574Z" fill="#FAA6B9"/>
<path d="M151.167 238.384V245.386" stroke="#FAA6B9" stroke-width="4" stroke-linecap="round" stroke-linejoin="round"/>
<rect x="0.719238" y="300.533" width="100" height="100" fill="#FFDBE3"/>
<path fill-rule="evenodd" clip-rule="evenodd" d="M41.732 343.624H41.6205C42.4206 340.945 44.8795 335.745 48.2034 335.296C50.0582 335.045 50.9022 336.176 51.2291 337.751C52.5097 336.201 53.886 335.041 55.0775 335.041C58.5374 335.041 59.0054 339.384 59.3203 342.307L59.3203 342.307C59.3728 342.795 59.4211 343.243 59.4783 343.624H59.4633C63.4263 345.173 66.8504 348.311 66.7154 354.574C66.5202 363.632 58.1385 366.026 50.6201 366.026C43.1017 366.026 34.7192 362.424 34.7192 354.574C34.7193 348.308 37.9158 345.171 41.732 343.624Z" fill="white"/>
<path d="M41.6205 343.624L39.7041 343.052C39.5233 343.657 39.6392 344.313 40.0166 344.819C40.3941 345.326 40.9887 345.624 41.6205 345.624V343.624ZM41.732 343.624L42.4835 345.478C43.3703 345.118 43.8782 344.181 43.6951 343.241C43.5119 342.302 42.689 341.624 41.732 341.624V343.624ZM48.2034 335.296L47.9356 333.314L48.2034 335.296ZM51.2291 337.751L49.2709 338.158C49.4272 338.911 50.0016 339.507 50.7482 339.692C51.4948 339.877 52.2813 339.618 52.7712 339.025L51.2291 337.751ZM59.3203 342.307L57.3318 342.521L57.3332 342.534L59.3203 342.307ZM59.3203 342.307L61.3088 342.093L61.3074 342.08L59.3203 342.307ZM59.4783 343.624V345.624C60.0605 345.624 60.6137 345.371 60.9937 344.93C61.3736 344.489 61.5425 343.904 61.4562 343.328L59.4783 343.624ZM59.4633 343.624V341.624C58.5016 341.624 57.676 342.309 57.4979 343.254C57.3198 344.199 57.8396 345.137 58.7354 345.487L59.4633 343.624ZM66.7154 354.574L64.7159 354.531L64.7159 354.531L66.7154 354.574ZM34.7192 354.574L32.7192 354.574L34.7192 354.574ZM41.6205 345.624H41.732V341.624H41.6205V345.624ZM47.9356 333.314C45.3693 333.66 43.4955 335.728 42.3027 337.512C41.0414 339.4 40.1499 341.559 39.7041 343.052L43.5368 344.197C43.8911 343.01 44.6292 341.23 45.6283 339.735C46.6961 338.137 47.7137 337.38 48.4713 337.278L47.9356 333.314ZM53.1874 337.344C52.9833 336.361 52.5647 335.221 51.6488 334.372C50.6503 333.446 49.3434 333.123 47.9356 333.314L48.4713 337.278C48.7177 337.244 48.8403 337.269 48.8797 337.28C48.9101 337.288 48.9177 337.294 48.9297 337.306C48.9812 337.353 49.148 337.566 49.2709 338.158L53.1874 337.344ZM52.7712 339.025C53.3552 338.318 53.9026 337.773 54.3771 337.422C54.8846 337.046 55.105 337.041 55.0775 337.041V333.041C53.8585 333.041 52.795 333.616 51.9963 334.207C51.1646 334.823 50.3836 335.634 49.6871 336.477L52.7712 339.025ZM55.0775 337.041C55.4821 337.041 55.6994 337.153 55.8642 337.292C56.069 337.466 56.3033 337.783 56.525 338.33C56.9888 339.473 57.1671 340.993 57.3318 342.521L61.3088 342.093C61.1585 340.698 60.9454 338.585 60.2315 336.826C59.8644 335.921 59.3134 334.971 58.4475 334.238C57.5416 333.472 56.4029 333.041 55.0775 333.041V337.041ZM57.3332 342.534L57.3332 342.534L61.3074 342.08L61.3074 342.08L57.3332 342.534ZM57.3318 342.521C57.383 342.996 57.4358 343.49 57.5004 343.921L61.4562 343.328C61.4064 342.996 61.3627 342.593 61.3088 342.093L57.3318 342.521ZM59.4783 341.624H59.4633V345.624H59.4783V341.624ZM58.7354 345.487C60.482 346.17 61.9816 347.153 63.0321 348.539C64.0631 349.9 64.7748 351.796 64.7159 354.531L68.7149 354.617C68.791 351.089 67.8581 348.285 66.2201 346.124C64.6015 343.988 62.4076 342.628 60.1912 341.762L58.7354 345.487ZM64.7159 354.531C64.6346 358.303 62.9212 360.546 60.4293 361.956C57.8007 363.443 54.2242 364.026 50.6201 364.026V368.026C54.5344 368.026 58.908 367.412 62.3987 365.438C66.026 363.386 68.601 359.903 68.7149 354.617L64.7159 354.531ZM50.6201 364.026C47.1374 364.026 43.5504 363.184 40.9041 361.544C38.3163 359.94 36.7192 357.656 36.7192 354.574L32.7192 354.574C32.7192 359.342 35.3134 362.784 38.7965 364.944C42.221 367.067 46.5845 368.026 50.6201 368.026V364.026ZM36.7192 354.574C36.7192 351.797 37.4209 349.874 38.414 348.503C39.4173 347.119 40.8284 346.149 42.4835 345.478L40.9806 341.771C38.8194 342.647 36.7241 344.019 35.1751 346.156C33.6159 348.307 32.7192 351.085 32.7192 354.574L36.7192 354.574Z" fill="#FAA6B9"/>
<path d="M51.1675 338.384V345.386" stroke="#FAA6B9" stroke-width="4" stroke-linecap="round" stroke-linejoin="round"/>
<rect x="200.719" y="300.533" width="100" height="100" fill="#FFDBE3"/>
<path fill-rule="evenodd" clip-rule="evenodd" d="M241.732 343.624H241.62C242.421 340.945 244.88 335.745 248.203 335.296C250.058 335.045 250.902 336.176 251.229 337.751C252.51 336.201 253.886 335.041 255.078 335.041C258.537 335.041 259.005 339.384 259.32 342.307L259.32 342.307C259.373 342.795 259.421 343.243 259.478 343.624H259.463C263.426 345.173 266.85 348.311 266.715 354.574C266.52 363.632 258.139 366.026 250.62 366.026C243.102 366.026 234.719 362.424 234.719 354.574C234.719 348.308 237.916 345.171 241.732 343.624Z" fill="white"/>
<path d="M241.62 343.624L239.704 343.052C239.523 343.657 239.639 344.313 240.017 344.819C240.394 345.326 240.989 345.624 241.62 345.624V343.624ZM241.732 343.624L242.483 345.478C243.37 345.118 243.878 344.181 243.695 343.241C243.512 342.302 242.689 341.624 241.732 341.624V343.624ZM248.203 335.296L247.936 333.314L248.203 335.296ZM251.229 337.751L249.271 338.158C249.427 338.911 250.002 339.507 250.748 339.692C251.495 339.877 252.281 339.618 252.771 339.025L251.229 337.751ZM259.32 342.307L257.332 342.521L257.333 342.534L259.32 342.307ZM259.32 342.307L261.309 342.093L261.307 342.08L259.32 342.307ZM259.478 343.624V345.624C260.06 345.624 260.614 345.371 260.994 344.93C261.374 344.489 261.542 343.904 261.456 343.328L259.478 343.624ZM259.463 343.624V341.624C258.502 341.624 257.676 342.309 257.498 343.254C257.32 344.199 257.84 345.137 258.735 345.487L259.463 343.624ZM266.715 354.574L264.716 354.531L264.716 354.531L266.715 354.574ZM234.719 354.574L232.719 354.574L234.719 354.574ZM241.62 345.624H241.732V341.624H241.62V345.624ZM247.936 333.314C245.369 333.66 243.495 335.728 242.303 337.512C241.041 339.4 240.15 341.559 239.704 343.052L243.537 344.197C243.891 343.01 244.629 341.23 245.628 339.735C246.696 338.137 247.714 337.38 248.471 337.278L247.936 333.314ZM253.187 337.344C252.983 336.361 252.565 335.221 251.649 334.372C250.65 333.446 249.343 333.123 247.936 333.314L248.471 337.278C248.718 337.244 248.84 337.269 248.88 337.28C248.91 337.288 248.918 337.294 248.93 337.306C248.981 337.353 249.148 337.566 249.271 338.158L253.187 337.344ZM252.771 339.025C253.355 338.318 253.903 337.773 254.377 337.422C254.885 337.046 255.105 337.041 255.078 337.041V333.041C253.858 333.041 252.795 333.616 251.996 334.207C251.165 334.823 250.384 335.634 249.687 336.477L252.771 339.025ZM255.078 337.041C255.482 337.041 255.699 337.153 255.864 337.292C256.069 337.466 256.303 337.783 256.525 338.33C256.989 339.473 257.167 340.993 257.332 342.521L261.309 342.093C261.159 340.698 260.945 338.585 260.232 336.826C259.864 335.921 259.313 334.971 258.447 334.238C257.542 333.472 256.403 333.041 255.078 333.041V337.041ZM257.333 342.534L257.333 342.534L261.307 342.08L261.307 342.08L257.333 342.534ZM257.332 342.521C257.383 342.996 257.436 343.49 257.5 343.921L261.456 343.328C261.406 342.996 261.363 342.593 261.309 342.093L257.332 342.521ZM259.478 341.624H259.463V345.624H259.478V341.624ZM258.735 345.487C260.482 346.17 261.982 347.153 263.032 348.539C264.063 349.9 264.775 351.796 264.716 354.531L268.715 354.617C268.791 351.089 267.858 348.285 266.22 346.124C264.602 343.988 262.408 342.628 260.191 341.762L258.735 345.487ZM264.716 354.531C264.635 358.303 262.921 360.546 260.429 361.956C257.801 363.443 254.224 364.026 250.62 364.026V368.026C254.534 368.026 258.908 367.412 262.399 365.438C266.026 363.386 268.601 359.903 268.715 354.617L264.716 354.531ZM250.62 364.026C247.137 364.026 243.55 363.184 240.904 361.544C238.316 359.94 236.719 357.656 236.719 354.574L232.719 354.574C232.719 359.342 235.313 362.784 238.796 364.944C242.221 367.067 246.584 368.026 250.62 368.026V364.026ZM236.719 354.574C236.719 351.797 237.421 349.874 238.414 348.503C239.417 347.119 240.828 346.149 242.483 345.478L240.981 341.771C238.819 342.647 236.724 344.019 235.175 346.156C233.616 348.307 232.719 351.085 232.719 354.574L236.719 354.574Z" fill="#FAA6B9"/>
<path d="M251.167 338.384V345.386" stroke="#FAA6B9" stroke-width="4" stroke-linecap="round" stroke-linejoin="round"/>
<rect x="300.719" y="200.533" width="100" height="100" fill="#FFDBE3"/>
<path fill-rule="evenodd" clip-rule="evenodd" d="M341.732 243.624H341.62C342.421 240.945 344.88 235.745 348.203 235.296C350.058 235.045 350.902 236.176 351.229 237.751C352.51 236.201 353.886 235.041 355.078 235.041C358.537 235.041 359.005 239.384 359.32 242.307L359.32 242.307C359.373 242.795 359.421 243.243 359.478 243.624H359.463C363.426 245.173 366.85 248.311 366.715 254.574C366.52 263.632 358.139 266.026 350.62 266.026C343.102 266.026 334.719 262.424 334.719 254.574C334.719 248.308 337.916 245.171 341.732 243.624Z" fill="white"/>
<path d="M341.62 243.624L339.704 243.052C339.523 243.657 339.639 244.313 340.017 244.819C340.394 245.326 340.989 245.624 341.62 245.624V243.624ZM341.732 243.624L342.483 245.478C343.37 245.118 343.878 244.181 343.695 243.241C343.512 242.302 342.689 241.624 341.732 241.624V243.624ZM348.203 235.296L347.936 233.314L348.203 235.296ZM351.229 237.751L349.271 238.158C349.427 238.911 350.002 239.507 350.748 239.692C351.495 239.877 352.281 239.618 352.771 239.025L351.229 237.751ZM359.32 242.307L357.332 242.521L357.333 242.534L359.32 242.307ZM359.32 242.307L361.309 242.093L361.307 242.08L359.32 242.307ZM359.478 243.624V245.624C360.06 245.624 360.614 245.371 360.994 244.93C361.374 244.489 361.542 243.904 361.456 243.328L359.478 243.624ZM359.463 243.624V241.624C358.502 241.624 357.676 242.309 357.498 243.254C357.32 244.199 357.84 245.137 358.735 245.487L359.463 243.624ZM366.715 254.574L364.716 254.531L364.716 254.531L366.715 254.574ZM334.719 254.574L332.719 254.574L334.719 254.574ZM341.62 245.624H341.732V241.624H341.62V245.624ZM347.936 233.314C345.369 233.66 343.495 235.728 342.303 237.512C341.041 239.4 340.15 241.559 339.704 243.052L343.537 244.197C343.891 243.01 344.629 241.23 345.628 239.735C346.696 238.137 347.714 237.38 348.471 237.278L347.936 233.314ZM353.187 237.344C352.983 236.361 352.565 235.221 351.649 234.372C350.65 233.446 349.343 233.123 347.936 233.314L348.471 237.278C348.718 237.244 348.84 237.269 348.88 237.28C348.91 237.288 348.918 237.294 348.93 237.306C348.981 237.353 349.148 237.566 349.271 238.158L353.187 237.344ZM352.771 239.025C353.355 238.318 353.903 237.773 354.377 237.422C354.885 237.046 355.105 237.041 355.078 237.041V233.041C353.858 233.041 352.795 233.616 351.996 234.207C351.165 234.823 350.384 235.634 349.687 236.477L352.771 239.025ZM355.078 237.041C355.482 237.041 355.699 237.153 355.864 237.292C356.069 237.466 356.303 237.783 356.525 238.33C356.989 239.473 357.167 240.993 357.332 242.521L361.309 242.093C361.159 240.698 360.945 238.585 360.232 236.826C359.864 235.921 359.313 234.971 358.447 234.238C357.542 233.472 356.403 233.041 355.078 233.041V237.041ZM357.333 242.534L357.333 242.534L361.307 242.08L361.307 242.08L357.333 242.534ZM357.332 242.521C357.383 242.996 357.436 243.49 357.5 243.921L361.456 243.328C361.406 242.996 361.363 242.593 361.309 242.093L357.332 242.521ZM359.478 241.624H359.463V245.624H359.478V241.624ZM358.735 245.487C360.482 246.17 361.982 247.153 363.032 248.539C364.063 249.9 364.775 251.796 364.716 254.531L368.715 254.617C368.791 251.089 367.858 248.285 366.22 246.124C364.602 243.988 362.408 242.628 360.191 241.762L358.735 245.487ZM364.716 254.531C364.635 258.303 362.921 260.546 360.429 261.956C357.801 263.443 354.224 264.026 350.62 264.026V268.026C354.534 268.026 358.908 267.412 362.399 265.438C366.026 263.386 368.601 259.903 368.715 254.617L364.716 254.531ZM350.62 264.026C347.137 264.026 343.55 263.184 340.904 261.544C338.316 259.94 336.719 257.656 336.719 254.574L332.719 254.574C332.719 259.342 335.313 262.784 338.796 264.944C342.221 267.067 346.584 268.026 350.62 268.026V264.026ZM336.719 254.574C336.719 251.797 337.421 249.874 338.414 248.503C339.417 247.119 340.828 246.149 342.483 245.478L340.981 241.771C338.819 242.647 336.724 244.019 335.175 246.156C333.616 248.307 332.719 251.085 332.719 254.574L336.719 254.574Z" fill="#FAA6B9"/>
<path d="M351.167 238.384V245.386" stroke="#FAA6B9" stroke-width="4" stroke-linecap="round" stroke-linejoin="round"/>
<rect x="0.719238" y="200.533" width="100" height="100" fill="#FFC0CE"/>
<path d="M35.1355 241.952C39.1951 233.804 47.2205 237.875 50.7279 240.213C53.2882 238.188 58.8523 234.536 64.4447 239.458C73.2001 247.164 56.9911 264.067 50.7279 264.067C43.7963 264.067 31.4257 249.399 35.1355 241.952Z" fill="#FAA6B9" stroke="#FAA6B9" stroke-width="3"/>
<rect x="100.719" y="300.533" width="100" height="100" fill="#FFC0CE"/>
<path d="M135.136 341.952C139.195 333.804 147.221 337.875 150.728 340.213C153.288 338.188 158.852 334.536 164.445 339.458C173.2 347.164 156.991 364.067 150.728 364.067C143.796 364.067 131.426 349.399 135.136 341.952Z" fill="#FAA6B9" stroke="#FAA6B9" stroke-width="3"/>
<rect x="300.719" y="300.533" width="100" height="100" fill="#FFC0CE"/>
<path d="M335.136 341.952C339.195 333.804 347.221 337.875 350.728 340.213C353.288 338.188 358.852 334.536 364.445 339.458C373.2 347.164 356.991 364.067 350.728 364.067C343.796 364.067 331.426 349.399 335.136 341.952Z" fill="#FAA6B9" stroke="#FAA6B9" stroke-width="3"/>
<rect x="200.719" y="200.533" width="100" height="100" fill="#FFC0CE"/>
<path d="M235.136 241.952C239.195 233.804 247.221 237.875 250.728 240.213C253.288 238.188 258.852 234.536 264.445 239.458C273.2 247.164 256.991 264.067 250.728 264.067C243.796 264.067 231.426 249.399 235.136 241.952Z" fill="#FAA6B9" stroke="#FAA6B9" stroke-width="3"/>
<rect x="100.719" y="400.533" width="100" height="100" fill="#FFDBE3"/>
<path fill-rule="evenodd" clip-rule="evenodd" d="M141.732 443.624H141.62C142.421 440.945 144.88 435.745 148.203 435.296C150.058 435.045 150.902 436.176 151.229 437.751C152.51 436.201 153.886 435.041 155.078 435.041C158.537 435.041 159.005 439.384 159.32 442.307L159.32 442.307C159.373 442.795 159.421 443.243 159.478 443.624H159.463C163.426 445.173 166.85 448.311 166.715 454.574C166.52 463.632 158.139 466.026 150.62 466.026C143.102 466.026 134.719 462.424 134.719 454.574C134.719 448.308 137.916 445.171 141.732 443.624Z" fill="white"/>
<path d="M141.62 443.624L139.704 443.052C139.523 443.657 139.639 444.313 140.017 444.819C140.394 445.326 140.989 445.624 141.62 445.624V443.624ZM141.732 443.624L142.483 445.478C143.37 445.118 143.878 444.181 143.695 443.241C143.512 442.302 142.689 441.624 141.732 441.624V443.624ZM148.203 435.296L147.936 433.314L148.203 435.296ZM151.229 437.751L149.271 438.158C149.427 438.911 150.002 439.507 150.748 439.692C151.495 439.877 152.281 439.618 152.771 439.025L151.229 437.751ZM159.32 442.307L157.332 442.521L157.333 442.534L159.32 442.307ZM159.32 442.307L161.309 442.093L161.307 442.08L159.32 442.307ZM159.478 443.624V445.624C160.06 445.624 160.614 445.371 160.994 444.93C161.374 444.489 161.542 443.904 161.456 443.328L159.478 443.624ZM159.463 443.624V441.624C158.502 441.624 157.676 442.309 157.498 443.254C157.32 444.199 157.84 445.137 158.735 445.487L159.463 443.624ZM166.715 454.574L164.716 454.531L164.716 454.531L166.715 454.574ZM134.719 454.574L132.719 454.574L134.719 454.574ZM141.62 445.624H141.732V441.624H141.62V445.624ZM147.936 433.314C145.369 433.66 143.495 435.728 142.303 437.512C141.041 439.4 140.15 441.559 139.704 443.052L143.537 444.197C143.891 443.01 144.629 441.23 145.628 439.735C146.696 438.137 147.714 437.38 148.471 437.278L147.936 433.314ZM153.187 437.344C152.983 436.361 152.565 435.221 151.649 434.372C150.65 433.446 149.343 433.123 147.936 433.314L148.471 437.278C148.718 437.244 148.84 437.269 148.88 437.28C148.91 437.288 148.918 437.294 148.93 437.306C148.981 437.353 149.148 437.566 149.271 438.158L153.187 437.344ZM152.771 439.025C153.355 438.318 153.903 437.773 154.377 437.422C154.885 437.046 155.105 437.041 155.078 437.041V433.041C153.858 433.041 152.795 433.616 151.996 434.207C151.165 434.823 150.384 435.634 149.687 436.477L152.771 439.025ZM155.078 437.041C155.482 437.041 155.699 437.153 155.864 437.292C156.069 437.466 156.303 437.783 156.525 438.33C156.989 439.473 157.167 440.993 157.332 442.521L161.309 442.093C161.159 440.698 160.945 438.585 160.232 436.826C159.864 435.921 159.313 434.971 158.447 434.238C157.542 433.472 156.403 433.041 155.078 433.041V437.041ZM157.333 442.534L157.333 442.534L161.307 442.08L161.307 442.08L157.333 442.534ZM157.332 442.521C157.383 442.996 157.436 443.49 157.5 443.921L161.456 443.328C161.406 442.996 161.363 442.593 161.309 442.093L157.332 442.521ZM159.478 441.624H159.463V445.624H159.478V441.624ZM158.735 445.487C160.482 446.17 161.982 447.153 163.032 448.539C164.063 449.9 164.775 451.796 164.716 454.531L168.715 454.617C168.791 451.089 167.858 448.285 166.22 446.124C164.602 443.988 162.408 442.628 160.191 441.762L158.735 445.487ZM164.716 454.531C164.635 458.303 162.921 460.546 160.429 461.956C157.801 463.443 154.224 464.026 150.62 464.026V468.026C154.534 468.026 158.908 467.412 162.399 465.438C166.026 463.386 168.601 459.903 168.715 454.617L164.716 454.531ZM150.62 464.026C147.137 464.026 143.55 463.184 140.904 461.544C138.316 459.94 136.719 457.656 136.719 454.574L132.719 454.574C132.719 459.342 135.313 462.784 138.796 464.944C142.221 467.067 146.584 468.026 150.62 468.026V464.026ZM136.719 454.574C136.719 451.797 137.421 449.874 138.414 448.503C139.417 447.119 140.828 446.149 142.483 445.478L140.981 441.771C138.819 442.647 136.724 444.019 135.175 446.156C133.616 448.307 132.719 451.085 132.719 454.574L136.719 454.574Z" fill="#FAA6B9"/>
<path d="M151.167 438.384V445.386" stroke="#FAA6B9" stroke-width="4" stroke-linecap="round" stroke-linejoin="round"/>
<rect x="0.719238" y="500.533" width="100" height="100" fill="#FFDBE3"/>
<path fill-rule="evenodd" clip-rule="evenodd" d="M41.732 543.624H41.6205C42.4206 540.945 44.8795 535.745 48.2034 535.296C50.0582 535.045 50.9022 536.176 51.2291 537.751C52.5097 536.201 53.886 535.041 55.0775 535.041C58.5374 535.041 59.0054 539.384 59.3203 542.307L59.3203 542.307C59.3728 542.795 59.4211 543.243 59.4783 543.624H59.4633C63.4263 545.173 66.8504 548.311 66.7154 554.574C66.5202 563.632 58.1385 566.026 50.6201 566.026C43.1017 566.026 34.7192 562.424 34.7192 554.574C34.7193 548.308 37.9158 545.171 41.732 543.624Z" fill="white"/>
<path d="M41.6205 543.624L39.7041 543.052C39.5233 543.657 39.6392 544.313 40.0166 544.819C40.3941 545.326 40.9887 545.624 41.6205 545.624V543.624ZM41.732 543.624L42.4835 545.478C43.3703 545.118 43.8782 544.181 43.6951 543.241C43.5119 542.302 42.689 541.624 41.732 541.624V543.624ZM48.2034 535.296L47.9356 533.314L48.2034 535.296ZM51.2291 537.751L49.2709 538.158C49.4272 538.911 50.0016 539.507 50.7482 539.692C51.4948 539.877 52.2813 539.618 52.7712 539.025L51.2291 537.751ZM59.3203 542.307L57.3318 542.521L57.3332 542.534L59.3203 542.307ZM59.3203 542.307L61.3088 542.093L61.3074 542.08L59.3203 542.307ZM59.4783 543.624V545.624C60.0605 545.624 60.6137 545.371 60.9937 544.93C61.3736 544.489 61.5425 543.904 61.4562 543.328L59.4783 543.624ZM59.4633 543.624V541.624C58.5016 541.624 57.676 542.309 57.4979 543.254C57.3198 544.199 57.8396 545.137 58.7354 545.487L59.4633 543.624ZM66.7154 554.574L64.7159 554.531L64.7159 554.531L66.7154 554.574ZM34.7192 554.574L32.7192 554.574L34.7192 554.574ZM41.6205 545.624H41.732V541.624H41.6205V545.624ZM47.9356 533.314C45.3693 533.66 43.4955 535.728 42.3027 537.512C41.0414 539.4 40.1499 541.559 39.7041 543.052L43.5368 544.197C43.8911 543.01 44.6292 541.23 45.6283 539.735C46.6961 538.137 47.7137 537.38 48.4713 537.278L47.9356 533.314ZM53.1874 537.344C52.9833 536.361 52.5647 535.221 51.6488 534.372C50.6503 533.446 49.3434 533.123 47.9356 533.314L48.4713 537.278C48.7177 537.244 48.8403 537.269 48.8797 537.28C48.9101 537.288 48.9177 537.294 48.9297 537.306C48.9812 537.353 49.148 537.566 49.2709 538.158L53.1874 537.344ZM52.7712 539.025C53.3552 538.318 53.9026 537.773 54.3771 537.422C54.8846 537.046 55.105 537.041 55.0775 537.041V533.041C53.8585 533.041 52.795 533.616 51.9963 534.207C51.1646 534.823 50.3836 535.634 49.6871 536.477L52.7712 539.025ZM55.0775 537.041C55.4821 537.041 55.6994 537.153 55.8642 537.292C56.069 537.466 56.3033 537.783 56.525 538.33C56.9888 539.473 57.1671 540.993 57.3318 542.521L61.3088 542.093C61.1585 540.698 60.9454 538.585 60.2315 536.826C59.8644 535.921 59.3134 534.971 58.4475 534.238C57.5416 533.472 56.4029 533.041 55.0775 533.041V537.041ZM57.3332 542.534L57.3332 542.534L61.3074 542.08L61.3074 542.08L57.3332 542.534ZM57.3318 542.521C57.383 542.996 57.4358 543.49 57.5004 543.921L61.4562 543.328C61.4064 542.996 61.3627 542.593 61.3088 542.093L57.3318 542.521ZM59.4783 541.624H59.4633V545.624H59.4783V541.624ZM58.7354 545.487C60.482 546.17 61.9816 547.153 63.0321 548.539C64.0631 549.9 64.7748 551.796 64.7159 554.531L68.7149 554.617C68.791 551.089 67.8581 548.285 66.2201 546.124C64.6015 543.988 62.4076 542.628 60.1912 541.762L58.7354 545.487ZM64.7159 554.531C64.6346 558.303 62.9212 560.546 60.4293 561.956C57.8007 563.443 54.2242 564.026 50.6201 564.026V568.026C54.5344 568.026 58.908 567.412 62.3987 565.438C66.026 563.386 68.601 559.903 68.7149 554.617L64.7159 554.531ZM50.6201 564.026C47.1374 564.026 43.5504 563.184 40.9041 561.544C38.3163 559.94 36.7192 557.656 36.7192 554.574L32.7192 554.574C32.7192 559.342 35.3134 562.784 38.7965 564.944C42.221 567.067 46.5845 568.026 50.6201 568.026V564.026ZM36.7192 554.574C36.7192 551.797 37.4209 549.874 38.414 548.503C39.4173 547.119 40.8284 546.149 42.4835 545.478L40.9806 541.771C38.8194 542.647 36.7241 544.019 35.1751 546.156C33.6159 548.307 32.7192 551.085 32.7192 554.574L36.7192 554.574Z" fill="#FAA6B9"/>
<path d="M51.1675 538.384V545.386" stroke="#FAA6B9" stroke-width="4" stroke-linecap="round" stroke-linejoin="round"/>
<rect x="200.719" y="500.533" width="100" height="100" fill="#FFDBE3"/>
<path fill-rule="evenodd" clip-rule="evenodd" d="M241.732 543.624H241.62C242.421 540.945 244.88 535.745 248.203 535.296C250.058 535.045 250.902 536.176 251.229 537.751C252.51 536.201 253.886 535.041 255.078 535.041C258.537 535.041 259.005 539.384 259.32 542.307L259.32 542.307C259.373 542.795 259.421 543.243 259.478 543.624H259.463C263.426 545.173 266.85 548.311 266.715 554.574C266.52 563.632 258.139 566.026 250.62 566.026C243.102 566.026 234.719 562.424 234.719 554.574C234.719 548.308 237.916 545.171 241.732 543.624Z" fill="white"/>
<path d="M241.62 543.624L239.704 543.052C239.523 543.657 239.639 544.313 240.017 544.819C240.394 545.326 240.989 545.624 241.62 545.624V543.624ZM241.732 543.624L242.483 545.478C243.37 545.118 243.878 544.181 243.695 543.241C243.512 542.302 242.689 541.624 241.732 541.624V543.624ZM248.203 535.296L247.936 533.314L248.203 535.296ZM251.229 537.751L249.271 538.158C249.427 538.911 250.002 539.507 250.748 539.692C251.495 539.877 252.281 539.618 252.771 539.025L251.229 537.751ZM259.32 542.307L257.332 542.521L257.333 542.534L259.32 542.307ZM259.32 542.307L261.309 542.093L261.307 542.08L259.32 542.307ZM259.478 543.624V545.624C260.06 545.624 260.614 545.371 260.994 544.93C261.374 544.489 261.542 543.904 261.456 543.328L259.478 543.624ZM259.463 543.624V541.624C258.502 541.624 257.676 542.309 257.498 543.254C257.32 544.199 257.84 545.137 258.735 545.487L259.463 543.624ZM266.715 554.574L264.716 554.531L264.716 554.531L266.715 554.574ZM234.719 554.574L232.719 554.574L234.719 554.574ZM241.62 545.624H241.732V541.624H241.62V545.624ZM247.936 533.314C245.369 533.66 243.495 535.728 242.303 537.512C241.041 539.4 240.15 541.559 239.704 543.052L243.537 544.197C243.891 543.01 244.629 541.23 245.628 539.735C246.696 538.137 247.714 537.38 248.471 537.278L247.936 533.314ZM253.187 537.344C252.983 536.361 252.565 535.221 251.649 534.372C250.65 533.446 249.343 533.123 247.936 533.314L248.471 537.278C248.718 537.244 248.84 537.269 248.88 537.28C248.91 537.288 248.918 537.294 248.93 537.306C248.981 537.353 249.148 537.566 249.271 538.158L253.187 537.344ZM252.771 539.025C253.355 538.318 253.903 537.773 254.377 537.422C254.885 537.046 255.105 537.041 255.078 537.041V533.041C253.858 533.041 252.795 533.616 251.996 534.207C251.165 534.823 250.384 535.634 249.687 536.477L252.771 539.025ZM255.078 537.041C255.482 537.041 255.699 537.153 255.864 537.292C256.069 537.466 256.303 537.783 256.525 538.33C256.989 539.473 257.167 540.993 257.332 542.521L261.309 542.093C261.159 540.698 260.945 538.585 260.232 536.826C259.864 535.921 259.313 534.971 258.447 534.238C257.542 533.472 256.403 533.041 255.078 533.041V537.041ZM257.333 542.534L257.333 542.534L261.307 542.08L261.307 542.08L257.333 542.534ZM257.332 542.521C257.383 542.996 257.436 543.49 257.5 543.921L261.456 543.328C261.406 542.996 261.363 542.593 261.309 542.093L257.332 542.521ZM259.478 541.624H259.463V545.624H259.478V541.624ZM258.735 545.487C260.482 546.17 261.982 547.153 263.032 548.539C264.063 549.9 264.775 551.796 264.716 554.531L268.715 554.617C268.791 551.089 267.858 548.285 266.22 546.124C264.602 543.988 262.408 542.628 260.191 541.762L258.735 545.487ZM264.716 554.531C264.635 558.303 262.921 560.546 260.429 561.956C257.801 563.443 254.224 564.026 250.62 564.026V568.026C254.534 568.026 258.908 567.412 262.399 565.438C266.026 563.386 268.601 559.903 268.715 554.617L264.716 554.531ZM250.62 564.026C247.137 564.026 243.55 563.184 240.904 561.544C238.316 559.94 236.719 557.656 236.719 554.574L232.719 554.574C232.719 559.342 235.313 562.784 238.796 564.944C242.221 567.067 246.584 568.026 250.62 568.026V564.026ZM236.719 554.574C236.719 551.797 237.421 549.874 238.414 548.503C239.417 547.119 240.828 546.149 242.483 545.478L240.981 541.771C238.819 542.647 236.724 544.019 235.175 546.156C233.616 548.307 232.719 551.085 232.719 554.574L236.719 554.574Z" fill="#FAA6B9"/>
<path d="M251.167 538.384V545.386" stroke="#FAA6B9" stroke-width="4" stroke-linecap="round" stroke-linejoin="round"/>
<rect x="300.719" y="400.533" width="100" height="100" fill="#FFDBE3"/>
<path fill-rule="evenodd" clip-rule="evenodd" d="M341.732 443.624H341.62C342.421 440.945 344.88 435.745 348.203 435.296C350.058 435.045 350.902 436.176 351.229 437.751C352.51 436.201 353.886 435.041 355.078 435.041C358.537 435.041 359.005 439.384 359.32 442.307L359.32 442.307C359.373 442.795 359.421 443.243 359.478 443.624H359.463C363.426 445.173 366.85 448.311 366.715 454.574C366.52 463.632 358.139 466.026 350.62 466.026C343.102 466.026 334.719 462.424 334.719 454.574C334.719 448.308 337.916 445.171 341.732 443.624Z" fill="white"/>
<path d="M341.62 443.624L339.704 443.052C339.523 443.657 339.639 444.313 340.017 444.819C340.394 445.326 340.989 445.624 341.62 445.624V443.624ZM341.732 443.624L342.483 445.478C343.37 445.118 343.878 444.181 343.695 443.241C343.512 442.302 342.689 441.624 341.732 441.624V443.624ZM348.203 435.296L347.936 433.314L348.203 435.296ZM351.229 437.751L349.271 438.158C349.427 438.911 350.002 439.507 350.748 439.692C351.495 439.877 352.281 439.618 352.771 439.025L351.229 437.751ZM359.32 442.307L357.332 442.521L357.333 442.534L359.32 442.307ZM359.32 442.307L361.309 442.093L361.307 442.08L359.32 442.307ZM359.478 443.624V445.624C360.06 445.624 360.614 445.371 360.994 444.93C361.374 444.489 361.542 443.904 361.456 443.328L359.478 443.624ZM359.463 443.624V441.624C358.502 441.624 357.676 442.309 357.498 443.254C357.32 444.199 357.84 445.137 358.735 445.487L359.463 443.624ZM366.715 454.574L364.716 454.531L364.716 454.531L366.715 454.574ZM334.719 454.574L332.719 454.574L334.719 454.574ZM341.62 445.624H341.732V441.624H341.62V445.624ZM347.936 433.314C345.369 433.66 343.495 435.728 342.303 437.512C341.041 439.4 340.15 441.559 339.704 443.052L343.537 444.197C343.891 443.01 344.629 441.23 345.628 439.735C346.696 438.137 347.714 437.38 348.471 437.278L347.936 433.314ZM353.187 437.344C352.983 436.361 352.565 435.221 351.649 434.372C350.65 433.446 349.343 433.123 347.936 433.314L348.471 437.278C348.718 437.244 348.84 437.269 348.88 437.28C348.91 437.288 348.918 437.294 348.93 437.306C348.981 437.353 349.148 437.566 349.271 438.158L353.187 437.344ZM352.771 439.025C353.355 438.318 353.903 437.773 354.377 437.422C354.885 437.046 355.105 437.041 355.078 437.041V433.041C353.858 433.041 352.795 433.616 351.996 434.207C351.165 434.823 350.384 435.634 349.687 436.477L352.771 439.025ZM355.078 437.041C355.482 437.041 355.699 437.153 355.864 437.292C356.069 437.466 356.303 437.783 356.525 438.33C356.989 439.473 357.167 440.993 357.332 442.521L361.309 442.093C361.159 440.698 360.945 438.585 360.232 436.826C359.864 435.921 359.313 434.971 358.447 434.238C357.542 433.472 356.403 433.041 355.078 433.041V437.041ZM357.333 442.534L357.333 442.534L361.307 442.08L361.307 442.08L357.333 442.534ZM357.332 442.521C357.383 442.996 357.436 443.49 357.5 443.921L361.456 443.328C361.406 442.996 361.363 442.593 361.309 442.093L357.332 442.521ZM359.478 441.624H359.463V445.624H359.478V441.624ZM358.735 445.487C360.482 446.17 361.982 447.153 363.032 448.539C364.063 449.9 364.775 451.796 364.716 454.531L368.715 454.617C368.791 451.089 367.858 448.285 366.22 446.124C364.602 443.988 362.408 442.628 360.191 441.762L358.735 445.487ZM364.716 454.531C364.635 458.303 362.921 460.546 360.429 461.956C357.801 463.443 354.224 464.026 350.62 464.026V468.026C354.534 468.026 358.908 467.412 362.399 465.438C366.026 463.386 368.601 459.903 368.715 454.617L364.716 454.531ZM350.62 464.026C347.137 464.026 343.55 463.184 340.904 461.544C338.316 459.94 336.719 457.656 336.719 454.574L332.719 454.574C332.719 459.342 335.313 462.784 338.796 464.944C342.221 467.067 346.584 468.026 350.62 468.026V464.026ZM336.719 454.574C336.719 451.797 337.421 449.874 338.414 448.503C339.417 447.119 340.828 446.149 342.483 445.478L340.981 441.771C338.819 442.647 336.724 444.019 335.175 446.156C333.616 448.307 332.719 451.085 332.719 454.574L336.719 454.574Z" fill="#FAA6B9"/>
<path d="M351.167 438.384V445.386" stroke="#FAA6B9" stroke-width="4" stroke-linecap="round" stroke-linejoin="round"/>
<rect x="0.719238" y="400.533" width="100" height="100" fill="#FFC0CE"/>
<path d="M35.1355 441.952C39.1951 433.804 47.2205 437.875 50.7279 440.213C53.2882 438.188 58.8523 434.536 64.4447 439.458C73.2001 447.164 56.9911 464.067 50.7279 464.067C43.7963 464.067 31.4257 449.399 35.1355 441.952Z" fill="#FAA6B9" stroke="#FAA6B9" stroke-width="3"/>
<rect x="100.719" y="500.533" width="100" height="100" fill="#FFC0CE"/>
<path d="M135.136 541.952C139.195 533.804 147.221 537.875 150.728 540.213C153.288 538.188 158.852 534.536 164.445 539.458C173.2 547.164 156.991 564.067 150.728 564.067C143.796 564.067 131.426 549.399 135.136 541.952Z" fill="#FAA6B9" stroke="#FAA6B9" stroke-width="3"/>
<rect x="300.719" y="500.533" width="100" height="100" fill="#FFC0CE"/>
<path d="M335.136 541.952C339.195 533.804 347.221 537.875 350.728 540.213C353.288 538.188 358.852 534.536 364.445 539.458C373.2 547.164 356.991 564.067 350.728 564.067C343.796 564.067 331.426 549.399 335.136 541.952Z" fill="#FAA6B9" stroke="#FAA6B9" stroke-width="3"/>
<rect x="200.719" y="400.533" width="100" height="100" fill="#FFC0CE"/>
<path d="M235.136 441.952C239.195 433.804 247.221 437.875 250.728 440.213C253.288 438.188 258.852 434.536 264.445 439.458C273.2 447.164 256.991 464.067 250.728 464.067C243.796 464.067 231.426 449.399 235.136 441.952Z" fill="#FAA6B9" stroke="#FAA6B9" stroke-width="3"/>
<rect x="100.719" y="600.533" width="100" height="100" fill="#FFDBE3"/>
<path fill-rule="evenodd" clip-rule="evenodd" d="M141.732 643.624H141.62C142.421 640.945 144.88 635.745 148.203 635.296C150.058 635.045 150.902 636.176 151.229 637.751C152.51 636.201 153.886 635.041 155.078 635.041C158.537 635.041 159.005 639.384 159.32 642.307L159.32 642.307C159.373 642.795 159.421 643.243 159.478 643.624H159.463C163.426 645.173 166.85 648.311 166.715 654.574C166.52 663.632 158.139 666.026 150.62 666.026C143.102 666.026 134.719 662.424 134.719 654.574C134.719 648.308 137.916 645.171 141.732 643.624Z" fill="white"/>
<path d="M141.62 643.624L139.704 643.052C139.523 643.657 139.639 644.313 140.017 644.819C140.394 645.326 140.989 645.624 141.62 645.624V643.624ZM141.732 643.624L142.483 645.478C143.37 645.118 143.878 644.181 143.695 643.241C143.512 642.302 142.689 641.624 141.732 641.624V643.624ZM148.203 635.296L147.936 633.314L148.203 635.296ZM151.229 637.751L149.271 638.158C149.427 638.911 150.002 639.507 150.748 639.692C151.495 639.877 152.281 639.618 152.771 639.025L151.229 637.751ZM159.32 642.307L157.332 642.521L157.333 642.534L159.32 642.307ZM159.32 642.307L161.309 642.093L161.307 642.08L159.32 642.307ZM159.478 643.624V645.624C160.06 645.624 160.614 645.371 160.994 644.93C161.374 644.489 161.542 643.904 161.456 643.328L159.478 643.624ZM159.463 643.624V641.624C158.502 641.624 157.676 642.309 157.498 643.254C157.32 644.199 157.84 645.137 158.735 645.487L159.463 643.624ZM166.715 654.574L164.716 654.531L164.716 654.531L166.715 654.574ZM134.719 654.574L132.719 654.574L134.719 654.574ZM141.62 645.624H141.732V641.624H141.62V645.624ZM147.936 633.314C145.369 633.66 143.495 635.728 142.303 637.512C141.041 639.4 140.15 641.559 139.704 643.052L143.537 644.197C143.891 643.01 144.629 641.23 145.628 639.735C146.696 638.137 147.714 637.38 148.471 637.278L147.936 633.314ZM153.187 637.344C152.983 636.361 152.565 635.221 151.649 634.372C150.65 633.446 149.343 633.123 147.936 633.314L148.471 637.278C148.718 637.244 148.84 637.269 148.88 637.28C148.91 637.288 148.918 637.294 148.93 637.306C148.981 637.353 149.148 637.566 149.271 638.158L153.187 637.344ZM152.771 639.025C153.355 638.318 153.903 637.773 154.377 637.422C154.885 637.046 155.105 637.041 155.078 637.041V633.041C153.858 633.041 152.795 633.616 151.996 634.207C151.165 634.823 150.384 635.634 149.687 636.477L152.771 639.025ZM155.078 637.041C155.482 637.041 155.699 637.153 155.864 637.292C156.069 637.466 156.303 637.783 156.525 638.33C156.989 639.473 157.167 640.993 157.332 642.521L161.309 642.093C161.159 640.698 160.945 638.585 160.232 636.826C159.864 635.921 159.313 634.971 158.447 634.238C157.542 633.472 156.403 633.041 155.078 633.041V637.041ZM157.333 642.534L157.333 642.534L161.307 642.08L161.307 642.08L157.333 642.534ZM157.332 642.521C157.383 642.996 157.436 643.49 157.5 643.921L161.456 643.328C161.406 642.996 161.363 642.593 161.309 642.093L157.332 642.521ZM159.478 641.624H159.463V645.624H159.478V641.624ZM158.735 645.487C160.482 646.17 161.982 647.153 163.032 648.539C164.063 649.9 164.775 651.796 164.716 654.531L168.715 654.617C168.791 651.089 167.858 648.285 166.22 646.124C164.602 643.988 162.408 642.628 160.191 641.762L158.735 645.487ZM164.716 654.531C164.635 658.303 162.921 660.546 160.429 661.956C157.801 663.443 154.224 664.026 150.62 664.026V668.026C154.534 668.026 158.908 667.412 162.399 665.438C166.026 663.386 168.601 659.903 168.715 654.617L164.716 654.531ZM150.62 664.026C147.137 664.026 143.55 663.184 140.904 661.544C138.316 659.94 136.719 657.656 136.719 654.574L132.719 654.574C132.719 659.342 135.313 662.784 138.796 664.944C142.221 667.067 146.584 668.026 150.62 668.026V664.026ZM136.719 654.574C136.719 651.797 137.421 649.874 138.414 648.503C139.417 647.119 140.828 646.149 142.483 645.478L140.981 641.771C138.819 642.647 136.724 644.019 135.175 646.156C133.616 648.307 132.719 651.085 132.719 654.574L136.719 654.574Z" fill="#FAA6B9"/>
<path d="M151.167 638.384V645.386" stroke="#FAA6B9" stroke-width="4" stroke-linecap="round" stroke-linejoin="round"/>
<rect x="0.719238" y="700.533" width="100" height="100" fill="#FFDBE3"/>
<path fill-rule="evenodd" clip-rule="evenodd" d="M41.732 743.624H41.6205C42.4206 740.945 44.8795 735.745 48.2034 735.296C50.0582 735.045 50.9022 736.176 51.2291 737.751C52.5097 736.201 53.886 735.041 55.0775 735.041C58.5374 735.041 59.0054 739.384 59.3203 742.307L59.3203 742.307C59.3728 742.795 59.4211 743.243 59.4783 743.624H59.4633C63.4263 745.173 66.8504 748.311 66.7154 754.574C66.5202 763.632 58.1385 766.026 50.6201 766.026C43.1017 766.026 34.7192 762.424 34.7192 754.574C34.7193 748.308 37.9158 745.171 41.732 743.624Z" fill="white"/>
<path d="M41.6205 743.624L39.7041 743.052C39.5233 743.657 39.6392 744.313 40.0166 744.819C40.3941 745.326 40.9887 745.624 41.6205 745.624V743.624ZM41.732 743.624L42.4835 745.478C43.3703 745.118 43.8782 744.181 43.6951 743.241C43.5119 742.302 42.689 741.624 41.732 741.624V743.624ZM48.2034 735.296L47.9356 733.314L48.2034 735.296ZM51.2291 737.751L49.2709 738.158C49.4272 738.911 50.0016 739.507 50.7482 739.692C51.4948 739.877 52.2813 739.618 52.7712 739.025L51.2291 737.751ZM59.3203 742.307L57.3318 742.521L57.3332 742.534L59.3203 742.307ZM59.3203 742.307L61.3088 742.093L61.3074 742.08L59.3203 742.307ZM59.4783 743.624V745.624C60.0605 745.624 60.6137 745.371 60.9937 744.93C61.3736 744.489 61.5425 743.904 61.4562 743.328L59.4783 743.624ZM59.4633 743.624V741.624C58.5016 741.624 57.676 742.309 57.4979 743.254C57.3198 744.199 57.8396 745.137 58.7354 745.487L59.4633 743.624ZM66.7154 754.574L64.7159 754.531L64.7159 754.531L66.7154 754.574ZM34.7192 754.574L32.7192 754.574L34.7192 754.574ZM41.6205 745.624H41.732V741.624H41.6205V745.624ZM47.9356 733.314C45.3693 733.66 43.4955 735.728 42.3027 737.512C41.0414 739.4 40.1499 741.559 39.7041 743.052L43.5368 744.197C43.8911 743.01 44.6292 741.23 45.6283 739.735C46.6961 738.137 47.7137 737.38 48.4713 737.278L47.9356 733.314ZM53.1874 737.344C52.9833 736.361 52.5647 735.221 51.6488 734.372C50.6503 733.446 49.3434 733.123 47.9356 733.314L48.4713 737.278C48.7177 737.244 48.8403 737.269 48.8797 737.28C48.9101 737.288 48.9177 737.294 48.9297 737.306C48.9812 737.353 49.148 737.566 49.2709 738.158L53.1874 737.344ZM52.7712 739.025C53.3552 738.318 53.9026 737.773 54.3771 737.422C54.8846 737.046 55.105 737.041 55.0775 737.041V733.041C53.8585 733.041 52.795 733.616 51.9963 734.207C51.1646 734.823 50.3836 735.634 49.6871 736.477L52.7712 739.025ZM55.0775 737.041C55.4821 737.041 55.6994 737.153 55.8642 737.292C56.069 737.466 56.3033 737.783 56.525 738.33C56.9888 739.473 57.1671 740.993 57.3318 742.521L61.3088 742.093C61.1585 740.698 60.9454 738.585 60.2315 736.826C59.8644 735.921 59.3134 734.971 58.4475 734.238C57.5416 733.472 56.4029 733.041 55.0775 733.041V737.041ZM57.3332 742.534L57.3332 742.534L61.3074 742.08L61.3074 742.08L57.3332 742.534ZM57.3318 742.521C57.383 742.996 57.4358 743.49 57.5004 743.921L61.4562 743.328C61.4064 742.996 61.3627 742.593 61.3088 742.093L57.3318 742.521ZM59.4783 741.624H59.4633V745.624H59.4783V741.624ZM58.7354 745.487C60.482 746.17 61.9816 747.153 63.0321 748.539C64.0631 749.9 64.7748 751.796 64.7159 754.531L68.7149 754.617C68.791 751.089 67.8581 748.285 66.2201 746.124C64.6015 743.988 62.4076 742.628 60.1912 741.762L58.7354 745.487ZM64.7159 754.531C64.6346 758.303 62.9212 760.546 60.4293 761.956C57.8007 763.443 54.2242 764.026 50.6201 764.026V768.026C54.5344 768.026 58.908 767.412 62.3987 765.438C66.026 763.386 68.601 759.903 68.7149 754.617L64.7159 754.531ZM50.6201 764.026C47.1374 764.026 43.5504 763.184 40.9041 761.544C38.3163 759.94 36.7192 757.656 36.7192 754.574L32.7192 754.574C32.7192 759.342 35.3134 762.784 38.7965 764.944C42.221 767.067 46.5845 768.026 50.6201 768.026V764.026ZM36.7192 754.574C36.7192 751.797 37.4209 749.874 38.414 748.503C39.4173 747.119 40.8284 746.149 42.4835 745.478L40.9806 741.771C38.8194 742.647 36.7241 744.019 35.1751 746.156C33.6159 748.307 32.7192 751.085 32.7192 754.574L36.7192 754.574Z" fill="#FAA6B9"/>
<path d="M51.1675 738.384V745.386" stroke="#FAA6B9" stroke-width="4" stroke-linecap="round" stroke-linejoin="round"/>
<rect x="200.719" y="700.533" width="100" height="100" fill="#FFDBE3"/>
<path fill-rule="evenodd" clip-rule="evenodd" d="M241.732 743.624H241.62C242.421 740.945 244.88 735.745 248.203 735.296C250.058 735.045 250.902 736.176 251.229 737.751C252.51 736.201 253.886 735.041 255.078 735.041C258.537 735.041 259.005 739.384 259.32 742.307L259.32 742.307C259.373 742.795 259.421 743.243 259.478 743.624H259.463C263.426 745.173 266.85 748.311 266.715 754.574C266.52 763.632 258.139 766.026 250.62 766.026C243.102 766.026 234.719 762.424 234.719 754.574C234.719 748.308 237.916 745.171 241.732 743.624Z" fill="white"/>
<path d="M241.62 743.624L239.704 743.052C239.523 743.657 239.639 744.313 240.017 744.819C240.394 745.326 240.989 745.624 241.62 745.624V743.624ZM241.732 743.624L242.483 745.478C243.37 745.118 243.878 744.181 243.695 743.241C243.512 742.302 242.689 741.624 241.732 741.624V743.624ZM248.203 735.296L247.936 733.314L248.203 735.296ZM251.229 737.751L249.271 738.158C249.427 738.911 250.002 739.507 250.748 739.692C251.495 739.877 252.281 739.618 252.771 739.025L251.229 737.751ZM259.32 742.307L257.332 742.521L257.333 742.534L259.32 742.307ZM259.32 742.307L261.309 742.093L261.307 742.08L259.32 742.307ZM259.478 743.624V745.624C260.06 745.624 260.614 745.371 260.994 744.93C261.374 744.489 261.542 743.904 261.456 743.328L259.478 743.624ZM259.463 743.624V741.624C258.502 741.624 257.676 742.309 257.498 743.254C257.32 744.199 257.84 745.137 258.735 745.487L259.463 743.624ZM266.715 754.574L264.716 754.531L264.716 754.531L266.715 754.574ZM234.719 754.574L232.719 754.574L234.719 754.574ZM241.62 745.624H241.732V741.624H241.62V745.624ZM247.936 733.314C245.369 733.66 243.495 735.728 242.303 737.512C241.041 739.4 240.15 741.559 239.704 743.052L243.537 744.197C243.891 743.01 244.629 741.23 245.628 739.735C246.696 738.137 247.714 737.38 248.471 737.278L247.936 733.314ZM253.187 737.344C252.983 736.361 252.565 735.221 251.649 734.372C250.65 733.446 249.343 733.123 247.936 733.314L248.471 737.278C248.718 737.244 248.84 737.269 248.88 737.28C248.91 737.288 248.918 737.294 248.93 737.306C248.981 737.353 249.148 737.566 249.271 738.158L253.187 737.344ZM252.771 739.025C253.355 738.318 253.903 737.773 254.377 737.422C254.885 737.046 255.105 737.041 255.078 737.041V733.041C253.858 733.041 252.795 733.616 251.996 734.207C251.165 734.823 250.384 735.634 249.687 736.477L252.771 739.025ZM255.078 737.041C255.482 737.041 255.699 737.153 255.864 737.292C256.069 737.466 256.303 737.783 256.525 738.33C256.989 739.473 257.167 740.993 257.332 742.521L261.309 742.093C261.159 740.698 260.945 738.585 260.232 736.826C259.864 735.921 259.313 734.971 258.447 734.238C257.542 733.472 256.403 733.041 255.078 733.041V737.041ZM257.333 742.534L257.333 742.534L261.307 742.08L261.307 742.08L257.333 742.534ZM257.332 742.521C257.383 742.996 257.436 743.49 257.5 743.921L261.456 743.328C261.406 742.996 261.363 742.593 261.309 742.093L257.332 742.521ZM259.478 741.624H259.463V745.624H259.478V741.624ZM258.735 745.487C260.482 746.17 261.982 747.153 263.032 748.539C264.063 749.9 264.775 751.796 264.716 754.531L268.715 754.617C268.791 751.089 267.858 748.285 266.22 746.124C264.602 743.988 262.408 742.628 260.191 741.762L258.735 745.487ZM264.716 754.531C264.635 758.303 262.921 760.546 260.429 761.956C257.801 763.443 254.224 764.026 250.62 764.026V768.026C254.534 768.026 258.908 767.412 262.399 765.438C266.026 763.386 268.601 759.903 268.715 754.617L264.716 754.531ZM250.62 764.026C247.137 764.026 243.55 763.184 240.904 761.544C238.316 759.94 236.719 757.656 236.719 754.574L232.719 754.574C232.719 759.342 235.313 762.784 238.796 764.944C242.221 767.067 246.584 768.026 250.62 768.026V764.026ZM236.719 754.574C236.719 751.797 237.421 749.874 238.414 748.503C239.417 747.119 240.828 746.149 242.483 745.478L240.981 741.771C238.819 742.647 236.724 744.019 235.175 746.156C233.616 748.307 232.719 751.085 232.719 754.574L236.719 754.574Z" fill="#FAA6B9"/>
<path d="M251.167 738.384V745.386" stroke="#FAA6B9" stroke-width="4" stroke-linecap="round" stroke-linejoin="round"/>
<rect x="300.719" y="600.533" width="100" height="100" fill="#FFDBE3"/>
<path fill-rule="evenodd" clip-rule="evenodd" d="M341.732 643.624H341.62C342.421 640.945 344.88 635.745 348.203 635.296C350.058 635.045 350.902 636.176 351.229 637.751C352.51 636.201 353.886 635.041 355.078 635.041C358.537 635.041 359.005 639.384 359.32 642.307L359.32 642.307C359.373 642.795 359.421 643.243 359.478 643.624H359.463C363.426 645.173 366.85 648.311 366.715 654.574C366.52 663.632 358.139 666.026 350.62 666.026C343.102 666.026 334.719 662.424 334.719 654.574C334.719 648.308 337.916 645.171 341.732 643.624Z" fill="white"/>
<path d="M341.62 643.624L339.704 643.052C339.523 643.657 339.639 644.313 340.017 644.819C340.394 645.326 340.989 645.624 341.62 645.624V643.624ZM341.732 643.624L342.483 645.478C343.37 645.118 343.878 644.181 343.695 643.241C343.512 642.302 342.689 641.624 341.732 641.624V643.624ZM348.203 635.296L347.936 633.314L348.203 635.296ZM351.229 637.751L349.271 638.158C349.427 638.911 350.002 639.507 350.748 639.692C351.495 639.877 352.281 639.618 352.771 639.025L351.229 637.751ZM359.32 642.307L357.332 642.521L357.333 642.534L359.32 642.307ZM359.32 642.307L361.309 642.093L361.307 642.08L359.32 642.307ZM359.478 643.624V645.624C360.06 645.624 360.614 645.371 360.994 644.93C361.374 644.489 361.542 643.904 361.456 643.328L359.478 643.624ZM359.463 643.624V641.624C358.502 641.624 357.676 642.309 357.498 643.254C357.32 644.199 357.84 645.137 358.735 645.487L359.463 643.624ZM366.715 654.574L364.716 654.531L364.716 654.531L366.715 654.574ZM334.719 654.574L332.719 654.574L334.719 654.574ZM341.62 645.624H341.732V641.624H341.62V645.624ZM347.936 633.314C345.369 633.66 343.495 635.728 342.303 637.512C341.041 639.4 340.15 641.559 339.704 643.052L343.537 644.197C343.891 643.01 344.629 641.23 345.628 639.735C346.696 638.137 347.714 637.38 348.471 637.278L347.936 633.314ZM353.187 637.344C352.983 636.361 352.565 635.221 351.649 634.372C350.65 633.446 349.343 633.123 347.936 633.314L348.471 637.278C348.718 637.244 348.84 637.269 348.88 637.28C348.91 637.288 348.918 637.294 348.93 637.306C348.981 637.353 349.148 637.566 349.271 638.158L353.187 637.344ZM352.771 639.025C353.355 638.318 353.903 637.773 354.377 637.422C354.885 637.046 355.105 637.041 355.078 637.041V633.041C353.858 633.041 352.795 633.616 351.996 634.207C351.165 634.823 350.384 635.634 349.687 636.477L352.771 639.025ZM355.078 637.041C355.482 637.041 355.699 637.153 355.864 637.292C356.069 637.466 356.303 637.783 356.525 638.33C356.989 639.473 357.167 640.993 357.332 642.521L361.309 642.093C361.159 640.698 360.945 638.585 360.232 636.826C359.864 635.921 359.313 634.971 358.447 634.238C357.542 633.472 356.403 633.041 355.078 633.041V637.041ZM357.333 642.534L357.333 642.534L361.307 642.08L361.307 642.08L357.333 642.534ZM357.332 642.521C357.383 642.996 357.436 643.49 357.5 643.921L361.456 643.328C361.406 642.996 361.363 642.593 361.309 642.093L357.332 642.521ZM359.478 641.624H359.463V645.624H359.478V641.624ZM358.735 645.487C360.482 646.17 361.982 647.153 363.032 648.539C364.063 649.9 364.775 651.796 364.716 654.531L368.715 654.617C368.791 651.089 367.858 648.285 366.22 646.124C364.602 643.988 362.408 642.628 360.191 641.762L358.735 645.487ZM364.716 654.531C364.635 658.303 362.921 660.546 360.429 661.956C357.801 663.443 354.224 664.026 350.62 664.026V668.026C354.534 668.026 358.908 667.412 362.399 665.438C366.026 663.386 368.601 659.903 368.715 654.617L364.716 654.531ZM350.62 664.026C347.137 664.026 343.55 663.184 340.904 661.544C338.316 659.94 336.719 657.656 336.719 654.574L332.719 654.574C332.719 659.342 335.313 662.784 338.796 664.944C342.221 667.067 346.584 668.026 350.62 668.026V664.026ZM336.719 654.574C336.719 651.797 337.421 649.874 338.414 648.503C339.417 647.119 340.828 646.149 342.483 645.478L340.981 641.771C338.819 642.647 336.724 644.019 335.175 646.156C333.616 648.307 332.719 651.085 332.719 654.574L336.719 654.574Z" fill="#FAA6B9"/>
<path d="M351.167 638.384V645.386" stroke="#FAA6B9" stroke-width="4" stroke-linecap="round" stroke-linejoin="round"/>
<rect x="0.719238" y="600.533" width="100" height="100" fill="#FFC0CE"/>
<path d="M35.1355 641.952C39.1951 633.804 47.2205 637.875 50.7279 640.213C53.2882 638.188 58.8523 634.536 64.4447 639.458C73.2001 647.164 56.9911 664.067 50.7279 664.067C43.7963 664.067 31.4257 649.399 35.1355 641.952Z" fill="#FAA6B9" stroke="#FAA6B9" stroke-width="3"/>
<rect x="100.719" y="700.533" width="100" height="100" fill="#FFC0CE"/>
<path d="M135.136 741.952C139.195 733.804 147.221 737.875 150.728 740.213C153.288 738.188 158.852 734.536 164.445 739.458C173.2 747.164 156.991 764.067 150.728 764.067C143.796 764.067 131.426 749.399 135.136 741.952Z" fill="#FAA6B9" stroke="#FAA6B9" stroke-width="3"/>
<rect x="300.719" y="700.533" width="100" height="100" fill="#FFC0CE"/>
<path d="M335.136 741.952C339.195 733.804 347.221 737.875 350.728 740.213C353.288 738.188 358.852 734.536 364.445 739.458C373.2 747.164 356.991 764.067 350.728 764.067C343.796 764.067 331.426 749.399 335.136 741.952Z" fill="#FAA6B9" stroke="#FAA6B9" stroke-width="3"/>
<rect x="200.719" y="600.533" width="100" height="100" fill="#FFC0CE"/>
<path d="M235.136 641.952C239.195 633.804 247.221 637.875 250.728 640.213C253.288 638.188 258.852 634.536 264.445 639.458C273.2 647.164 256.991 664.067 250.728 664.067C243.796 664.067 231.426 649.399 235.136 641.952Z" fill="#FAA6B9" stroke="#FAA6B9" stroke-width="3"/>
</g>
<defs>
<clipPath id="clip0_126_6976">
<rect width="400" height="800" fill="white" transform="translate(0.719238 0.533203)"/>
</clipPath>
</defs>
</svg>
