<svg width="49" height="49" viewBox="0 0 49 49" fill="none" xmlns="http://www.w3.org/2000/svg">
<path fill-rule="evenodd" clip-rule="evenodd" d="M13.2114 10.1579C13.2114 6.99215 15.7777 4.42578 18.9435 4.42578C22.1093 4.42578 24.6756 6.99215 24.6756 10.1579V14.1025C24.8668 14.0992 25.0595 14.0974 25.2538 14.097V10.1609C25.2538 6.99508 27.8202 4.42871 30.986 4.42871C34.1518 4.42871 36.7181 6.99508 36.7181 10.1609V16.6221C43.0955 20.0108 45.2566 26.0199 45.2566 29.6262C45.2566 34.8601 42.91 43.7174 25.3173 43.7174C7.72464 43.7174 4.67281 35.6653 4.67285 29.6262C4.67285 25.2374 7.15691 19.8356 13.2114 16.6975V10.1579Z" fill="#C1BCB5"/>
<path d="M24.6756 14.1025H23.1756C23.1756 14.5048 23.3373 14.8902 23.6242 15.1722C23.9111 15.4543 24.2993 15.6092 24.7015 15.6023L24.6756 14.1025ZM25.2538 14.097L25.2564 15.597C26.0838 15.5956 26.7538 14.9245 26.7538 14.097H25.2538ZM30.986 4.42871L30.986 2.92871L30.986 4.42871ZM36.7181 16.6221H35.2181C35.2181 17.1769 35.5244 17.6864 36.0143 17.9467L36.7181 16.6221ZM4.67285 29.6262L6.17285 29.6262V29.6262H4.67285ZM13.2114 16.6975L13.9016 18.0292C14.3991 17.7714 14.7114 17.2578 14.7114 16.6975H13.2114ZM18.9435 2.92578C14.9493 2.92578 11.7114 6.16372 11.7114 10.1579H14.7114C14.7114 7.82058 16.6062 5.92578 18.9435 5.92578V2.92578ZM26.1756 10.1579C26.1756 6.16372 22.9377 2.92578 18.9435 2.92578V5.92578C21.2809 5.92578 23.1756 7.82058 23.1756 10.1579H26.1756ZM26.1756 14.1025V10.1579H23.1756V14.1025H26.1756ZM25.2513 12.597C25.0493 12.5974 24.8488 12.5993 24.6498 12.6027L24.7015 15.6023C24.8848 15.5991 25.0698 15.5973 25.2564 15.597L25.2513 12.597ZM26.7538 14.097V10.1609H23.7538V14.097H26.7538ZM26.7538 10.1609C26.7538 7.82351 28.6486 5.92871 30.986 5.92871L30.986 2.92871C26.9918 2.92871 23.7538 6.16665 23.7538 10.1609H26.7538ZM30.986 5.92871C33.3233 5.92871 35.2181 7.82351 35.2181 10.1609H38.2181C38.2181 6.16665 34.9802 2.92871 30.986 2.92871L30.986 5.92871ZM35.2181 10.1609V16.6221H38.2181V10.1609H35.2181ZM46.7566 29.6262C46.7566 25.5334 44.3469 18.977 37.422 15.2975L36.0143 17.9467C41.8442 21.0445 43.7566 26.5063 43.7566 29.6262H46.7566ZM25.3173 45.2174C34.3457 45.2174 39.7906 42.9435 42.9603 39.6795C46.1255 36.4203 46.7566 32.4455 46.7566 29.6262H43.7566C43.7566 32.0408 43.2145 35.1116 40.8082 37.5895C38.4064 40.0627 33.8817 42.2174 25.3173 42.2174V45.2174ZM3.17285 29.6262C3.17283 32.8883 4.00139 36.8812 7.37368 40.0324C10.7229 43.1622 16.323 45.2174 25.3173 45.2174V42.2174C16.719 42.2174 11.9968 40.2466 9.42196 37.8405C6.87017 35.456 6.17283 32.4032 6.17285 29.6262L3.17285 29.6262ZM12.5211 15.3657C5.95903 18.767 3.17285 24.6886 3.17285 29.6262H6.17285C6.17285 25.7861 8.35479 20.9043 13.9016 18.0292L12.5211 15.3657ZM11.7114 10.1579V16.6975H14.7114V10.1579H11.7114Z" fill="#797670"/>
<circle cx="17.657" cy="26.9309" r="1.82837" fill="#797670" stroke="#797670"/>
<circle cx="32.3225" cy="26.9309" r="1.82837" fill="#797670" stroke="#797670"/>
<path d="M20.0244 33.8926C21.8599 36.4246 27.92 37.1086 30.6357 33.8926" stroke="#797670" stroke-width="3" stroke-linecap="round" stroke-linejoin="round"/>
</svg>
