<svg width="49" height="48" viewBox="0 0 49 48" fill="none" xmlns="http://www.w3.org/2000/svg">
<rect x="6.15381" y="7.67578" width="37.5433" height="32.2251" rx="2.5" fill="#FEFAE6" stroke="#3D2505" stroke-width="3"/>
<mask id="path-2-inside-1_128_597" fill="white">
<path fill-rule="evenodd" clip-rule="evenodd" d="M28.2595 6.29102L4.65381 29.3435V18.2056L16.8543 6.29102H28.2595Z"/>
</mask>
<path fill-rule="evenodd" clip-rule="evenodd" d="M28.2595 6.29102L4.65381 29.3435V18.2056L16.8543 6.29102H28.2595Z" fill="#FEACB1"/>
<path d="M28.2595 6.29102L30.3555 8.43734L35.6253 3.29102L28.2595 3.29102V6.29102ZM4.65381 29.3435H1.65381V36.4664L6.74983 31.4898L4.65381 29.3435ZM4.65381 18.2056L2.55779 16.0592L1.65381 16.942V18.2056H4.65381ZM16.8543 6.29102V3.29102H15.6324L14.7583 4.14469L16.8543 6.29102ZM26.1635 4.14469L2.55779 27.1971L6.74983 31.4898L30.3555 8.43734L26.1635 4.14469ZM7.65381 29.3435V18.2056H1.65381V29.3435H7.65381ZM6.74983 20.3519L18.9503 8.43734L14.7583 4.14469L2.55779 16.0592L6.74983 20.3519ZM16.8543 9.29102H28.2595V3.29102H16.8543V9.29102Z" fill="#3D2505" mask="url(#path-2-inside-1_128_597)"/>
<mask id="path-4-inside-2_128_597" fill="white">
<path fill-rule="evenodd" clip-rule="evenodd" d="M19.1155 41.4795L45.1973 16.009L45.1973 30.0881L33.5325 41.4795L19.1155 41.4795Z"/>
</mask>
<path fill-rule="evenodd" clip-rule="evenodd" d="M19.1155 41.4795L45.1973 16.009L45.1973 30.0881L33.5325 41.4795L19.1155 41.4795Z" fill="#FEACB1"/>
<path d="M19.1155 41.4795L17.0195 39.3332L11.7497 44.4795L19.1155 44.4795L19.1155 41.4795ZM45.1973 16.009L48.1973 16.009L48.1973 8.8861L43.1012 13.8627L45.1973 16.009ZM45.1973 30.0881L47.2933 32.2344L48.1973 31.3516L48.1973 30.0881L45.1973 30.0881ZM33.5325 41.4795L33.5325 44.4795L34.7543 44.4795L35.6285 43.6258L33.5325 41.4795ZM21.2115 43.6258L47.2933 18.1553L43.1012 13.8627L17.0195 39.3332L21.2115 43.6258ZM42.1973 16.009L42.1973 30.0881L48.1973 30.0881L48.1973 16.009L42.1973 16.009ZM43.1012 27.9418L31.4365 39.3332L35.6285 43.6258L47.2933 32.2344L43.1012 27.9418ZM33.5325 38.4795L19.1155 38.4795L19.1155 44.4795L33.5325 44.4795L33.5325 38.4795Z" fill="#3D2505" mask="url(#path-4-inside-2_128_597)"/>
<path d="M4.10003 18.9137L6.68673 22.8535C7.60569 24.2532 9.63273 24.4007 10.7283 23.1477L14.7074 18.5967C15.4299 17.7703 15.5097 16.5721 14.9037 15.649L14.0538 14.3546C13.4211 13.3909 12.2022 12.9705 11.1031 13.3369L5.38717 15.2425C3.8426 15.7575 3.21085 17.5594 4.10003 18.9137Z" fill="#FEACB1" stroke="#3D2505" stroke-width="3"/>
<path d="M21.8131 7.78156L24.3998 11.7214C25.3188 13.121 24.6101 14.9815 22.9869 15.4308L17.0913 17.0628C16.0207 17.3591 14.8724 16.9299 14.2664 16.0068L13.4165 14.7124C12.7838 13.7487 12.9013 12.4915 13.701 11.6691L17.8597 7.39173C18.9835 6.2359 20.924 6.42724 21.8131 7.78156Z" fill="#FEACB1" stroke="#3D2505" stroke-width="3"/>
<rect x="-2.0946" y="-0.457856" width="7.22887" height="7.18723" rx="2.5" transform="matrix(0.847564 -0.530694 0.548835 0.835931 11.2601 13.5027)" fill="#FEACB1" stroke="#3D2505" stroke-width="3"/>
</svg>
