<svg width="49" height="48" viewBox="0 0 49 48" fill="none" xmlns="http://www.w3.org/2000/svg">
<path fill-rule="evenodd" clip-rule="evenodd" d="M12.081 10.0866C12.081 6.92086 14.6474 4.35449 17.8132 4.35449C20.9789 4.35449 23.5453 6.92086 23.5453 10.0866V14.0686C24.1209 14.0402 24.7115 14.0257 25.3173 14.0257C25.6779 14.0257 26.0325 14.0313 26.3813 14.0425V10.0893C26.3813 6.92357 28.9477 4.3572 32.1134 4.3572C35.2792 4.3572 37.8456 6.92357 37.8456 10.0893V17.2034C43.3528 20.6683 45.2566 26.17 45.2566 29.5549C45.2566 34.7888 42.91 43.6462 25.3173 43.6462C7.72464 43.6462 4.67281 35.594 4.67285 29.5549C4.67285 25.4499 6.84595 20.4589 12.081 17.2627V10.0866Z" fill="#894E00"/>
<path d="M23.5453 14.0686H22.0453C22.0453 14.4792 22.2136 14.8719 22.5111 15.155C22.8085 15.4381 23.2089 15.5869 23.6191 15.5668L23.5453 14.0686ZM26.3813 14.0425L26.3335 15.5417C26.7394 15.5546 27.1332 15.4024 27.4249 15.1199C27.7166 14.8373 27.8813 14.4486 27.8813 14.0425H26.3813ZM32.1134 4.3572L32.1134 2.8572L32.1134 4.3572ZM37.8456 17.2034H36.3456C36.3456 17.719 36.6104 18.1985 37.0468 18.473L37.8456 17.2034ZM4.67285 29.5549L6.17285 29.5549L6.17285 29.5549L4.67285 29.5549ZM12.081 17.2627L12.8627 18.5429C13.3088 18.2705 13.581 17.7854 13.581 17.2627H12.081ZM17.8132 2.85449C13.819 2.85449 10.581 6.09243 10.581 10.0866H13.581C13.581 7.74929 15.4758 5.85449 17.8132 5.85449L17.8132 2.85449ZM25.0453 10.0866C25.0453 6.09243 21.8074 2.85449 17.8132 2.85449L17.8132 5.85449C20.1505 5.85449 22.0453 7.74929 22.0453 10.0866H25.0453ZM25.0453 14.0686V10.0866H22.0453V14.0686H25.0453ZM25.3173 12.5257C24.6875 12.5257 24.0723 12.5408 23.4715 12.5704L23.6191 15.5668C24.1695 15.5397 24.7355 15.5257 25.3173 15.5257V12.5257ZM26.4291 12.5432C26.0641 12.5316 25.6936 12.5257 25.3173 12.5257V15.5257C25.6622 15.5257 26.0009 15.5311 26.3335 15.5417L26.4291 12.5432ZM27.8813 14.0425V10.0893H24.8813V14.0425H27.8813ZM27.8813 10.0893C27.8813 7.752 29.7761 5.8572 32.1134 5.8572L32.1134 2.8572C28.1192 2.8572 24.8813 6.09514 24.8813 10.0893H27.8813ZM32.1134 5.8572C34.4508 5.8572 36.3456 7.752 36.3456 10.0893H39.3456C39.3456 6.09514 36.1076 2.8572 32.1134 2.8572L32.1134 5.8572ZM36.3456 10.0893V17.2034H39.3456V10.0893H36.3456ZM46.7566 29.5549C46.7566 25.7097 44.6328 19.7015 38.6444 15.9338L37.0468 18.473C42.0727 21.6351 43.7566 26.6303 43.7566 29.5549H46.7566ZM25.3173 45.1462C34.3457 45.1462 39.7906 42.8722 42.9603 39.6083C46.1255 36.349 46.7566 32.3742 46.7566 29.5549H43.7566C43.7566 31.9695 43.2145 35.0403 40.8082 37.5182C38.4064 39.9914 33.8817 42.1462 25.3173 42.1462V45.1462ZM3.17285 29.5549C3.17283 32.817 4.00139 36.8099 7.37368 39.9612C10.7229 43.0909 16.323 45.1462 25.3173 45.1462V42.1462C16.719 42.1462 11.9968 40.1753 9.42196 37.7692C6.87017 35.3847 6.17283 32.3319 6.17285 29.5549L3.17285 29.5549ZM11.2994 15.9824C5.6081 19.4572 3.17285 24.939 3.17285 29.5549L6.17285 29.5549C6.17285 25.9609 8.0838 21.4606 12.8627 18.5429L11.2994 15.9824ZM10.581 10.0866V17.2627H13.581V10.0866H10.581Z" fill="#3D2505"/>
<circle cx="17.0802" cy="25.712" r="1.99519" fill="#FEFAE6" stroke="#FEFAE6"/>
<circle cx="32.8497" cy="25.712" r="1.99519" fill="#FEFAE6" stroke="#FEFAE6"/>
<path d="M17.3408 33.4893C19.812 36.1312 27.2596 37.5107 32.8491 33.4893" stroke="#FEFAE6" stroke-width="3" stroke-linecap="round" stroke-linejoin="round"/>
</svg>
