<svg width="49" height="49" viewBox="0 0 49 49" fill="none" xmlns="http://www.w3.org/2000/svg">
<g clip-path="url(#clip0_128_773)">
<rect x="5.53418" y="16.752" width="36.3792" height="28.6223" rx="2.5" fill="#C1BCB5" stroke="#797670" stroke-width="3"/>
<path fill-rule="evenodd" clip-rule="evenodd" d="M17.114 23.7259C17.114 22.1018 18.4306 20.7852 20.0547 20.7852C21.6788 20.7852 22.9955 22.1018 22.9955 23.7259V25.5743C23.2908 25.5604 23.5938 25.5532 23.9046 25.5532C24.0895 25.5532 24.2714 25.556 24.4503 25.5615V23.7277C24.4503 22.1036 25.7669 20.787 27.391 20.787C29.0151 20.787 30.3317 22.1036 30.3317 23.7277V27.1196C33.1572 28.8276 34.134 31.5398 34.134 33.2085C34.134 35.7886 32.9301 40.1549 23.9046 40.1549C14.8791 40.1549 13.3135 36.1855 13.3135 33.2085C13.3135 31.1849 14.4283 28.7246 17.114 27.1489V23.7259Z" fill="#C1BCB5"/>
<path d="M20.0547 20.7852L20.0547 22.2852L20.0547 20.7852ZM22.9955 25.5743H21.4955C21.4955 25.9845 21.6634 26.3767 21.9602 26.6598C22.2569 26.9428 22.6567 27.092 23.0663 27.0727L22.9955 25.5743ZM24.4503 25.5615L24.4044 27.0607C24.81 27.0732 25.2033 26.9207 25.4946 26.6382C25.7859 26.3557 25.9503 25.9672 25.9503 25.5615H24.4503ZM27.391 20.787L27.391 19.287L27.391 20.787ZM30.3317 27.1196H28.8317C28.8317 27.6447 29.1063 28.1316 29.5557 28.4032L30.3317 27.1196ZM13.3135 33.2085L14.8135 33.2085L14.8135 33.2085L13.3135 33.2085ZM17.114 27.1489L17.873 28.4427C18.332 28.1734 18.614 27.6811 18.614 27.1489H17.114ZM20.0547 19.2852C17.6022 19.2852 15.614 21.2733 15.614 23.7259H18.614C18.614 22.9302 19.259 22.2852 20.0547 22.2852L20.0547 19.2852ZM24.4955 23.7259C24.4955 21.2733 22.5073 19.2852 20.0547 19.2852L20.0547 22.2852C20.8504 22.2852 21.4955 22.9302 21.4955 23.7259H24.4955ZM24.4955 25.5743V23.7259H21.4955V25.5743H24.4955ZM23.9046 24.0532C23.5707 24.0532 23.2441 24.0609 22.9246 24.076L23.0663 27.0727C23.3375 27.0598 23.6168 27.0532 23.9046 27.0532V24.0532ZM24.4961 24.0622C24.3018 24.0562 24.1046 24.0532 23.9046 24.0532V27.0532C24.0745 27.0532 24.2411 27.0558 24.4044 27.0607L24.4961 24.0622ZM25.9503 25.5615V23.7277H22.9503V25.5615H25.9503ZM25.9503 23.7277C25.9503 22.932 26.5953 22.287 27.391 22.287L27.391 19.287C24.9385 19.287 22.9503 21.2752 22.9503 23.7277H25.9503ZM27.391 22.287C28.1867 22.287 28.8317 22.932 28.8317 23.7277H31.8317C31.8317 21.2752 29.8436 19.287 27.391 19.287L27.391 22.287ZM28.8317 23.7277V27.1196H31.8317V23.7277H28.8317ZM35.634 33.2085C35.634 31.0522 34.4137 27.8344 31.1077 25.8359L29.5557 28.4032C31.9007 29.8208 32.634 32.0275 32.634 33.2085H35.634ZM23.9046 41.6549C28.6344 41.6549 31.6436 40.5117 33.4589 38.7155C35.2812 36.9124 35.634 34.7153 35.634 33.2085H32.634C32.634 34.2818 32.3848 35.5579 31.3488 36.583C30.3058 37.615 28.2004 38.6549 23.9046 38.6549V41.6549ZM11.8135 33.2085C11.8135 34.9563 12.2801 37.1703 14.2223 38.9142C16.1292 40.6264 19.2067 41.6549 23.9046 41.6549V38.6549C19.577 38.6549 17.359 37.6988 16.2266 36.682C15.1296 35.697 14.8135 34.4377 14.8135 33.2085L11.8135 33.2085ZM16.355 25.8552C13.2166 27.6964 11.8135 30.6455 11.8135 33.2085L14.8135 33.2085C14.8135 31.7244 15.64 29.7528 17.873 28.4427L16.355 25.8552ZM15.614 23.7259V27.1489H18.614V23.7259H15.614Z" fill="#797670"/>
<path d="M22.0541 36.2149C20.8951 35.544 21.7855 32.9301 22.3755 31.707L25.7588 33.6654C25.0068 34.7948 23.2131 36.8857 22.0541 36.2149Z" fill="#797670" stroke="#797670" stroke-width="3" stroke-linejoin="round"/>
<path d="M26.7869 13.6998C30.2115 9.2956 34.3028 10.8371 36.0761 11.8635C37.9114 12.9259 41.3113 15.7882 39.0969 20.8253C36.3288 27.1216 28.1434 35.8675 23.83 33.0198C19.4513 30.4853 22.5061 19.205 26.7869 13.6998Z" fill="#C1BCB5" stroke="#797670" stroke-width="3" stroke-linejoin="round"/>
<path d="M36.2913 4.06107C37.6348 4.28965 37.5603 5.57142 37.3997 6.11922C37.663 5.35627 38.5708 4.05094 40.0952 4.93329C41.6195 5.81564 40.9149 7.21764 40.3552 7.83004C40.7758 7.36992 41.764 6.80497 42.7558 7.80295C43.7533 8.80666 41.7866 11.1249 41.0299 11.7027C40.0776 12.4298 39.4927 12.8359 38.558 13.1537C36.0564 12.7096 34.2394 11.0722 33.6435 10.309C33.2264 9.3561 33.3833 7.94332 33.6255 7.15005C33.9559 6.06815 34.9574 3.83411 36.2913 4.06107Z" fill="#C1BCB5" stroke="#797670" stroke-width="3" stroke-linejoin="round"/>
</g>
<defs>
<clipPath id="clip0_128_773">
<rect width="48" height="48" fill="white" transform="translate(0.473633 0.180664)"/>
</clipPath>
</defs>
</svg>
