<svg width="49" height="48" viewBox="0 0 49 48" fill="none" xmlns="http://www.w3.org/2000/svg">
<g clip-path="url(#clip0_128_573)">
<rect x="5.53418" y="16.5713" width="36.3792" height="28.6223" rx="2.5" fill="#D9D9D9" stroke="#3D2505" stroke-width="3"/>
<path fill-rule="evenodd" clip-rule="evenodd" d="M17.114 23.5452C17.114 21.9211 18.4306 20.6045 20.0547 20.6045C21.6788 20.6045 22.9955 21.9211 22.9955 23.5452V25.3937C23.2908 25.3797 23.5938 25.3725 23.9046 25.3725C24.0895 25.3725 24.2714 25.3753 24.4503 25.3808V23.547C24.4503 21.9229 25.7669 20.6063 27.391 20.6063C29.0151 20.6063 30.3317 21.9229 30.3317 23.547V26.9389C33.1572 28.647 34.134 31.3592 34.134 33.0278C34.134 35.608 32.9301 39.9743 23.9046 39.9743C14.8791 39.9743 13.3135 36.0049 13.3135 33.0278C13.3135 31.0043 14.4283 28.5439 17.114 26.9683V23.5452Z" fill="#894E00"/>
<path d="M20.0547 20.6045L20.0547 22.1045L20.0547 20.6045ZM22.9955 25.3937H21.4955C21.4955 25.8038 21.6634 26.196 21.9602 26.4791C22.2569 26.7622 22.6567 26.9114 23.0663 26.892L22.9955 25.3937ZM24.4503 25.3808L24.4044 26.8801C24.81 26.8925 25.2033 26.7401 25.4946 26.4575C25.7859 26.175 25.9503 25.7866 25.9503 25.3808H24.4503ZM27.391 20.6063L27.391 19.1063L27.391 20.6063ZM30.3317 26.9389H28.8317C28.8317 27.464 29.1063 27.9509 29.5557 28.2226L30.3317 26.9389ZM13.3135 33.0278L14.8135 33.0278L14.8135 33.0278L13.3135 33.0278ZM17.114 26.9683L17.873 28.2621C18.332 27.9928 18.614 27.5004 18.614 26.9683H17.114ZM20.0547 19.1045C17.6022 19.1045 15.614 21.0927 15.614 23.5452H18.614C18.614 22.7495 19.259 22.1045 20.0547 22.1045L20.0547 19.1045ZM24.4955 23.5452C24.4955 21.0927 22.5073 19.1045 20.0547 19.1045L20.0547 22.1045C20.8504 22.1045 21.4955 22.7495 21.4955 23.5452H24.4955ZM24.4955 25.3937V23.5452H21.4955V25.3937H24.4955ZM23.9046 23.8725C23.5707 23.8725 23.2441 23.8802 22.9246 23.8953L23.0663 26.892C23.3375 26.8792 23.6168 26.8725 23.9046 26.8725V23.8725ZM24.4961 23.8815C24.3018 23.8755 24.1046 23.8725 23.9046 23.8725V26.8725C24.0745 26.8725 24.2411 26.8751 24.4044 26.8801L24.4961 23.8815ZM25.9503 25.3808V23.547H22.9503V25.3808H25.9503ZM25.9503 23.547C25.9503 22.7514 26.5953 22.1063 27.391 22.1063L27.391 19.1063C24.9385 19.1063 22.9503 21.0945 22.9503 23.547H25.9503ZM27.391 22.1063C28.1867 22.1063 28.8317 22.7514 28.8317 23.547H31.8317C31.8317 21.0945 29.8436 19.1063 27.391 19.1063L27.391 22.1063ZM28.8317 23.547V26.9389H31.8317V23.547H28.8317ZM35.634 33.0278C35.634 30.8715 34.4137 27.6538 31.1077 25.6552L29.5557 28.2226C31.9007 29.6401 32.634 31.8469 32.634 33.0278H35.634ZM23.9046 41.4743C28.6344 41.4743 31.6436 40.331 33.4589 38.5349C35.2812 36.7317 35.634 34.5346 35.634 33.0278H32.634C32.634 34.1012 32.3848 35.3773 31.3488 36.4023C30.3058 37.4344 28.2004 38.4743 23.9046 38.4743V41.4743ZM11.8135 33.0278C11.8135 34.7757 12.2801 36.9896 14.2223 38.7335C16.1292 40.4458 19.2067 41.4743 23.9046 41.4743V38.4743C19.577 38.4743 17.359 37.5181 16.2266 36.5014C15.1296 35.5163 14.8135 34.257 14.8135 33.0278L11.8135 33.0278ZM16.355 25.6745C13.2166 27.5157 11.8135 30.4648 11.8135 33.0278L14.8135 33.0278C14.8135 31.5437 15.64 29.5721 17.873 28.2621L16.355 25.6745ZM15.614 23.5452V26.9683H18.614V23.5452H15.614Z" fill="#3D2505"/>
<path d="M22.0541 36.0342C20.8951 35.3633 21.7855 32.7495 22.3755 31.5264L25.7588 33.4848C25.0068 34.6141 23.2131 36.7051 22.0541 36.0342Z" fill="#3D2505" stroke="#3D2505" stroke-width="3" stroke-linejoin="round"/>
<path d="M26.7869 13.5191C30.2115 9.11493 34.3028 10.6565 36.0761 11.6829C37.9114 12.7453 41.3113 15.6075 39.0969 20.6446C36.3288 26.9409 28.1434 35.6868 23.83 32.8392C19.4513 30.3046 22.5061 19.0243 26.7869 13.5191Z" fill="#894E00" stroke="#3D2505" stroke-width="3" stroke-linejoin="round"/>
<path d="M36.2913 3.8804C37.6348 4.10899 37.5603 5.39075 37.3997 5.93856C37.663 5.1756 38.5708 3.87028 40.0952 4.75263C41.6195 5.63498 40.9149 7.03698 40.3552 7.64937C40.7758 7.18926 41.764 6.6243 42.7558 7.62229C43.7533 8.62599 41.7866 10.9442 41.0299 11.522C40.0776 12.2492 39.4927 12.6553 38.558 12.973C36.0564 12.529 34.2394 10.8916 33.6435 10.1284C33.2264 9.17544 33.3833 7.76266 33.6255 6.96938C33.9559 5.88749 34.9574 3.65344 36.2913 3.8804Z" fill="#FEFAE6" stroke="#3D2505" stroke-width="3" stroke-linejoin="round"/>
</g>
<defs>
<clipPath id="clip0_128_573">
<rect width="48" height="48" fill="white" transform="translate(0.473633)"/>
</clipPath>
</defs>
</svg>
