<svg width="49" height="48" viewBox="0 0 49 48" fill="none" xmlns="http://www.w3.org/2000/svg">
<path fill-rule="evenodd" clip-rule="evenodd" d="M13.2114 10.0866C13.2114 6.92086 15.7777 4.35449 18.9435 4.35449C22.1093 4.35449 24.6756 6.92086 24.6756 10.0866V14.0312C24.8668 14.0279 25.0595 14.0261 25.2538 14.0257V10.0896C25.2538 6.92379 27.8202 4.35742 30.986 4.35742C34.1518 4.35742 36.7181 6.92379 36.7181 10.0896V16.5508C43.0955 19.9395 45.2566 25.9486 45.2566 29.5549C45.2566 34.7888 42.91 43.6462 25.3173 43.6462C7.72464 43.6462 4.67281 35.594 4.67285 29.5549C4.67285 25.1661 7.15691 19.7643 13.2114 16.6262V10.0866Z" fill="#894E00"/>
<path d="M24.6756 14.0312H23.1756C23.1756 14.4335 23.3373 14.8189 23.6242 15.101C23.9111 15.383 24.2993 15.5379 24.7015 15.531L24.6756 14.0312ZM25.2538 14.0257L25.2564 15.5257C26.0838 15.5243 26.7538 14.8532 26.7538 14.0257H25.2538ZM30.986 4.35742L30.986 2.85742L30.986 4.35742ZM36.7181 16.5508H35.2181C35.2181 17.1056 35.5244 17.6151 36.0143 17.8754L36.7181 16.5508ZM4.67285 29.5549L6.17285 29.5549V29.5549H4.67285ZM13.2114 16.6262L13.9016 17.9579C14.3991 17.7001 14.7114 17.1865 14.7114 16.6262H13.2114ZM18.9435 2.85449C14.9493 2.85449 11.7114 6.09243 11.7114 10.0866H14.7114C14.7114 7.74929 16.6062 5.85449 18.9435 5.85449V2.85449ZM26.1756 10.0866C26.1756 6.09243 22.9377 2.85449 18.9435 2.85449V5.85449C21.2809 5.85449 23.1756 7.74929 23.1756 10.0866H26.1756ZM26.1756 14.0312V10.0866H23.1756V14.0312H26.1756ZM25.2513 12.5257C25.0493 12.5261 24.8488 12.528 24.6498 12.5314L24.7015 15.531C24.8848 15.5278 25.0698 15.5261 25.2564 15.5257L25.2513 12.5257ZM26.7538 14.0257V10.0896H23.7538V14.0257H26.7538ZM26.7538 10.0896C26.7538 7.75222 28.6486 5.85742 30.986 5.85742L30.986 2.85742C26.9918 2.85742 23.7538 6.09536 23.7538 10.0896H26.7538ZM30.986 5.85742C33.3233 5.85742 35.2181 7.75222 35.2181 10.0896H38.2181C38.2181 6.09536 34.9802 2.85742 30.986 2.85742L30.986 5.85742ZM35.2181 10.0896V16.5508H38.2181V10.0896H35.2181ZM46.7566 29.5549C46.7566 25.4621 44.3469 18.9058 37.422 15.2262L36.0143 17.8754C41.8442 20.9732 43.7566 26.435 43.7566 29.5549H46.7566ZM25.3173 45.1462C34.3457 45.1462 39.7906 42.8722 42.9603 39.6083C46.1255 36.349 46.7566 32.3742 46.7566 29.5549H43.7566C43.7566 31.9695 43.2145 35.0403 40.8082 37.5182C38.4064 39.9914 33.8817 42.1462 25.3173 42.1462V45.1462ZM3.17285 29.5549C3.17283 32.817 4.00139 36.8099 7.37368 39.9612C10.7229 43.0909 16.323 45.1462 25.3173 45.1462V42.1462C16.719 42.1462 11.9968 40.1753 9.42196 37.7692C6.87017 35.3847 6.17283 32.3319 6.17285 29.5549L3.17285 29.5549ZM12.5211 15.2945C5.95903 18.6957 3.17285 24.6173 3.17285 29.5549H6.17285C6.17285 25.7148 8.35479 20.833 13.9016 17.9579L12.5211 15.2945ZM11.7114 10.0866V16.6262H14.7114V10.0866H11.7114Z" fill="#3D2505"/>
<circle cx="17.657" cy="26.8596" r="1.82837" fill="#FEFAE6" stroke="#FEFAE6"/>
<circle cx="32.3225" cy="26.8596" r="1.82837" fill="#FEFAE6" stroke="#FEFAE6"/>
<path d="M20.0244 33.8213C21.8599 36.3533 27.92 37.0373 30.6357 33.8213" stroke="#FEFAE6" stroke-width="3" stroke-linecap="round" stroke-linejoin="round"/>
</svg>
