<svg width="231" height="111" viewBox="0 0 231 111" fill="none" xmlns="http://www.w3.org/2000/svg">
<path fill-rule="evenodd" clip-rule="evenodd" d="M35.8944 3.26465C31.4761 3.26465 27.8944 6.84637 27.8944 11.2647V66.596C20.4531 72.8957 10.6691 79.8236 2.88589 81.4513C8.89411 82.6906 19.8054 84.6773 27.8944 85.4508V100.356C27.8944 104.775 31.4761 108.356 35.8944 108.356H219.894C224.313 108.356 227.894 104.775 227.894 100.356V11.2646C227.894 6.84637 224.313 3.26465 219.894 3.26465H35.8944Z" fill="#FFF9DB"/>
<path d="M27.8944 66.596L29.5098 68.504C30.0708 68.029 30.3944 67.3311 30.3944 66.596H27.8944ZM2.88589 81.4513L2.37415 79.0042C1.21447 79.2468 0.384271 80.27 0.385897 81.4547C0.387524 82.6395 1.22053 83.6604 2.38087 83.8998L2.88589 81.4513ZM27.8944 85.4508H30.3944C30.3944 84.1622 29.415 83.0848 28.1324 82.9621L27.8944 85.4508ZM30.3944 11.2647C30.3944 8.22708 32.8568 5.76465 35.8944 5.76465V0.764648C30.0954 0.764648 25.3944 5.46566 25.3944 11.2647H30.3944ZM30.3944 66.596V11.2647H25.3944V66.596H30.3944ZM3.39764 83.8984C7.71468 82.9956 12.4004 80.6773 16.845 77.8946C21.3254 75.0895 25.73 71.7039 29.5098 68.504L26.279 64.6879C22.6176 67.7877 18.4095 71.016 14.1917 73.6567C9.93814 76.3198 5.84029 78.2794 2.37415 79.0042L3.39764 83.8984ZM28.1324 82.9621C20.1778 82.2015 9.36997 80.2361 3.39092 79.0028L2.38087 83.8998C8.41826 85.145 19.433 87.1531 27.6564 87.9394L28.1324 82.9621ZM30.3944 100.356V85.4508H25.3944V100.356H30.3944ZM35.8944 105.856C32.8568 105.856 30.3944 103.394 30.3944 100.356H25.3944C25.3944 106.155 30.0954 110.856 35.8944 110.856V105.856ZM219.894 105.856H35.8944V110.856H219.894V105.856ZM225.394 100.356C225.394 103.394 222.932 105.856 219.894 105.856V110.856C225.693 110.856 230.394 106.155 230.394 100.356H225.394ZM225.394 11.2646V100.356H230.394V11.2646H225.394ZM219.894 5.76465C222.932 5.76465 225.394 8.22708 225.394 11.2646H230.394C230.394 5.46566 225.693 0.764648 219.894 0.764648V5.76465ZM35.8944 5.76465H219.894V0.764648H35.8944V5.76465Z" fill="#3D2505"/>
</svg>
