<svg width="48" height="45" viewBox="0 0 48 45" fill="none" xmlns="http://www.w3.org/2000/svg">
<mask id="path-1-inside-1_155_11384" fill="white">
<path fill-rule="evenodd" clip-rule="evenodd" d="M32.0992 0.897461C28.4614 0.897461 25.5125 3.84643 25.5125 7.48416L25.5125 11.5951C25.1115 11.5828 24.7037 11.5765 24.2891 11.5765C23.5937 11.5765 22.9159 11.5925 22.2552 11.6238L22.2552 7.48437C22.2552 3.84664 19.3062 0.897669 15.6685 0.897669C12.0308 0.897669 9.08178 3.84664 9.08178 7.48437L9.08178 15.1493C3.0646 18.6783 0.566895 24.19 0.566895 28.723C0.566845 35.391 4.07366 44.2818 24.2891 44.2818C44.5046 44.2818 47.201 34.502 47.201 28.723C47.201 24.9857 45.0135 18.9114 38.6859 15.0857L38.6859 7.48417C38.6859 3.84643 35.7369 0.897461 32.0992 0.897461Z"/>
</mask>
<path fill-rule="evenodd" clip-rule="evenodd" d="M32.0992 0.897461C28.4614 0.897461 25.5125 3.84643 25.5125 7.48416L25.5125 11.5951C25.1115 11.5828 24.7037 11.5765 24.2891 11.5765C23.5937 11.5765 22.9159 11.5925 22.2552 11.6238L22.2552 7.48437C22.2552 3.84664 19.3062 0.897669 15.6685 0.897669C12.0308 0.897669 9.08178 3.84664 9.08178 7.48437L9.08178 15.1493C3.0646 18.6783 0.566895 24.19 0.566895 28.723C0.566845 35.391 4.07366 44.2818 24.2891 44.2818C44.5046 44.2818 47.201 34.502 47.201 28.723C47.201 24.9857 45.0135 18.9114 38.6859 15.0857L38.6859 7.48417C38.6859 3.84643 35.7369 0.897461 32.0992 0.897461Z" fill="#FEACB1"/>
<path d="M25.5125 7.48416L22.5125 7.48416L25.5125 7.48416ZM25.5125 11.5951L25.4206 14.5936C26.2318 14.6185 27.0185 14.3136 27.6011 13.7486C28.1837 13.1836 28.5125 12.4066 28.5125 11.5951L25.5125 11.5951ZM22.2552 11.6238L19.2552 11.6238C19.2552 12.444 19.591 13.2284 20.1845 13.7946C20.7781 14.3607 21.5775 14.6591 22.3968 14.6204L22.2552 11.6238ZM22.2552 7.48437H25.2552H22.2552ZM9.08178 7.48437H12.0818H9.08178ZM9.08178 15.1493L10.5995 17.7371C11.5177 17.1985 12.0818 16.2138 12.0818 15.1493L9.08178 15.1493ZM0.566895 28.723L3.56689 28.723V28.723H0.566895ZM38.6859 15.0857L35.6859 15.0857C35.6859 16.1358 36.235 17.1095 37.1337 17.6529L38.6859 15.0857ZM38.6859 7.48417H41.6859H38.6859ZM28.5125 7.48416C28.5125 5.50328 30.1183 3.89746 32.0992 3.89746V-2.10254C26.8046 -2.10254 22.5125 2.18957 22.5125 7.48416H28.5125ZM28.5125 11.5951L28.5125 7.48416L22.5125 7.48416L22.5125 11.5951L28.5125 11.5951ZM25.6043 8.59646C25.1722 8.58323 24.7339 8.57652 24.2891 8.57652V14.5765C24.6736 14.5765 25.0507 14.5823 25.4206 14.5936L25.6043 8.59646ZM24.2891 8.57652C23.5477 8.57652 22.8226 8.5936 22.1136 8.6271L22.3968 14.6204C23.0092 14.5915 23.6398 14.5765 24.2891 14.5765V8.57652ZM25.2552 11.6238L25.2552 7.48437L19.2552 7.48437L19.2552 11.6238L25.2552 11.6238ZM25.2552 7.48437C25.2552 2.18978 20.9631 -2.10233 15.6685 -2.10233V3.89767C17.6494 3.89767 19.2552 5.50349 19.2552 7.48437H25.2552ZM15.6685 -2.10233C10.3739 -2.10233 6.08178 2.18978 6.08178 7.48437H12.0818C12.0818 5.50349 13.6876 3.89767 15.6685 3.89767V-2.10233ZM6.08178 7.48437L6.08178 15.1493L12.0818 15.1493L12.0818 7.48437L6.08178 7.48437ZM7.56408 12.5615C0.6413 16.6217 -2.43311 23.1109 -2.43311 28.723H3.56689C3.56689 25.269 5.4879 20.735 10.5995 17.7371L7.56408 12.5615ZM-2.43311 28.7229C-2.43313 32.5757 -1.40592 37.42 2.84286 41.2351C7.02103 44.9867 13.8111 47.2818 24.2891 47.2818V41.2818C14.5517 41.2818 9.48062 39.1314 6.85152 36.7707C4.29305 34.4734 3.56687 31.5384 3.56689 28.723L-2.43311 28.7229ZM24.2891 47.2818C34.8308 47.2818 41.4626 44.7335 45.4359 40.802C49.4233 36.8566 50.201 32.0459 50.201 28.723H44.201C44.201 31.179 43.6305 34.1477 41.2158 36.537C38.787 38.9402 33.9629 41.2818 24.2891 41.2818V47.2818ZM50.201 28.723C50.201 24.0104 47.5266 16.9252 40.2381 12.5184L37.1337 17.6529C42.5004 20.8977 44.201 25.9611 44.201 28.723H50.201ZM35.6859 7.48417L35.6859 15.0857L41.6859 15.0857L41.6859 7.48417L35.6859 7.48417ZM32.0992 3.89746C34.0801 3.89746 35.6859 5.50329 35.6859 7.48417H41.6859C41.6859 2.18957 37.3938 -2.10254 32.0992 -2.10254V3.89746Z" fill="#F77B83" mask="url(#path-1-inside-1_155_11384)"/>
<circle cx="16.551" cy="24.9182" r="1.82837" fill="#FEFAE6" stroke="#FEFAE6"/>
<circle cx="31.2165" cy="24.9182" r="1.82837" fill="#FEFAE6" stroke="#FEFAE6"/>
<path d="M18.9183 31.8799C20.7538 34.4119 26.8139 35.0959 29.5296 31.8799" stroke="#FEFAE6" stroke-width="3" stroke-linecap="round" stroke-linejoin="round"/>
</svg>
