<svg width="49" height="46" viewBox="0 0 49 46" fill="none" xmlns="http://www.w3.org/2000/svg">
<path d="M46.6985 22.7446C46.6985 34.2081 36.8648 43.6376 24.5614 43.6376C12.258 43.6376 2.42432 34.2081 2.42432 22.7446C2.42432 11.2811 12.258 1.85156 24.5614 1.85156C36.8648 1.85156 46.6985 11.2811 46.6985 22.7446Z" fill="#FFF5BA" stroke="#DDD397" stroke-width="3"/>
<rect x="16.0211" y="11.4396" width="1.7044" height="9.0277" rx="0.852199" transform="rotate(35.7672 16.0211 11.4396)" fill="#FFBBE1" stroke="#FF6ADA" stroke-width="1.7044"/>
<rect x="37.918" y="18.8077" width="1.7044" height="8.12939" rx="0.852199" transform="rotate(115.052 37.918 18.8077)" fill="#FCEDAA" stroke="#F9D329" stroke-width="1.7044"/>
<rect x="19.2411" y="18.7696" width="1.7044" height="7.08754" rx="0.852199" transform="rotate(-28.3266 19.2411 18.7696)" fill="#96FDF9" stroke="#0EAAED" stroke-width="1.7044"/>
<rect x="29.4505" y="34.7384" width="1.7044" height="7.73206" rx="0.852199" transform="rotate(124.631 29.4505 34.7384)" fill="#A2F683" stroke="#43C215" stroke-width="1.7044"/>
<rect x="17.7219" y="27.0976" width="1.7044" height="6.32568" rx="0.852199" transform="rotate(51.6064 17.7219 27.0976)" fill="#F89543" stroke="#F06C00" stroke-width="1.7044"/>
<rect x="30.9988" y="21.5304" width="1.7044" height="6.09108" rx="0.852199" transform="rotate(24.2529 30.9988 21.5304)" fill="#E5A6D9" stroke="#CD41D9" stroke-width="1.7044"/>
<path d="M24.7874 12.2246C24.7676 11.956 24.683 11.6957 24.5412 11.4667C24.7905 11.3649 25.0119 11.204 25.1858 10.9984C25.3597 11.204 25.5812 11.3649 25.8305 11.4667C25.6887 11.6957 25.6041 11.956 25.5842 12.2246C25.3227 12.1604 25.049 12.1604 24.7874 12.2246Z" fill="#A2F683" stroke="#43C215" stroke-width="2"/>
<path d="M14.6818 23.7041C14.662 23.4355 14.5774 23.1752 14.4356 22.9462C14.6849 22.8444 14.9063 22.6835 15.0802 22.4778C15.2542 22.6835 15.4756 22.8444 15.7249 22.9462C15.5831 23.1752 15.4985 23.4355 15.4787 23.7041C15.2171 23.6399 14.9434 23.6399 14.6818 23.7041Z" fill="#FCEDAA" stroke="#F9D329" stroke-width="2"/>
<path d="M35.6567 30.2783C35.6368 30.0097 35.5523 29.7494 35.4104 29.5204C35.6597 29.4186 35.8812 29.2577 36.0551 29.0521C36.229 29.2577 36.4504 29.4186 36.6997 29.5204C36.5579 29.7494 36.4733 30.0097 36.4535 30.2783C36.1919 30.2141 35.9182 30.2141 35.6567 30.2783Z" fill="#FFBBE1" stroke="#FF6ADA" stroke-width="2"/>
</svg>
