<svg width="146" height="96" viewBox="0 0 146 96" fill="none" xmlns="http://www.w3.org/2000/svg">
<path fill-rule="evenodd" clip-rule="evenodd" d="M82.932 0.727539C70.4168 0.727539 59.5111 7.61829 53.8018 17.8128C50.0032 16.3094 45.8628 15.4833 41.5294 15.4833C25.3821 15.4833 11.914 26.954 8.82909 42.1913C3.52975 47.3343 0.23674 54.5331 0.23674 62.5011C0.23674 78.1302 12.9067 90.8002 28.5359 90.8002C33.5772 90.8002 38.3106 89.482 42.4103 87.1714C48.3387 92.5726 56.2214 95.8658 64.8733 95.8658C75.5263 95.8658 85.0132 90.8731 91.1217 83.0999C96.9031 87.9081 104.335 90.7997 112.442 90.7997C130.869 90.7997 145.807 75.862 145.807 57.4354C145.807 39.7983 132.122 25.3575 114.791 24.1524C110.561 10.5801 97.897 0.727539 82.932 0.727539Z" fill="#FFD0DA"/>
</svg>
