<svg width="177" height="116" viewBox="0 0 177 116" fill="none" xmlns="http://www.w3.org/2000/svg">
<path fill-rule="evenodd" clip-rule="evenodd" d="M20.8459 46.2457C19.5731 40.5357 19.6209 34.4427 21.2399 28.4005C26.6031 8.3848 47.1768 -3.4934 67.1925 1.86979C78.5452 4.91175 87.2801 12.847 91.7359 22.7984C99.4729 18.0762 109.055 16.4087 118.502 18.9399C131.012 22.2919 140.046 32.1396 142.949 43.8817C145.707 43.9275 148.503 44.3088 151.288 45.0549C169.596 49.9606 180.461 68.7789 175.555 87.0869C170.65 105.395 151.831 116.26 133.523 111.354C127.447 109.726 122.19 106.565 118.058 102.399C109.671 110.823 97.1339 114.651 84.8275 111.354C77.7189 109.449 71.7325 105.447 67.3556 100.192C58.7331 112.329 43.1783 118.455 27.9537 114.375C8.38867 109.133 -3.2221 89.0224 2.02034 69.4573C4.82556 58.9881 11.8879 50.7964 20.8459 46.2457Z" fill="#FFD0DA"/>
</svg>
