<svg width="24" height="24" viewBox="0 0 24 24" fill="none" xmlns="http://www.w3.org/2000/svg">
<path d="M8.16046 19.3605L11.9998 15.5211L15.8391 19.3605C16.3313 19.8526 16.9593 20.0748 17.5998 20.0748C18.2403 20.0748 18.8683 19.8526 19.3605 19.3605C19.8526 18.8683 20.0748 18.2403 20.0748 17.5998C20.0748 16.9593 19.8526 16.3313 19.3605 15.8391L15.5211 11.9998L19.3605 8.16046C19.8526 7.66834 20.0748 7.04033 20.0748 6.3998C20.0748 5.75928 19.8526 5.13127 19.3605 4.63914C18.8683 4.14702 18.2403 3.9248 17.5998 3.9248C16.9593 3.9248 16.3313 4.14702 15.8391 4.63914L11.9998 8.47848L8.16046 4.63914C7.66834 4.14702 7.04032 3.9248 6.3998 3.9248C5.75929 3.9248 5.13127 4.14702 4.63914 4.63914C4.14702 5.13127 3.9248 5.75929 3.9248 6.3998C3.9248 7.04032 4.14702 7.66834 4.63914 8.16046L8.47848 11.9998L4.63914 15.8391C4.14702 16.3313 3.9248 16.9593 3.9248 17.5998C3.9248 18.2403 4.14702 18.8683 4.63914 19.3605C5.13127 19.8526 5.75928 20.0748 6.3998 20.0748C7.04033 20.0748 7.66834 19.8526 8.16046 19.3605Z" fill="#3D2505" stroke="#3D2505" stroke-width="3"/>
<path d="M7.45336 18.6534L11.9998 14.1069L16.5463 18.6534C16.8325 18.9396 17.1974 19.0748 17.5998 19.0748C18.0022 19.0748 18.3671 18.9396 18.6534 18.6534C18.9396 18.3671 19.0748 18.0022 19.0748 17.5998C19.0748 17.1974 18.9396 16.8325 18.6534 16.5463L14.1069 11.9998L18.6534 7.45336C18.9396 7.1671 19.0748 6.8022 19.0748 6.3998C19.0748 5.99741 18.9396 5.63251 18.6534 5.34625C18.3671 5.05999 18.0022 4.9248 17.5998 4.9248C17.1974 4.9248 16.8325 5.05999 16.5463 5.34625L11.9998 9.8927L7.45336 5.34625C7.16709 5.05999 6.8022 4.9248 6.3998 4.9248C5.99741 4.9248 5.63252 5.05999 5.34625 5.34625C5.05999 5.63252 4.9248 5.99741 4.9248 6.3998C4.9248 6.8022 5.05999 7.16709 5.34625 7.45336L9.8927 11.9998L5.34625 16.5463C5.05999 16.8325 4.9248 17.1974 4.9248 17.5998C4.9248 18.0022 5.05999 18.3671 5.34625 18.6534C5.63251 18.9396 5.99741 19.0748 6.3998 19.0748C6.8022 19.0748 7.1671 18.9396 7.45336 18.6534Z" fill="white" stroke="white"/>
</svg>
