<svg width="28" height="28" viewBox="0 0 28 28" fill="none" xmlns="http://www.w3.org/2000/svg">
<path fill-rule="evenodd" clip-rule="evenodd" d="M8.53555 1.46447C6.58293 -0.488155 3.4171 -0.488155 1.46448 1.46447C-0.488138 3.41709 -0.488138 6.58291 1.46448 8.53553L6.53266 13.6037L1.46447 18.6719C-0.488156 20.6245 -0.488155 23.7904 1.46447 25.743C3.41709 27.6956 6.58291 27.6956 8.53553 25.743L13.6037 20.6748L18.6267 25.6977C20.5793 27.6504 23.7451 27.6504 25.6978 25.6977C27.6504 23.7451 27.6504 20.5793 25.6978 18.6267L20.6748 13.6037L25.6977 8.58077C27.6504 6.62815 27.6504 3.46233 25.6977 1.5097C23.7451 -0.442917 20.5793 -0.442917 18.6267 1.5097L13.6037 6.53265L8.53555 1.46447Z" fill="white"/>
</svg>
