<svg width="49" height="48" viewBox="0 0 49 48" fill="none" xmlns="http://www.w3.org/2000/svg">
<g clip-path="url(#clip0_141_1950)">
<rect x="4.71924" y="6.38477" width="33.7776" height="30.0999" rx="2.5" fill="#C1BCB5" stroke="#797670" stroke-width="3"/>
<path d="M10.6079 13.4346H30.8965" stroke="#797670" stroke-width="3" stroke-linecap="round"/>
<path d="M10.6079 21.4346H30.8965" stroke="#797670" stroke-width="3" stroke-linecap="round"/>
<path d="M10.6079 29.4346H21.5589" stroke="#797670" stroke-width="3" stroke-linecap="round"/>
<path d="M44.9738 21.9856L42.7961 20.4833C41.2414 19.4107 38.8523 20.0258 37.6166 21.817L27.8338 35.9973C27.4485 36.5558 27.2118 37.1829 27.1493 37.811L26.8619 40.6982C26.6103 43.2251 29.1295 44.7277 31.5747 43.5093L33.8745 42.3634C34.535 42.0343 35.111 41.5348 35.5296 40.928L45.4777 26.5087C46.5802 24.9108 46.3609 22.9426 44.9738 21.9856Z" fill="#C1BCB5" stroke="#797670" stroke-width="3" stroke-linecap="round" stroke-linejoin="round"/>
<mask id="path-6-outside-1_141_1950" maskUnits="userSpaceOnUse" x="23.1498" y="35.0858" width="13.5973" height="12.8315" fill="black">
<rect fill="white" x="23.1498" y="35.0858" width="13.5973" height="12.8315"/>
<path fill-rule="evenodd" clip-rule="evenodd" d="M31.8953 41.6298L31.0326 42.0596C29.6353 42.7559 28.1958 41.8972 28.3396 40.4533L28.4585 39.2588L31.8953 41.6298Z"/>
</mask>
<path fill-rule="evenodd" clip-rule="evenodd" d="M31.8953 41.6298L31.0326 42.0596C29.6353 42.7559 28.1958 41.8972 28.3396 40.4533L28.4585 39.2588L31.8953 41.6298Z" fill="#C1BCB5"/>
<path d="M31.8953 41.6298L33.2332 44.3149C34.1834 43.8415 34.8126 42.9011 34.8878 41.8421C34.9629 40.7831 34.4727 39.7633 33.5989 39.1604L31.8953 41.6298ZM31.0326 42.0596L32.3705 44.7448L32.3705 44.7448L31.0326 42.0596ZM28.3396 40.4533L31.3248 40.7505L31.3248 40.7505L28.3396 40.4533ZM28.4585 39.2588L30.1621 36.7894C29.2882 36.1865 28.1608 36.0904 27.1974 36.5367C26.2341 36.983 25.5784 37.9051 25.4733 38.9616L28.4585 39.2588ZM30.5574 38.9447L29.6947 39.3745L32.3705 44.7448L33.2332 44.3149L30.5574 38.9447ZM29.6947 39.3745C29.8182 39.313 30.1995 39.2168 30.645 39.4825C30.8604 39.611 31.0565 39.8102 31.1856 40.0678C31.3171 40.3304 31.3419 40.5789 31.3248 40.7505L25.3543 40.1561C25.1684 42.0239 26.0454 43.7253 27.5714 44.6355C29.0501 45.5175 30.8497 45.5025 32.3705 44.7448L29.6947 39.3745ZM31.3248 40.7505L31.4437 39.556L25.4733 38.9616L25.3543 40.1561L31.3248 40.7505ZM26.7549 41.7282L30.1917 44.0992L33.5989 39.1604L30.1621 36.7894L26.7549 41.7282Z" fill="#797670" mask="url(#path-6-outside-1_141_1950)"/>
</g>
<defs>
<clipPath id="clip0_141_1950">
<rect width="48" height="48" fill="white" transform="translate(0.982422)"/>
</clipPath>
</defs>
</svg>
