<svg width="49" height="48" viewBox="0 0 49 48" fill="none" xmlns="http://www.w3.org/2000/svg">
<g clip-path="url(#clip0_128_719)">
<path d="M42.8042 26.795C42.8042 29.0528 40.968 31.3602 37.3992 33.1627C33.8874 34.9364 28.966 36.0626 23.4753 36.0626C17.9847 36.0626 13.0633 34.9364 9.5515 33.1627C5.98273 31.3602 4.14648 29.0528 4.14648 26.795C4.14648 24.5372 5.98273 22.2298 9.5515 20.4273C13.0633 18.6535 17.9847 17.5273 23.4753 17.5273C28.966 17.5273 33.8874 18.6535 37.3992 20.4273C40.968 22.2298 42.8042 24.5372 42.8042 26.795Z" fill="#C1BCB5" stroke="#797670" stroke-width="2"/>
<mask id="path-2-inside-1_128_719" fill="white">
<path d="M3.14648 26.373H43.8042V26.373C43.8042 37.5642 34.6665 46.6365 23.4753 46.6365V46.6365C12.2842 46.6365 3.14648 37.5642 3.14648 26.373V26.373Z"/>
</mask>
<path d="M3.14648 26.373H43.8042V26.373C43.8042 37.5642 34.6665 46.6365 23.4753 46.6365V46.6365C12.2842 46.6365 3.14648 37.5642 3.14648 26.373V26.373Z" fill="#C1BCB5"/>
<path d="M3.14648 29.373H43.8042V23.373H3.14648V29.373ZM23.4753 43.6365C13.9284 43.6365 6.14648 35.8948 6.14648 26.373H0.146484C0.146484 39.2337 10.6399 49.6365 23.4753 49.6365V43.6365ZM40.8042 26.373C40.8042 35.8948 33.0223 43.6365 23.4753 43.6365V49.6365C36.3108 49.6365 46.8042 39.2337 46.8042 26.373H40.8042Z" fill="#797670" mask="url(#path-2-inside-1_128_719)"/>
<path d="M42.3042 26.795C42.3042 28.764 40.6875 30.9416 37.1738 32.7164C33.7455 34.4479 28.9045 35.5626 23.4753 35.5626C18.0462 35.5626 13.2052 34.4479 9.77692 32.7164C6.26315 30.9416 4.64648 28.764 4.64648 26.795C4.64648 24.8259 6.26315 22.6483 9.77692 20.8736C13.2052 19.142 18.0462 18.0273 23.4753 18.0273C28.9045 18.0273 33.7455 19.142 37.1738 20.8736C40.6875 22.6483 42.3042 24.8259 42.3042 26.795Z" fill="#C1BCB5" stroke="#797670" stroke-width="3"/>
<path d="M39.0507 30.2553C39.0507 30.6479 38.8572 31.1751 38.18 31.8134C37.4998 32.4545 36.4347 33.1009 34.9939 33.6753C32.1209 34.8206 28.0491 35.5624 23.4753 35.5624C18.9015 35.5624 14.8297 34.8206 11.9566 33.6753C10.5159 33.1009 9.45081 32.4545 8.77059 31.8134C8.09333 31.1751 7.8999 30.6479 7.8999 30.2553C7.8999 29.8627 8.09333 29.3356 8.77059 28.6973C9.45081 28.0562 10.5159 27.4097 11.9566 26.8354C14.8297 25.69 18.9015 24.9482 23.4753 24.9482C28.0491 24.9482 32.1209 25.69 34.9939 26.8354C36.4347 27.4097 37.4998 28.0562 38.18 28.6973C38.8572 29.3356 39.0507 29.8627 39.0507 30.2553Z" fill="#C1BCB5" stroke="#797670" stroke-width="3"/>
<mask id="path-6-inside-2_128_719" fill="white">
<path fill-rule="evenodd" clip-rule="evenodd" d="M33.7173 0.306447C31.3634 -0.267849 28.9007 1.15088 28.2167 3.47527L24.0613 17.5959C24.0328 17.6929 24.0078 17.79 23.9862 17.887C22.0433 18.7388 20.4682 20.4031 19.837 22.5479L18.5385 26.9606C17.9941 28.8106 19.0715 30.6809 20.945 31.138L27.838 32.8197C29.7115 33.2768 31.6716 32.1476 32.216 30.2976L33.5145 25.8849C34.1444 23.7444 33.6974 21.5904 32.488 19.9693C32.5237 19.8731 32.5562 19.7752 32.5856 19.6756L36.7409 5.55497C37.4249 3.23059 36.0712 0.880744 33.7173 0.306447Z"/>
</mask>
<path fill-rule="evenodd" clip-rule="evenodd" d="M33.7173 0.306447C31.3634 -0.267849 28.9007 1.15088 28.2167 3.47527L24.0613 17.5959C24.0328 17.6929 24.0078 17.79 23.9862 17.887C22.0433 18.7388 20.4682 20.4031 19.837 22.5479L18.5385 26.9606C17.9941 28.8106 19.0715 30.6809 20.945 31.138L27.838 32.8197C29.7115 33.2768 31.6716 32.1476 32.216 30.2976L33.5145 25.8849C34.1444 23.7444 33.6974 21.5904 32.488 19.9693C32.5237 19.8731 32.5562 19.7752 32.5856 19.6756L36.7409 5.55497C37.4249 3.23059 36.0712 0.880744 33.7173 0.306447Z" fill="#C1BCB5"/>
<path d="M28.2167 3.47527L25.3022 2.76419L25.3022 2.76419L28.2167 3.47527ZM24.0613 17.5959L26.9759 18.3069L26.9759 18.3069L24.0613 17.5959ZM23.9862 17.887L25.1342 20.5836L26.6108 19.9362L26.9513 18.4019L23.9862 17.887ZM19.837 22.5479L16.9225 21.8369L19.837 22.5479ZM18.5385 26.9606L21.453 27.6717L18.5385 26.9606ZM32.488 19.9693L29.6392 19.0603L29.089 20.5432L30.0099 21.7777L32.488 19.9693ZM31.1312 4.18634C31.3475 3.45141 32.1262 3.00284 32.8704 3.18442L34.5642 -2.57153C30.6007 -3.53854 26.4539 -1.14964 25.3022 2.76419L31.1312 4.18634ZM26.9759 18.3069L31.1312 4.18634L25.3022 2.76419L21.1468 16.8848L26.9759 18.3069ZM26.9513 18.4019C26.9583 18.3707 26.9664 18.339 26.9759 18.3069L21.1468 16.8848C21.0992 17.0468 21.0573 17.2094 21.0211 17.3722L26.9513 18.4019ZM22.7515 23.259C23.1133 22.0296 24.0119 21.0756 25.1342 20.5836L22.8382 15.1905C20.0747 16.4021 17.8231 18.7765 16.9225 21.8369L22.7515 23.259ZM21.453 27.6717L22.7515 23.259L16.9225 21.8369L15.624 26.2495L21.453 27.6717ZM21.7919 28.26C21.528 28.1956 21.3763 27.9322 21.453 27.6717L15.624 26.2495C14.6118 29.689 16.6149 33.1661 20.0981 34.0159L21.7919 28.26ZM28.6849 29.9417L21.7919 28.26L20.0981 34.0159L26.9911 35.6977L28.6849 29.9417ZM29.3015 29.5865C29.2248 29.8471 28.9488 30.0061 28.6849 29.9417L26.9911 35.6977C30.4742 36.5475 34.1183 34.4482 35.1305 31.0087L29.3015 29.5865ZM30.6 25.1739L29.3015 29.5865L35.1305 31.0087L36.4291 26.596L30.6 25.1739ZM30.0099 21.7777C30.7085 22.7142 30.9611 23.9469 30.6 25.1739L36.4291 26.596C37.3278 23.5419 36.6862 20.4667 34.966 18.1609L30.0099 21.7777ZM29.671 18.9645C29.6614 18.9974 29.6507 19.0293 29.6392 19.0603L35.3367 20.8783C35.3966 20.7169 35.4511 20.5529 35.5001 20.3866L29.671 18.9645ZM33.8264 4.8439L29.671 18.9645L35.5001 20.3866L39.6554 6.26605L33.8264 4.8439ZM32.8704 3.18442C33.6147 3.366 34.0427 4.10897 33.8264 4.8439L39.6554 6.26605C40.8072 2.3522 38.5278 -1.60451 34.5642 -2.57153L32.8704 3.18442Z" fill="#797670" mask="url(#path-6-inside-2_128_719)"/>
</g>
<defs>
<clipPath id="clip0_128_719">
<rect width="48" height="48" fill="white" transform="translate(0.982422)"/>
</clipPath>
</defs>
</svg>
