<svg width="48" height="48" viewBox="0 0 48 48" fill="none" xmlns="http://www.w3.org/2000/svg">
<g clip-path="url(#clip0_128_536)">
<ellipse cx="23.5505" cy="30.3513" rx="10.0407" ry="10.0407" fill="#894E00" stroke="#3D2505" stroke-width="3"/>
<path d="M1.81809 16.9794C2.74384 10.9534 8.69381 11.912 11.408 12.6867C12.6277 10.8727 15.4311 7.40753 20.0029 9.40525C27.1604 12.5329 20.2728 26.6229 16.278 27.9016C11.8569 29.3167 0.972116 22.4862 1.81809 16.9794Z" fill="#894E00" stroke="#3D2505" stroke-width="3"/>
<path fill-rule="evenodd" clip-rule="evenodd" d="M26.1335 7.40273C26.5494 5.85068 28.1447 4.92962 29.6967 5.34549C31.2488 5.76137 32.1699 7.35669 31.754 8.90874L31.2809 10.6744C31.5664 10.7367 31.8576 10.8073 32.1544 10.8869C32.3311 10.9342 32.5043 10.9835 32.6738 11.0345L33.1436 9.28124C33.5595 7.72919 35.1548 6.80813 36.7069 7.224C38.2589 7.63988 39.18 9.2352 38.7641 10.7872L37.8953 14.0296C40.158 16.3853 40.3969 19.2272 39.9696 20.8218C39.3089 23.2874 37.0405 27.1517 28.4155 24.8407C19.7905 22.5296 19.3107 18.3355 20.073 15.4905C20.5912 13.5566 22.2868 11.4906 25.2573 10.6728L26.1335 7.40273Z" fill="#894E00"/>
<path d="M31.2809 10.6744L29.832 10.2862C29.7258 10.6823 29.7865 11.1047 29.9999 11.4549C30.2133 11.8051 30.5608 12.0527 30.9615 12.14L31.2809 10.6744ZM32.6738 11.0345L32.2415 12.4709C32.63 12.5878 33.0494 12.5424 33.4039 12.3449C33.7584 12.1474 34.0177 11.8147 34.1227 11.4227L32.6738 11.0345ZM36.7069 7.224L37.0951 5.77511L36.7069 7.224ZM37.8953 14.0296L36.4464 13.6414C36.3105 14.1486 36.4498 14.6899 36.8135 15.0687L37.8953 14.0296ZM20.073 15.4905L21.5219 15.8787L21.5219 15.8787L20.073 15.4905ZM25.2573 10.6728L25.6555 12.119C26.1686 11.9777 26.5684 11.5751 26.7062 11.061L25.2573 10.6728ZM30.085 3.8966C27.7327 3.26632 25.3149 4.66225 24.6846 7.0145L27.5824 7.79096C27.7838 7.03911 28.5567 6.59292 29.3085 6.79438L30.085 3.8966ZM33.2029 9.29697C33.8332 6.94472 32.4372 4.52689 30.085 3.8966L29.3085 6.79438C30.0604 6.99584 30.5066 7.76866 30.3051 8.52051L33.2029 9.29697ZM32.7298 11.0627L33.2029 9.29697L30.3051 8.52051L29.832 10.2862L32.7298 11.0627ZM32.5426 9.43798C32.2236 9.35249 31.9094 9.2762 31.6002 9.20882L30.9615 12.14C31.2234 12.1971 31.4916 12.2622 31.7661 12.3358L32.5426 9.43798ZM33.1062 9.59818C32.9218 9.54266 32.7339 9.48924 32.5426 9.43798L31.7661 12.3358C31.9284 12.3792 32.0868 12.4243 32.2415 12.4709L33.1062 9.59818ZM34.1227 11.4227L34.5925 9.66947L31.6947 8.89301L31.225 10.6463L34.1227 11.4227ZM34.5925 9.66947C34.794 8.91762 35.5668 8.47143 36.3186 8.67289L37.0951 5.77511C34.7429 5.14483 32.325 6.54076 31.6947 8.89301L34.5925 9.66947ZM36.3186 8.67289C37.0705 8.87435 37.5167 9.64717 37.3152 10.399L40.213 11.1755C40.8433 8.82323 39.4474 6.4054 37.0951 5.77511L36.3186 8.67289ZM37.3152 10.399L36.4464 13.6414L39.3442 14.4178L40.213 11.1755L37.3152 10.399ZM41.4185 21.21C41.972 19.1444 41.6287 15.7512 38.9772 12.9905L36.8135 15.0687C38.6872 17.0194 38.8218 19.31 38.5207 20.4336L41.4185 21.21ZM28.0272 26.2896C32.5493 27.5013 35.7226 27.18 37.9223 25.9255C40.1306 24.6661 41.0321 22.6522 41.4185 21.21L38.5207 20.4336C38.2465 21.457 37.6834 22.6081 36.4361 23.3195C35.1801 24.0358 32.9066 24.4912 28.8037 23.3918L28.0272 26.2896ZM18.6241 15.1023C18.1758 16.7752 18.0543 19.0156 19.4671 21.1845C20.8539 23.3136 23.5359 25.0861 28.0272 26.2896L28.8037 23.3918C24.67 22.2842 22.7996 20.804 21.9809 19.5471C21.188 18.33 21.2078 17.0507 21.5219 15.8787L18.6241 15.1023ZM24.8591 9.22658C21.3826 10.1838 19.2819 12.6472 18.6241 15.1023L21.5219 15.8787C21.9004 14.4659 23.1911 12.7975 25.6555 12.119L24.8591 9.22658ZM24.6846 7.0145L23.8084 10.2845L26.7062 11.061L27.5824 7.79096L24.6846 7.0145Z" fill="#3D2505"/>
<path fill-rule="evenodd" clip-rule="evenodd" d="M28.6519 25.3455C28.2201 23.6925 29.2102 22.0025 30.8632 21.5707C32.5162 21.139 34.2063 22.1291 34.638 23.7821L35.2621 26.1719C35.5163 26.0836 35.7764 26.0044 36.0422 25.935C40.7402 24.708 45.405 26.9916 46.4611 31.0355C47.5173 35.0795 44.565 39.3525 39.867 40.5795C35.9526 41.6018 32.0614 40.1871 30.2612 37.3477L27.4346 36.5716C25.7876 36.1194 24.8194 34.4178 25.2722 32.7709C25.725 31.124 27.4272 30.1556 29.0742 30.6078L29.9074 30.8366C29.9447 30.7563 29.9834 30.6764 30.0235 30.5971L28.6519 25.3455Z" fill="#FEFAE6"/>
<path d="M28.6519 25.3455L30.1032 24.9665L28.6519 25.3455ZM34.638 23.7821L36.0893 23.403L34.638 23.7821ZM35.2621 26.1719L33.8108 26.5509C33.9165 26.9557 34.1865 27.298 34.5556 27.495C34.9246 27.6921 35.3592 27.7261 35.7544 27.5888L35.2621 26.1719ZM30.2612 37.3477L31.5281 36.5445C31.3283 36.2294 31.0182 36 30.6584 35.9012L30.2612 37.3477ZM27.4346 36.5716L27.8317 35.1251L27.8317 35.1251L27.4346 36.5716ZM25.2722 32.7709L26.7185 33.1685L26.7185 33.1685L25.2722 32.7709ZM29.0742 30.6078L28.6771 32.0543L28.6771 32.0543L29.0742 30.6078ZM29.9074 30.8366L29.5103 32.283C30.2168 32.477 30.9601 32.1322 31.2683 31.4675L29.9074 30.8366ZM30.0235 30.5971L31.362 31.2743C31.5271 30.9478 31.5673 30.5721 31.4748 30.2181L30.0235 30.5971ZM30.4842 20.1194C28.0296 20.7605 26.5595 23.27 27.2006 25.7245L30.1032 24.9665C29.8808 24.115 30.3908 23.2444 31.2423 23.0221L30.4842 20.1194ZM36.0893 23.403C35.4482 20.9485 32.9387 19.4783 30.4842 20.1194L31.2423 23.0221C32.0937 22.7997 32.9643 23.3096 33.1867 24.1611L36.0893 23.403ZM36.7135 25.7928L36.0893 23.403L33.1867 24.1611L33.8108 26.5509L36.7135 25.7928ZM35.6631 24.4837C35.3592 24.5631 35.0613 24.6537 34.7699 24.7549L35.7544 27.5888C35.9713 27.5134 36.1937 27.4458 36.4212 27.3863L35.6631 24.4837ZM47.9125 30.6565C46.5956 25.6144 40.9509 23.1027 35.6631 24.4837L36.4212 27.3863C40.5295 26.3133 44.2143 28.3687 45.0098 31.4146L47.9125 30.6565ZM40.246 42.0308C45.5338 40.6498 49.2293 35.6986 47.9125 30.6565L45.0098 31.4146C45.8053 34.4605 43.5962 38.0552 39.4879 39.1282L40.246 42.0308ZM28.9944 38.1509C31.1999 41.6297 35.808 43.1899 40.246 42.0308L39.4879 39.1282C36.0973 40.0137 32.9229 38.7446 31.5281 36.5445L28.9944 38.1509ZM30.6584 35.9012L27.8317 35.1251L27.0374 38.0181L29.8641 38.7942L30.6584 35.9012ZM27.8317 35.1251C26.9838 34.8923 26.4854 34.0164 26.7185 33.1685L23.8259 32.3733C23.1534 34.8191 24.5914 37.3465 27.0374 38.0181L27.8317 35.1251ZM26.7185 33.1685C26.9518 32.3203 27.8287 31.8213 28.6771 32.0543L29.4713 29.1613C27.0257 28.4898 24.4982 29.9278 23.8259 32.3733L26.7185 33.1685ZM28.6771 32.0543L29.5103 32.283L30.3046 29.3901L29.4713 29.1613L28.6771 32.0543ZM28.685 29.92C28.6372 30.0145 28.5911 30.1097 28.5466 30.2056L31.2683 31.4675C31.2983 31.4028 31.3295 31.3384 31.362 31.2743L28.685 29.92ZM27.2006 25.7245L28.5722 30.9762L31.4748 30.2181L30.1032 24.9665L27.2006 25.7245Z" fill="#3D2505"/>
</g>
<defs>
<clipPath id="clip0_128_536">
<rect width="48" height="48" fill="white"/>
</clipPath>
</defs>
</svg>
