<svg width="49" height="48" viewBox="0 0 49 48" fill="none" xmlns="http://www.w3.org/2000/svg">
<g clip-path="url(#clip0_128_573)">
<path d="M21.0969 43.0332C19.6692 42.2089 20.7617 38.9899 21.4863 37.4834L25.6541 39.8896C24.7299 41.281 22.5246 43.8575 21.0969 43.0332Z" fill="#3D2505" stroke="#3D2505" stroke-width="3" stroke-linejoin="round"/>
<path d="M26.8927 15.3082C31.1025 9.88175 36.1412 11.7738 38.3256 13.035C40.5865 14.3403 44.7758 17.8592 42.0566 24.0631C38.6577 31.818 28.593 42.5959 23.2791 39.0962C17.8853 35.9821 21.6304 22.0913 26.8927 15.3082Z" fill="#894E00" stroke="#3D2505" stroke-width="3" stroke-linejoin="round"/>
<path d="M38.5799 3.42925C40.2341 3.70881 40.1441 5.28683 39.9471 5.96143C40.2703 5.02183 41.386 3.41366 43.2638 4.49779C45.1416 5.58191 44.2761 7.3088 43.5879 8.06346C44.105 7.49646 45.3208 6.79962 46.5431 8.02682C47.7724 9.26106 45.3546 12.1177 44.4238 12.83C43.2524 13.7264 42.533 14.2272 41.3827 14.6196C38.3026 14.0764 36.0634 12.0632 35.3289 11.1245C34.814 9.95192 35.0053 8.2125 35.3023 7.23561C35.7076 5.90329 36.9374 3.15169 38.5799 3.42925Z" fill="#FEFAE6" stroke="#3D2505" stroke-width="3" stroke-linejoin="round"/>
<path fill-rule="evenodd" clip-rule="evenodd" d="M19.5446 3.34639C17.208 3.97246 15.8214 6.37413 16.4475 8.71067L17.2075 11.547C16.9655 11.6045 16.7207 11.6664 16.473 11.7328C16.012 11.8563 15.5659 11.9876 15.1344 12.1261L14.381 9.31447C13.7549 6.97794 11.3532 5.59133 9.01671 6.21741C6.68017 6.84348 5.29357 9.24515 5.91964 11.5817L7.28569 16.6799C4.05798 19.9752 3.40965 23.9275 4.18705 26.8288C5.33462 31.1117 9.1172 36.2187 22.1017 32.7395C35.0862 29.2603 35.135 22.5147 34.1404 18.8028C33.4943 16.3918 31.025 12.8461 26.2613 11.491L24.9089 6.44345C24.2828 4.10692 21.8811 2.72031 19.5446 3.34639Z" fill="#894E00"/>
<path d="M16.4475 8.71067L17.8964 8.32244L16.4475 8.71067ZM17.2075 11.547L17.5544 13.0064C17.9486 12.9127 18.2882 12.6634 18.4957 12.3154C18.7033 11.9674 18.7613 11.5502 18.6564 11.1588L17.2075 11.547ZM15.1344 12.1261L13.6855 12.5143C13.7917 12.9109 14.0558 13.2465 14.4163 13.443C14.7767 13.6396 15.2019 13.6798 15.5928 13.5543L15.1344 12.1261ZM14.381 9.31447L15.8299 8.92625L14.381 9.31447ZM5.91964 11.5817L7.36853 11.1935L5.91964 11.5817ZM7.28569 16.6799L8.35729 17.7295C8.72839 17.3506 8.87185 16.8039 8.73458 16.2916L7.28569 16.6799ZM4.18705 26.8288L5.63594 26.4405L5.63594 26.4405L4.18705 26.8288ZM26.2613 11.491L24.8124 11.8792C24.949 12.3889 25.3434 12.7894 25.8509 12.9337L26.2613 11.491ZM17.8964 8.32244C17.4847 6.7861 18.3965 5.20693 19.9328 4.79528L19.1563 1.8975C16.0196 2.73798 14.1581 5.96216 14.9986 9.09889L17.8964 8.32244ZM18.6564 11.1588L17.8964 8.32244L14.9986 9.09889L15.7586 11.9353L18.6564 11.1588ZM16.8607 10.0877C16.6046 10.1485 16.346 10.2139 16.0847 10.2839L16.8612 13.1817C17.0954 13.1189 17.3264 13.0605 17.5544 13.0064L16.8607 10.0877ZM16.0847 10.2839C15.6008 10.4136 15.1313 10.5517 14.676 10.6979L15.5928 13.5543C16.0005 13.4235 16.4232 13.2991 16.8612 13.1817L16.0847 10.2839ZM16.5832 11.7379L15.8299 8.92625L12.9321 9.7027L13.6855 12.5143L16.5832 11.7379ZM15.8299 8.92625C14.9894 5.78951 11.7652 3.92803 8.62848 4.76852L9.40494 7.6663C10.9413 7.25464 12.5204 8.16637 12.9321 9.7027L15.8299 8.92625ZM8.62848 4.76852C5.49175 5.609 3.63027 8.83318 4.47075 11.9699L7.36853 11.1935C6.95687 9.65712 7.8686 8.07796 9.40494 7.6663L8.62848 4.76852ZM4.47075 11.9699L5.8368 17.0681L8.73458 16.2916L7.36853 11.1935L4.47075 11.9699ZM6.2141 15.6302C2.62029 19.2993 1.82165 23.7965 2.73816 27.217L5.63594 26.4405C4.99765 24.0584 5.49568 20.651 8.35729 17.7295L6.2141 15.6302ZM2.73816 27.217C3.37906 29.6089 4.80784 32.398 8.02638 34.0324C11.2026 35.6453 15.8188 35.9759 22.4899 34.1884L21.7135 31.2906C15.4001 32.9823 11.6328 32.4991 9.38468 31.3575C7.17891 30.2374 6.14261 28.3315 5.63594 26.4405L2.73816 27.217ZM22.4899 34.1884C29.1918 32.3927 32.8732 29.6696 34.6582 26.6153C36.4483 23.5525 36.1427 20.4798 35.5893 18.4146L32.6915 19.191C33.1327 20.8376 33.3 22.9938 32.0681 25.1016C30.8313 27.2179 27.9961 29.6072 21.7135 31.2906L22.4899 34.1884ZM35.5893 18.4146C34.8165 15.5306 31.9786 11.5579 26.6718 10.0482L25.8509 12.9337C30.0715 14.1344 32.1722 17.2529 32.6915 19.191L35.5893 18.4146ZM23.46 6.83168L24.8124 11.8792L27.7102 11.1028L26.3577 6.05522L23.46 6.83168ZM19.9328 4.79528C21.4691 4.38362 23.0483 5.29535 23.46 6.83168L26.3577 6.05522C25.5173 2.91849 22.2931 1.05701 19.1563 1.8975L19.9328 4.79528Z" fill="#3D2505"/>
</g>
<defs>
<clipPath id="clip0_128_573">
<rect width="48" height="48" fill="white" transform="translate(0.473633)"/>
</clipPath>
</defs>
</svg>
