<svg width="112" height="112" viewBox="0 0 112 112" fill="none" xmlns="http://www.w3.org/2000/svg">
<path d="M79.9684 39.4446C79.9684 50.6601 69.7299 60.6002 55.999 60.6002C42.2682 60.6002 32.0297 50.6601 32.0297 39.4446C32.0297 28.2291 42.2682 18.2891 55.999 18.2891C69.7299 18.2891 79.9684 28.2291 79.9684 39.4446Z" fill="#5F4EC2" stroke="#3928A6" stroke-width="10"/>
<path d="M53.8459 34.2147C54.5239 32.1279 57.4762 32.1279 58.1543 34.2147V34.2147C58.4575 35.148 59.3272 35.7799 60.3085 35.7799V35.7799C62.5027 35.7799 63.415 38.5877 61.6399 39.8774V39.8774C60.846 40.4542 60.5138 41.4766 60.817 42.4098V42.4098C61.4951 44.4967 59.1066 46.232 57.3314 44.9423V44.9423C56.5376 44.3655 55.4626 44.3655 54.6687 44.9423V44.9423C52.8935 46.232 50.5051 44.4967 51.1831 42.4098V42.4098C51.4863 41.4766 51.1542 40.4542 50.3603 39.8774V39.8774C48.5851 38.5877 49.4974 35.7799 51.6916 35.7799V35.7799C52.6729 35.7799 53.5426 35.148 53.8459 34.2147V34.2147Z" fill="#4738A7"/>
<path d="M58.9386 72.5554C58.9386 83.7709 48.7001 93.7109 34.9693 93.7109C21.2384 93.7109 10.9999 83.7709 10.9999 72.5554C10.9999 61.3399 21.2384 51.3998 34.9693 51.3998C48.7001 51.3998 58.9386 61.3399 58.9386 72.5554Z" fill="#5F4EC2" stroke="#3928A6" stroke-width="10"/>
<path d="M32.8151 67.3254C33.4931 65.2386 36.4455 65.2386 37.1235 67.3254V67.3254C37.4267 68.2587 38.2964 68.8906 39.2777 68.8906V68.8906C41.4719 68.8906 42.3843 71.6984 40.6091 72.9881V72.9881C39.8152 73.5649 39.483 74.5873 39.7863 75.5205V75.5205C40.4643 77.6074 38.0758 79.3427 36.3007 78.0529V78.0529C35.5068 77.4762 34.4318 77.4762 33.6379 78.0529V78.0529C31.8628 79.3427 29.4743 77.6074 30.1523 75.5205V75.5205C30.4556 74.5873 30.1234 73.5649 29.3295 72.9881V72.9881C27.5543 71.6984 28.4667 68.8906 30.6609 68.8906V68.8906C31.6422 68.8906 32.5119 68.2587 32.8151 67.3254V67.3254Z" fill="#4738A7"/>
<path d="M101 72.5553C101 83.7708 90.7615 93.7109 77.0307 93.7109C63.2999 93.7109 53.0613 83.7708 53.0613 72.5553C53.0613 61.3398 63.2999 51.3998 77.0307 51.3998C90.7615 51.3998 101 61.3398 101 72.5553Z" fill="#5F4EC2" stroke="#3928A6" stroke-width="10"/>
<path d="M74.8775 67.3254C75.5556 65.2386 78.5079 65.2386 79.1859 67.3254V67.3254C79.4892 68.2587 80.3589 68.8906 81.3402 68.8906V68.8906C83.5344 68.8906 84.4467 71.6984 82.6715 72.9881V72.9881C81.8777 73.5649 81.5455 74.5873 81.8487 75.5205V75.5205C82.5267 77.6074 80.1383 79.3427 78.3631 78.053V78.053C77.5692 77.4762 76.4942 77.4762 75.7004 78.053V78.053C73.9252 79.3427 71.5367 77.6074 72.2148 75.5205V75.5205C72.518 74.5873 72.1858 73.5649 71.392 72.9881V72.9881C69.6168 71.6984 70.5291 68.8906 72.7233 68.8906V68.8906C73.7046 68.8906 74.5743 68.2587 74.8775 67.3254V67.3254Z" fill="#4738A7"/>
</svg>
