<svg width="112" height="112" viewBox="0 0 112 112" fill="none" xmlns="http://www.w3.org/2000/svg">
<path d="M57.0389 14.2756C37.1514 34.6711 5.65977 97.7241 57.0389 97.7241C103.316 97.7241 77.3174 35.0711 57.0389 14.2756Z" fill="#E7AE52"/>
<path fill-rule="evenodd" clip-rule="evenodd" d="M57.0378 6C59.2994 5.99997 61.4643 6.91036 63.0365 8.52269C74.3032 20.0766 86.6676 42.4306 90.214 62.3601C91.9806 72.2875 91.8392 83.1629 86.5666 91.8703C80.8909 101.243 70.6327 106 57.0379 106C42.5226 106 31.5418 101.457 25.5074 91.9684C19.8247 83.0331 20.0092 71.889 22.1515 61.9229C26.461 41.8746 40.1763 19.6631 51.0391 8.52284C52.6113 6.91047 54.7761 6.00003 57.0378 6ZM62.4506 20.6398C81.3194 45.5751 99.2577 97.7243 57.0379 97.7243C10.1859 97.7243 32.2442 45.2932 51.5753 20.5882C53.4431 18.2011 55.2856 16.0728 57.0379 14.2758C58.8157 16.0989 60.6374 18.2437 62.4506 20.6398Z" fill="#C48520"/>
<path d="M57.0061 14.2756C51.9246 34.6711 34.2324 97.7241 57.0061 97.7241C77.4762 97.7241 62.1875 35.0711 57.0061 14.2756Z" fill="#F1CA8C"/>
</svg>
