<svg width="901" height="502" viewBox="0 0 901 502" fill="none" xmlns="http://www.w3.org/2000/svg">
<path d="M895.452 429.77C895.452 466.773 865.455 496.77 828.452 496.77L72.4518 496.77C35.4487 496.77 5.45178 466.773 5.45178 429.77L5.45178 419.744C18.689 443.049 43.7345 458.77 72.4518 458.77L828.452 458.77C857.169 458.77 882.215 443.049 895.452 419.744V429.77Z" fill="#FFC6BD" stroke="#3D2505" stroke-width="10"/>
<mask id="path-2-inside-1_125_4852" fill="white">
<path fill-rule="evenodd" clip-rule="evenodd" d="M0.451782 400.864V72.8643C0.451782 33.0998 32.6873 0.864258 72.4518 0.864258H828.452C868.216 0.864258 900.452 33.0998 900.452 72.8643V400.864C900.452 440.629 868.216 472.864 828.452 472.864H72.4518C32.6873 472.864 0.451782 440.629 0.451782 400.864ZM84.4161 179.861C69.9416 179.861 58.2076 191.595 58.2076 206.07V267.659C58.2076 282.134 69.9416 293.868 84.4161 293.868C98.8907 293.868 110.625 282.134 110.625 267.659V206.07C110.625 191.595 98.8907 179.861 84.4161 179.861Z"/>
</mask>
<path fill-rule="evenodd" clip-rule="evenodd" d="M0.451782 400.864V72.8643C0.451782 33.0998 32.6873 0.864258 72.4518 0.864258H828.452C868.216 0.864258 900.452 33.0998 900.452 72.8643V400.864C900.452 440.629 868.216 472.864 828.452 472.864H72.4518C32.6873 472.864 0.451782 440.629 0.451782 400.864ZM84.4161 179.861C69.9416 179.861 58.2076 191.595 58.2076 206.07V267.659C58.2076 282.134 69.9416 293.868 84.4161 293.868C98.8907 293.868 110.625 282.134 110.625 267.659V206.07C110.625 191.595 98.8907 179.861 84.4161 179.861Z" fill="#FEEAE7"/>
<path d="M-9.54822 72.8643V400.864H10.4518V72.8643H-9.54822ZM72.4518 -9.13574C27.1644 -9.13574 -9.54822 27.5769 -9.54822 72.8643H10.4518C10.4518 38.6226 38.2101 10.8643 72.4518 10.8643V-9.13574ZM828.452 -9.13574H72.4518V10.8643H828.452V-9.13574ZM910.452 72.8643C910.452 27.5769 873.739 -9.13574 828.452 -9.13574V10.8643C862.693 10.8643 890.452 38.6226 890.452 72.8643H910.452ZM910.452 400.864V72.8643H890.452V400.864H910.452ZM828.452 482.864C873.739 482.864 910.452 446.152 910.452 400.864H890.452C890.452 435.106 862.693 462.864 828.452 462.864V482.864ZM72.4518 482.864H828.452V462.864H72.4518V482.864ZM-9.54822 400.864C-9.54822 446.152 27.1644 482.864 72.4518 482.864V462.864C38.2101 462.864 10.4518 435.106 10.4518 400.864H-9.54822ZM68.2076 206.07C68.2076 197.118 75.4644 189.861 84.4161 189.861V169.861C64.4187 169.861 48.2076 186.072 48.2076 206.07H68.2076ZM68.2076 267.659V206.07H48.2076V267.659H68.2076ZM84.4161 283.868C75.4644 283.868 68.2076 276.611 68.2076 267.659H48.2076C48.2076 287.657 64.4187 303.868 84.4161 303.868V283.868ZM100.625 267.659C100.625 276.611 93.3678 283.868 84.4161 283.868V303.868C104.414 303.868 120.625 287.657 120.625 267.659H100.625ZM100.625 206.07V267.659H120.625V206.07H100.625ZM84.4161 189.861C93.3678 189.861 100.625 197.118 100.625 206.07H120.625C120.625 186.072 104.414 169.861 84.4161 169.861V189.861Z" fill="#3D2505" mask="url(#path-2-inside-1_125_4852)"/>
<rect x="171.31" y="59.0762" width="230.128" height="322" rx="11" fill="#894E00" stroke="#3D2505" stroke-width="10"/>
<rect x="198.374" y="87.6553" width="72" height="114.421" rx="4" fill="#894E00"/>
<rect x="193.374" y="82.6553" width="82" height="124.421" rx="9" stroke="#3D2505" stroke-width="10"/>
<path fill-rule="evenodd" clip-rule="evenodd" d="M198.374 192.108L259.878 192.108V90.127C259.878 89.2863 259.943 88.4609 260.068 87.6553H266.374C268.583 87.6553 270.374 89.4461 270.374 91.6553V198.076C270.374 200.285 268.583 202.076 266.374 202.076H202.374C200.165 202.076 198.374 200.285 198.374 198.076V192.108Z" fill="#693E00"/>
<rect x="302.374" y="87.6553" width="72" height="114.421" rx="4" fill="#894E00"/>
<rect x="297.374" y="82.6553" width="82" height="124.421" rx="9" stroke="#3D2505" stroke-width="10"/>
<path fill-rule="evenodd" clip-rule="evenodd" d="M302.374 192.108L363.878 192.108V90.127C363.878 89.2863 363.943 88.4609 364.068 87.6553H370.374C372.583 87.6553 374.374 89.4461 374.374 91.6553V198.076C374.374 200.285 372.583 202.076 370.374 202.076H306.374C304.165 202.076 302.374 200.285 302.374 198.076V192.108Z" fill="#693E00"/>
<rect x="198.374" y="238.076" width="72" height="114.421" rx="4" fill="#894E00"/>
<rect x="193.374" y="233.076" width="82" height="124.421" rx="9" stroke="#3D2505" stroke-width="10"/>
<path fill-rule="evenodd" clip-rule="evenodd" d="M198.374 342.529L259.878 342.529V240.548C259.878 239.707 259.943 238.882 260.068 238.076H266.374C268.583 238.076 270.374 239.867 270.374 242.076V348.497C270.374 350.706 268.583 352.497 266.374 352.497H202.374C200.165 352.497 198.374 350.706 198.374 348.497V342.529Z" fill="#693E00"/>
<rect x="302.374" y="238.076" width="72" height="114.421" rx="4" fill="#894E00"/>
<rect x="297.374" y="233.076" width="82" height="124.421" rx="9" stroke="#3D2505" stroke-width="10"/>
<path fill-rule="evenodd" clip-rule="evenodd" d="M302.374 342.529L363.878 342.529V240.548C363.878 239.707 363.943 238.882 364.068 238.076H370.374C372.583 238.076 374.374 239.867 374.374 242.076V348.497C374.374 350.706 372.583 352.497 370.374 352.497H306.374C304.165 352.497 302.374 350.706 302.374 348.497V342.529Z" fill="#693E00"/>
<rect x="658.877" y="78.2106" width="121.653" height="322" rx="11" transform="rotate(7.99832 658.877 78.2106)" fill="#894E00" stroke="#3D2505" stroke-width="10"/>
<rect x="679.485" y="109.967" width="72" height="114.421" rx="4" transform="rotate(7.99832 679.485 109.967)" fill="#894E00"/>
<rect x="675.23" y="104.32" width="82" height="124.421" rx="9" transform="rotate(7.99832 675.23 104.32)" stroke="#3D2505" stroke-width="10"/>
<path fill-rule="evenodd" clip-rule="evenodd" d="M664.951 213.404L725.857 221.962L740.047 120.972C740.164 120.14 740.343 119.332 740.579 118.551L746.824 119.429C749.011 119.736 750.536 121.759 750.228 123.946L735.42 229.332C735.113 231.52 733.09 233.044 730.903 232.736L667.525 223.831C665.338 223.524 663.813 221.501 664.121 219.313L664.951 213.404Z" fill="#693E00"/>
<rect x="658.555" y="258.925" width="72" height="114.421" rx="4" transform="rotate(7.99832 658.555 258.925)" fill="#894E00"/>
<rect x="654.299" y="253.278" width="82" height="124.421" rx="9" transform="rotate(7.99832 654.299 253.278)" stroke="#3D2505" stroke-width="10"/>
<path fill-rule="evenodd" clip-rule="evenodd" d="M644.021 362.362L704.927 370.92L719.117 269.93C719.234 269.098 719.413 268.29 719.649 267.509L725.893 268.387C728.081 268.694 729.605 270.717 729.298 272.904L714.49 378.29C714.183 380.478 712.16 382.002 709.972 381.694L646.595 372.789C644.407 372.482 642.883 370.459 643.191 368.272L644.021 362.362Z" fill="#693E00"/>
<rect x="520.948" y="74.3022" width="121.653" height="322" rx="11" transform="rotate(-1.23541 520.948 74.3022)" fill="#894E00" stroke="#3D2505" stroke-width="10"/>
<rect x="546.385" y="102.341" width="72" height="114.421" rx="4" transform="rotate(-1.23541 546.385 102.341)" fill="#894E00"/>
<rect x="541.278" y="97.4498" width="82" height="124.421" rx="9" transform="rotate(-1.23541 541.278 97.4498)" stroke="#3D2505" stroke-width="10"/>
<path fill-rule="evenodd" clip-rule="evenodd" d="M548.637 206.77L610.127 205.444L607.928 103.486C607.91 102.645 607.957 101.819 608.065 101.011L614.369 100.875C616.577 100.827 618.407 102.579 618.454 104.788L620.749 211.184C620.796 213.392 619.044 215.221 616.836 215.269L552.851 216.649C550.642 216.696 548.813 214.945 548.765 212.736L548.637 206.77Z" fill="#693E00"/>
<rect x="549.628" y="252.727" width="72" height="114.421" rx="4" transform="rotate(-1.23541 549.628 252.727)" fill="#894E00"/>
<rect x="544.521" y="247.836" width="82" height="124.421" rx="9" transform="rotate(-1.23541 544.521 247.836)" stroke="#3D2505" stroke-width="10"/>
<path fill-rule="evenodd" clip-rule="evenodd" d="M551.88 357.155L613.37 355.829L611.171 253.872C611.153 253.031 611.2 252.205 611.308 251.396L617.612 251.26C619.821 251.213 621.65 252.965 621.697 255.173L623.992 361.569C624.039 363.778 622.288 365.607 620.079 365.655L556.094 367.035C553.885 367.082 552.056 365.33 552.009 363.122L551.88 357.155Z" fill="#693E00"/>
<rect x="436.98" y="91.3435" width="121.653" height="322" rx="11" transform="rotate(0.593336 436.98 91.3435)" fill="#894E00" stroke="#3D2505" stroke-width="10"/>
<rect x="461.509" y="120.179" width="72" height="114.421" rx="4" transform="rotate(0.593336 461.509 120.179)" fill="#894E00"/>
<rect x="456.561" y="115.127" width="82" height="124.421" rx="9" transform="rotate(0.593336 456.561 115.127)" stroke="#3D2505" stroke-width="10"/>
<path fill-rule="evenodd" clip-rule="evenodd" d="M460.427 224.626L521.928 225.263L522.984 123.287C522.993 122.447 523.066 121.622 523.2 120.818L529.505 120.883C531.714 120.906 533.486 122.715 533.463 124.924L532.361 231.339C532.338 233.548 530.529 235.32 528.32 235.298L464.324 234.635C462.115 234.612 460.342 232.803 460.365 230.594L460.427 224.626Z" fill="#693E00"/>
<rect x="459.951" y="270.592" width="72" height="114.421" rx="4" transform="rotate(0.593336 459.951 270.592)" fill="#894E00"/>
<rect x="455.003" y="265.54" width="82" height="124.421" rx="9" transform="rotate(0.593336 455.003 265.54)" stroke="#3D2505" stroke-width="10"/>
<path fill-rule="evenodd" clip-rule="evenodd" d="M458.869 375.039L520.371 375.676L521.427 273.7C521.435 272.86 521.509 272.035 521.642 271.231L527.947 271.296C530.156 271.319 531.929 273.128 531.906 275.337L530.804 381.752C530.781 383.961 528.972 385.734 526.763 385.711L462.766 385.048C460.557 385.025 458.785 383.216 458.808 381.007L458.869 375.039Z" fill="#693E00"/>
</svg>
