<svg width="901" height="501" viewBox="0 0 901 501" fill="none" xmlns="http://www.w3.org/2000/svg">
<path d="M895.452 428.922C895.452 465.925 865.455 495.922 828.452 495.922L72.4518 495.922C35.4487 495.922 5.45178 465.925 5.45178 428.922L5.45178 418.896C18.689 442.201 43.7345 457.922 72.4518 457.922L828.452 457.922C857.169 457.922 882.215 442.201 895.452 418.896V428.922Z" fill="#FFC6BD" stroke="#3D2505" stroke-width="10"/>
<mask id="path-2-inside-1_125_4709" fill="white">
<path fill-rule="evenodd" clip-rule="evenodd" d="M0.451782 400.017V72.0166C0.451782 32.2521 32.6873 0.0166016 72.4518 0.0166016H828.452C868.216 0.0166016 900.452 32.2521 900.452 72.0166V400.017C900.452 439.781 868.216 472.017 828.452 472.017H72.4518C32.6873 472.017 0.451782 439.781 0.451782 400.017ZM84.4161 179.014C69.9416 179.014 58.2076 190.748 58.2076 205.222V266.812C58.2076 281.286 69.9416 293.02 84.4161 293.02C98.8907 293.02 110.625 281.286 110.625 266.812V205.222C110.625 190.748 98.8907 179.014 84.4161 179.014Z"/>
</mask>
<path fill-rule="evenodd" clip-rule="evenodd" d="M0.451782 400.017V72.0166C0.451782 32.2521 32.6873 0.0166016 72.4518 0.0166016H828.452C868.216 0.0166016 900.452 32.2521 900.452 72.0166V400.017C900.452 439.781 868.216 472.017 828.452 472.017H72.4518C32.6873 472.017 0.451782 439.781 0.451782 400.017ZM84.4161 179.014C69.9416 179.014 58.2076 190.748 58.2076 205.222V266.812C58.2076 281.286 69.9416 293.02 84.4161 293.02C98.8907 293.02 110.625 281.286 110.625 266.812V205.222C110.625 190.748 98.8907 179.014 84.4161 179.014Z" fill="#FEEAE7"/>
<path d="M-9.54822 72.0166V400.017H10.4518V72.0166H-9.54822ZM72.4518 -9.9834C27.1644 -9.9834 -9.54822 26.7292 -9.54822 72.0166H10.4518C10.4518 37.7749 38.2101 10.0166 72.4518 10.0166V-9.9834ZM828.452 -9.9834H72.4518V10.0166H828.452V-9.9834ZM910.452 72.0166C910.452 26.7293 873.739 -9.9834 828.452 -9.9834V10.0166C862.693 10.0166 890.452 37.775 890.452 72.0166H910.452ZM910.452 400.017V72.0166H890.452V400.017H910.452ZM828.452 482.017C873.739 482.017 910.452 445.304 910.452 400.017H890.452C890.452 434.258 862.693 462.017 828.452 462.017V482.017ZM72.4518 482.017H828.452V462.017H72.4518V482.017ZM-9.54822 400.017C-9.54822 445.304 27.1644 482.017 72.4518 482.017V462.017C38.2101 462.017 10.4518 434.258 10.4518 400.017H-9.54822ZM68.2076 205.222C68.2076 196.27 75.4644 189.014 84.4161 189.014V169.014C64.4187 169.014 48.2076 185.225 48.2076 205.222H68.2076ZM68.2076 266.812V205.222H48.2076V266.812H68.2076ZM84.4161 283.02C75.4644 283.02 68.2076 275.763 68.2076 266.812H48.2076C48.2076 286.809 64.4187 303.02 84.4161 303.02V283.02ZM100.625 266.812C100.625 275.763 93.3678 283.02 84.4161 283.02V303.02C104.414 303.02 120.625 286.809 120.625 266.812H100.625ZM100.625 205.222V266.812H120.625V205.222H100.625ZM84.4161 189.014C93.3678 189.014 100.625 196.27 100.625 205.222H120.625C120.625 185.225 104.414 169.014 84.4161 169.014V189.014Z" fill="#3D2505" mask="url(#path-2-inside-1_125_4709)"/>
<rect x="191.469" y="75.0166" width="437.485" height="322" rx="11" fill="#894E00" stroke="#3D2505" stroke-width="10"/>
<rect x="215.032" y="103.597" width="72" height="114.421" rx="4" fill="#894E00"/>
<rect x="210.032" y="98.5967" width="82" height="124.421" rx="9" stroke="#3D2505" stroke-width="10"/>
<path fill-rule="evenodd" clip-rule="evenodd" d="M215.032 208.05L276.536 208.05V106.068C276.536 105.228 276.601 104.402 276.726 103.597H283.032C285.241 103.597 287.032 105.388 287.032 107.597V214.018C287.032 216.227 285.241 218.018 283.032 218.018H219.032C216.822 218.018 215.032 216.227 215.032 214.018V208.05Z" fill="#693E00"/>
<rect x="319.032" y="103.597" width="72" height="114.421" rx="4" fill="#894E00"/>
<rect x="314.032" y="98.5967" width="82" height="124.421" rx="9" stroke="#3D2505" stroke-width="10"/>
<path fill-rule="evenodd" clip-rule="evenodd" d="M319.032 208.05L380.536 208.05V106.068C380.536 105.228 380.601 104.402 380.726 103.597H387.032C389.241 103.597 391.032 105.388 391.032 107.597V214.018C391.032 216.227 389.241 218.018 387.032 218.018H323.032C320.822 218.018 319.032 216.227 319.032 214.018V208.05Z" fill="#693E00"/>
<rect x="423.032" y="103.597" width="72" height="114.421" rx="4" fill="#894E00"/>
<rect x="418.032" y="98.5967" width="82" height="124.421" rx="9" stroke="#3D2505" stroke-width="10"/>
<path fill-rule="evenodd" clip-rule="evenodd" d="M423.032 208.05L484.536 208.05V106.068C484.536 105.228 484.601 104.402 484.726 103.597H491.032C493.241 103.597 495.032 105.388 495.032 107.597V214.018C495.032 216.227 493.241 218.018 491.032 218.018H427.032C424.822 218.018 423.032 216.227 423.032 214.018V208.05Z" fill="#693E00"/>
<rect x="527.032" y="103.597" width="72" height="114.421" rx="4" fill="#894E00"/>
<rect x="522.032" y="98.5967" width="82" height="124.421" rx="9" stroke="#3D2505" stroke-width="10"/>
<path fill-rule="evenodd" clip-rule="evenodd" d="M527.032 208.05L588.536 208.05V106.068C588.536 105.228 588.601 104.402 588.726 103.597H595.032C597.241 103.597 599.032 105.388 599.032 107.597V214.018C599.032 216.227 597.241 218.018 595.032 218.018H531.032C528.822 218.018 527.032 216.227 527.032 214.018V208.05Z" fill="#693E00"/>
<rect x="215.032" y="254.018" width="72" height="114.421" rx="4" fill="#894E00"/>
<rect x="210.032" y="249.018" width="82" height="124.421" rx="9" stroke="#3D2505" stroke-width="10"/>
<path fill-rule="evenodd" clip-rule="evenodd" d="M215.032 358.471L276.536 358.471V256.489C276.536 255.649 276.601 254.823 276.726 254.018H283.032C285.241 254.018 287.032 255.808 287.032 258.018V364.438C287.032 366.648 285.241 368.438 283.032 368.438H219.032C216.822 368.438 215.032 366.648 215.032 364.438V358.471Z" fill="#693E00"/>
<rect x="319.032" y="254.018" width="72" height="114.421" rx="4" fill="#894E00"/>
<rect x="314.032" y="249.018" width="82" height="124.421" rx="9" stroke="#3D2505" stroke-width="10"/>
<path fill-rule="evenodd" clip-rule="evenodd" d="M319.032 358.471L380.536 358.471V256.489C380.536 255.649 380.601 254.823 380.726 254.018H387.032C389.241 254.018 391.032 255.808 391.032 258.018V364.438C391.032 366.648 389.241 368.438 387.032 368.438H323.032C320.822 368.438 319.032 366.648 319.032 364.438V358.471Z" fill="#693E00"/>
<rect x="423.032" y="254.018" width="72" height="114.421" rx="4" fill="#894E00"/>
<rect x="418.032" y="249.018" width="82" height="124.421" rx="9" stroke="#3D2505" stroke-width="10"/>
<path fill-rule="evenodd" clip-rule="evenodd" d="M423.032 358.471L484.536 358.471V256.489C484.536 255.649 484.601 254.823 484.726 254.018H491.032C493.241 254.018 495.032 255.808 495.032 258.018V364.438C495.032 366.648 493.241 368.438 491.032 368.438H427.032C424.822 368.438 423.032 366.648 423.032 364.438V358.471Z" fill="#693E00"/>
<rect x="527.032" y="254.018" width="72" height="114.421" rx="4" fill="#894E00"/>
<rect x="522.032" y="249.018" width="82" height="124.421" rx="9" stroke="#3D2505" stroke-width="10"/>
<path fill-rule="evenodd" clip-rule="evenodd" d="M527.032 358.471L588.536 358.471V256.489C588.536 255.649 588.601 254.823 588.726 254.018H595.032C597.241 254.018 599.032 255.808 599.032 258.018V364.438C599.032 366.648 597.241 368.438 595.032 368.438H531.032C528.822 368.438 527.032 366.648 527.032 364.438V358.471Z" fill="#693E00"/>
<rect x="639.917" y="80.8945" width="121.653" height="322" rx="11" transform="rotate(-4.97221 639.917 80.8945)" fill="#894E00" stroke="#3D2505" stroke-width="10"/>
<rect x="667.127" y="107.215" width="72" height="114.421" rx="4" transform="rotate(-4.97221 667.127 107.215)" fill="#894E00"/>
<rect x="661.713" y="102.667" width="82" height="124.421" rx="9" transform="rotate(-4.97221 661.713 102.667)" stroke="#3D2505" stroke-width="10"/>
<path fill-rule="evenodd" clip-rule="evenodd" d="M676.18 211.275L737.453 205.944L728.614 104.346C728.541 103.509 728.534 102.681 728.589 101.868L734.871 101.321C737.072 101.13 739.011 102.759 739.203 104.959L748.426 210.98C748.618 213.181 746.989 215.12 744.788 215.311L681.029 220.858C678.828 221.05 676.889 219.421 676.697 217.22L676.18 211.275Z" fill="#693E00"/>
<rect x="680.164" y="257.07" width="72" height="114.421" rx="4" transform="rotate(-4.97221 680.164 257.07)" fill="#894E00"/>
<rect x="674.75" y="252.522" width="82" height="124.421" rx="9" transform="rotate(-4.97221 674.75 252.522)" stroke="#3D2505" stroke-width="10"/>
<path fill-rule="evenodd" clip-rule="evenodd" d="M689.218 361.13L750.491 355.8L741.652 254.202C741.579 253.364 741.572 252.537 741.626 251.723L747.908 251.177C750.109 250.985 752.049 252.614 752.24 254.815L761.464 360.835C761.655 363.036 760.026 364.975 757.826 365.167L694.066 370.714C691.866 370.905 689.926 369.276 689.735 367.076L689.218 361.13Z" fill="#693E00"/>
</svg>
