<svg width="901" height="502" viewBox="0 0 901 502" fill="none" xmlns="http://www.w3.org/2000/svg">
<path d="M895.318 429.417C895.318 466.42 865.321 496.417 828.318 496.417L72.3175 496.417C35.3144 496.417 5.3175 466.42 5.3175 429.417L5.31751 419.391C18.5548 442.696 43.6002 458.417 72.3175 458.417L828.318 458.417C857.035 458.417 882.08 442.696 895.318 419.392V429.417Z" fill="#FFC6BD" stroke="#3D2505" stroke-width="10"/>
<mask id="path-2-inside-1_125_4848" fill="white">
<path fill-rule="evenodd" clip-rule="evenodd" d="M0.317505 400.512V72.5117C0.317505 32.7472 32.553 0.511719 72.3175 0.511719H828.318C868.082 0.511719 900.318 32.7472 900.318 72.5117V400.512C900.318 440.276 868.082 472.512 828.318 472.512H72.3175C32.553 472.512 0.317505 440.276 0.317505 400.512ZM84.2819 179.509C69.8073 179.509 58.0734 191.243 58.0734 205.717V267.307C58.0734 281.781 69.8073 293.515 84.2819 293.515C98.7564 293.515 110.49 281.781 110.49 267.307V205.717C110.49 191.243 98.7564 179.509 84.2819 179.509Z"/>
</mask>
<path fill-rule="evenodd" clip-rule="evenodd" d="M0.317505 400.512V72.5117C0.317505 32.7472 32.553 0.511719 72.3175 0.511719H828.318C868.082 0.511719 900.318 32.7472 900.318 72.5117V400.512C900.318 440.276 868.082 472.512 828.318 472.512H72.3175C32.553 472.512 0.317505 440.276 0.317505 400.512ZM84.2819 179.509C69.8073 179.509 58.0734 191.243 58.0734 205.717V267.307C58.0734 281.781 69.8073 293.515 84.2819 293.515C98.7564 293.515 110.49 281.781 110.49 267.307V205.717C110.49 191.243 98.7564 179.509 84.2819 179.509Z" fill="#FEEAE7"/>
<path d="M-9.6825 72.5117V400.512H10.3175V72.5117H-9.6825ZM72.3175 -9.48828C27.0302 -9.48828 -9.6825 27.2244 -9.6825 72.5117H10.3175C10.3175 38.2701 38.0758 10.5117 72.3175 10.5117V-9.48828ZM828.318 -9.48828H72.3175V10.5117H828.318V-9.48828ZM910.318 72.5117C910.318 27.2244 873.605 -9.48828 828.318 -9.48828V10.5117C862.559 10.5117 890.318 38.2701 890.318 72.5117H910.318ZM910.318 400.512V72.5117H890.318V400.512H910.318ZM828.318 482.512C873.605 482.512 910.318 445.799 910.318 400.512H890.318C890.318 434.753 862.559 462.512 828.318 462.512V482.512ZM72.3175 482.512H828.318V462.512H72.3175V482.512ZM-9.6825 400.512C-9.6825 445.799 27.0301 482.512 72.3175 482.512V462.512C38.0758 462.512 10.3175 434.753 10.3175 400.512H-9.6825ZM68.0734 205.717C68.0734 196.766 75.3302 189.509 84.2819 189.509V169.509C64.2844 169.509 48.0734 185.72 48.0734 205.717H68.0734ZM68.0734 267.307V205.717H48.0734V267.307H68.0734ZM84.2819 283.515C75.3302 283.515 68.0734 276.258 68.0734 267.307H48.0734C48.0734 287.304 64.2845 303.515 84.2819 303.515V283.515ZM100.49 267.307C100.49 276.258 93.2336 283.515 84.2819 283.515V303.515C104.279 303.515 120.49 287.304 120.49 267.307H100.49ZM100.49 205.717V267.307H120.49V205.717H100.49ZM84.2819 189.509C93.2336 189.509 100.49 196.766 100.49 205.717H120.49C120.49 185.72 104.279 169.509 84.2819 169.509V189.509Z" fill="#3D2505" mask="url(#path-2-inside-1_125_4848)"/>
<rect x="215.165" y="75.9764" width="121.653" height="322" rx="11" transform="rotate(7.73922 215.165 75.9764)" fill="#894E00" stroke="#3D2505" stroke-width="10"/>
<rect x="235.917" y="107.64" width="72" height="114.421" rx="4" transform="rotate(7.73922 235.917 107.64)" fill="#894E00"/>
<rect x="231.636" y="102.012" width="82" height="124.421" rx="9" transform="rotate(7.73922 231.636 102.012)" stroke="#3D2505" stroke-width="10"/>
<path fill-rule="evenodd" clip-rule="evenodd" d="M221.851 211.141L282.795 219.424L296.528 118.371C296.641 117.538 296.817 116.729 297.049 115.948L303.297 116.797C305.486 117.094 307.02 119.11 306.722 121.299L292.391 226.751C292.094 228.94 290.078 230.473 287.889 230.175L224.472 221.557C222.283 221.259 220.749 219.244 221.047 217.055L221.851 211.141Z" fill="#693E00"/>
<rect x="215.661" y="256.69" width="72" height="114.421" rx="4" transform="rotate(7.73922 215.661 256.69)" fill="#894E00"/>
<rect x="211.379" y="251.063" width="82" height="124.421" rx="9" transform="rotate(7.73922 211.379 251.063)" stroke="#3D2505" stroke-width="10"/>
<path fill-rule="evenodd" clip-rule="evenodd" d="M201.594 360.192L262.539 368.475L276.272 267.422C276.385 266.589 276.56 265.78 276.793 264.998L283.041 265.848C285.23 266.145 286.763 268.161 286.466 270.35L272.135 375.801C271.837 377.99 269.822 379.524 267.633 379.226L204.216 370.608C202.027 370.31 200.493 368.294 200.791 366.105L201.594 360.192Z" fill="#693E00"/>
<rect x="308.77" y="66.1921" width="121.653" height="322" rx="11" transform="rotate(-7.04183 308.77 66.1921)" fill="#894E00" stroke="#3D2505" stroke-width="10"/>
<rect x="336.913" y="91.5127" width="72" height="114.421" rx="4" transform="rotate(-7.04183 336.913 91.5127)" fill="#894E00"/>
<rect x="331.338" y="87.1634" width="82" height="124.421" rx="9" transform="rotate(-7.04183 331.338 87.1634)" stroke="#3D2505" stroke-width="10"/>
<path fill-rule="evenodd" clip-rule="evenodd" d="M349.718 195.178L410.759 187.638L398.257 86.4256C398.154 85.5914 398.117 84.7642 398.142 83.9493L404.4 83.1763C406.593 82.9055 408.589 84.4633 408.86 86.6558L421.907 192.274C422.178 194.466 420.62 196.463 418.427 196.734L354.91 204.58C352.718 204.851 350.721 203.293 350.45 201.101L349.718 195.178Z" fill="#693E00"/>
<rect x="355.354" y="240.799" width="72" height="114.421" rx="4" transform="rotate(-7.04183 355.354 240.799)" fill="#894E00"/>
<rect x="349.779" y="236.45" width="82" height="124.421" rx="9" transform="rotate(-7.04183 349.779 236.45)" stroke="#3D2505" stroke-width="10"/>
<path fill-rule="evenodd" clip-rule="evenodd" d="M368.159 344.464L429.2 336.924L416.697 235.712C416.594 234.878 416.557 234.05 416.583 233.235L422.841 232.462C425.033 232.192 427.03 233.749 427.301 235.942L440.348 341.56C440.618 343.752 439.061 345.749 436.868 346.02L373.351 353.866C371.158 354.137 369.162 352.579 368.891 350.387L368.159 344.464Z" fill="#693E00"/>
<rect x="451.212" y="94.5066" width="121.653" height="322" rx="11" transform="rotate(0.593336 451.212 94.5066)" fill="#894E00" stroke="#3D2505" stroke-width="10"/>
<rect x="475.741" y="123.342" width="72" height="114.421" rx="4" transform="rotate(0.593336 475.741 123.342)" fill="#894E00"/>
<rect x="470.793" y="118.29" width="82" height="124.421" rx="9" transform="rotate(0.593336 470.793 118.29)" stroke="#3D2505" stroke-width="10"/>
<path fill-rule="evenodd" clip-rule="evenodd" d="M474.659 227.789L536.16 228.426L537.216 126.45C537.225 125.61 537.298 124.785 537.431 123.981L543.737 124.046C545.946 124.069 547.718 125.878 547.695 128.087L546.593 234.502C546.57 236.711 544.761 238.484 542.552 238.461L478.555 237.798C476.346 237.775 474.574 235.966 474.597 233.757L474.659 227.789Z" fill="#693E00"/>
<rect x="474.183" y="273.755" width="72" height="114.421" rx="4" transform="rotate(0.593336 474.183 273.755)" fill="#894E00"/>
<rect x="469.235" y="268.703" width="82" height="124.421" rx="9" transform="rotate(0.593336 469.235 268.703)" stroke="#3D2505" stroke-width="10"/>
<path fill-rule="evenodd" clip-rule="evenodd" d="M473.101 378.202L534.602 378.839L535.658 276.863C535.667 276.023 535.741 275.198 535.874 274.394L542.179 274.459C544.388 274.482 546.16 276.291 546.138 278.5L545.036 384.915C545.013 387.124 543.203 388.897 540.994 388.874L476.998 388.211C474.789 388.188 473.017 386.379 473.039 384.17L473.101 378.202Z" fill="#693E00"/>
<rect x="545.791" y="76.0873" width="121.653" height="322" rx="11" transform="rotate(-1.23541 545.791 76.0873)" fill="#894E00" stroke="#3D2505" stroke-width="10"/>
<rect x="571.228" y="104.126" width="72" height="114.421" rx="4" transform="rotate(-1.23541 571.228 104.126)" fill="#894E00"/>
<rect x="566.121" y="99.2349" width="82" height="124.421" rx="9" transform="rotate(-1.23541 566.121 99.2349)" stroke="#3D2505" stroke-width="10"/>
<path fill-rule="evenodd" clip-rule="evenodd" d="M573.48 208.555L634.97 207.229L632.771 105.271C632.753 104.431 632.8 103.604 632.908 102.796L639.212 102.66C641.421 102.612 643.25 104.364 643.297 106.573L645.592 212.969C645.639 215.177 643.888 217.007 641.679 217.054L577.694 218.434C575.485 218.482 573.656 216.73 573.608 214.521L573.48 208.555Z" fill="#693E00"/>
<rect x="574.471" y="254.512" width="72" height="114.421" rx="4" transform="rotate(-1.23541 574.471 254.512)" fill="#894E00"/>
<rect x="569.364" y="249.621" width="82" height="124.421" rx="9" transform="rotate(-1.23541 569.364 249.621)" stroke="#3D2505" stroke-width="10"/>
<path fill-rule="evenodd" clip-rule="evenodd" d="M576.723 358.941L638.213 357.615L636.014 255.657C635.996 254.816 636.043 253.99 636.151 253.182L642.455 253.046C644.664 252.998 646.493 254.75 646.54 256.958L648.835 363.355C648.883 365.563 647.131 367.392 644.922 367.44L580.937 368.82C578.728 368.867 576.899 367.116 576.852 364.907L576.723 358.941Z" fill="#693E00"/>
<rect x="683.72" y="79.9957" width="121.653" height="322" rx="11" transform="rotate(7.99832 683.72 79.9957)" fill="#894E00" stroke="#3D2505" stroke-width="10"/>
<rect x="704.328" y="111.752" width="72" height="114.421" rx="4" transform="rotate(7.99832 704.328 111.752)" fill="#894E00"/>
<rect x="700.073" y="106.105" width="82" height="124.421" rx="9" transform="rotate(7.99832 700.073 106.105)" stroke="#3D2505" stroke-width="10"/>
<path fill-rule="evenodd" clip-rule="evenodd" d="M689.794 215.189L750.7 223.747L764.891 122.758C765.008 121.925 765.187 121.117 765.422 120.336L771.667 121.214C773.854 121.521 775.379 123.544 775.071 125.731L760.263 231.117C759.956 233.305 757.933 234.829 755.746 234.522L692.368 225.616C690.181 225.309 688.656 223.286 688.964 221.099L689.794 215.189Z" fill="#693E00"/>
<rect x="683.398" y="260.71" width="72" height="114.421" rx="4" transform="rotate(7.99832 683.398 260.71)" fill="#894E00"/>
<rect x="679.143" y="255.063" width="82" height="124.421" rx="9" transform="rotate(7.99832 679.143 255.063)" stroke="#3D2505" stroke-width="10"/>
<path fill-rule="evenodd" clip-rule="evenodd" d="M668.864 364.147L729.77 372.705L743.96 271.716C744.077 270.883 744.256 270.075 744.492 269.294L750.737 270.172C752.924 270.479 754.448 272.502 754.141 274.689L739.333 380.075C739.026 382.263 737.003 383.787 734.816 383.48L671.438 374.574C669.251 374.267 667.726 372.244 668.034 370.057L668.864 364.147Z" fill="#693E00"/>
</svg>
