<svg width="901" height="502" viewBox="0 0 901 502" fill="none" xmlns="http://www.w3.org/2000/svg">
<path d="M895.452 429.498C895.452 466.501 865.455 496.498 828.452 496.498L72.4518 496.498C35.4487 496.498 5.45178 466.501 5.45178 429.498L5.45178 419.473C18.689 442.777 43.7345 458.498 72.4518 458.498L828.452 458.498C857.169 458.498 882.215 442.777 895.452 419.473V429.498Z" fill="#FFC6BD" stroke="#3D2505" stroke-width="10"/>
<mask id="path-2-inside-1_125_4708" fill="white">
<path fill-rule="evenodd" clip-rule="evenodd" d="M0.451782 400.593V72.5928C0.451782 32.8283 32.6873 0.592773 72.4518 0.592773H828.452C868.216 0.592773 900.452 32.8283 900.452 72.5928V400.593C900.452 440.357 868.216 472.593 828.452 472.593H72.4518C32.6873 472.593 0.451782 440.357 0.451782 400.593ZM84.4161 179.59C69.9416 179.59 58.2076 191.324 58.2076 205.798V267.388C58.2076 281.862 69.9416 293.596 84.4161 293.596C98.8907 293.596 110.625 281.862 110.625 267.388V205.798C110.625 191.324 98.8907 179.59 84.4161 179.59Z"/>
</mask>
<path fill-rule="evenodd" clip-rule="evenodd" d="M0.451782 400.593V72.5928C0.451782 32.8283 32.6873 0.592773 72.4518 0.592773H828.452C868.216 0.592773 900.452 32.8283 900.452 72.5928V400.593C900.452 440.357 868.216 472.593 828.452 472.593H72.4518C32.6873 472.593 0.451782 440.357 0.451782 400.593ZM84.4161 179.59C69.9416 179.59 58.2076 191.324 58.2076 205.798V267.388C58.2076 281.862 69.9416 293.596 84.4161 293.596C98.8907 293.596 110.625 281.862 110.625 267.388V205.798C110.625 191.324 98.8907 179.59 84.4161 179.59Z" fill="#FEEAE7"/>
<path d="M-9.54822 72.5928V400.593H10.4518V72.5928H-9.54822ZM72.4518 -9.40723C27.1644 -9.40723 -9.54822 27.3054 -9.54822 72.5928H10.4518C10.4518 38.3511 38.2101 10.5928 72.4518 10.5928V-9.40723ZM828.452 -9.40723H72.4518V10.5928H828.452V-9.40723ZM910.452 72.5928C910.452 27.3054 873.739 -9.40723 828.452 -9.40723V10.5928C862.693 10.5928 890.452 38.3511 890.452 72.5928H910.452ZM910.452 400.593V72.5928H890.452V400.593H910.452ZM828.452 482.593C873.739 482.593 910.452 445.88 910.452 400.593H890.452C890.452 434.834 862.693 462.593 828.452 462.593V482.593ZM72.4518 482.593H828.452V462.593H72.4518V482.593ZM-9.54822 400.593C-9.54822 445.88 27.1644 482.593 72.4518 482.593V462.593C38.2101 462.593 10.4518 434.834 10.4518 400.593H-9.54822ZM68.2076 205.798C68.2076 196.847 75.4644 189.59 84.4161 189.59V169.59C64.4187 169.59 48.2076 185.801 48.2076 205.798H68.2076ZM68.2076 267.388V205.798H48.2076V267.388H68.2076ZM84.4161 283.596C75.4644 283.596 68.2076 276.339 68.2076 267.388H48.2076C48.2076 287.385 64.4187 303.596 84.4161 303.596V283.596ZM100.625 267.388C100.625 276.339 93.3678 283.596 84.4161 283.596V303.596C104.414 303.596 120.625 287.385 120.625 267.388H100.625ZM100.625 205.798V267.388H120.625V205.798H100.625ZM84.4161 189.59C93.3678 189.59 100.625 196.847 100.625 205.798H120.625C120.625 185.801 104.414 169.59 84.4161 169.59V189.59Z" fill="#3D2505" mask="url(#path-2-inside-1_125_4708)"/>
<rect x="221.452" y="75.5928" width="554" height="322" rx="11" fill="#894E00" stroke="#3D2505" stroke-width="10"/>
<rect x="252.452" y="104.173" width="72" height="114.421" rx="4" fill="#894E00"/>
<rect x="247.452" y="99.1729" width="82" height="124.421" rx="9" stroke="#3D2505" stroke-width="10"/>
<path fill-rule="evenodd" clip-rule="evenodd" d="M252.452 208.626L313.956 208.626V106.645C313.956 105.804 314.021 104.978 314.146 104.173H320.452C322.661 104.173 324.452 105.964 324.452 108.173V214.594C324.452 216.803 322.661 218.594 320.452 218.594H256.452C254.243 218.594 252.452 216.803 252.452 214.594V208.626Z" fill="#693E00"/>
<rect x="356.452" y="104.173" width="72" height="114.421" rx="4" fill="#894E00"/>
<rect x="351.452" y="99.1729" width="82" height="124.421" rx="9" stroke="#3D2505" stroke-width="10"/>
<path fill-rule="evenodd" clip-rule="evenodd" d="M356.452 208.626L417.956 208.626V106.645C417.956 105.804 418.021 104.978 418.146 104.173H424.452C426.661 104.173 428.452 105.964 428.452 108.173V214.594C428.452 216.803 426.661 218.594 424.452 218.594H360.452C358.243 218.594 356.452 216.803 356.452 214.594V208.626Z" fill="#693E00"/>
<rect x="460.452" y="104.173" width="72" height="114.421" rx="4" fill="#894E00"/>
<rect x="455.452" y="99.1729" width="82" height="124.421" rx="9" stroke="#3D2505" stroke-width="10"/>
<path fill-rule="evenodd" clip-rule="evenodd" d="M460.452 208.626L521.956 208.626V106.645C521.956 105.804 522.021 104.978 522.146 104.173H528.452C530.661 104.173 532.452 105.964 532.452 108.173V214.594C532.452 216.803 530.661 218.594 528.452 218.594H464.452C462.243 218.594 460.452 216.803 460.452 214.594V208.626Z" fill="#693E00"/>
<rect x="564.452" y="104.173" width="72" height="114.421" rx="4" fill="#894E00"/>
<rect x="559.452" y="99.1729" width="82" height="124.421" rx="9" stroke="#3D2505" stroke-width="10"/>
<path fill-rule="evenodd" clip-rule="evenodd" d="M564.452 208.626L625.956 208.626V106.645C625.956 105.804 626.021 104.978 626.146 104.173H632.452C634.661 104.173 636.452 105.964 636.452 108.173V214.594C636.452 216.803 634.661 218.594 632.452 218.594H568.452C566.243 218.594 564.452 216.803 564.452 214.594V208.626Z" fill="#693E00"/>
<rect x="668.452" y="104.173" width="72" height="114.421" rx="4" fill="#894E00"/>
<rect x="663.452" y="99.1729" width="82" height="124.421" rx="9" stroke="#3D2505" stroke-width="10"/>
<path fill-rule="evenodd" clip-rule="evenodd" d="M668.452 208.626L729.956 208.626V106.645C729.956 105.804 730.021 104.978 730.146 104.173H736.452C738.661 104.173 740.452 105.964 740.452 108.173V214.594C740.452 216.803 738.661 218.594 736.452 218.594H672.452C670.243 218.594 668.452 216.803 668.452 214.594V208.626Z" fill="#693E00"/>
<rect x="252.452" y="254.594" width="72" height="114.421" rx="4" fill="#894E00"/>
<rect x="247.452" y="249.594" width="82" height="124.421" rx="9" stroke="#3D2505" stroke-width="10"/>
<path fill-rule="evenodd" clip-rule="evenodd" d="M252.452 359.047L313.956 359.047V257.065C313.956 256.225 314.021 255.399 314.146 254.594H320.452C322.661 254.594 324.452 256.385 324.452 258.594V365.015C324.452 367.224 322.661 369.015 320.452 369.015H256.452C254.243 369.015 252.452 367.224 252.452 365.015V359.047Z" fill="#693E00"/>
<rect x="356.452" y="254.594" width="72" height="114.421" rx="4" fill="#894E00"/>
<rect x="351.452" y="249.594" width="82" height="124.421" rx="9" stroke="#3D2505" stroke-width="10"/>
<path fill-rule="evenodd" clip-rule="evenodd" d="M356.452 359.047L417.956 359.047V257.065C417.956 256.225 418.021 255.399 418.146 254.594H424.452C426.661 254.594 428.452 256.385 428.452 258.594V365.015C428.452 367.224 426.661 369.015 424.452 369.015H360.452C358.243 369.015 356.452 367.224 356.452 365.015V359.047Z" fill="#693E00"/>
<rect x="460.452" y="254.594" width="72" height="114.421" rx="4" fill="#894E00"/>
<rect x="455.452" y="249.594" width="82" height="124.421" rx="9" stroke="#3D2505" stroke-width="10"/>
<path fill-rule="evenodd" clip-rule="evenodd" d="M460.452 359.047L521.956 359.047V257.065C521.956 256.225 522.021 255.399 522.146 254.594H528.452C530.661 254.594 532.452 256.385 532.452 258.594V365.015C532.452 367.224 530.661 369.015 528.452 369.015H464.452C462.243 369.015 460.452 367.224 460.452 365.015V359.047Z" fill="#693E00"/>
<rect x="564.452" y="254.594" width="72" height="114.421" rx="4" fill="#894E00"/>
<rect x="559.452" y="249.594" width="82" height="124.421" rx="9" stroke="#3D2505" stroke-width="10"/>
<path fill-rule="evenodd" clip-rule="evenodd" d="M564.452 359.047L625.956 359.047V257.065C625.956 256.225 626.021 255.399 626.146 254.594H632.452C634.661 254.594 636.452 256.385 636.452 258.594V365.015C636.452 367.224 634.661 369.015 632.452 369.015H568.452C566.243 369.015 564.452 367.224 564.452 365.015V359.047Z" fill="#693E00"/>
<rect x="668.452" y="254.594" width="72" height="114.421" rx="4" fill="#894E00"/>
<rect x="663.452" y="249.594" width="82" height="124.421" rx="9" stroke="#3D2505" stroke-width="10"/>
<path fill-rule="evenodd" clip-rule="evenodd" d="M668.452 359.047L729.956 359.047V257.065C729.956 256.225 730.021 255.399 730.146 254.594H736.452C738.661 254.594 740.452 256.385 740.452 258.594V365.015C740.452 367.224 738.661 369.015 736.452 369.015H672.452C670.243 369.015 668.452 367.224 668.452 365.015V359.047Z" fill="#693E00"/>
</svg>
