<svg width="901" height="502" viewBox="0 0 901 502" fill="none" xmlns="http://www.w3.org/2000/svg">
<path d="M895.452 429.617C895.452 466.62 865.455 496.617 828.452 496.617L72.4518 496.617C35.4487 496.617 5.45178 466.62 5.45178 429.617L5.45178 419.592C18.689 442.897 43.7345 458.617 72.4518 458.617L828.452 458.617C857.169 458.617 882.215 442.897 895.452 419.592V429.617Z" fill="#FFC6BD" stroke="#3D2505" stroke-width="10"/>
<mask id="path-2-inside-1_125_4849" fill="white">
<path fill-rule="evenodd" clip-rule="evenodd" d="M0.451782 400.712V72.7119C0.451782 32.9474 32.6873 0.711914 72.4518 0.711914H828.452C868.216 0.711914 900.452 32.9474 900.452 72.7119V400.712C900.452 440.476 868.216 472.712 828.452 472.712H72.4518C32.6873 472.712 0.451782 440.476 0.451782 400.712ZM84.4161 179.709C69.9416 179.709 58.2076 191.443 58.2076 205.917V267.507C58.2076 281.981 69.9416 293.715 84.4161 293.715C98.8907 293.715 110.625 281.981 110.625 267.507V205.917C110.625 191.443 98.8907 179.709 84.4161 179.709Z"/>
</mask>
<path fill-rule="evenodd" clip-rule="evenodd" d="M0.451782 400.712V72.7119C0.451782 32.9474 32.6873 0.711914 72.4518 0.711914H828.452C868.216 0.711914 900.452 32.9474 900.452 72.7119V400.712C900.452 440.476 868.216 472.712 828.452 472.712H72.4518C32.6873 472.712 0.451782 440.476 0.451782 400.712ZM84.4161 179.709C69.9416 179.709 58.2076 191.443 58.2076 205.917V267.507C58.2076 281.981 69.9416 293.715 84.4161 293.715C98.8907 293.715 110.625 281.981 110.625 267.507V205.917C110.625 191.443 98.8907 179.709 84.4161 179.709Z" fill="#FEEAE7"/>
<path d="M-9.54822 72.7119V400.712H10.4518V72.7119H-9.54822ZM72.4518 -9.28809C27.1644 -9.28809 -9.54822 27.4246 -9.54822 72.7119H10.4518C10.4518 38.4703 38.2101 10.7119 72.4518 10.7119V-9.28809ZM828.452 -9.28809H72.4518V10.7119H828.452V-9.28809ZM910.452 72.7119C910.452 27.4246 873.739 -9.28809 828.452 -9.28809V10.7119C862.693 10.7119 890.452 38.4703 890.452 72.7119H910.452ZM910.452 400.712V72.7119H890.452V400.712H910.452ZM828.452 482.712C873.739 482.712 910.452 445.999 910.452 400.712H890.452C890.452 434.954 862.693 462.712 828.452 462.712V482.712ZM72.4518 482.712H828.452V462.712H72.4518V482.712ZM-9.54822 400.712C-9.54822 445.999 27.1644 482.712 72.4518 482.712V462.712C38.2101 462.712 10.4518 434.954 10.4518 400.712H-9.54822ZM68.2076 205.917C68.2076 196.966 75.4644 189.709 84.4161 189.709V169.709C64.4187 169.709 48.2076 185.92 48.2076 205.917H68.2076ZM68.2076 267.507V205.917H48.2076V267.507H68.2076ZM84.4161 283.715C75.4644 283.715 68.2076 276.459 68.2076 267.507H48.2076C48.2076 287.504 64.4187 303.715 84.4161 303.715V283.715ZM100.625 267.507C100.625 276.459 93.3678 283.715 84.4161 283.715V303.715C104.414 303.715 120.625 287.504 120.625 267.507H100.625ZM100.625 205.917V267.507H120.625V205.917H100.625ZM84.4161 189.709C93.3678 189.709 100.625 196.966 100.625 205.917H120.625C120.625 185.92 104.414 169.709 84.4161 169.709V189.709Z" fill="#3D2505" mask="url(#path-2-inside-1_125_4849)"/>
<rect x="175.911" y="47.3944" width="121.653" height="171.801" rx="11" transform="rotate(7.73922 175.911 47.3944)" fill="#894E00" stroke="#3D2505" stroke-width="10"/>
<rect x="196.662" y="79.0576" width="72" height="114.421" rx="4" transform="rotate(7.73922 196.662 79.0576)" fill="#894E00"/>
<rect x="192.381" y="73.4298" width="82" height="124.421" rx="9" transform="rotate(7.73922 192.381 73.4298)" stroke="#3D2505" stroke-width="10"/>
<path fill-rule="evenodd" clip-rule="evenodd" d="M182.596 182.559L243.541 190.842L257.274 89.7893C257.387 88.9563 257.562 88.1471 257.795 87.3656L264.043 88.2148C266.232 88.5123 267.765 90.528 267.468 92.717L253.137 198.169C252.839 200.358 250.824 201.891 248.635 201.593L185.217 192.975C183.028 192.677 181.495 190.662 181.793 188.473L182.596 182.559Z" fill="#693E00"/>
<rect x="319.595" y="84.6854" width="121.653" height="171.801" rx="11" transform="rotate(7.73922 319.595 84.6854)" fill="#894E00" stroke="#3D2505" stroke-width="10"/>
<rect x="340.347" y="116.349" width="72" height="114.421" rx="4" transform="rotate(7.73922 340.347 116.349)" fill="#894E00"/>
<rect x="336.066" y="110.721" width="82" height="124.421" rx="9" transform="rotate(7.73922 336.066 110.721)" stroke="#3D2505" stroke-width="10"/>
<path fill-rule="evenodd" clip-rule="evenodd" d="M326.281 219.85L387.225 228.133L400.958 127.08C401.071 126.247 401.247 125.438 401.479 124.657L407.727 125.506C409.916 125.803 411.45 127.819 411.152 130.008L396.821 235.46C396.524 237.649 394.508 239.182 392.319 238.884L328.902 230.266C326.713 229.968 325.179 227.953 325.477 225.764L326.281 219.85Z" fill="#693E00"/>
<rect x="543.061" y="102.492" width="121.653" height="171.801" rx="11" transform="rotate(-11.133 543.061 102.492)" fill="#894E00" stroke="#3D2505" stroke-width="10"/>
<rect x="572.939" y="125.741" width="72" height="114.421" rx="4" transform="rotate(-11.133 572.939 125.741)" fill="#894E00"/>
<rect x="567.068" y="121.801" width="82" height="124.421" rx="9" transform="rotate(-11.133 567.068 121.801)" stroke="#3D2505" stroke-width="10"/>
<path fill-rule="evenodd" clip-rule="evenodd" d="M593.107 228.229L653.455 216.353L633.763 116.291C633.601 115.466 633.505 114.643 633.472 113.829L639.659 112.611C641.827 112.185 643.93 113.596 644.356 115.764L664.905 220.182C665.331 222.349 663.92 224.452 661.752 224.879L598.957 237.237C596.789 237.663 594.686 236.252 594.26 234.084L593.107 228.229Z" fill="#693E00"/>
<rect x="406.064" y="243.432" width="121.653" height="171.801" rx="11" transform="rotate(-10.4638 406.064 243.432)" fill="#894E00" stroke="#3D2505" stroke-width="10"/>
<rect x="435.668" y="267.027" width="72" height="114.421" rx="4" transform="rotate(-10.4638 435.668 267.027)" fill="#894E00"/>
<rect x="429.843" y="263.019" width="82" height="124.421" rx="9" transform="rotate(-10.4638 429.843 263.019)" stroke="#3D2505" stroke-width="10"/>
<path fill-rule="evenodd" clip-rule="evenodd" d="M454.638 369.743L515.12 358.573L496.598 258.288C496.446 257.461 496.36 256.638 496.336 255.823L502.537 254.678C504.709 254.276 506.796 255.712 507.197 257.885L526.524 362.536C526.926 364.708 525.49 366.794 523.317 367.196L460.382 378.819C458.209 379.22 456.123 377.784 455.722 375.612L454.638 369.743Z" fill="#693E00"/>
<rect x="539.149" y="256.889" width="121.653" height="171.801" rx="11" transform="rotate(-10.4638 539.149 256.889)" fill="#894E00" stroke="#3D2505" stroke-width="10"/>
<rect x="568.753" y="280.484" width="72" height="114.421" rx="4" transform="rotate(-10.4638 568.753 280.484)" fill="#894E00"/>
<rect x="562.928" y="276.476" width="82" height="124.421" rx="9" transform="rotate(-10.4638 562.928 276.476)" stroke="#3D2505" stroke-width="10"/>
<path fill-rule="evenodd" clip-rule="evenodd" d="M587.723 383.2L648.204 372.03L629.683 271.745C629.53 270.918 629.444 270.095 629.421 269.28L635.622 268.135C637.794 267.733 639.88 269.169 640.282 271.342L659.609 375.993C660.01 378.165 658.575 380.251 656.402 380.653L593.466 392.276C591.294 392.677 589.208 391.241 588.807 389.069L587.723 383.2Z" fill="#693E00"/>
<rect x="660.103" y="251.985" width="121.653" height="171.801" rx="11" transform="rotate(-10.4638 660.103 251.985)" fill="#894E00" stroke="#3D2505" stroke-width="10"/>
<rect x="689.707" y="275.581" width="72" height="114.421" rx="4" transform="rotate(-10.4638 689.707 275.581)" fill="#894E00"/>
<rect x="683.882" y="271.572" width="82" height="124.421" rx="9" transform="rotate(-10.4638 683.882 271.572)" stroke="#3D2505" stroke-width="10"/>
<path fill-rule="evenodd" clip-rule="evenodd" d="M708.677 378.297L769.159 367.127L750.637 266.842C750.485 266.015 750.399 265.191 750.375 264.377L756.576 263.231C758.748 262.83 760.835 264.266 761.236 266.438L780.563 371.089C780.965 373.262 779.529 375.348 777.356 375.749L714.421 387.373C712.248 387.774 710.162 386.338 709.761 384.166L708.677 378.297Z" fill="#693E00"/>
<rect x="447.187" y="71.1698" width="121.653" height="171.801" rx="11" transform="rotate(7.73922 447.187 71.1698)" fill="#894E00" stroke="#3D2505" stroke-width="10"/>
<rect x="467.939" y="102.833" width="72" height="114.421" rx="4" transform="rotate(7.73922 467.939 102.833)" fill="#894E00"/>
<rect x="463.657" y="97.2052" width="82" height="124.421" rx="9" transform="rotate(7.73922 463.657 97.2052)" stroke="#3D2505" stroke-width="10"/>
<path fill-rule="evenodd" clip-rule="evenodd" d="M453.872 206.335L514.817 214.617L528.55 113.565C528.663 112.732 528.839 111.922 529.071 111.141L535.319 111.99C537.508 112.288 539.041 114.303 538.744 116.492L524.413 221.944C524.115 224.133 522.1 225.666 519.911 225.369L456.494 216.75C454.305 216.453 452.771 214.437 453.069 212.248L453.872 206.335Z" fill="#693E00"/>
<rect x="676.573" y="54.453" width="121.653" height="171.801" rx="11" transform="rotate(7.73922 676.573 54.453)" fill="#894E00" stroke="#3D2505" stroke-width="10"/>
<rect x="697.324" y="86.1162" width="72" height="114.421" rx="4" transform="rotate(7.73922 697.324 86.1162)" fill="#894E00"/>
<rect x="693.043" y="80.4884" width="82" height="124.421" rx="9" transform="rotate(7.73922 693.043 80.4884)" stroke="#3D2505" stroke-width="10"/>
<path fill-rule="evenodd" clip-rule="evenodd" d="M683.258 189.618L744.202 197.9L757.936 96.8479C758.049 96.0149 758.224 95.2057 758.457 94.4242L764.705 95.2734C766.894 95.5709 768.427 97.5866 768.13 99.7756L753.799 205.227C753.501 207.416 751.485 208.95 749.296 208.652L685.879 200.033C683.69 199.736 682.157 197.72 682.454 195.531L683.258 189.618Z" fill="#693E00"/>
<rect x="165.951" y="237.467" width="121.653" height="171.801" rx="11" transform="rotate(-11.775 165.951 237.467)" fill="#894E00" stroke="#3D2505" stroke-width="10"/>
<rect x="196.087" y="260.38" width="72" height="114.421" rx="4" transform="rotate(-11.775 196.087 260.38)" fill="#894E00"/>
<rect x="190.172" y="256.505" width="82" height="124.421" rx="9" transform="rotate(-11.775 190.172 256.505)" stroke="#3D2505" stroke-width="10"/>
<path fill-rule="evenodd" clip-rule="evenodd" d="M217.403 362.635L277.613 350.084L256.802 250.248C256.63 249.425 256.525 248.604 256.483 247.79L262.656 246.503C264.819 246.052 266.937 247.44 267.388 249.603L289.105 353.784C289.556 355.947 288.168 358.065 286.006 358.516L223.353 371.577C221.19 372.027 219.071 370.64 218.62 368.477L217.403 362.635Z" fill="#693E00"/>
<rect x="301.37" y="239.301" width="121.653" height="171.801" rx="11" transform="rotate(5.14892 301.37 239.301)" fill="#894E00" stroke="#3D2505" stroke-width="10"/>
<rect x="323.531" y="269.993" width="72" height="114.421" rx="4" transform="rotate(5.14892 323.531 269.993)" fill="#894E00"/>
<rect x="319" y="264.565" width="82" height="124.421" rx="9" transform="rotate(5.14892 319 264.565)" stroke="#3D2505" stroke-width="10"/>
<path fill-rule="evenodd" clip-rule="evenodd" d="M314.157 374.025L375.414 379.545L384.566 277.975C384.641 277.137 384.78 276.321 384.977 275.53L391.257 276.096C393.457 276.294 395.08 278.238 394.882 280.439L385.331 386.43C385.133 388.63 383.189 390.253 380.988 390.055L317.247 384.311C315.046 384.113 313.423 382.169 313.622 379.968L314.157 374.025Z" fill="#693E00"/>
</svg>
