<svg width="901" height="502" viewBox="0 0 901 502" fill="none" xmlns="http://www.w3.org/2000/svg">
<path d="M895.452 429.77C895.452 466.773 865.455 496.77 828.452 496.77L72.4518 496.77C35.4487 496.77 5.45178 466.773 5.45178 429.77L5.45178 419.744C18.689 443.049 43.7345 458.77 72.4518 458.77L828.452 458.77C857.169 458.77 882.215 443.049 895.452 419.744V429.77Z" fill="#FFC6BD" stroke="#3D2505" stroke-width="10"/>
<mask id="path-2-inside-1_125_4852" fill="white">
<path fill-rule="evenodd" clip-rule="evenodd" d="M0.451782 400.864V72.8643C0.451782 33.0998 32.6873 0.864258 72.4518 0.864258H828.452C868.216 0.864258 900.452 33.0998 900.452 72.8643V400.864C900.452 440.629 868.216 472.864 828.452 472.864H72.4518C32.6873 472.864 0.451782 440.629 0.451782 400.864ZM84.4161 179.861C69.9416 179.861 58.2076 191.595 58.2076 206.07V267.659C58.2076 282.134 69.9416 293.868 84.4161 293.868C98.8907 293.868 110.625 282.134 110.625 267.659V206.07C110.625 191.595 98.8907 179.861 84.4161 179.861Z"/>
</mask>
<path fill-rule="evenodd" clip-rule="evenodd" d="M0.451782 400.864V72.8643C0.451782 33.0998 32.6873 0.864258 72.4518 0.864258H828.452C868.216 0.864258 900.452 33.0998 900.452 72.8643V400.864C900.452 440.629 868.216 472.864 828.452 472.864H72.4518C32.6873 472.864 0.451782 440.629 0.451782 400.864ZM84.4161 179.861C69.9416 179.861 58.2076 191.595 58.2076 206.07V267.659C58.2076 282.134 69.9416 293.868 84.4161 293.868C98.8907 293.868 110.625 282.134 110.625 267.659V206.07C110.625 191.595 98.8907 179.861 84.4161 179.861Z" fill="#FEEAE7"/>
<path d="M-9.54822 72.8643V400.864H10.4518V72.8643H-9.54822ZM72.4518 -9.13574C27.1644 -9.13574 -9.54822 27.5769 -9.54822 72.8643H10.4518C10.4518 38.6226 38.2101 10.8643 72.4518 10.8643V-9.13574ZM828.452 -9.13574H72.4518V10.8643H828.452V-9.13574ZM910.452 72.8643C910.452 27.5769 873.739 -9.13574 828.452 -9.13574V10.8643C862.693 10.8643 890.452 38.6226 890.452 72.8643H910.452ZM910.452 400.864V72.8643H890.452V400.864H910.452ZM828.452 482.864C873.739 482.864 910.452 446.152 910.452 400.864H890.452C890.452 435.106 862.693 462.864 828.452 462.864V482.864ZM72.4518 482.864H828.452V462.864H72.4518V482.864ZM-9.54822 400.864C-9.54822 446.152 27.1644 482.864 72.4518 482.864V462.864C38.2101 462.864 10.4518 435.106 10.4518 400.864H-9.54822ZM68.2076 206.07C68.2076 197.118 75.4644 189.861 84.4161 189.861V169.861C64.4187 169.861 48.2076 186.072 48.2076 206.07H68.2076ZM68.2076 267.659V206.07H48.2076V267.659H68.2076ZM84.4161 283.868C75.4644 283.868 68.2076 276.611 68.2076 267.659H48.2076C48.2076 287.657 64.4187 303.868 84.4161 303.868V283.868ZM100.625 267.659C100.625 276.611 93.3678 283.868 84.4161 283.868V303.868C104.414 303.868 120.625 287.657 120.625 267.659H100.625ZM100.625 206.07V267.659H120.625V206.07H100.625ZM84.4161 189.861C93.3678 189.861 100.625 197.118 100.625 206.07H120.625C120.625 186.072 104.414 169.861 84.4161 169.861V189.861Z" fill="#3D2505" mask="url(#path-2-inside-1_125_4852)"/>
<rect x="179.31" y="59.0762" width="230.128" height="322" rx="11" fill="#894E00" stroke="#3D2505" stroke-width="10"/>
<rect x="206.374" y="87.6553" width="72" height="114.421" rx="4" fill="#894E00"/>
<rect x="201.374" y="82.6553" width="82" height="124.421" rx="9" stroke="#3D2505" stroke-width="10"/>
<path fill-rule="evenodd" clip-rule="evenodd" d="M206.374 192.108L267.878 192.108V90.127C267.878 89.2863 267.943 88.4609 268.068 87.6553H274.374C276.583 87.6553 278.374 89.4461 278.374 91.6553V198.076C278.374 200.285 276.583 202.076 274.374 202.076H210.374C208.165 202.076 206.374 200.285 206.374 198.076V192.108Z" fill="#693E00"/>
<rect x="310.374" y="87.6553" width="72" height="114.421" rx="4" fill="#894E00"/>
<rect x="305.374" y="82.6553" width="82" height="124.421" rx="9" stroke="#3D2505" stroke-width="10"/>
<path fill-rule="evenodd" clip-rule="evenodd" d="M310.374 192.108L371.878 192.108V90.127C371.878 89.2863 371.943 88.4609 372.068 87.6553H378.374C380.583 87.6553 382.374 89.4461 382.374 91.6553V198.076C382.374 200.285 380.583 202.076 378.374 202.076H314.374C312.165 202.076 310.374 200.285 310.374 198.076V192.108Z" fill="#693E00"/>
<rect x="206.374" y="238.076" width="72" height="114.421" rx="4" fill="#894E00"/>
<rect x="201.374" y="233.076" width="82" height="124.421" rx="9" stroke="#3D2505" stroke-width="10"/>
<path fill-rule="evenodd" clip-rule="evenodd" d="M206.374 342.529L267.878 342.529V240.548C267.878 239.707 267.943 238.882 268.068 238.076H274.374C276.583 238.076 278.374 239.867 278.374 242.076V348.497C278.374 350.706 276.583 352.497 274.374 352.497H210.374C208.165 352.497 206.374 350.706 206.374 348.497V342.529Z" fill="#693E00"/>
<rect x="310.374" y="238.076" width="72" height="114.421" rx="4" fill="#894E00"/>
<rect x="305.374" y="233.076" width="82" height="124.421" rx="9" stroke="#3D2505" stroke-width="10"/>
<path fill-rule="evenodd" clip-rule="evenodd" d="M310.374 342.529L371.878 342.529V240.548C371.878 239.707 371.943 238.882 372.068 238.076H378.374C380.583 238.076 382.374 239.867 382.374 242.076V348.497C382.374 350.706 380.583 352.497 378.374 352.497H314.374C312.165 352.497 310.374 350.706 310.374 348.497V342.529Z" fill="#693E00"/>
<rect x="666.877" y="78.2106" width="121.653" height="322" rx="11" transform="rotate(7.99832 666.877 78.2106)" fill="#894E00" stroke="#3D2505" stroke-width="10"/>
<rect x="687.485" y="109.967" width="72" height="114.421" rx="4" transform="rotate(7.99832 687.485 109.967)" fill="#894E00"/>
<rect x="683.23" y="104.32" width="82" height="124.421" rx="9" transform="rotate(7.99832 683.23 104.32)" stroke="#3D2505" stroke-width="10"/>
<path fill-rule="evenodd" clip-rule="evenodd" d="M672.951 213.404L733.857 221.962L748.047 120.972C748.164 120.14 748.343 119.332 748.579 118.551L754.824 119.429C757.011 119.736 758.536 121.759 758.228 123.946L743.42 229.332C743.113 231.52 741.09 233.044 738.903 232.736L675.525 223.831C673.338 223.524 671.813 221.501 672.121 219.313L672.951 213.404Z" fill="#693E00"/>
<rect x="666.555" y="258.925" width="72" height="114.421" rx="4" transform="rotate(7.99832 666.555 258.925)" fill="#894E00"/>
<rect x="662.299" y="253.278" width="82" height="124.421" rx="9" transform="rotate(7.99832 662.299 253.278)" stroke="#3D2505" stroke-width="10"/>
<path fill-rule="evenodd" clip-rule="evenodd" d="M652.021 362.362L712.927 370.92L727.117 269.93C727.234 269.098 727.413 268.29 727.649 267.509L733.893 268.387C736.081 268.694 737.605 270.717 737.298 272.904L722.49 378.29C722.183 380.478 720.16 382.002 717.972 381.694L654.595 372.789C652.407 372.482 650.883 370.459 651.191 368.272L652.021 362.362Z" fill="#693E00"/>
<rect x="528.948" y="74.3022" width="121.653" height="322" rx="11" transform="rotate(-1.23541 528.948 74.3022)" fill="#894E00" stroke="#3D2505" stroke-width="10"/>
<rect x="554.385" y="102.341" width="72" height="114.421" rx="4" transform="rotate(-1.23541 554.385 102.341)" fill="#894E00"/>
<rect x="549.278" y="97.4498" width="82" height="124.421" rx="9" transform="rotate(-1.23541 549.278 97.4498)" stroke="#3D2505" stroke-width="10"/>
<path fill-rule="evenodd" clip-rule="evenodd" d="M556.637 206.77L618.127 205.444L615.928 103.486C615.91 102.645 615.957 101.819 616.065 101.011L622.369 100.875C624.577 100.827 626.407 102.579 626.454 104.788L628.749 211.184C628.796 213.392 627.044 215.221 624.836 215.269L560.851 216.649C558.642 216.696 556.813 214.945 556.765 212.736L556.637 206.77Z" fill="#693E00"/>
<rect x="557.628" y="252.727" width="72" height="114.421" rx="4" transform="rotate(-1.23541 557.628 252.727)" fill="#894E00"/>
<rect x="552.521" y="247.836" width="82" height="124.421" rx="9" transform="rotate(-1.23541 552.521 247.836)" stroke="#3D2505" stroke-width="10"/>
<path fill-rule="evenodd" clip-rule="evenodd" d="M559.88 357.155L621.37 355.829L619.171 253.872C619.153 253.031 619.2 252.205 619.308 251.396L625.612 251.26C627.821 251.213 629.65 252.965 629.697 255.173L631.992 361.569C632.039 363.778 630.288 365.607 628.079 365.655L564.094 367.035C561.885 367.082 560.056 365.33 560.009 363.122L559.88 357.155Z" fill="#693E00"/>
<rect x="444.98" y="91.3435" width="121.653" height="322" rx="11" transform="rotate(0.593336 444.98 91.3435)" fill="#894E00" stroke="#3D2505" stroke-width="10"/>
<rect x="469.509" y="120.179" width="72" height="114.421" rx="4" transform="rotate(0.593336 469.509 120.179)" fill="#894E00"/>
<rect x="464.561" y="115.127" width="82" height="124.421" rx="9" transform="rotate(0.593336 464.561 115.127)" stroke="#3D2505" stroke-width="10"/>
<path fill-rule="evenodd" clip-rule="evenodd" d="M468.427 224.626L529.928 225.263L530.984 123.287C530.993 122.447 531.066 121.622 531.2 120.818L537.505 120.883C539.714 120.906 541.486 122.715 541.463 124.924L540.361 231.339C540.338 233.548 538.529 235.32 536.32 235.298L472.324 234.635C470.115 234.612 468.342 232.803 468.365 230.594L468.427 224.626Z" fill="#693E00"/>
<rect x="467.951" y="270.592" width="72" height="114.421" rx="4" transform="rotate(0.593336 467.951 270.592)" fill="#894E00"/>
<rect x="463.003" y="265.54" width="82" height="124.421" rx="9" transform="rotate(0.593336 463.003 265.54)" stroke="#3D2505" stroke-width="10"/>
<path fill-rule="evenodd" clip-rule="evenodd" d="M466.869 375.039L528.371 375.676L529.427 273.7C529.435 272.86 529.509 272.035 529.642 271.231L535.947 271.296C538.156 271.319 539.929 273.128 539.906 275.337L538.804 381.752C538.781 383.961 536.972 385.734 534.763 385.711L470.766 385.048C468.557 385.025 466.785 383.216 466.808 381.007L466.869 375.039Z" fill="#693E00"/>
</svg>
