<svg width="901" height="502" viewBox="0 0 901 502" fill="none" xmlns="http://www.w3.org/2000/svg">
<path d="M895.452 429.465C895.452 466.468 865.455 496.465 828.452 496.465L72.4518 496.465C35.4487 496.465 5.45178 466.468 5.45178 429.465L5.45178 419.439C18.689 442.744 43.7345 458.465 72.4518 458.465L828.452 458.465C857.169 458.465 882.215 442.744 895.452 419.439V429.465Z" fill="#FFC6BD" stroke="#3D2505" stroke-width="10"/>
<mask id="path-2-inside-1_125_4851" fill="white">
<path fill-rule="evenodd" clip-rule="evenodd" d="M0.451782 400.56V72.5596C0.451782 32.7951 32.6873 0.55957 72.4518 0.55957H828.452C868.216 0.55957 900.452 32.7951 900.452 72.5596V400.56C900.452 440.324 868.216 472.56 828.452 472.56H72.4518C32.6873 472.56 0.451782 440.324 0.451782 400.56ZM84.4161 179.557C69.9416 179.557 58.2076 191.291 58.2076 205.765V267.355C58.2076 281.829 69.9416 293.563 84.4161 293.563C98.8907 293.563 110.625 281.829 110.625 267.355V205.765C110.625 191.291 98.8907 179.557 84.4161 179.557Z"/>
</mask>
<path fill-rule="evenodd" clip-rule="evenodd" d="M0.451782 400.56V72.5596C0.451782 32.7951 32.6873 0.55957 72.4518 0.55957H828.452C868.216 0.55957 900.452 32.7951 900.452 72.5596V400.56C900.452 440.324 868.216 472.56 828.452 472.56H72.4518C32.6873 472.56 0.451782 440.324 0.451782 400.56ZM84.4161 179.557C69.9416 179.557 58.2076 191.291 58.2076 205.765V267.355C58.2076 281.829 69.9416 293.563 84.4161 293.563C98.8907 293.563 110.625 281.829 110.625 267.355V205.765C110.625 191.291 98.8907 179.557 84.4161 179.557Z" fill="#FEEAE7"/>
<path d="M-9.54822 72.5596V400.56H10.4518V72.5596H-9.54822ZM72.4518 -9.44043C27.1644 -9.44043 -9.54822 27.2722 -9.54822 72.5596H10.4518C10.4518 38.3179 38.2101 10.5596 72.4518 10.5596V-9.44043ZM828.452 -9.44043H72.4518V10.5596H828.452V-9.44043ZM910.452 72.5596C910.452 27.2722 873.739 -9.44043 828.452 -9.44043V10.5596C862.693 10.5596 890.452 38.3179 890.452 72.5596H910.452ZM910.452 400.56V72.5596H890.452V400.56H910.452ZM828.452 482.56C873.739 482.56 910.452 445.847 910.452 400.56H890.452C890.452 434.801 862.693 462.56 828.452 462.56V482.56ZM72.4518 482.56H828.452V462.56H72.4518V482.56ZM-9.54822 400.56C-9.54822 445.847 27.1644 482.56 72.4518 482.56V462.56C38.2101 462.56 10.4518 434.801 10.4518 400.56H-9.54822ZM68.2076 205.765C68.2076 196.813 75.4644 189.557 84.4161 189.557V169.557C64.4187 169.557 48.2076 185.768 48.2076 205.765H68.2076ZM68.2076 267.355V205.765H48.2076V267.355H68.2076ZM84.4161 283.563C75.4644 283.563 68.2076 276.306 68.2076 267.355H48.2076C48.2076 287.352 64.4187 303.563 84.4161 303.563V283.563ZM100.625 267.355C100.625 276.306 93.3678 283.563 84.4161 283.563V303.563C104.414 303.563 120.625 287.352 120.625 267.355H100.625ZM100.625 205.765V267.355H120.625V205.765H100.625ZM84.4161 189.557C93.3678 189.557 100.625 196.813 100.625 205.765H120.625C120.625 185.768 104.414 169.557 84.4161 169.557V189.557Z" fill="#3D2505" mask="url(#path-2-inside-1_125_4851)"/>
<rect x="4.08346" y="5.42748" width="121.131" height="82.6658" rx="11" transform="matrix(0.994836 0.101492 -0.178144 0.984004 193.496 56.0415)" fill="#894E00" stroke="#3D2505" stroke-width="10"/>
<rect width="71.7145" height="44.0641" rx="4" transform="matrix(0.994836 0.101492 -0.178144 0.984004 217.734 83.2959)" fill="#894E00"/>
<rect x="-4.08346" y="-5.42748" width="81.7145" height="54.0641" rx="9" transform="matrix(0.994836 0.101492 -0.178144 0.984004 216.746 83.6235)" stroke="#3D2505" stroke-width="10"/>
<path fill-rule="evenodd" clip-rule="evenodd" d="M210.571 122.879L271.512 129.096L276.756 100.13C277.496 96.0394 279.748 92.4742 282.84 89.9386L285.099 90.169C287.296 90.3933 288.759 92.3372 288.365 94.511L281.941 129.998C281.547 132.172 279.447 133.752 277.249 133.528L213.863 127.062C211.72 126.843 210.275 124.988 210.571 122.879Z" fill="#693E00"/>
<rect x="4.08346" y="5.42748" width="121.131" height="82.6658" rx="11" transform="matrix(0.994836 0.101492 -0.178144 0.984004 166.12 296.827)" fill="#894E00" stroke="#3D2505" stroke-width="10"/>
<rect width="71.7145" height="44.0641" rx="4" transform="matrix(0.994836 0.101492 -0.178144 0.984004 190.357 324.081)" fill="#894E00"/>
<rect x="-4.08346" y="-5.42748" width="81.7145" height="54.0641" rx="9" transform="matrix(0.994836 0.101492 -0.178144 0.984004 189.369 324.409)" stroke="#3D2505" stroke-width="10"/>
<path fill-rule="evenodd" clip-rule="evenodd" d="M183.194 363.664L244.135 369.881L249.379 340.915C250.12 336.825 252.371 333.259 255.463 330.724L257.722 330.954C259.92 331.178 261.382 333.122 260.989 335.296L254.564 370.783C254.171 372.957 252.07 374.538 249.872 374.313L186.487 367.847C184.343 367.628 182.899 365.773 183.194 363.664Z" fill="#693E00"/>
<rect x="-4.08346" y="5.42748" width="121.131" height="82.6658" rx="11" transform="matrix(-0.994836 0.101492 0.178144 0.984004 810.541 121.126)" fill="#894E00" stroke="#3D2505" stroke-width="10"/>
<rect width="71.7145" height="44.0641" rx="4" transform="matrix(-0.994836 0.101492 0.178144 0.984004 794.428 147.552)" fill="#894E00"/>
<rect x="4.08346" y="-5.42748" width="81.7145" height="54.0641" rx="9" transform="matrix(-0.994836 0.101492 0.178144 0.984004 803.54 147.051)" stroke="#3D2505" stroke-width="10"/>
<path fill-rule="evenodd" clip-rule="evenodd" d="M801.591 187.135L740.65 193.352L735.406 164.386C734.665 160.295 732.414 156.73 729.321 154.194L727.063 154.425C724.865 154.649 723.403 156.593 723.796 158.767L730.221 194.254C730.614 196.428 732.715 198.008 734.913 197.784L798.298 191.318C800.442 191.099 801.886 189.244 801.591 187.135Z" fill="#693E00"/>
<rect x="4.08346" y="-5.42748" width="121.131" height="82.6658" rx="11" transform="matrix(0.994836 -0.101492 -0.178144 -0.984004 195.908 323.833)" fill="#894E00" stroke="#3D2505" stroke-width="10"/>
<rect width="71.7145" height="44.0641" rx="4" transform="matrix(0.994836 -0.101492 -0.178144 -0.984004 222.08 307.26)" fill="#894E00"/>
<rect x="-4.08346" y="5.42748" width="81.7145" height="54.0641" rx="9" transform="matrix(0.994836 -0.101492 -0.178144 -0.984004 223.026 317.613)" stroke="#3D2505" stroke-width="10"/>
<path fill-rule="evenodd" clip-rule="evenodd" d="M214.917 267.676L275.858 261.459L281.102 290.426C281.842 294.516 284.094 298.081 287.186 300.617L289.445 300.387C291.642 300.162 293.105 298.218 292.711 296.045L286.287 260.557C285.893 258.384 283.793 256.803 281.595 257.027L218.209 263.494C216.066 263.713 214.621 265.568 214.917 267.676Z" fill="#693E00"/>
<rect x="5.11369" y="4.47018" width="121.131" height="82.6658" rx="11" transform="matrix(0.994412 -0.105564 0.0283247 0.999599 315.718 81.774)" fill="#894E00" stroke="#3D2505" stroke-width="10"/>
<rect width="71.7145" height="44.0641" rx="4" transform="matrix(0.994412 -0.105564 0.0283247 0.999599 346.047 102.387)" fill="#894E00"/>
<rect x="-5.11369" y="-4.47018" width="81.7145" height="54.0641" rx="9" transform="matrix(0.994412 -0.105564 0.0283247 0.999599 346.145 101.845)" stroke="#3D2505" stroke-width="10"/>
<path fill-rule="evenodd" clip-rule="evenodd" d="M347.19 142.596L408.104 136.13L407.27 106.704C407.153 102.549 408.622 98.5966 411.126 95.4785L413.383 95.2389C415.58 95.0057 417.411 96.6068 417.474 98.815L418.496 134.865C418.558 137.073 416.828 139.052 414.631 139.285L351.273 146.011C349.13 146.239 347.334 144.721 347.19 142.596Z" fill="#693E00"/>
<rect x="5.11369" y="4.47018" width="121.131" height="82.6658" rx="11" transform="matrix(0.994412 -0.105564 0.0283247 0.999599 306.477 307.538)" fill="#894E00" stroke="#3D2505" stroke-width="10"/>
<rect width="71.7145" height="44.0641" rx="4" transform="matrix(0.994412 -0.105564 0.0283247 0.999599 336.805 328.15)" fill="#894E00"/>
<rect x="-5.11369" y="-4.47018" width="81.7145" height="54.0641" rx="9" transform="matrix(0.994412 -0.105564 0.0283247 0.999599 336.903 327.609)" stroke="#3D2505" stroke-width="10"/>
<path fill-rule="evenodd" clip-rule="evenodd" d="M337.948 368.36L398.863 361.893L398.029 332.468C397.911 328.313 399.38 324.36 401.884 321.242L404.141 321.003C406.338 320.769 408.17 322.37 408.232 324.579L409.254 360.628C409.316 362.837 407.586 364.816 405.39 365.049L342.031 371.775C339.888 372.002 338.093 370.484 337.948 368.36Z" fill="#693E00"/>
<rect x="-5.11369" y="4.47018" width="121.131" height="82.6658" rx="11" transform="matrix(-0.994412 -0.105564 -0.0283247 0.999599 683.779 164.452)" fill="#894E00" stroke="#3D2505" stroke-width="10"/>
<rect width="71.7145" height="44.0641" rx="4" transform="matrix(-0.994412 -0.105564 -0.0283247 0.999599 663.62 186.145)" fill="#894E00"/>
<rect x="5.11369" y="-4.47018" width="81.7145" height="54.0641" rx="9" transform="matrix(-0.994412 -0.105564 -0.0283247 0.999599 673.693 186.683)" stroke="#3D2505" stroke-width="10"/>
<path fill-rule="evenodd" clip-rule="evenodd" d="M662.478 226.354L601.563 219.888L602.397 190.462C602.515 186.307 601.045 182.354 598.542 179.236L596.284 178.997C594.087 178.763 592.256 180.365 592.193 182.573L591.172 218.622C591.109 220.831 592.839 222.81 595.036 223.043L658.395 229.769C660.537 229.996 662.333 228.478 662.478 226.354Z" fill="#693E00"/>
<rect x="3.80662" y="-5.62511" width="121.131" height="82.6658" rx="11" transform="matrix(0.988508 -0.151171 -0.227184 -0.973852 315.403 322.858)" fill="#894E00" stroke="#3D2505" stroke-width="10"/>
<rect width="71.7145" height="44.0641" rx="4" transform="matrix(0.988508 -0.151171 -0.227184 -0.973852 340.483 305.229)" fill="#894E00"/>
<rect x="-3.80662" y="5.62511" width="81.7145" height="54.0641" rx="9" transform="matrix(0.988508 -0.151171 -0.227184 -0.973852 341.717 315.757)" stroke="#3D2505" stroke-width="10"/>
<path fill-rule="evenodd" clip-rule="evenodd" d="M331.348 266.055L391.901 256.794L398.588 285.462C399.533 289.51 401.96 292.958 405.175 295.336L407.419 294.993C409.603 294.659 410.967 292.644 410.465 290.492L402.272 255.371C401.77 253.22 399.593 251.747 397.409 252.081L334.427 261.712C332.296 262.038 330.947 263.963 331.348 266.055Z" fill="#693E00"/>
<rect x="5.11369" y="4.47018" width="121.131" height="82.6658" rx="11" transform="matrix(0.994412 -0.105564 0.0283247 0.999599 435.552 81.774)" fill="#894E00" stroke="#3D2505" stroke-width="10"/>
<rect width="71.7145" height="44.0641" rx="4" transform="matrix(0.994412 -0.105564 0.0283247 0.999599 465.88 102.387)" fill="#894E00"/>
<rect x="-5.11369" y="-4.47018" width="81.7145" height="54.0641" rx="9" transform="matrix(0.994412 -0.105564 0.0283247 0.999599 465.978 101.845)" stroke="#3D2505" stroke-width="10"/>
<path fill-rule="evenodd" clip-rule="evenodd" d="M467.023 142.596L527.938 136.13L527.104 106.704C526.986 102.549 528.455 98.5966 530.959 95.4785L533.217 95.2389C535.413 95.0057 537.245 96.6068 537.308 98.815L538.329 134.865C538.392 137.073 536.662 139.052 534.465 139.285L471.106 146.011C468.963 146.239 467.168 144.721 467.023 142.596Z" fill="#693E00"/>
<rect x="5.11369" y="4.47018" width="121.131" height="82.6658" rx="11" transform="matrix(0.994412 -0.105564 0.0283247 0.999599 435.552 307.537)" fill="#894E00" stroke="#3D2505" stroke-width="10"/>
<rect width="71.7145" height="44.0641" rx="4" transform="matrix(0.994412 -0.105564 0.0283247 0.999599 465.88 328.149)" fill="#894E00"/>
<rect x="-5.11369" y="-4.47018" width="81.7145" height="54.0641" rx="9" transform="matrix(0.994412 -0.105564 0.0283247 0.999599 465.978 327.608)" stroke="#3D2505" stroke-width="10"/>
<path fill-rule="evenodd" clip-rule="evenodd" d="M467.023 368.359L527.938 361.893L527.104 332.467C526.986 328.312 528.455 324.359 530.959 321.241L533.217 321.002C535.413 320.768 537.245 322.369 537.308 324.578L538.329 360.627C538.392 362.836 536.662 364.815 534.465 365.048L471.106 371.774C468.963 372.001 467.168 370.483 467.023 368.359Z" fill="#693E00"/>
<rect x="-3.34848" y="5.90931" width="121.131" height="82.6658" rx="11" transform="matrix(-0.973404 0.229096 0.303707 0.952765 536.373 135.413)" fill="#894E00" stroke="#3D2505" stroke-width="10"/>
<rect width="71.7145" height="44.0641" rx="4" transform="matrix(-0.973404 0.229096 0.303707 0.952765 523.238 164.326)" fill="#894E00"/>
<rect x="3.34848" y="-5.90931" width="81.7145" height="54.0641" rx="9" transform="matrix(-0.973404 0.229096 0.303707 0.952765 531.641 163.28)" stroke="#3D2505" stroke-width="10"/>
<path fill-rule="evenodd" clip-rule="evenodd" d="M535.452 202.654L475.824 216.688L466.884 188.641C465.621 184.68 462.928 181.435 459.534 179.32L457.325 179.841C455.174 180.347 453.975 182.463 454.646 184.568L465.599 218.929C466.27 221.033 468.557 222.329 470.707 221.823L532.727 207.226C534.825 206.733 536.017 204.707 535.452 202.654Z" fill="#693E00"/>
<rect x="5.11369" y="-4.47018" width="121.131" height="82.6658" rx="11" transform="matrix(0.994412 0.105564 0.0283247 -0.999599 419.859 297.258)" fill="#894E00" stroke="#3D2505" stroke-width="10"/>
<rect width="71.7145" height="44.0641" rx="4" transform="matrix(0.994412 0.105564 0.0283247 -0.999599 449.934 285.582)" fill="#894E00"/>
<rect x="-5.11369" y="4.47018" width="81.7145" height="54.0641" rx="9" transform="matrix(0.994412 0.105564 0.0283247 -0.999599 449.779 295.06)" stroke="#3D2505" stroke-width="10"/>
<path fill-rule="evenodd" clip-rule="evenodd" d="M451.077 245.372L511.991 251.839L511.157 281.265C511.04 285.42 512.509 289.372 515.012 292.49L517.27 292.73C519.467 292.963 521.298 291.362 521.361 289.154L522.383 253.104C522.445 250.896 520.715 248.917 518.518 248.684L455.16 241.958C453.017 241.73 451.221 243.248 451.077 245.372Z" fill="#693E00"/>
<rect x="4.5978" y="4.99925" width="121.131" height="82.6658" rx="11" transform="matrix(0.999995 0.00308986 -0.0804351 0.99676 584.479 56.3711)" fill="#894E00" stroke="#3D2505" stroke-width="10"/>
<rect width="71.7145" height="44.0641" rx="4" transform="matrix(0.999995 0.00308986 -0.0804351 0.99676 611.83 80.6826)" fill="#894E00"/>
<rect x="-4.5978" y="-4.99925" width="81.7145" height="54.0641" rx="9" transform="matrix(0.999995 0.00308986 -0.0804351 0.99676 611.428 80.6806)" stroke="#3D2505" stroke-width="10"/>
<path fill-rule="evenodd" clip-rule="evenodd" d="M608.598 120.779L669.855 120.968L672.222 91.6262C672.557 87.4828 674.447 83.7134 677.274 80.8858L679.544 80.8928C681.754 80.8996 683.4 82.6902 683.223 84.8922L680.322 120.839C680.144 123.041 678.209 124.821 676 124.814L612.286 124.617C610.131 124.611 608.511 122.907 608.598 120.779Z" fill="#693E00"/>
<rect x="4.5978" y="4.99925" width="121.131" height="82.6658" rx="11" transform="matrix(0.999995 0.00308986 -0.0804351 0.99676 558.472 300.006)" fill="#894E00" stroke="#3D2505" stroke-width="10"/>
<rect width="71.7145" height="44.0641" rx="4" transform="matrix(0.999995 0.00308986 -0.0804351 0.99676 585.823 324.317)" fill="#894E00"/>
<rect x="-4.5978" y="-4.99925" width="81.7145" height="54.0641" rx="9" transform="matrix(0.999995 0.00308986 -0.0804351 0.99676 585.421 324.315)" stroke="#3D2505" stroke-width="10"/>
<path fill-rule="evenodd" clip-rule="evenodd" d="M582.591 364.414L643.848 364.603L646.215 335.261C646.55 331.118 648.44 327.348 651.267 324.521L653.537 324.528C655.747 324.534 657.393 326.325 657.216 328.527L654.315 364.474C654.137 366.676 652.202 368.456 649.993 368.449L586.279 368.252C584.124 368.245 582.504 366.541 582.591 364.414Z" fill="#693E00"/>
<rect x="-5.53743" y="3.93309" width="121.131" height="82.6658" rx="11" transform="matrix(-0.978749 -0.205062 -0.128736 0.991679 404.192 167.876)" fill="#894E00" stroke="#3D2505" stroke-width="10"/>
<rect width="71.7145" height="44.0641" rx="4" transform="matrix(-0.978749 -0.205062 -0.128736 0.991679 382.438 186.985)" fill="#894E00"/>
<rect x="5.53743" y="-3.93309" width="81.7145" height="54.0641" rx="9" transform="matrix(-0.978749 -0.205062 -0.128736 0.991679 392.889 188.088)" stroke="#3D2505" stroke-width="10"/>
<path fill-rule="evenodd" clip-rule="evenodd" d="M377.256 226.876L317.301 214.315L321.091 185.122C321.626 181 320.562 176.92 318.384 173.566L316.162 173.1C314 172.647 312.017 174.056 311.732 176.247L307.09 212.011C306.805 214.202 308.328 216.345 310.49 216.798L372.85 229.863C374.959 230.305 376.898 228.975 377.256 226.876Z" fill="#693E00"/>
<rect x="4.5978" y="-4.99925" width="121.131" height="82.6658" rx="11" transform="matrix(0.999995 -0.00308986 -0.0804351 -0.99676 583.677 297.291)" fill="#894E00" stroke="#3D2505" stroke-width="10"/>
<rect width="71.7145" height="44.0641" rx="4" transform="matrix(0.999995 -0.00308986 -0.0804351 -0.99676 611.832 282.945)" fill="#894E00"/>
<rect x="-4.5978" y="4.99925" width="81.7145" height="54.0641" rx="9" transform="matrix(0.999995 -0.00308986 -0.0804351 -0.99676 612.234 292.913)" stroke="#3D2505" stroke-width="10"/>
<path fill-rule="evenodd" clip-rule="evenodd" d="M608.6 242.849L669.856 242.66L672.224 272.002C672.558 276.145 674.448 279.915 677.276 282.742L679.546 282.735C681.755 282.728 683.402 280.938 683.224 278.736L680.324 242.789C680.146 240.587 678.211 238.807 676.002 238.814L612.288 239.011C610.133 239.017 608.513 240.721 608.6 242.849Z" fill="#693E00"/>
<rect x="4.5978" y="4.99925" width="121.131" height="82.6658" rx="11" transform="matrix(0.999995 0.00308986 -0.0804351 0.99676 705.433 66.9854)" fill="#894E00" stroke="#3D2505" stroke-width="10"/>
<rect width="71.7145" height="44.0641" rx="4" transform="matrix(0.999995 0.00308986 -0.0804351 0.99676 732.785 91.2969)" fill="#894E00"/>
<rect x="-4.5978" y="-4.99925" width="81.7145" height="54.0641" rx="9" transform="matrix(0.999995 0.00308986 -0.0804351 0.99676 732.383 91.2949)" stroke="#3D2505" stroke-width="10"/>
<path fill-rule="evenodd" clip-rule="evenodd" d="M729.552 131.393L790.809 131.583L793.177 102.24C793.511 98.0971 795.401 94.3276 798.229 91.5001L800.499 91.5071C802.708 91.5139 804.355 93.3045 804.177 95.5065L801.276 131.454C801.099 133.656 799.164 135.435 796.954 135.428L733.24 135.231C731.085 135.225 729.465 133.521 729.552 131.393Z" fill="#693E00"/>
<rect x="4.5978" y="4.99925" width="121.131" height="82.6658" rx="11" transform="matrix(0.999995 0.00308986 -0.0804351 0.99676 679.003 308.878)" fill="#894E00" stroke="#3D2505" stroke-width="10"/>
<rect width="71.7145" height="44.0641" rx="4" transform="matrix(0.999995 0.00308986 -0.0804351 0.99676 706.354 333.189)" fill="#894E00"/>
<rect x="-4.5978" y="-4.99925" width="81.7145" height="54.0641" rx="9" transform="matrix(0.999995 0.00308986 -0.0804351 0.99676 705.952 333.187)" stroke="#3D2505" stroke-width="10"/>
<path fill-rule="evenodd" clip-rule="evenodd" d="M703.122 373.286L764.379 373.475L766.747 344.133C767.081 339.99 768.971 336.22 771.798 333.393L774.069 333.4C776.278 333.406 777.925 335.197 777.747 337.399L774.846 373.346C774.668 375.548 772.733 377.328 770.524 377.321L706.81 377.124C704.655 377.117 703.035 375.413 703.122 373.286Z" fill="#693E00"/>
<rect x="-4.5978" y="4.99925" width="121.131" height="82.6658" rx="11" transform="matrix(-0.999995 0.00308986 0.0804351 0.99676 271.558 147.177)" fill="#894E00" stroke="#3D2505" stroke-width="10"/>
<rect width="71.7145" height="44.0641" rx="4" transform="matrix(-0.999995 0.00308986 0.0804351 0.99676 253.402 171.46)" fill="#894E00"/>
<rect x="4.5978" y="-4.99925" width="81.7145" height="54.0641" rx="9" transform="matrix(-0.999995 0.00308986 0.0804351 0.99676 263 171.43)" stroke="#3D2505" stroke-width="10"/>
<path fill-rule="evenodd" clip-rule="evenodd" d="M256.635 211.556L195.378 211.746L193.01 182.404C192.676 178.26 190.786 174.491 187.958 171.663L185.688 171.67C183.479 171.677 181.832 173.468 182.01 175.67L184.911 211.617C185.088 213.819 187.023 215.598 189.233 215.591L252.947 215.395C255.102 215.388 256.722 213.684 256.635 211.556Z" fill="#693E00"/>
<rect x="4.5978" y="-4.99925" width="121.131" height="82.6658" rx="11" transform="matrix(0.999995 -0.00308986 -0.0804351 -0.99676 677.874 300.913)" fill="#894E00" stroke="#3D2505" stroke-width="10"/>
<rect width="71.7145" height="44.0641" rx="4" transform="matrix(0.999995 -0.00308986 -0.0804351 -0.99676 706.03 286.567)" fill="#894E00"/>
<rect x="-4.5978" y="4.99925" width="81.7145" height="54.0641" rx="9" transform="matrix(0.999995 -0.00308986 -0.0804351 -0.99676 706.432 296.535)" stroke="#3D2505" stroke-width="10"/>
<path fill-rule="evenodd" clip-rule="evenodd" d="M702.797 246.471L764.054 246.282L766.422 275.624C766.756 279.767 768.646 283.537 771.474 286.364L773.744 286.357C775.953 286.35 777.6 284.56 777.422 282.358L774.521 246.411C774.344 244.209 772.409 242.429 770.2 242.436L706.485 242.633C704.33 242.639 702.711 244.343 702.797 246.471Z" fill="#693E00"/>
</svg>
