<svg width="901" height="502" viewBox="0 0 901 502" fill="none" xmlns="http://www.w3.org/2000/svg">
<path d="M895.452 429.041C895.452 466.044 865.455 496.041 828.452 496.041L72.4518 496.041C35.4487 496.041 5.45178 466.044 5.45178 429.041L5.45178 419.016C18.689 442.32 43.7345 458.041 72.4518 458.041L828.452 458.041C857.169 458.041 882.215 442.32 895.452 419.016V429.041Z" fill="#FFC6BD" stroke="#3D2505" stroke-width="10"/>
<mask id="path-2-inside-1_125_4850" fill="white">
<path fill-rule="evenodd" clip-rule="evenodd" d="M0.451782 400.136V72.1357C0.451782 32.3712 32.6873 0.135742 72.4518 0.135742H828.452C868.216 0.135742 900.452 32.3712 900.452 72.1357V400.136C900.452 439.9 868.216 472.136 828.452 472.136H72.4518C32.6873 472.136 0.451782 439.9 0.451782 400.136ZM84.4161 179.133C69.9416 179.133 58.2076 190.867 58.2076 205.341V266.931C58.2076 281.405 69.9416 293.139 84.4161 293.139C98.8907 293.139 110.625 281.405 110.625 266.931V205.341C110.625 190.867 98.8907 179.133 84.4161 179.133Z"/>
</mask>
<path fill-rule="evenodd" clip-rule="evenodd" d="M0.451782 400.136V72.1357C0.451782 32.3712 32.6873 0.135742 72.4518 0.135742H828.452C868.216 0.135742 900.452 32.3712 900.452 72.1357V400.136C900.452 439.9 868.216 472.136 828.452 472.136H72.4518C32.6873 472.136 0.451782 439.9 0.451782 400.136ZM84.4161 179.133C69.9416 179.133 58.2076 190.867 58.2076 205.341V266.931C58.2076 281.405 69.9416 293.139 84.4161 293.139C98.8907 293.139 110.625 281.405 110.625 266.931V205.341C110.625 190.867 98.8907 179.133 84.4161 179.133Z" fill="#FEEAE7"/>
<path d="M-9.54822 72.1357V400.136H10.4518V72.1357H-9.54822ZM72.4518 -9.86426C27.1644 -9.86426 -9.54822 26.8484 -9.54822 72.1357H10.4518C10.4518 37.8941 38.2101 10.1357 72.4518 10.1357V-9.86426ZM828.452 -9.86426H72.4518V10.1357H828.452V-9.86426ZM910.452 72.1357C910.452 26.8484 873.739 -9.86426 828.452 -9.86426V10.1357C862.693 10.1357 890.452 37.8941 890.452 72.1357H910.452ZM910.452 400.136V72.1357H890.452V400.136H910.452ZM828.452 482.136C873.739 482.136 910.452 445.423 910.452 400.136H890.452C890.452 434.377 862.693 462.136 828.452 462.136V482.136ZM72.4518 482.136H828.452V462.136H72.4518V482.136ZM-9.54822 400.136C-9.54822 445.423 27.1644 482.136 72.4518 482.136V462.136C38.2101 462.136 10.4518 434.377 10.4518 400.136H-9.54822ZM68.2076 205.341C68.2076 196.39 75.4644 189.133 84.4161 189.133V169.133C64.4187 169.133 48.2076 185.344 48.2076 205.341H68.2076ZM68.2076 266.931V205.341H48.2076V266.931H68.2076ZM84.4161 283.139C75.4644 283.139 68.2076 275.882 68.2076 266.931H48.2076C48.2076 286.928 64.4187 303.139 84.4161 303.139V283.139ZM100.625 266.931C100.625 275.882 93.3678 283.139 84.4161 283.139V303.139C104.414 303.139 120.625 286.928 120.625 266.931H100.625ZM100.625 205.341V266.931H120.625V205.341H100.625ZM84.4161 189.133C93.3678 189.133 100.625 196.39 100.625 205.341H120.625C120.625 185.344 104.414 169.133 84.4161 169.133V189.133Z" fill="#3D2505" mask="url(#path-2-inside-1_125_4850)"/>
<rect x="425.466" y="237.141" width="121.653" height="171.801" rx="11" transform="rotate(-10.4638 425.466 237.141)" fill="#894E00" stroke="#3D2505" stroke-width="10"/>
<rect x="455.07" y="260.736" width="72" height="114.421" rx="4" transform="rotate(-10.4638 455.07 260.736)" fill="#894E00"/>
<rect x="449.245" y="256.728" width="82" height="124.421" rx="9" transform="rotate(-10.4638 449.245 256.728)" stroke="#3D2505" stroke-width="10"/>
<path fill-rule="evenodd" clip-rule="evenodd" d="M474.04 363.452L534.522 352.282L516.001 251.997C515.848 251.17 515.762 250.347 515.738 249.532L521.939 248.387C524.112 247.985 526.198 249.421 526.599 251.594L545.927 356.245C546.328 358.417 544.892 360.503 542.72 360.905L479.784 372.528C477.612 372.929 475.525 371.493 475.124 369.321L474.04 363.452Z" fill="#693E00"/>
<rect x="558.551" y="250.598" width="121.653" height="171.801" rx="11" transform="rotate(-10.4638 558.551 250.598)" fill="#894E00" stroke="#3D2505" stroke-width="10"/>
<rect x="588.155" y="274.193" width="72" height="114.421" rx="4" transform="rotate(-10.4638 588.155 274.193)" fill="#894E00"/>
<rect x="582.33" y="270.185" width="82" height="124.421" rx="9" transform="rotate(-10.4638 582.33 270.185)" stroke="#3D2505" stroke-width="10"/>
<path fill-rule="evenodd" clip-rule="evenodd" d="M607.125 376.909L667.607 365.739L649.085 265.454C648.933 264.627 648.847 263.804 648.823 262.989L655.024 261.844C657.196 261.442 659.283 262.878 659.684 265.051L679.011 369.702C679.413 371.874 677.977 373.96 675.804 374.362L612.869 385.985C610.696 386.386 608.61 384.95 608.209 382.778L607.125 376.909Z" fill="#693E00"/>
<rect x="679.505" y="245.694" width="121.653" height="171.801" rx="11" transform="rotate(-10.4638 679.505 245.694)" fill="#894E00" stroke="#3D2505" stroke-width="10"/>
<rect x="709.109" y="269.29" width="72" height="114.421" rx="4" transform="rotate(-10.4638 709.109 269.29)" fill="#894E00"/>
<rect x="703.284" y="265.281" width="82" height="124.421" rx="9" transform="rotate(-10.4638 703.284 265.281)" stroke="#3D2505" stroke-width="10"/>
<path fill-rule="evenodd" clip-rule="evenodd" d="M728.079 372.006L788.561 360.836L770.04 260.551C769.887 259.724 769.801 258.9 769.778 258.086L775.978 256.94C778.151 256.539 780.237 257.975 780.638 260.147L799.966 364.798C800.367 366.971 798.931 369.057 796.759 369.458L733.823 381.082C731.651 381.483 729.564 380.047 729.163 377.875L728.079 372.006Z" fill="#693E00"/>
<rect x="185.353" y="231.176" width="121.653" height="171.801" rx="11" transform="rotate(-11.775 185.353 231.176)" fill="#894E00" stroke="#3D2505" stroke-width="10"/>
<rect x="215.489" y="254.089" width="72" height="114.421" rx="4" transform="rotate(-11.775 215.489 254.089)" fill="#894E00"/>
<rect x="209.574" y="250.214" width="82" height="124.421" rx="9" transform="rotate(-11.775 209.574 250.214)" stroke="#3D2505" stroke-width="10"/>
<path fill-rule="evenodd" clip-rule="evenodd" d="M236.805 356.344L297.015 343.793L276.204 243.957C276.032 243.134 275.927 242.313 275.885 241.499L282.058 240.212C284.221 239.761 286.34 241.149 286.79 243.312L308.508 347.493C308.958 349.656 307.571 351.774 305.408 352.225L242.755 365.286C240.592 365.736 238.474 364.349 238.023 362.186L236.805 356.344Z" fill="#693E00"/>
<rect x="320.772" y="233.01" width="121.653" height="171.801" rx="11" transform="rotate(5.14892 320.772 233.01)" fill="#894E00" stroke="#3D2505" stroke-width="10"/>
<rect x="342.934" y="263.702" width="72" height="114.421" rx="4" transform="rotate(5.14892 342.934 263.702)" fill="#894E00"/>
<rect x="338.403" y="258.274" width="82" height="124.421" rx="9" transform="rotate(5.14892 338.403 258.274)" stroke="#3D2505" stroke-width="10"/>
<path fill-rule="evenodd" clip-rule="evenodd" d="M333.56 367.734L394.816 373.253L403.968 271.684C404.044 270.846 404.182 270.03 404.379 269.239L410.659 269.805C412.86 270.003 414.482 271.947 414.284 274.148L404.733 380.139C404.535 382.339 402.591 383.962 400.391 383.764L336.649 378.02C334.449 377.822 332.826 375.878 333.024 373.677L333.56 367.734Z" fill="#693E00"/>
<rect x="4.08346" y="5.42748" width="121.131" height="82.6658" rx="11" transform="matrix(0.994836 0.101492 -0.178144 0.984004 164.643 139.348)" fill="#894E00" stroke="#3D2505" stroke-width="10"/>
<rect width="71.7145" height="44.0641" rx="4" transform="matrix(0.994836 0.101492 -0.178144 0.984004 188.881 166.603)" fill="#894E00"/>
<rect x="-4.08346" y="-5.42748" width="81.7145" height="54.0641" rx="9" transform="matrix(0.994836 0.101492 -0.178144 0.984004 187.893 166.93)" stroke="#3D2505" stroke-width="10"/>
<path fill-rule="evenodd" clip-rule="evenodd" d="M181.718 206.186L242.659 212.403L247.903 183.436C248.643 179.346 250.895 175.781 253.987 173.245L256.246 173.476C258.444 173.7 259.906 175.644 259.513 177.818L253.088 213.305C252.694 215.479 250.594 217.059 248.396 216.835L185.011 210.368C182.867 210.15 181.422 208.294 181.718 206.186Z" fill="#693E00"/>
<rect x="4.08346" y="-5.42748" width="121.131" height="82.6658" rx="11" transform="matrix(0.994836 -0.101492 -0.178144 -0.984004 194.432 166.354)" fill="#894E00" stroke="#3D2505" stroke-width="10"/>
<rect width="71.7145" height="44.0641" rx="4" transform="matrix(0.994836 -0.101492 -0.178144 -0.984004 220.604 149.781)" fill="#894E00"/>
<rect x="-4.08346" y="5.42748" width="81.7145" height="54.0641" rx="9" transform="matrix(0.994836 -0.101492 -0.178144 -0.984004 221.55 160.135)" stroke="#3D2505" stroke-width="10"/>
<path fill-rule="evenodd" clip-rule="evenodd" d="M213.441 110.198L274.381 103.981L279.626 132.947C280.366 137.038 282.618 140.603 285.71 143.139L287.968 142.908C290.166 142.684 291.629 140.74 291.235 138.566L284.811 103.079C284.417 100.905 282.316 99.3247 280.119 99.5489L216.733 106.015C214.589 106.234 213.145 108.089 213.441 110.198Z" fill="#693E00"/>
<rect x="5.11369" y="4.47018" width="121.131" height="82.6658" rx="11" transform="matrix(0.994412 -0.105564 0.0283247 0.999599 314.242 167.184)" fill="#894E00" stroke="#3D2505" stroke-width="10"/>
<rect width="71.7145" height="44.0641" rx="4" transform="matrix(0.994412 -0.105564 0.0283247 0.999599 344.571 187.797)" fill="#894E00"/>
<rect x="-5.11369" y="-4.47018" width="81.7145" height="54.0641" rx="9" transform="matrix(0.994412 -0.105564 0.0283247 0.999599 344.669 187.255)" stroke="#3D2505" stroke-width="10"/>
<path fill-rule="evenodd" clip-rule="evenodd" d="M345.713 228.006L406.628 221.54L405.794 192.114C405.676 187.959 407.146 184.007 409.649 180.889L411.907 180.649C414.104 180.416 415.935 182.017 415.998 184.225L417.019 220.275C417.082 222.483 415.352 224.462 413.155 224.695L349.797 231.421C347.654 231.649 345.858 230.131 345.713 228.006Z" fill="#693E00"/>
<rect x="3.80662" y="-5.62511" width="121.131" height="82.6658" rx="11" transform="matrix(0.988508 -0.151171 -0.227184 -0.973852 313.927 165.38)" fill="#894E00" stroke="#3D2505" stroke-width="10"/>
<rect width="71.7145" height="44.0641" rx="4" transform="matrix(0.988508 -0.151171 -0.227184 -0.973852 339.007 147.751)" fill="#894E00"/>
<rect x="-3.80662" y="5.62511" width="81.7145" height="54.0641" rx="9" transform="matrix(0.988508 -0.151171 -0.227184 -0.973852 340.241 158.279)" stroke="#3D2505" stroke-width="10"/>
<path fill-rule="evenodd" clip-rule="evenodd" d="M329.871 108.576L390.424 99.3158L397.112 127.984C398.057 132.032 400.484 135.48 403.699 137.857L405.943 137.514C408.127 137.18 409.49 135.165 408.989 133.014L400.795 97.8929C400.293 95.7415 398.116 94.2682 395.933 94.6022L332.95 104.234C330.82 104.56 329.471 106.485 329.871 108.576Z" fill="#693E00"/>
<rect x="5.11369" y="4.47018" width="121.131" height="82.6658" rx="11" transform="matrix(0.994412 -0.105564 0.0283247 0.999599 434.076 167.184)" fill="#894E00" stroke="#3D2505" stroke-width="10"/>
<rect width="71.7145" height="44.0641" rx="4" transform="matrix(0.994412 -0.105564 0.0283247 0.999599 464.404 187.797)" fill="#894E00"/>
<rect x="-5.11369" y="-4.47018" width="81.7145" height="54.0641" rx="9" transform="matrix(0.994412 -0.105564 0.0283247 0.999599 464.502 187.255)" stroke="#3D2505" stroke-width="10"/>
<path fill-rule="evenodd" clip-rule="evenodd" d="M465.547 228.006L526.462 221.54L525.628 192.114C525.51 187.959 526.979 184.007 529.483 180.889L531.74 180.649C533.937 180.416 535.769 182.017 535.831 184.225L536.853 220.275C536.915 222.483 535.185 224.462 532.989 224.695L469.63 231.421C467.487 231.649 465.692 230.131 465.547 228.006Z" fill="#693E00"/>
<rect x="5.11369" y="-4.47018" width="121.131" height="82.6658" rx="11" transform="matrix(0.994412 0.105564 0.0283247 -0.999599 437.981 143.781)" fill="#894E00" stroke="#3D2505" stroke-width="10"/>
<rect width="71.7145" height="44.0641" rx="4" transform="matrix(0.994412 0.105564 0.0283247 -0.999599 468.057 132.105)" fill="#894E00"/>
<rect x="-5.11369" y="4.47018" width="81.7145" height="54.0641" rx="9" transform="matrix(0.994412 0.105564 0.0283247 -0.999599 467.901 141.584)" stroke="#3D2505" stroke-width="10"/>
<path fill-rule="evenodd" clip-rule="evenodd" d="M469.199 91.8959L530.114 98.3624L529.28 127.788C529.162 131.943 530.631 135.896 533.135 139.014L535.393 139.253C537.59 139.487 539.421 137.885 539.484 135.677L540.505 99.6276C540.568 97.4193 538.838 95.4402 536.641 95.2069L473.282 88.481C471.139 88.2535 469.344 89.7715 469.199 91.8959Z" fill="#693E00"/>
<rect x="4.5978" y="4.99925" width="121.131" height="82.6658" rx="11" transform="matrix(0.999995 0.00308986 -0.0804351 0.99676 538.167 142.527)" fill="#894E00" stroke="#3D2505" stroke-width="10"/>
<rect width="71.7145" height="44.0641" rx="4" transform="matrix(0.999995 0.00308986 -0.0804351 0.99676 565.518 166.839)" fill="#894E00"/>
<rect x="-4.5978" y="-4.99925" width="81.7145" height="54.0641" rx="9" transform="matrix(0.999995 0.00308986 -0.0804351 0.99676 565.116 166.837)" stroke="#3D2505" stroke-width="10"/>
<path fill-rule="evenodd" clip-rule="evenodd" d="M562.286 206.935L623.542 207.125L625.91 177.782C626.244 173.639 628.134 169.87 630.962 167.042L633.232 167.049C635.441 167.056 637.088 168.846 636.91 171.048L634.009 206.996C633.832 209.198 631.897 210.977 629.688 210.97L565.974 210.773C563.819 210.767 562.199 209.063 562.286 206.935Z" fill="#693E00"/>
<rect x="4.5978" y="-4.99925" width="121.131" height="82.6658" rx="11" transform="matrix(0.999995 -0.00308986 -0.0804351 -0.99676 529.909 129.708)" fill="#894E00" stroke="#3D2505" stroke-width="10"/>
<rect width="71.7145" height="44.0641" rx="4" transform="matrix(0.999995 -0.00308986 -0.0804351 -0.99676 558.064 115.362)" fill="#894E00"/>
<rect x="-4.5978" y="4.99925" width="81.7145" height="54.0641" rx="9" transform="matrix(0.999995 -0.00308986 -0.0804351 -0.99676 558.466 125.33)" stroke="#3D2505" stroke-width="10"/>
<path fill-rule="evenodd" clip-rule="evenodd" d="M554.832 75.2659L616.089 75.0767L618.456 104.419C618.791 108.562 620.681 112.332 623.508 115.159L625.778 115.152C627.988 115.145 629.634 113.355 629.457 111.153L626.556 75.2055C626.378 73.0035 624.443 71.224 622.234 71.2308L558.52 71.4277C556.365 71.4344 554.745 73.1384 554.832 75.2659Z" fill="#693E00"/>
<rect x="4.5978" y="4.99925" width="121.131" height="82.6658" rx="11" transform="matrix(0.999995 0.00308986 -0.0804351 0.99676 677.527 151.399)" fill="#894E00" stroke="#3D2505" stroke-width="10"/>
<rect width="71.7145" height="44.0641" rx="4" transform="matrix(0.999995 0.00308986 -0.0804351 0.99676 704.878 175.711)" fill="#894E00"/>
<rect x="-4.5978" y="-4.99925" width="81.7145" height="54.0641" rx="9" transform="matrix(0.999995 0.00308986 -0.0804351 0.99676 704.476 175.709)" stroke="#3D2505" stroke-width="10"/>
<path fill-rule="evenodd" clip-rule="evenodd" d="M701.646 215.807L762.903 215.997L765.27 186.655C765.605 182.511 767.494 178.742 770.322 175.914L772.592 175.921C774.802 175.928 776.448 177.719 776.271 179.921L773.37 215.868C773.192 218.07 771.257 219.849 769.048 219.842L705.334 219.646C703.179 219.639 701.559 217.935 701.646 215.807Z" fill="#693E00"/>
<rect x="4.5978" y="-4.99925" width="121.131" height="82.6658" rx="11" transform="matrix(0.999995 -0.00308986 -0.0804351 -0.99676 676.398 143.434)" fill="#894E00" stroke="#3D2505" stroke-width="10"/>
<rect width="71.7145" height="44.0641" rx="4" transform="matrix(0.999995 -0.00308986 -0.0804351 -0.99676 704.554 129.089)" fill="#894E00"/>
<rect x="-4.5978" y="4.99925" width="81.7145" height="54.0641" rx="9" transform="matrix(0.999995 -0.00308986 -0.0804351 -0.99676 704.956 139.057)" stroke="#3D2505" stroke-width="10"/>
<path fill-rule="evenodd" clip-rule="evenodd" d="M701.321 88.9925L762.578 88.8032L764.946 118.145C765.28 122.289 767.17 126.058 769.997 128.886L772.268 128.879C774.477 128.872 776.124 127.081 775.946 124.879L773.045 88.9321C772.867 86.7301 770.933 84.9506 768.723 84.9574L705.009 85.1543C702.854 85.1609 701.234 86.865 701.321 88.9925Z" fill="#693E00"/>
</svg>
