<svg width="901" height="502" viewBox="0 0 901 502" fill="none" xmlns="http://www.w3.org/2000/svg">
<rect x="414.452" y="118.473" width="72" height="114.421" rx="4" fill="#894E00"/>
<rect x="409.452" y="113.473" width="82" height="124.421" rx="9" stroke="#3D2505" stroke-width="10"/>
<path fill-rule="evenodd" clip-rule="evenodd" d="M414.452 222.926L475.956 222.926V120.944C475.956 120.104 476.021 119.278 476.146 118.473H482.452C484.661 118.473 486.452 120.264 486.452 122.473V228.894C486.452 231.103 484.661 232.894 482.452 232.894H418.452C416.243 232.894 414.452 231.103 414.452 228.894V222.926Z" fill="#693E00"/>
<rect x="414.452" y="268.894" width="72" height="114.421" rx="4" fill="#894E00"/>
<rect x="409.452" y="263.894" width="82" height="124.421" rx="9" stroke="#3D2505" stroke-width="10"/>
<path fill-rule="evenodd" clip-rule="evenodd" d="M414.452 373.347L475.956 373.347V271.365C475.956 270.525 476.021 269.699 476.146 268.894H482.452C484.661 268.894 486.452 270.684 486.452 272.894V379.314C486.452 381.524 484.661 383.314 482.452 383.314H418.452C416.243 383.314 414.452 381.524 414.452 379.314V373.347Z" fill="#693E00"/>
<path d="M895.452 429.346C895.452 466.349 865.455 496.346 828.452 496.346L72.4518 496.346C35.4487 496.346 5.45178 466.349 5.45178 429.346L5.45178 419.32C18.689 442.625 43.7345 458.346 72.4518 458.346L828.452 458.346C857.169 458.346 882.215 442.625 895.452 419.32V429.346Z" fill="#FFC6BD" stroke="#3D2505" stroke-width="10"/>
<mask id="path-8-inside-1_125_4847" fill="white">
<path fill-rule="evenodd" clip-rule="evenodd" d="M0.451782 400.44V72.4404C0.451782 32.6759 32.6873 0.44043 72.4518 0.44043H828.452C868.216 0.44043 900.452 32.6759 900.452 72.4404V400.44C900.452 440.205 868.216 472.44 828.452 472.44H72.4518C32.6873 472.44 0.451782 440.205 0.451782 400.44ZM84.4161 179.438C69.9416 179.438 58.2076 191.171 58.2076 205.646V267.235C58.2076 281.71 69.9416 293.444 84.4161 293.444C98.8907 293.444 110.625 281.71 110.625 267.235V205.646C110.625 191.171 98.8907 179.438 84.4161 179.438Z"/>
</mask>
<path fill-rule="evenodd" clip-rule="evenodd" d="M0.451782 400.44V72.4404C0.451782 32.6759 32.6873 0.44043 72.4518 0.44043H828.452C868.216 0.44043 900.452 32.6759 900.452 72.4404V400.44C900.452 440.205 868.216 472.44 828.452 472.44H72.4518C32.6873 472.44 0.451782 440.205 0.451782 400.44ZM84.4161 179.438C69.9416 179.438 58.2076 191.171 58.2076 205.646V267.235C58.2076 281.71 69.9416 293.444 84.4161 293.444C98.8907 293.444 110.625 281.71 110.625 267.235V205.646C110.625 191.171 98.8907 179.438 84.4161 179.438Z" fill="#FEEAE7"/>
<path d="M-9.54822 72.4404V400.44H10.4518V72.4404H-9.54822ZM72.4518 -9.55957C27.1644 -9.55957 -9.54822 27.1531 -9.54822 72.4404H10.4518C10.4518 38.1988 38.2101 10.4404 72.4518 10.4404V-9.55957ZM828.452 -9.55957H72.4518V10.4404H828.452V-9.55957ZM910.452 72.4404C910.452 27.1531 873.739 -9.55957 828.452 -9.55957V10.4404C862.693 10.4404 890.452 38.1988 890.452 72.4404H910.452ZM910.452 400.44V72.4404H890.452V400.44H910.452ZM828.452 482.44C873.739 482.44 910.452 445.728 910.452 400.44H890.452C890.452 434.682 862.693 462.44 828.452 462.44V482.44ZM72.4518 482.44H828.452V462.44H72.4518V482.44ZM-9.54822 400.44C-9.54822 445.728 27.1644 482.44 72.4518 482.44V462.44C38.2101 462.44 10.4518 434.682 10.4518 400.44H-9.54822ZM68.2076 205.646C68.2076 196.694 75.4644 189.438 84.4161 189.438V169.438C64.4187 169.438 48.2076 185.649 48.2076 205.646H68.2076ZM68.2076 267.235V205.646H48.2076V267.235H68.2076ZM84.4161 283.444C75.4644 283.444 68.2076 276.187 68.2076 267.235H48.2076C48.2076 287.233 64.4187 303.444 84.4161 303.444V283.444ZM100.625 267.235C100.625 276.187 93.3678 283.444 84.4161 283.444V303.444C104.414 303.444 120.625 287.233 120.625 267.235H100.625ZM100.625 205.646V267.235H120.625V205.646H100.625ZM84.4161 189.438C93.3678 189.438 100.625 196.694 100.625 205.646H120.625C120.625 185.649 104.414 169.438 84.4161 169.438V189.438Z" fill="#3D2505" mask="url(#path-8-inside-1_125_4847)"/>
<rect x="175.31" y="66.2812" width="329.661" height="322" rx="11" fill="#894E00" stroke="#3D2505" stroke-width="10"/>
<rect x="200.14" y="94.8604" width="72" height="114.421" rx="4" fill="#894E00"/>
<rect x="195.14" y="89.8604" width="82" height="124.421" rx="9" stroke="#3D2505" stroke-width="10"/>
<path fill-rule="evenodd" clip-rule="evenodd" d="M200.14 199.313L261.645 199.313V97.332C261.645 96.4914 261.709 95.666 261.834 94.8604H268.14C270.349 94.8604 272.14 96.6512 272.14 98.8604V205.281C272.14 207.49 270.349 209.281 268.14 209.281H204.14C201.931 209.281 200.14 207.49 200.14 205.281V199.313Z" fill="#693E00"/>
<rect x="304.14" y="94.8604" width="72" height="114.421" rx="4" fill="#894E00"/>
<rect x="299.14" y="89.8604" width="82" height="124.421" rx="9" stroke="#3D2505" stroke-width="10"/>
<path fill-rule="evenodd" clip-rule="evenodd" d="M304.14 199.313L365.645 199.313V97.332C365.645 96.4914 365.709 95.666 365.834 94.8604H372.14C374.349 94.8604 376.14 96.6512 376.14 98.8604V205.281C376.14 207.49 374.349 209.281 372.14 209.281H308.14C305.931 209.281 304.14 207.49 304.14 205.281V199.313Z" fill="#693E00"/>
<rect x="408.14" y="94.8604" width="72" height="114.421" rx="4" fill="#894E00"/>
<rect x="403.14" y="89.8604" width="82" height="124.421" rx="9" stroke="#3D2505" stroke-width="10"/>
<path fill-rule="evenodd" clip-rule="evenodd" d="M408.14 199.313L469.645 199.313V97.332C469.645 96.4914 469.709 95.666 469.834 94.8604H476.14C478.349 94.8604 480.14 96.6512 480.14 98.8604V205.281C480.14 207.49 478.349 209.281 476.14 209.281H412.14C409.931 209.281 408.14 207.49 408.14 205.281V199.313Z" fill="#693E00"/>
<rect x="200.14" y="245.281" width="72" height="114.421" rx="4" fill="#894E00"/>
<rect x="195.14" y="240.281" width="82" height="124.421" rx="9" stroke="#3D2505" stroke-width="10"/>
<path fill-rule="evenodd" clip-rule="evenodd" d="M200.14 349.734L261.645 349.734V247.753C261.645 246.912 261.709 246.087 261.834 245.281H268.14C270.349 245.281 272.14 247.072 272.14 249.281V355.702C272.14 357.911 270.349 359.702 268.14 359.702H204.14C201.931 359.702 200.14 357.911 200.14 355.702V349.734Z" fill="#693E00"/>
<rect x="304.14" y="245.281" width="72" height="114.421" rx="4" fill="#894E00"/>
<rect x="299.14" y="240.281" width="82" height="124.421" rx="9" stroke="#3D2505" stroke-width="10"/>
<path fill-rule="evenodd" clip-rule="evenodd" d="M304.14 349.734L365.645 349.734V247.753C365.645 246.912 365.709 246.087 365.834 245.281H372.14C374.349 245.281 376.14 247.072 376.14 249.281V355.702C376.14 357.911 374.349 359.702 372.14 359.702H308.14C305.931 359.702 304.14 357.911 304.14 355.702V349.734Z" fill="#693E00"/>
<rect x="408.14" y="245.281" width="72" height="114.421" rx="4" fill="#894E00"/>
<rect x="403.14" y="240.281" width="82" height="124.421" rx="9" stroke="#3D2505" stroke-width="10"/>
<path fill-rule="evenodd" clip-rule="evenodd" d="M408.14 349.734L469.645 349.734V247.753C469.645 246.912 469.709 246.087 469.834 245.281H476.14C478.349 245.281 480.14 247.072 480.14 249.281V355.702C480.14 357.911 478.349 359.702 476.14 359.702H412.14C409.931 359.702 408.14 357.911 408.14 355.702V349.734Z" fill="#693E00"/>
<rect x="660.477" y="70.1578" width="121.653" height="322" rx="11" transform="rotate(7.99832 660.477 70.1578)" fill="#894E00" stroke="#3D2505" stroke-width="10"/>
<rect x="681.086" y="101.914" width="72" height="114.421" rx="4" transform="rotate(7.99832 681.086 101.914)" fill="#894E00"/>
<rect x="676.83" y="96.267" width="82" height="124.421" rx="9" transform="rotate(7.99832 676.83 96.267)" stroke="#3D2505" stroke-width="10"/>
<path fill-rule="evenodd" clip-rule="evenodd" d="M666.551 205.351L727.458 213.909L741.648 112.92C741.765 112.087 741.944 111.279 742.18 110.498L748.424 111.376C750.612 111.683 752.136 113.706 751.828 115.894L737.021 221.279C736.713 223.467 734.691 224.991 732.503 224.684L669.126 215.778C666.938 215.471 665.414 213.448 665.721 211.261L666.551 205.351Z" fill="#693E00"/>
<rect x="660.155" y="250.872" width="72" height="114.421" rx="4" transform="rotate(7.99832 660.155 250.872)" fill="#894E00"/>
<rect x="655.9" y="245.225" width="82" height="124.421" rx="9" transform="rotate(7.99832 655.9 245.225)" stroke="#3D2505" stroke-width="10"/>
<path fill-rule="evenodd" clip-rule="evenodd" d="M645.621 354.309L706.527 362.867L720.718 261.878C720.835 261.045 721.014 260.237 721.249 259.456L727.494 260.334C729.681 260.641 731.206 262.664 730.898 264.852L716.09 370.237C715.783 372.425 713.76 373.949 711.573 373.642L648.195 364.736C646.008 364.429 644.483 362.406 644.791 360.219L645.621 354.309Z" fill="#693E00"/>
<rect x="516.584" y="85.1352" width="121.653" height="322" rx="11" transform="rotate(-4.27103 516.584 85.1352)" fill="#894E00" stroke="#3D2505" stroke-width="10"/>
<rect x="543.47" y="111.787" width="72" height="114.421" rx="4" transform="rotate(-4.27103 543.47 111.787)" fill="#894E00"/>
<rect x="538.111" y="107.173" width="82" height="124.421" rx="9" transform="rotate(-4.27103 538.111 107.173)" stroke="#3D2505" stroke-width="10"/>
<path fill-rule="evenodd" clip-rule="evenodd" d="M551.249 215.95L612.582 211.37L604.987 109.671C604.925 108.833 604.928 108.005 604.992 107.192L611.281 106.723C613.484 106.558 615.403 108.211 615.567 110.414L623.493 216.539C623.658 218.742 622.005 220.661 619.802 220.826L555.98 225.592C553.777 225.757 551.858 224.104 551.693 221.901L551.249 215.95Z" fill="#693E00"/>
<rect x="554.672" y="261.79" width="72" height="114.421" rx="4" transform="rotate(-4.27103 554.672 261.79)" fill="#894E00"/>
<rect x="549.314" y="257.176" width="82" height="124.421" rx="9" transform="rotate(-4.27103 549.314 257.176)" stroke="#3D2505" stroke-width="10"/>
<path fill-rule="evenodd" clip-rule="evenodd" d="M562.451 365.953L623.785 361.373L616.19 259.674C616.127 258.836 616.13 258.008 616.195 257.195L622.483 256.726C624.686 256.561 626.605 258.214 626.77 260.417L634.696 366.542C634.86 368.745 633.208 370.664 631.005 370.829L567.182 375.595C564.979 375.76 563.06 374.107 562.896 371.904L562.451 365.953Z" fill="#693E00"/>
</svg>
