<svg width="29" height="254" viewBox="0 0 29 254" fill="none" xmlns="http://www.w3.org/2000/svg">
<path d="M23.675 241.887L21.9366 178.907C21.8234 174.805 18.4657 171.539 14.3624 171.539C10.2424 171.539 6.87748 174.83 6.78708 178.949L5.40461 241.939C5.29215 247.063 9.41517 251.277 14.5405 251.277C19.686 251.277 23.817 247.031 23.675 241.887Z" fill="#5D4C35" stroke="#483214" stroke-width="5" stroke-linejoin="round"/>
<mask id="path-2-outside-1_125_4866" maskUnits="userSpaceOnUse" x="5.14722" y="167.136" width="20" height="30" fill="black">
<rect fill="white" x="5.14722" y="167.136" width="20" height="30"/>
<path fill-rule="evenodd" clip-rule="evenodd" d="M19.5221 191.604H10.1472V173.961C11.0795 172.845 12.4814 172.136 14.0458 172.136C16.7953 172.136 19.0451 174.325 19.121 177.073L19.5221 191.604Z"/>
</mask>
<path fill-rule="evenodd" clip-rule="evenodd" d="M19.5221 191.604H10.1472V173.961C11.0795 172.845 12.4814 172.136 14.0458 172.136C16.7953 172.136 19.0451 174.325 19.121 177.073L19.5221 191.604Z" fill="#4C4C4C"/>
<path d="M19.5221 191.604V196.604C20.8721 196.604 22.1647 196.058 23.106 195.09C24.0474 194.122 24.5574 192.815 24.5202 191.466L19.5221 191.604ZM10.1472 191.604H5.14722C5.14722 194.365 7.38579 196.604 10.1472 196.604L10.1472 191.604ZM10.1472 173.961L6.30975 170.755C5.55866 171.655 5.14722 172.789 5.14722 173.961H10.1472ZM19.121 177.073L24.1191 176.935L24.1191 176.935L19.121 177.073ZM19.5221 186.604H10.1472V196.604H19.5221V186.604ZM15.1472 191.604V173.961H5.14722V191.604H15.1472ZM13.9847 177.166C13.9951 177.153 14.0069 177.145 14.0152 177.141C14.0187 177.14 14.0215 177.139 14.0243 177.138C14.0267 177.138 14.0331 177.136 14.0458 177.136V167.136C10.9389 167.136 8.15247 168.549 6.30975 170.755L13.9847 177.166ZM14.0458 177.136C14.0647 177.136 14.0712 177.139 14.0739 177.14C14.0797 177.143 14.0893 177.148 14.0996 177.158C14.1099 177.168 14.1156 177.178 14.1181 177.183C14.1193 177.186 14.1224 177.192 14.1229 177.211L24.1191 176.935C23.9685 171.48 19.503 167.136 14.0458 167.136V177.136ZM14.1229 177.211L14.524 191.741L24.5202 191.466L24.1191 176.935L14.1229 177.211Z" fill="#483214" mask="url(#path-2-outside-1_125_4866)"/>
<path d="M17.1523 7.04147C17.1427 6.97431 17.1303 6.90757 17.1153 6.84142C16.9536 6.13065 16.7542 5.42747 16.4955 4.83455C16.3667 4.53924 16.1877 4.18809 15.9356 3.85652C15.7016 3.54872 15.2533 3.05669 14.5271 2.79285C13.6727 2.48246 12.8095 2.62129 12.137 3.01056C11.5652 3.34155 11.2088 3.8018 11.0048 4.11248C10.593 4.7395 10.3038 5.53829 10.0747 6.32999C9.14479 9.54262 8.20595 16.3567 7.29597 28.2575C5.46345 52.2236 3.69591 97.7022 2.75334 178.652C2.74556 179.32 3.0055 179.963 3.47515 180.438C3.9448 180.913 4.58509 181.181 5.25317 181.181H23.8664C24.5362 181.181 25.178 180.912 25.648 180.434C26.1179 179.957 26.3766 179.311 26.3661 178.641C25.7384 138.578 23.0221 48.0171 17.1523 7.04147ZM11.8892 6.78407C11.8892 6.78405 11.8899 6.78515 11.891 6.78746C11.8898 6.78526 11.8892 6.7841 11.8892 6.78407Z" fill="#D4D4D4" stroke="#483214" stroke-width="5" stroke-linecap="round" stroke-linejoin="round"/>
</svg>
