<svg width="35" height="37" viewBox="0 0 35 37" fill="none" xmlns="http://www.w3.org/2000/svg">
<path fill-rule="evenodd" clip-rule="evenodd" d="M16.1386 33.6488C16.9343 34.5446 18.3336 34.5446 19.1292 33.6488L31.9982 19.1605C33.144 17.8705 32.2283 15.8323 30.5029 15.8323L25.6339 15.8323L25.6339 4.33228C25.6339 3.22771 24.7385 2.33228 23.6339 2.33228L11.6339 2.33227C10.5293 2.33227 9.63391 3.2277 9.63391 4.33227L9.63391 15.8323L4.7649 15.8323C3.03955 15.8323 2.12381 17.8705 3.2696 19.1605L16.1386 33.6488Z" fill="#FF6682"/>
<path d="M19.1292 33.6488L20.6245 34.977L20.6245 34.977L19.1292 33.6488ZM16.1386 33.6488L14.6433 34.977L14.6433 34.977L16.1386 33.6488ZM31.9982 19.1605L30.5029 17.8323L31.9982 19.1605ZM25.6339 15.8323L23.6339 15.8323L23.6339 17.8323L25.6339 17.8323L25.6339 15.8323ZM25.6339 4.33228L23.6339 4.33228L25.6339 4.33228ZM9.63391 15.8323L9.63391 17.8323L11.6339 17.8323L11.6339 15.8323L9.63391 15.8323ZM3.2696 19.1605L1.77429 20.4886L1.77429 20.4886L3.2696 19.1605ZM17.6339 32.3206L17.6339 32.3206L14.6433 34.977C16.2346 36.7685 19.0332 36.7685 20.6245 34.977L17.6339 32.3206ZM30.5029 17.8323L17.6339 32.3206L20.6245 34.977L33.4935 20.4886L30.5029 17.8323ZM30.5029 17.8323L30.5029 17.8323L33.4935 20.4886C35.7851 17.9087 33.9536 13.8323 30.5029 13.8323L30.5029 17.8323ZM25.6339 17.8323L30.5029 17.8323L30.5029 13.8323L25.6339 13.8323L25.6339 17.8323ZM23.6339 4.33228L23.6339 15.8323L27.6339 15.8323L27.6339 4.33228L23.6339 4.33228ZM23.6339 4.33228L27.6339 4.33228C27.6339 2.12314 25.8431 0.332275 23.6339 0.332275L23.6339 4.33228ZM11.6339 4.33227L23.6339 4.33228L23.6339 0.332275L11.6339 0.332274L11.6339 4.33227ZM11.6339 4.33227L11.6339 0.332274C9.42478 0.332274 7.63391 2.12313 7.63391 4.33227L11.6339 4.33227ZM11.6339 15.8323L11.6339 4.33227L7.63391 4.33227L7.63391 15.8323L11.6339 15.8323ZM4.7649 17.8323L9.63391 17.8323L9.63391 13.8323L4.7649 13.8323L4.7649 17.8323ZM4.76491 17.8323L4.7649 17.8323L4.7649 13.8323C1.3142 13.8323 -0.517274 17.9087 1.77429 20.4886L4.76491 17.8323ZM17.6339 32.3206L4.76491 17.8323L1.77429 20.4886L14.6433 34.977L17.6339 32.3206Z" fill="#422E12"/>
</svg>
