<svg width="36" height="36" viewBox="0 0 36 36" fill="none" xmlns="http://www.w3.org/2000/svg">
<g clip-path="url(#clip0_120_422)">
<path d="M21.5559 24.0342C19.3096 25.7571 16.4991 26.7811 13.4494 26.7811C6.08649 26.7811 0.117676 20.8123 0.117676 13.4494C0.117676 6.08649 6.08649 0.117676 13.4494 0.117676C20.8123 0.117676 26.7811 6.08649 26.7811 13.4494C26.7811 16.4989 25.7572 19.3093 24.0344 21.5555L25.9095 23.4307C26.6942 22.8185 27.8304 22.8732 28.5522 23.595L35.2966 30.3395C36.0777 31.1205 36.0777 32.3868 35.2966 33.1679L33.1678 35.2967C32.3868 36.0777 31.1204 36.0777 30.3394 35.2967L23.5949 28.5522C22.8731 27.8303 22.8184 26.6939 23.4309 25.9092L21.5559 24.0342Z" fill="#3D2505"/>
<path d="M23.8186 13.4494C23.8186 19.1761 19.1761 23.8186 13.4494 23.8186C7.72273 23.8186 3.08032 19.1761 3.08032 13.4494C3.08032 7.72273 7.72273 3.08032 13.4494 3.08032C19.1761 3.08032 23.8186 7.72273 23.8186 13.4494Z" fill="#FFF4E5"/>
</g>
<defs>
<clipPath id="clip0_120_422">
<rect width="36" height="36" fill="white"/>
</clipPath>
</defs>
</svg>
