<svg width="110" height="104" viewBox="0 0 110 104" fill="none" xmlns="http://www.w3.org/2000/svg">
<path d="M46.2089 9.97709C20.0665 12.2901 7.90454 33.7438 3.50379 49.9668C3.18795 51.1311 4.98685 51.659 5.55461 50.5945C12.4213 37.7206 26.3178 22.3766 45.8456 25.9584C46.3214 26.0457 46.6654 26.473 46.652 26.9566L46.4796 33.1878C46.4561 34.0343 47.4298 34.5249 48.0962 34.0024L65.895 20.0459C66.3814 19.6645 66.4088 18.9377 65.9526 18.5208L48.9696 2.99965C48.3375 2.42196 47.319 2.85416 47.2953 3.71015L47.149 8.99827C47.1347 9.51245 46.7212 9.93176 46.2089 9.97709Z" fill="#FF5A80" stroke="#3E2504" stroke-width="5" stroke-linejoin="round"/>
<path d="M64.7395 93.772C90.8819 91.459 103.044 70.0053 107.445 53.7823C107.76 52.618 105.962 52.0901 105.394 53.1546C98.5271 66.0285 84.6306 81.3725 65.1028 77.7907C64.627 77.7034 64.283 77.2761 64.2964 76.7925L64.4688 70.5613C64.4922 69.7148 63.5186 69.2242 62.8521 69.7467L45.0533 83.7032C44.567 84.0845 44.5396 84.8113 44.9958 85.2283L61.9788 100.749C62.6109 101.327 63.6294 100.895 63.653 100.039L63.7994 94.7508C63.8136 94.2366 64.2271 93.8173 64.7395 93.772Z" fill="#FF5A80" stroke="#3E2504" stroke-width="5" stroke-linejoin="round"/>
</svg>
