<svg width="188" height="146" viewBox="0 0 188 146" fill="none" xmlns="http://www.w3.org/2000/svg">
<path d="M177.255 44.9266C174.22 18.8582 152.438 7.29439 136.099 3.34411C134.926 3.0606 134.449 4.87341 135.528 5.4115C148.587 11.9194 164.31 25.3862 161.27 45.0056C161.196 45.4836 160.778 45.8393 160.294 45.8393H154.06C153.214 45.8393 152.75 46.8261 153.291 47.4779L167.734 64.8838C168.129 65.3594 168.856 65.3667 169.261 64.8991L184.306 47.4932C184.866 46.8454 184.406 45.8393 183.549 45.8393H178.259C177.745 45.8393 177.314 45.4375 177.255 44.9266Z" fill="#FF5A80" stroke="#3E2504" stroke-width="5" stroke-linejoin="round"/>
<path d="M10.5216 101.119C13.5568 127.187 35.3388 138.751 51.6773 142.701C52.8499 142.985 53.3278 141.172 52.2481 140.634C39.1891 134.126 23.4666 120.659 26.5068 101.04C26.5809 100.562 26.9985 100.206 27.4823 100.206L33.7159 100.206C34.5627 100.206 35.0262 99.219 34.4854 98.5673L20.0419 81.1614C19.6473 80.6858 18.92 80.6785 18.5158 81.146L3.47042 98.5519C2.91044 99.1998 3.37065 100.206 4.22696 100.206L9.51711 100.206C10.0315 100.206 10.4621 100.608 10.5216 101.119Z" fill="#FF5A80" stroke="#3E2504" stroke-width="5" stroke-linejoin="round"/>
</svg>
