<svg width="73" height="79" viewBox="0 0 73 79" fill="none" xmlns="http://www.w3.org/2000/svg">
<path fill-rule="evenodd" clip-rule="evenodd" d="M20.0179 13.7745C20.0179 7.83645 24.8317 3.02271 30.7697 3.02271C36.7077 3.02271 41.5215 7.83644 41.5215 13.7745V26.4605C41.6539 26.4589 41.7866 26.458 41.9196 26.458C57.5168 26.458 70.1609 37.5983 70.1609 51.3404C70.1609 65.0825 57.5168 76.2227 41.9195 76.2227C28.2018 76.2227 16.7683 67.6055 14.212 56.1799L8.60168 52.942C3.4602 49.9747 1.69907 43.4021 4.66809 38.2616C7.63711 33.1211 14.212 31.3594 19.3535 34.3267L20.0823 34.7473C20.0398 34.3588 20.0179 33.964 20.0179 33.5642V13.7745Z" fill="white"/>
<path d="M41.5215 26.4605H39.0215C39.0215 27.1288 39.2891 27.7693 39.7645 28.239C40.2399 28.7086 40.8836 28.9684 41.5519 28.9603L41.5215 26.4605ZM14.212 56.1799L16.6517 55.634C16.499 54.9515 16.0674 54.3642 15.4617 54.0146L14.212 56.1799ZM8.60168 52.942L7.35205 55.1073L7.35205 55.1073L8.60168 52.942ZM4.66809 38.2616L6.83294 39.512L6.83294 39.512L4.66809 38.2616ZM19.3535 34.3267L18.1038 36.4919L18.1038 36.492L19.3535 34.3267ZM20.0823 34.7473L18.8327 36.9126C19.6485 37.3834 20.6597 37.3557 21.4486 36.8409C22.2374 36.3261 22.6699 35.4116 22.5674 34.4753L20.0823 34.7473ZM30.7697 0.522705C23.451 0.522705 17.5179 6.45574 17.5179 13.7745H22.5179C22.5179 9.21716 26.2124 5.52271 30.7697 5.52271V0.522705ZM44.0215 13.7745C44.0215 6.45572 38.0885 0.522705 30.7697 0.522705V5.52271C35.327 5.52271 39.0215 9.21715 39.0215 13.7745H44.0215ZM44.0215 26.4605V13.7745H39.0215V26.4605H44.0215ZM41.9196 23.958C41.7765 23.958 41.6336 23.9589 41.4911 23.9607L41.5519 28.9603C41.6743 28.9588 41.7968 28.958 41.9196 28.958V23.958ZM72.6609 51.3404C72.6609 35.9295 58.5907 23.958 41.9196 23.958V28.958C56.443 28.958 67.6609 39.267 67.6609 51.3404H72.6609ZM41.9195 78.7227C58.5907 78.7227 72.6609 66.7513 72.6609 51.3404H67.6609C67.6609 63.4137 56.443 73.7227 41.9195 73.7227V78.7227ZM11.7724 56.7257C14.6234 69.4691 27.2213 78.7227 41.9195 78.7227V73.7227C29.1822 73.7227 18.9132 65.742 16.6517 55.634L11.7724 56.7257ZM15.4617 54.0146L9.85131 50.7767L7.35205 55.1073L12.9624 58.3451L15.4617 54.0146ZM9.85132 50.7767C5.90597 48.4998 4.55465 43.4566 6.83294 39.512L2.50324 37.0112C-1.1565 43.3476 1.01443 51.4497 7.35205 55.1073L9.85132 50.7767ZM6.83294 39.512C9.11157 35.5668 14.1579 34.2147 18.1038 36.4919L20.6031 32.1614C14.266 28.5041 6.16265 30.6754 2.50324 37.0112L6.83294 39.512ZM18.1038 36.492L18.8327 36.9126L21.3319 32.582L20.6031 32.1614L18.1038 36.492ZM17.5179 33.5642C17.5179 34.0551 17.5447 34.5406 17.5971 35.0193L22.5674 34.4753C22.5348 34.1769 22.5179 33.873 22.5179 33.5642H17.5179ZM17.5179 13.7745V33.5642H22.5179V13.7745H17.5179Z" fill="#3D2505"/>
</svg>
