<svg width="406" height="360" viewBox="0 0 406 360" fill="none" xmlns="http://www.w3.org/2000/svg">
<path d="M400.526 180.425C400.526 276.259 312.729 354.938 203.129 354.938C93.5285 354.938 5.73169 276.259 5.73169 180.425C5.73169 84.5919 93.5285 5.91309 203.129 5.91309C312.729 5.91309 400.526 84.5919 400.526 180.425Z" fill="#894E00" stroke="#6D3E01" stroke-width="10"/>
<ellipse cx="203.129" cy="180.426" rx="156.376" ry="138.695" fill="#7F4800"/>
<path fill-rule="evenodd" clip-rule="evenodd" d="M173.521 300.901C259.886 300.901 329.898 238.805 329.898 162.206C329.898 120.707 309.348 83.4641 276.781 58.0469C326.012 81.4033 359.505 127.445 359.505 180.426C359.505 257.025 289.493 319.121 203.129 319.121C163.554 319.121 127.413 306.083 99.8689 284.585C121.816 294.998 146.891 300.901 173.521 300.901Z" fill="#744609"/>
</svg>
