<svg width="365" height="360" viewBox="0 0 365 360" fill="none" xmlns="http://www.w3.org/2000/svg">
<path d="M359.237 180.425C359.237 276.738 280.011 354.938 182.129 354.938C84.2463 354.938 5.02002 276.738 5.02002 180.425C5.02002 84.1123 84.2463 5.91309 182.129 5.91309C280.011 5.91309 359.237 84.1123 359.237 180.425Z" fill="#894E00" stroke="#6D3E01" stroke-width="10"/>
<ellipse cx="182.129" cy="180.426" rx="140.701" ry="138.695" fill="#7F4800"/>
<path fill-rule="evenodd" clip-rule="evenodd" d="M155.489 300.901C233.196 300.901 296.19 238.805 296.19 162.206C296.19 120.707 277.7 83.4641 248.398 58.0469C292.694 81.4033 322.83 127.445 322.83 180.426C322.83 257.025 259.836 319.121 182.129 319.121C146.521 319.121 114.003 306.083 89.2197 284.585C108.967 294.998 131.529 300.901 155.489 300.901Z" fill="#744609"/>
</svg>
