<svg width="404" height="322" viewBox="0 0 404 322" fill="none" xmlns="http://www.w3.org/2000/svg">
<path d="M6.98037 144.619C7.69114 135.811 15.4307 128.693 24.2673 128.72L123.397 129.027C132.234 129.054 138.821 136.216 138.11 145.024L133.231 205.493C132.52 214.301 124.78 221.419 115.944 221.392L16.8137 221.086C7.97716 221.059 1.38995 213.896 2.10072 205.088L6.98037 144.619Z" fill="#894E00"/>
<path fill-rule="evenodd" clip-rule="evenodd" d="M122.593 138.994L23.4629 138.688C20.1492 138.678 17.2469 141.347 16.9803 144.65L12.1007 205.119C11.8341 208.422 14.3043 211.108 17.618 211.118L116.748 211.425C120.062 211.435 122.964 208.766 123.231 205.463L128.11 144.993C128.377 141.69 125.907 139.004 122.593 138.994ZM24.2673 128.72C15.4307 128.693 7.69114 135.811 6.98037 144.619L2.10072 205.088C1.38995 213.896 7.97716 221.059 16.8137 221.086L115.944 221.392C124.78 221.419 132.52 214.301 133.231 205.493L138.11 145.024C138.821 136.216 132.234 129.054 123.397 129.027L24.2673 128.72Z" fill="#3D2505"/>
<path d="M35.6988 156.971C35.8765 154.769 37.8114 152.99 40.0205 152.997L103.735 153.194C105.944 153.2 107.591 154.991 107.413 157.193L104.512 193.14C104.334 195.342 102.399 197.122 100.19 197.115L36.4762 196.918C34.2671 196.911 32.6203 195.121 32.798 192.919L35.6988 156.971Z" fill="#894E00"/>
<rect x="-4.5978" y="-4.99925" width="81.7145" height="54.0641" rx="9" transform="matrix(0.999995 0.00308986 -0.0804351 0.99676 35.6184 152.982)" stroke="#3D2505" stroke-width="10"/>
<path fill-rule="evenodd" clip-rule="evenodd" d="M32.7884 193.081L94.045 193.27L96.4128 163.928C96.7472 159.785 98.6369 156.015 101.465 153.188L103.735 153.195C105.944 153.201 107.591 154.992 107.413 157.194L104.512 193.141C104.335 195.343 102.4 197.123 100.191 197.116L36.4764 196.919C34.3214 196.912 32.7015 195.208 32.7884 193.081Z" fill="#693E00"/>
<path d="M35.6042 190.599C36.3149 181.791 44.0545 174.673 52.891 174.7L152.021 175.006C160.858 175.033 167.445 182.196 166.734 191.004L161.854 251.473C161.144 260.281 153.404 267.399 144.568 267.372L45.4375 267.065C36.6009 267.038 30.0137 259.876 30.7245 251.068L35.6042 190.599Z" fill="#894E00"/>
<path fill-rule="evenodd" clip-rule="evenodd" d="M151.217 184.974L52.0867 184.667C48.773 184.657 45.8706 187.326 45.6041 190.629L40.7244 251.099C40.4579 254.402 42.9281 257.088 46.2418 257.098L145.372 257.404C148.686 257.414 151.588 254.745 151.854 251.442L156.734 190.973C157.001 187.67 154.53 184.984 151.217 184.974ZM52.891 174.7C44.0545 174.673 36.3149 181.791 35.6042 190.599L30.7245 251.068C30.0137 259.876 36.6009 267.038 45.4375 267.065L144.568 267.372C153.404 267.399 161.144 260.281 161.854 251.473L166.734 191.004C167.445 182.196 160.858 175.033 152.021 175.006L52.891 174.7Z" fill="#3D2505"/>
<path d="M64.3225 202.951C64.5002 200.749 66.4351 198.969 68.6443 198.976L132.358 199.173C134.568 199.18 136.214 200.971 136.037 203.172L133.136 239.12C132.958 241.322 131.023 243.101 128.814 243.094L65.1 242.898C62.8908 242.891 61.244 241.1 61.4217 238.898L64.3225 202.951Z" fill="#894E00"/>
<rect x="-4.5978" y="-4.99925" width="81.7145" height="54.0641" rx="9" transform="matrix(0.999995 0.00308986 -0.0804351 0.99676 64.2422 198.962)" stroke="#3D2505" stroke-width="10"/>
<path fill-rule="evenodd" clip-rule="evenodd" d="M61.4121 239.06L122.669 239.25L125.037 209.907C125.371 205.764 127.261 201.995 130.088 199.167L132.359 199.174C134.568 199.181 136.215 200.971 136.037 203.173L133.136 239.121C132.958 241.323 131.023 243.102 128.814 243.095L65.1002 242.898C62.9452 242.892 61.3253 241.188 61.4121 239.06Z" fill="#693E00"/>
<path d="M62.6049 80.7978C63.3157 71.9898 71.0553 64.8717 79.8918 64.899L179.022 65.2053C187.858 65.2327 194.446 72.395 193.735 81.2029L188.855 141.672C188.144 150.48 180.405 157.598 171.568 157.571L72.4382 157.265C63.6017 157.237 57.0145 150.075 57.7252 141.267L62.6049 80.7978Z" fill="#894E00"/>
<path fill-rule="evenodd" clip-rule="evenodd" d="M178.218 75.1729L79.0874 74.8666C75.7737 74.8564 72.8714 77.5257 72.6048 80.8287L67.7252 141.298C67.4586 144.601 69.9288 147.287 73.2425 147.297L172.373 147.603C175.686 147.614 178.589 144.944 178.855 141.641L183.735 81.172C184.001 77.8691 181.531 75.1832 178.218 75.1729ZM79.8918 64.899C71.0553 64.8717 63.3157 71.9898 62.6049 80.7978L57.7252 141.267C57.0145 150.075 63.6017 157.237 72.4382 157.265L171.568 157.571C180.405 157.598 188.144 150.48 188.855 141.672L193.735 81.2029C194.446 72.395 187.858 65.2327 179.022 65.2053L79.8918 64.899Z" fill="#3D2505"/>
<path d="M91.3233 93.1501C91.501 90.9481 93.4359 89.1686 95.645 89.1754L159.359 89.3723C161.568 89.3791 163.215 91.1697 163.037 93.3717L160.137 129.319C159.959 131.521 158.024 133.3 155.815 133.294L92.1007 133.097C89.8916 133.09 88.2448 131.299 88.4225 129.097L91.3233 93.1501Z" fill="#894E00"/>
<rect x="-4.5978" y="-4.99925" width="81.7145" height="54.0641" rx="9" transform="matrix(0.999995 0.00308986 -0.0804351 0.99676 91.2429 89.1611)" stroke="#3D2505" stroke-width="10"/>
<path fill-rule="evenodd" clip-rule="evenodd" d="M88.4129 129.259L149.67 129.449L152.037 100.107C152.372 95.9633 154.261 92.1938 157.089 89.3663L159.359 89.3733C161.569 89.3801 163.215 91.1707 163.038 93.3727L160.137 129.32C159.959 131.522 158.024 133.301 155.815 133.295L92.1009 133.098C89.9459 133.091 88.3261 131.387 88.4129 129.259Z" fill="#693E00"/>
<path d="M62.6066 44.9355C63.3174 36.1275 71.057 29.0094 79.8935 29.0367L179.024 29.343C187.86 29.3703 194.447 36.5327 193.737 45.3406L188.857 105.81C188.146 114.618 180.406 121.736 171.57 121.709L72.4399 121.402C63.6034 121.375 57.0162 114.213 57.7269 105.405L62.6066 44.9355Z" fill="#894E00"/>
<path fill-rule="evenodd" clip-rule="evenodd" d="M178.219 39.3106L79.0891 39.0043C75.7754 38.9941 72.8731 41.6634 72.6065 44.9664L67.7269 105.436C67.4603 108.739 69.9306 111.424 73.2442 111.435L172.374 111.741C175.688 111.751 178.59 109.082 178.857 105.779L183.737 45.3097C184.003 42.0068 181.533 39.3209 178.219 39.3106ZM79.8935 29.0367C71.057 29.0094 63.3174 36.1275 62.6066 44.9355L57.7269 105.405C57.0162 114.213 63.6034 121.375 72.4399 121.402L171.57 121.709C180.406 121.736 188.146 114.618 188.857 105.81L193.737 45.3406C194.447 36.5327 187.86 29.3703 179.024 29.343L79.8935 29.0367Z" fill="#3D2505"/>
<path d="M91.325 57.2878C91.5027 55.0858 93.4376 53.3063 95.6467 53.3131L159.361 53.51C161.57 53.5168 163.217 55.3074 163.039 57.5094L160.138 93.4566C159.961 95.6586 158.026 97.4381 155.817 97.4313L92.1024 97.2344C89.8933 97.2276 88.2465 95.437 88.4242 93.235L91.325 57.2878Z" fill="#894E00"/>
<rect x="-4.5978" y="-4.99925" width="81.7145" height="54.0641" rx="9" transform="matrix(0.999995 0.00308986 -0.0804351 0.99676 91.2446 53.2988)" stroke="#3D2505" stroke-width="10"/>
<path fill-rule="evenodd" clip-rule="evenodd" d="M88.4146 93.3972L149.671 93.5864L152.039 64.2444C152.373 60.101 154.263 56.3315 157.091 53.504L159.361 53.511C161.57 53.5178 163.217 55.3084 163.039 57.5104L160.139 93.4576C159.961 95.6596 158.026 97.4391 155.817 97.4323L92.1026 97.2354C89.9476 97.2287 88.3278 95.5247 88.4146 93.3972Z" fill="#693E00"/>
<path d="M80.0631 218.433C80.7739 209.625 88.5135 202.507 97.35 202.534L196.48 202.84C205.317 202.867 211.904 210.03 211.193 218.838L206.313 279.307C205.603 288.115 197.863 295.233 189.027 295.206L89.8964 294.899C81.0599 294.872 74.4727 287.71 75.1835 278.902L80.0631 218.433Z" fill="#894E00"/>
<path fill-rule="evenodd" clip-rule="evenodd" d="M195.676 212.808L96.5457 212.501C93.232 212.491 90.3296 215.16 90.0631 218.463L85.1834 278.933C84.9169 282.236 87.3871 284.922 90.7008 284.932L189.831 285.238C193.145 285.248 196.047 282.579 196.313 279.276L201.193 218.807C201.46 215.504 198.989 212.818 195.676 212.808ZM97.35 202.534C88.5135 202.507 80.7739 209.625 80.0631 218.433L75.1835 278.902C74.4727 287.71 81.0599 294.872 89.8964 294.899L189.027 295.206C197.863 295.233 205.603 288.115 206.313 279.307L211.193 218.838C211.904 210.03 205.317 202.867 196.48 202.84L97.35 202.534Z" fill="#3D2505"/>
<path d="M108.782 230.785C108.959 228.583 110.894 226.803 113.103 226.81L176.817 227.007C179.027 227.014 180.673 228.804 180.496 231.006L177.595 266.954C177.417 269.156 175.482 270.935 173.273 270.928L109.559 270.731C107.35 270.725 105.703 268.934 105.881 266.732L108.782 230.785Z" fill="#894E00"/>
<rect x="-4.5978" y="-4.99925" width="81.7145" height="54.0641" rx="9" transform="matrix(0.999995 0.00308986 -0.0804351 0.99676 108.701 226.796)" stroke="#3D2505" stroke-width="10"/>
<path fill-rule="evenodd" clip-rule="evenodd" d="M105.871 266.894L167.128 267.084L169.496 237.741C169.83 233.598 171.72 229.829 174.547 227.001L176.818 227.008C179.027 227.015 180.674 228.805 180.496 231.007L177.595 266.955C177.417 269.157 175.482 270.936 173.273 270.929L109.559 270.732C107.404 270.726 105.784 269.022 105.871 266.894Z" fill="#693E00"/>
<path d="M227.953 204.844C228.664 196.036 236.403 188.918 245.24 188.945L344.37 189.251C353.206 189.279 359.793 196.441 359.083 205.249L354.203 265.718C353.492 274.526 345.753 281.644 336.916 281.617L237.786 281.31C228.95 281.283 222.362 274.121 223.073 265.313L227.953 204.844Z" fill="#894E00"/>
<path fill-rule="evenodd" clip-rule="evenodd" d="M343.565 199.219L244.435 198.913C241.122 198.902 238.219 201.572 237.953 204.875L233.073 265.344C232.807 268.647 235.277 271.333 238.59 271.343L337.721 271.649C341.034 271.659 343.937 268.99 344.203 265.687L349.083 205.218C349.349 201.915 346.879 199.229 343.565 199.219ZM245.24 188.945C236.403 188.918 228.664 196.036 227.953 204.844L223.073 265.313C222.362 274.121 228.95 281.283 237.786 281.31L336.916 281.617C345.753 281.644 353.492 274.526 354.203 265.718L359.083 205.249C359.793 196.441 353.206 189.279 344.37 189.251L245.24 188.945Z" fill="#3D2505"/>
<path d="M256.671 217.196C256.849 214.994 258.784 213.215 260.993 213.221L324.707 213.418C326.916 213.425 328.563 215.216 328.385 217.418L325.485 253.365C325.307 255.567 323.372 257.346 321.163 257.339L257.449 257.143C255.239 257.136 253.593 255.345 253.77 253.143L256.671 217.196Z" fill="#894E00"/>
<rect x="-4.5978" y="-4.99925" width="81.7145" height="54.0641" rx="9" transform="matrix(0.999995 0.00308986 -0.0804351 0.99676 256.591 213.207)" stroke="#3D2505" stroke-width="10"/>
<path fill-rule="evenodd" clip-rule="evenodd" d="M253.761 253.305L315.017 253.495L317.385 224.153C317.72 220.009 319.609 216.24 322.437 213.412L324.707 213.419C326.916 213.426 328.563 215.217 328.386 217.419L325.485 253.366C325.307 255.568 323.372 257.347 321.163 257.34L257.449 257.144C255.294 257.137 253.674 255.433 253.761 253.305Z" fill="#693E00"/>
<path d="M157.087 244.303C157.798 235.495 165.537 228.377 174.374 228.404L273.504 228.71C282.34 228.738 288.928 235.9 288.217 244.708L283.337 305.177C282.626 313.985 274.887 321.103 266.05 321.076L166.92 320.769C158.084 320.742 151.496 313.58 152.207 304.772L157.087 244.303Z" fill="#894E00"/>
<path fill-rule="evenodd" clip-rule="evenodd" d="M272.699 238.678L173.569 238.372C170.256 238.361 167.353 241.031 167.087 244.334L162.207 304.803C161.941 308.106 164.411 310.792 167.724 310.802L266.855 311.108C270.168 311.118 273.071 308.449 273.337 305.146L278.217 244.677C278.483 241.374 276.013 238.688 272.699 238.678ZM174.374 228.404C165.537 228.377 157.798 235.495 157.087 244.303L152.207 304.772C151.496 313.58 158.084 320.742 166.92 320.769L266.05 321.076C274.887 321.103 282.626 313.985 283.337 305.177L288.217 244.708C288.928 235.9 282.34 228.738 273.504 228.71L174.374 228.404Z" fill="#3D2505"/>
<path d="M185.805 256.655C185.983 254.453 187.918 252.674 190.127 252.68L253.841 252.877C256.05 252.884 257.697 254.675 257.519 256.877L254.619 292.824C254.441 295.026 252.506 296.805 250.297 296.798L186.583 296.602C184.374 296.595 182.727 294.804 182.904 292.602L185.805 256.655Z" fill="#894E00"/>
<rect x="-4.5978" y="-4.99925" width="81.7145" height="54.0641" rx="9" transform="matrix(0.999995 0.00308986 -0.0804351 0.99676 185.725 252.666)" stroke="#3D2505" stroke-width="10"/>
<path fill-rule="evenodd" clip-rule="evenodd" d="M182.895 292.764L244.151 292.954L246.519 263.612C246.854 259.468 248.743 255.699 251.571 252.871L253.841 252.878C256.05 252.885 257.697 254.676 257.52 256.878L254.619 292.825C254.441 295.027 252.506 296.806 250.297 296.799L186.583 296.603C184.428 296.596 182.808 294.892 182.895 292.764Z" fill="#693E00"/>
<path d="M121.778 68.7935C123.763 60.1826 132.455 54.266 141.194 55.5784L239.225 70.3009C247.964 71.6133 253.439 79.6576 251.455 88.2685L237.831 147.385C235.847 155.996 227.154 161.912 218.415 160.6L120.384 145.877C111.646 144.565 106.17 136.521 108.155 127.91L121.778 68.7935Z" fill="#894E00"/>
<path fill-rule="evenodd" clip-rule="evenodd" d="M236.979 80.0455L138.948 65.323C135.671 64.8309 132.412 67.0496 131.667 70.2786L118.044 129.395C117.3 132.624 119.353 135.641 122.63 136.133L220.661 150.855C223.938 151.347 227.198 149.129 227.942 145.9L241.565 86.7833C242.31 83.5542 240.256 80.5376 236.979 80.0455ZM141.194 55.5784C132.455 54.266 123.763 60.1826 121.778 68.7935L108.155 127.91C106.17 136.521 111.646 144.565 120.384 145.877L218.415 160.6C227.154 161.912 235.847 155.996 237.831 147.385L251.455 88.2685C253.439 79.6576 247.964 71.6133 239.225 70.3009L141.194 55.5784Z" fill="#3D2505"/>
<path d="M148.394 85.1918C148.891 83.0391 151.064 81.5599 153.248 81.888L216.256 91.3506C218.441 91.6787 219.81 93.6898 219.314 95.8425L211.215 130.985C210.719 133.138 208.546 134.617 206.361 134.289L143.353 124.827C141.168 124.499 139.8 122.487 140.296 120.335L148.394 85.1918Z" fill="#894E00"/>
<rect x="-3.82171" y="-5.61487" width="81.7145" height="54.0641" rx="9" transform="matrix(0.98891 0.148516 -0.224568 0.974458 147.989 81.7181)" stroke="#3D2505" stroke-width="10"/>
<path fill-rule="evenodd" clip-rule="evenodd" d="M140.262 120.493L200.84 129.591L207.451 100.905C208.384 96.8546 210.802 93.4002 214.011 91.014L216.256 91.3511C218.441 91.6792 219.81 93.6903 219.314 95.843L211.215 130.986C210.719 133.139 208.546 134.618 206.361 134.29L143.353 124.827C141.222 124.507 139.867 122.585 140.262 120.493Z" fill="#693E00"/>
<path d="M142.948 15.9361C144.933 7.32521 153.626 1.40861 162.364 2.72098L260.395 17.4435C269.134 18.7558 274.609 26.8002 272.625 35.4111L259.001 94.5274C257.017 103.138 248.324 109.055 239.585 107.742L141.554 93.02C132.816 91.7076 127.34 83.6632 129.325 75.0524L142.948 15.9361Z" fill="#894E00"/>
<path fill-rule="evenodd" clip-rule="evenodd" d="M258.15 27.188L160.118 12.4656C156.841 11.9734 153.582 14.1922 152.838 17.4212L139.214 76.5375C138.47 79.7666 140.523 82.7832 143.8 83.2754L241.831 97.9978C245.108 98.49 248.368 96.2713 249.112 93.0422L262.736 33.9259C263.48 30.6968 261.427 27.6802 258.15 27.188ZM162.364 2.72098C153.626 1.40861 144.933 7.32521 142.948 15.9361L129.325 75.0524C127.34 83.6632 132.816 91.7076 141.554 93.02L239.585 107.742C248.324 109.055 257.017 103.138 259.001 94.5274L272.625 35.4111C274.609 26.8002 269.134 18.7558 260.395 17.4435L162.364 2.72098Z" fill="#3D2505"/>
<path d="M169.565 32.3344C170.061 30.1816 172.234 28.7025 174.419 29.0306L237.426 38.4932C239.611 38.8213 240.98 40.8324 240.484 42.9851L232.385 78.128C231.889 80.2807 229.716 81.7599 227.531 81.4318L164.523 71.9692C162.339 71.6411 160.97 69.63 161.466 67.4773L169.565 32.3344Z" fill="#894E00"/>
<rect x="-3.82171" y="-5.61487" width="81.7145" height="54.0641" rx="9" transform="matrix(0.98891 0.148516 -0.224568 0.974458 169.16 28.8607)" stroke="#3D2505" stroke-width="10"/>
<path fill-rule="evenodd" clip-rule="evenodd" d="M161.433 67.6358L222.01 76.7334L228.621 48.0479C229.554 43.9972 231.972 40.5427 235.181 38.1565L237.426 38.4937C239.611 38.8218 240.98 40.8329 240.484 42.9856L232.385 78.1285C231.889 80.2812 229.716 81.7604 227.531 81.4323L164.523 71.9697C162.392 71.6496 161.037 69.7281 161.433 67.6358Z" fill="#693E00"/>
<path d="M121.778 134.171C123.763 125.561 132.455 119.644 141.194 120.956L239.225 135.679C247.964 136.991 253.439 145.036 251.455 153.646L237.831 212.763C235.847 221.374 227.154 227.29 218.415 225.978L120.384 211.255C111.646 209.943 106.17 201.899 108.155 193.288L121.778 134.171Z" fill="#894E00"/>
<path fill-rule="evenodd" clip-rule="evenodd" d="M236.979 145.423L138.948 130.701C135.671 130.209 132.412 132.428 131.667 135.657L118.044 194.773C117.3 198.002 119.353 201.019 122.63 201.511L220.661 216.233C223.938 216.725 227.198 214.507 227.942 211.278L241.565 152.161C242.31 148.932 240.256 145.916 236.979 145.423ZM141.194 120.956C132.455 119.644 123.763 125.561 121.778 134.171L108.155 193.288C106.17 201.899 111.646 209.943 120.384 211.255L218.415 225.978C227.154 227.29 235.847 221.374 237.831 212.763L251.455 153.646C253.439 145.036 247.964 136.991 239.225 135.679L141.194 120.956Z" fill="#3D2505"/>
<path d="M148.394 150.57C148.891 148.417 151.064 146.938 153.248 147.266L216.256 156.729C218.441 157.057 219.81 159.068 219.314 161.22L211.215 196.363C210.719 198.516 208.546 199.995 206.361 199.667L143.353 190.205C141.168 189.876 139.8 187.865 140.296 185.713L148.394 150.57Z" fill="#894E00"/>
<rect x="-3.82171" y="-5.61487" width="81.7145" height="54.0641" rx="9" transform="matrix(0.98891 0.148516 -0.224568 0.974458 147.989 147.096)" stroke="#3D2505" stroke-width="10"/>
<path fill-rule="evenodd" clip-rule="evenodd" d="M140.262 185.871L200.84 194.969L207.451 166.283C208.384 162.233 210.802 158.778 214.011 156.392L216.256 156.729C218.441 157.057 219.81 159.068 219.314 161.221L211.215 196.364C210.719 198.517 208.546 199.996 206.361 199.668L143.353 190.205C141.222 189.885 139.867 187.963 140.262 185.871Z" fill="#693E00"/>
<path d="M204.167 153.737C206.152 145.126 214.844 139.209 223.583 140.522L321.614 155.244C330.353 156.557 335.828 164.601 333.843 173.212L320.22 232.328C318.235 240.939 309.543 246.856 300.804 245.543L202.773 230.821C194.034 229.508 188.559 221.464 190.544 212.853L204.167 153.737Z" fill="#894E00"/>
<path fill-rule="evenodd" clip-rule="evenodd" d="M319.368 164.989L221.337 150.266C218.06 149.774 214.8 151.993 214.056 155.222L200.433 214.338C199.689 217.567 201.742 220.584 205.019 221.076L303.05 235.799C306.327 236.291 309.587 234.072 310.331 230.843L323.954 171.727C324.699 168.498 322.645 165.481 319.368 164.989ZM223.583 140.522C214.844 139.209 206.152 145.126 204.167 153.737L190.544 212.853C188.559 221.464 194.034 229.508 202.773 230.821L300.804 245.543C309.543 246.856 318.235 240.939 320.22 232.328L333.843 173.212C335.828 164.601 330.353 156.557 321.614 155.244L223.583 140.522Z" fill="#3D2505"/>
<path d="M230.783 170.135C231.279 167.982 233.453 166.503 235.637 166.831L298.645 176.294C300.83 176.622 302.199 178.633 301.703 180.786L293.604 215.929C293.108 218.082 290.934 219.561 288.75 219.233L225.742 209.77C223.557 209.442 222.188 207.431 222.685 205.278L230.783 170.135Z" fill="#894E00"/>
<rect x="-3.82171" y="-5.61487" width="81.7145" height="54.0641" rx="9" transform="matrix(0.98891 0.148516 -0.224568 0.974458 230.378 166.661)" stroke="#3D2505" stroke-width="10"/>
<path fill-rule="evenodd" clip-rule="evenodd" d="M222.651 205.437L283.229 214.534L289.84 185.849C290.773 181.798 293.191 178.344 296.4 175.957L298.645 176.294C300.83 176.623 302.199 178.634 301.703 180.786L293.604 215.929C293.108 218.082 290.934 219.561 288.75 219.233L225.742 209.77C223.611 209.45 222.256 207.529 222.651 205.437Z" fill="#693E00"/>
<path d="M270.104 125.553C272.088 116.942 280.781 111.026 289.52 112.338L387.551 127.061C396.289 128.373 401.765 136.417 399.78 145.028L386.157 204.145C384.172 212.755 375.48 218.672 366.741 217.36L268.71 202.637C259.971 201.325 254.496 193.28 256.48 184.67L270.104 125.553Z" fill="#894E00"/>
<path fill-rule="evenodd" clip-rule="evenodd" d="M385.305 136.805L287.274 122.083C283.997 121.591 280.737 123.809 279.993 127.038L266.369 186.155C265.625 189.384 267.679 192.4 270.955 192.893L368.987 207.615C372.264 208.107 375.523 205.888 376.268 202.659L389.891 143.543C390.635 140.314 388.582 137.297 385.305 136.805ZM289.52 112.338C280.781 111.026 272.088 116.942 270.104 125.553L256.48 184.67C254.496 193.28 259.971 201.325 268.71 202.637L366.741 217.36C375.48 218.672 384.172 212.755 386.157 204.145L399.78 145.028C401.765 136.417 396.289 128.373 387.551 127.061L289.52 112.338Z" fill="#3D2505"/>
<path d="M296.72 141.952C297.216 139.799 299.389 138.32 301.574 138.648L364.582 148.11C366.767 148.438 368.135 150.45 367.639 152.602L359.54 187.745C359.044 189.898 356.871 191.377 354.687 191.049L291.679 181.586C289.494 181.258 288.125 179.247 288.621 177.094L296.72 141.952Z" fill="#894E00"/>
<rect x="-3.82171" y="-5.61487" width="81.7145" height="54.0641" rx="9" transform="matrix(0.98891 0.148516 -0.224568 0.974458 296.315 138.478)" stroke="#3D2505" stroke-width="10"/>
<path fill-rule="evenodd" clip-rule="evenodd" d="M288.588 177.253L349.166 186.351L355.776 157.665C356.71 153.614 359.128 150.16 362.337 147.774L364.582 148.111C366.767 148.439 368.135 150.45 367.639 152.603L359.54 187.746C359.044 189.898 356.871 191.378 354.687 191.049L291.679 181.587C289.548 181.267 288.193 179.345 288.588 177.253Z" fill="#693E00"/>
<path d="M218.193 95.1177C220.177 86.5068 228.87 80.5903 237.609 81.9026L335.64 96.6251C344.378 97.9375 349.854 105.982 347.869 114.593L334.246 173.709C332.261 182.32 323.569 188.236 314.83 186.924L216.799 172.202C208.06 170.889 202.585 162.845 204.569 154.234L218.193 95.1177Z" fill="#894E00"/>
<path fill-rule="evenodd" clip-rule="evenodd" d="M333.394 106.37L235.363 91.6472C232.086 91.1551 228.826 93.3738 228.082 96.6029L214.459 155.719C213.714 158.948 215.768 161.965 219.045 162.457L317.076 177.179C320.353 177.672 323.613 175.453 324.357 172.224L337.98 113.108C338.724 109.878 336.671 106.862 333.394 106.37ZM237.609 81.9026C228.87 80.5903 220.177 86.5068 218.193 95.1177L204.569 154.234C202.585 162.845 208.06 170.889 216.799 172.202L314.83 186.924C323.569 188.236 332.261 182.32 334.246 173.709L347.869 114.593C349.854 105.982 344.378 97.9375 335.64 96.6251L237.609 81.9026Z" fill="#3D2505"/>
<path d="M244.809 111.516C245.305 109.363 247.479 107.884 249.663 108.212L312.671 117.675C314.856 118.003 316.225 120.014 315.728 122.167L307.63 157.31C307.133 159.462 304.96 160.942 302.776 160.613L239.768 151.151C237.583 150.823 236.214 148.812 236.71 146.659L244.809 111.516Z" fill="#894E00"/>
<rect x="-3.82171" y="-5.61487" width="81.7145" height="54.0641" rx="9" transform="matrix(0.98891 0.148516 -0.224568 0.974458 244.404 108.042)" stroke="#3D2505" stroke-width="10"/>
<path fill-rule="evenodd" clip-rule="evenodd" d="M236.677 146.817L297.255 155.915L303.866 127.23C304.799 123.179 307.217 119.724 310.426 117.338L312.671 117.675C314.856 118.003 316.225 120.015 315.728 122.167L307.63 157.31C307.133 159.463 304.96 160.942 302.776 160.614L239.768 151.151C237.637 150.831 236.282 148.91 236.677 146.817Z" fill="#693E00"/>
<path d="M229.697 42.731C231.681 34.1201 240.374 28.2035 249.112 29.5159L347.144 44.2384C355.882 45.5508 361.357 53.5951 359.373 62.206L345.749 121.322C343.765 129.933 335.072 135.85 326.334 134.537L228.303 119.815C219.564 118.503 214.089 110.458 216.073 101.847L229.697 42.731Z" fill="#894E00"/>
<path fill-rule="evenodd" clip-rule="evenodd" d="M344.898 53.983L246.867 39.2605C243.59 38.7684 240.33 40.9871 239.586 44.2161L225.962 103.332C225.218 106.562 227.271 109.578 230.548 110.07L328.579 124.793C331.856 125.285 335.116 123.066 335.86 119.837L349.484 60.7208C350.228 57.4917 348.175 54.4751 344.898 53.983ZM249.112 29.5159C240.374 28.2035 231.681 34.1201 229.697 42.731L216.073 101.847C214.089 110.458 219.564 118.503 228.303 119.815L326.334 134.537C335.072 135.85 343.765 129.933 345.749 121.322L359.373 62.206C361.357 53.5951 355.882 45.5508 347.144 44.2384L249.112 29.5159Z" fill="#3D2505"/>
<path d="M256.313 59.1293C256.809 56.9766 258.982 55.4974 261.167 55.8255L324.175 65.2881C326.359 65.6162 327.728 67.6273 327.232 69.78L319.133 104.923C318.637 107.076 316.464 108.555 314.279 108.227L251.271 98.7641C249.087 98.436 247.718 96.4249 248.214 94.2722L256.313 59.1293Z" fill="#894E00"/>
<rect x="-3.82171" y="-5.61487" width="81.7145" height="54.0641" rx="9" transform="matrix(0.98891 0.148516 -0.224568 0.974458 255.908 55.6556)" stroke="#3D2505" stroke-width="10"/>
<path fill-rule="evenodd" clip-rule="evenodd" d="M248.181 94.4307L308.759 103.528L315.369 74.8428C316.303 70.7921 318.721 67.3377 321.93 64.9515L324.175 65.2886C326.359 65.6167 327.728 67.6278 327.232 69.7805L319.133 104.923C318.637 107.076 316.464 108.555 314.279 108.227L251.271 98.7646C249.14 98.4445 247.786 96.523 248.181 94.4307Z" fill="#693E00"/>
</svg>
