<svg width="390" height="349" viewBox="0 0 390 349" fill="none" xmlns="http://www.w3.org/2000/svg">
<path fill-rule="evenodd" clip-rule="evenodd" d="M247.273 17.4769V17.4769C248.998 28.3171 258.287 36.3345 269.263 36.4561L328.023 37.107C335.755 37.1927 341.953 43.5298 341.867 51.2613L341.5 84.3731C341.495 84.8208 341.894 85.1653 342.337 85.0949V85.0949C349.973 83.8799 357.148 89.0851 358.363 96.7211L367.144 151.911V151.911C367.46 153.898 368.548 155.751 370.128 156.997C372.792 159.099 374.704 162.17 375.28 165.786L384.061 220.976C385.276 228.612 380.071 235.788 372.435 237.003V237.003C361.218 238.787 353.575 249.345 355.36 260.561V260.561C356.575 268.197 351.37 275.372 343.734 276.587L293.744 284.542C286.694 285.663 281.888 292.288 283.01 299.338V299.338C284.225 306.974 279.02 314.149 271.384 315.364L178.233 330.186V330.186C169.1 331.639 159.268 325.819 150.136 327.272L94.3422 336.149C86.7063 337.364 79.5312 332.159 78.3162 324.523L76.3949 312.448C75.0812 304.192 67.3234 298.564 59.0673 299.878V299.878C51.4314 301.093 44.2563 295.888 43.0413 288.252L42.0956 282.308C40.1936 270.355 24.6733 261.031 22.7713 249.078V249.078L13.9897 193.888C12.9735 187.501 16.4484 181.437 22.0803 178.913C23.523 178.266 24.4104 176.633 24.1619 175.072V175.072L15.3803 119.882C14.1653 112.246 19.3705 105.071 27.0065 103.856V103.856C42.4102 101.405 52.9446 86.9255 50.4936 71.5217V71.5217C49.2786 63.8858 54.4838 56.7107 62.1197 55.4957L119.452 46.3733C124.061 45.6399 127.204 41.3083 126.47 36.6985V36.6985C125.255 29.0626 130.46 21.8875 138.096 20.6725L231.247 5.85079C238.883 4.6358 246.058 9.84099 247.273 17.4769Z" fill="#894E00"/>
<path d="M328.023 37.107L327.968 42.1067L328.023 37.107ZM341.867 51.2613L336.867 51.2059L336.867 51.2059L341.867 51.2613ZM358.363 96.7211L363.301 95.9354L363.301 95.9354L358.363 96.7211ZM375.28 165.786L380.218 165.001L380.218 165.001L375.28 165.786ZM384.061 220.976L379.123 221.762L379.123 221.762L384.061 220.976ZM343.734 276.587L344.52 281.525L344.52 281.525L343.734 276.587ZM271.384 315.364L272.17 320.302L272.17 320.302L271.384 315.364ZM94.3422 336.149L93.5565 331.211L93.5565 331.211L94.3422 336.149ZM78.3162 324.523L73.3783 325.309L73.3783 325.309L78.3162 324.523ZM43.0413 288.252L38.1034 289.037L38.1034 289.037L43.0413 288.252ZM13.9897 193.888L18.9276 193.102L18.9276 193.102L13.9897 193.888ZM15.3803 119.882L20.3182 119.096L20.3182 119.096L15.3803 119.882ZM62.1197 55.4957L62.9054 60.4336L62.9054 60.4336L62.1197 55.4957ZM138.096 20.6725L138.882 25.6104L138.882 25.6104L138.096 20.6725ZM231.247 5.85079L230.461 0.91291L230.461 0.91291L231.247 5.85079ZM22.0803 178.913L24.1254 183.476L22.0803 178.913ZM150.136 327.272L150.921 332.21L150.136 327.272ZM370.128 156.997L373.224 153.072L370.128 156.997ZM341.5 84.3731L336.501 84.3177L341.5 84.3731ZM293.744 284.542L294.53 289.48L293.744 284.542ZM269.263 36.4561L269.207 41.4557L269.263 36.4561ZM328.078 32.1073L269.318 31.4564L269.207 41.4557L327.968 42.1067L328.078 32.1073ZM346.867 51.3167C346.983 40.8239 338.571 32.2236 328.078 32.1073L327.968 42.1067C332.938 42.1618 336.922 46.2356 336.867 51.2059L346.867 51.3167ZM346.5 84.4285L346.867 51.3167L336.867 51.2059L336.501 84.3177L346.5 84.4285ZM363.301 95.9354C361.652 85.5723 351.914 78.5081 341.551 80.1571L343.122 90.0328C348.031 89.2517 352.644 92.5979 353.425 97.5068L363.301 95.9354ZM372.082 151.125L363.301 95.9354L353.425 97.5068L362.206 152.697L372.082 151.125ZM380.218 165.001C379.437 160.096 376.837 155.921 373.224 153.072L367.031 160.923C368.748 162.277 369.971 164.245 370.342 166.572L380.218 165.001ZM388.999 220.191L380.218 165.001L370.342 166.572L379.123 221.762L388.999 220.191ZM373.221 241.94C383.584 240.291 390.648 230.554 388.999 220.191L379.123 221.762C379.904 226.671 376.558 231.284 371.649 232.065L373.221 241.94ZM344.52 281.525C354.883 279.876 361.947 270.139 360.298 259.776L350.422 261.347C351.203 266.256 347.857 270.869 342.948 271.65L344.52 281.525ZM294.53 289.48L344.52 281.525L342.948 271.65L292.958 279.604L294.53 289.48ZM272.17 320.302C282.533 318.653 289.597 308.915 287.948 298.552L278.072 300.124C278.853 305.032 275.507 309.645 270.598 310.426L272.17 320.302ZM179.019 335.123L272.17 320.302L270.598 310.426L177.448 325.248L179.019 335.123ZM95.1279 341.087L150.921 332.21L149.35 322.334L93.5565 331.211L95.1279 341.087ZM73.3783 325.309C75.0273 335.672 84.7649 342.736 95.1279 341.087L93.5565 331.211C88.6477 331.993 84.0352 328.646 83.2541 323.738L73.3783 325.309ZM71.457 313.234L73.3783 325.309L83.2541 323.738L81.3328 311.663L71.457 313.234ZM38.1034 289.037C39.7524 299.4 49.49 306.465 59.853 304.816L58.2816 294.94C53.3728 295.721 48.7603 292.375 47.9792 287.466L38.1034 289.037ZM37.1577 283.094L38.1034 289.037L47.9792 287.466L47.0335 281.522L37.1577 283.094ZM9.05183 194.674L17.8334 249.864L27.7092 248.292L18.9276 193.102L9.05183 194.674ZM20.0353 174.35C12.3937 177.775 7.6716 185.999 9.05183 194.674L18.9276 193.102C18.2754 189.004 20.5031 185.099 24.1254 183.476L20.0353 174.35ZM10.4425 120.668L19.224 175.858L29.0998 174.286L20.3182 119.096L10.4425 120.668ZM26.2208 98.9182C15.8577 100.567 8.79353 110.305 10.4425 120.668L20.3182 119.096C19.5371 114.188 22.8833 109.575 27.7922 108.794L26.2208 98.9182ZM61.3341 50.5578C50.971 52.2068 43.9068 61.9444 45.5557 72.3074L55.4315 70.736C54.6504 65.8272 57.9966 61.2147 62.9054 60.4336L61.3341 50.5578ZM118.666 41.4355L61.3341 50.5578L62.9054 60.4336L120.237 51.3112L118.666 41.4355ZM137.311 15.7346C126.948 17.3835 119.883 27.1211 121.532 37.4842L131.408 35.9128C130.627 31.004 133.973 26.3914 138.882 25.6104L137.311 15.7346ZM230.461 0.91291L137.311 15.7346L138.882 25.6104L232.032 10.7887L230.461 0.91291ZM252.211 16.6912C250.562 6.32818 240.824 -0.73601 230.461 0.91291L232.032 10.7887C236.941 10.0076 241.554 13.3538 242.335 18.2626L252.211 16.6912ZM120.237 51.3112C127.574 50.1438 132.575 43.2497 131.408 35.9128L121.532 37.4842C121.832 39.3669 120.548 41.1359 118.666 41.4355L120.237 51.3112ZM27.7922 108.794C45.9152 105.91 58.3177 88.8748 55.4315 70.736L45.5557 72.3074C47.5715 84.9763 38.9053 96.8999 26.2208 98.9182L27.7922 108.794ZM24.1254 183.476C27.6212 181.909 29.7049 178.089 29.0998 174.286L19.224 175.858C19.1608 175.46 19.2518 175.151 19.3602 174.952C19.4684 174.752 19.6748 174.512 20.0353 174.35L24.1254 183.476ZM47.0335 281.522C45.8278 273.945 40.4054 267.536 36.302 262.525C31.6942 256.898 28.4054 252.668 27.7092 248.292L17.8334 249.864C19.0391 257.441 24.4615 263.85 28.5649 268.861C33.1727 274.488 36.4614 278.718 37.1577 283.094L47.0335 281.522ZM371.649 232.065C357.7 234.284 348.204 247.409 350.422 261.347L360.298 259.776C358.946 251.281 364.737 243.29 373.221 241.94L371.649 232.065ZM177.448 325.248C174.014 325.794 170.258 324.996 165.306 323.856C160.776 322.813 155.05 321.427 149.35 322.334L150.921 332.21C154.354 331.663 158.111 332.461 163.063 333.601C167.593 334.644 173.319 336.03 179.019 335.123L177.448 325.248ZM362.206 152.697C362.72 155.927 364.466 158.899 367.031 160.923L373.224 153.072C372.63 152.602 372.201 151.87 372.082 151.125L362.206 152.697ZM336.501 84.3177C336.461 87.8625 339.621 90.5899 343.122 90.0328L341.551 80.1571C344.168 79.7407 346.529 81.7792 346.5 84.4285L336.501 84.3177ZM292.958 279.604C283.181 281.159 276.516 290.346 278.072 300.124L287.948 298.552C287.26 294.229 290.207 290.167 294.53 289.48L292.958 279.604ZM81.3328 311.663C79.5852 300.679 69.2648 293.192 58.2816 294.94L59.853 304.816C65.382 303.936 70.5773 307.705 71.457 313.234L81.3328 311.663ZM242.335 18.2626C244.443 31.5097 255.794 41.3071 269.207 41.4557L269.318 31.4564C260.779 31.3618 253.553 25.1245 252.211 16.6912L242.335 18.2626Z" fill="#3D2505"/>
<path d="M216.242 32.2534C218.227 23.6426 226.919 17.726 235.658 19.0384L333.689 33.7608C342.428 35.0732 347.903 43.1176 345.918 51.7284L332.295 110.845C330.31 119.456 321.618 125.372 312.879 124.06L214.848 109.337C206.109 108.025 200.634 99.9806 202.619 91.3697L216.242 32.2534Z" fill="#894E00"/>
<path fill-rule="evenodd" clip-rule="evenodd" d="M331.443 43.5054L233.412 28.783C230.135 28.2908 226.875 30.5095 226.131 33.7386L212.508 92.8549C211.763 96.084 213.817 99.1006 217.094 99.5928L315.125 114.315C318.402 114.807 321.662 112.589 322.406 109.36L336.029 50.2433C336.773 47.0142 334.72 43.9976 331.443 43.5054ZM235.658 19.0384C226.919 17.726 218.227 23.6426 216.242 32.2534L202.619 91.3697C200.634 99.9806 206.109 108.025 214.848 109.337L312.879 124.06C321.618 125.372 330.31 119.456 332.295 110.845L345.918 51.7284C347.903 43.1176 342.428 35.0732 333.689 33.7608L235.658 19.0384Z" fill="#3D2505"/>
<path d="M242.858 48.6517C243.354 46.499 245.528 45.0199 247.712 45.348L310.72 54.8106C312.905 55.1387 314.274 57.1498 313.777 59.3025L305.679 94.4454C305.183 96.5981 303.009 98.0773 300.825 97.7492L237.817 88.2866C235.632 87.9585 234.263 85.9474 234.759 83.7947L242.858 48.6517Z" fill="#894E00"/>
<rect x="-3.82171" y="-5.61487" width="81.7145" height="54.0641" rx="9" transform="matrix(0.98891 0.148516 -0.224568 0.974458 242.453 45.1781)" stroke="#3D2505" stroke-width="10"/>
<path fill-rule="evenodd" clip-rule="evenodd" d="M234.726 83.9532L295.304 93.0508L301.915 64.3653C302.848 60.3146 305.266 56.8601 308.475 54.4739L310.72 54.8111C312.905 55.1392 314.274 57.1503 313.777 59.303L305.679 94.4459C305.183 96.5986 303.009 98.0778 300.825 97.7497L237.817 88.2871C235.686 87.967 234.331 86.0455 234.726 83.9532Z" fill="#693E00"/>
<path d="M3.13953 120.207C1.90923 111.457 7.90713 102.82 16.5362 100.917L113.339 79.5626C121.969 77.6591 129.961 83.2097 131.192 91.9602L139.638 152.035C140.868 160.786 134.87 169.422 126.241 171.326L29.438 192.68C20.8089 194.583 12.8163 189.033 11.586 180.282L3.13953 120.207Z" fill="#894E00"/>
<path fill-rule="evenodd" clip-rule="evenodd" d="M114.732 89.4652L17.9285 110.819C14.6926 111.533 12.4434 114.772 12.9048 118.053L21.3512 178.128C21.8126 181.41 24.8098 183.491 28.0457 182.777L124.849 161.423C128.085 160.709 130.334 157.471 129.873 154.189L121.426 94.1143C120.965 90.8328 117.968 88.7514 114.732 89.4652ZM16.5362 100.917C7.90713 102.82 1.90923 111.457 3.13953 120.207L11.586 180.282C12.8163 189.033 20.8089 194.583 29.438 192.68L126.241 171.326C134.87 169.422 140.868 160.786 139.638 152.035L131.192 91.9602C129.961 83.2097 121.969 77.6591 113.339 79.5626L16.5362 100.917Z" fill="#3D2505"/>
<path d="M33.8631 125.988C33.5555 123.801 35.055 121.642 37.2122 121.166L99.4309 107.441C101.588 106.965 103.586 108.352 103.894 110.54L108.915 146.253C109.223 148.441 107.723 150.6 105.566 151.076L43.3472 164.801C41.19 165.276 39.1918 163.889 38.8842 161.701L33.8631 125.988Z" fill="#894E00"/>
<rect x="-5.57876" y="-3.87423" width="81.7145" height="54.0641" rx="9" transform="matrix(0.976523 -0.215414 0.139229 0.99026 33.7146 120.788)" stroke="#3D2505" stroke-width="10"/>
<path fill-rule="evenodd" clip-rule="evenodd" d="M38.9099 161.861L98.7287 148.666L94.6302 119.515C94.0514 115.399 95.0722 111.307 97.214 107.93L99.4309 107.441C101.588 106.966 103.586 108.353 103.894 110.541L108.915 146.254C109.223 148.441 107.723 150.6 105.566 151.076L43.3473 164.801C41.2429 165.265 39.2899 163.956 38.9099 161.861Z" fill="#693E00"/>
<path d="M233.356 218.134C233.635 209.301 241.017 201.813 249.844 201.408L348.87 196.86C357.698 196.455 364.628 203.286 364.349 212.118L362.436 272.754C362.157 281.586 354.775 289.075 345.948 289.48L246.922 294.027C238.094 294.433 231.165 287.601 231.443 278.769L233.356 218.134Z" fill="#894E00"/>
<path fill-rule="evenodd" clip-rule="evenodd" d="M348.555 206.855L249.529 211.403C246.219 211.555 243.45 214.363 243.346 217.675L241.433 278.311C241.328 281.623 243.927 284.184 247.237 284.032L346.263 279.485C349.574 279.333 352.342 276.525 352.446 273.213L354.36 212.577C354.464 209.265 351.865 206.703 348.555 206.855ZM249.844 201.408C241.017 201.813 233.635 209.301 233.356 218.134L231.443 278.769C231.165 287.601 238.094 294.433 246.922 294.027L345.948 289.48C354.775 289.075 362.157 281.586 362.436 272.754L364.349 212.118C364.628 203.286 357.698 196.455 348.87 196.86L249.844 201.408Z" fill="#3D2505"/>
<path d="M262.646 229.065C262.715 226.857 264.561 224.985 266.768 224.884L330.415 221.961C332.622 221.86 334.354 223.568 334.285 225.776L333.147 261.822C333.078 264.03 331.232 265.902 329.025 266.003L265.378 268.926C263.171 269.027 261.439 267.32 261.508 265.112L262.646 229.065Z" fill="#894E00"/>
<rect x="-4.83705" y="-4.76815" width="81.7145" height="54.0641" rx="9" transform="matrix(0.998947 -0.0458729 -0.031538 0.999502 262.616 224.843)" stroke="#3D2505" stroke-width="10"/>
<path fill-rule="evenodd" clip-rule="evenodd" d="M261.506 265.274L322.699 262.464L323.627 233.041C323.758 228.886 325.461 225.029 328.147 222.066L330.415 221.962C332.622 221.861 334.354 223.569 334.285 225.777L333.147 261.823C333.077 264.031 331.232 265.903 329.025 266.004L265.378 268.927C263.225 269.026 261.524 267.403 261.506 265.274Z" fill="#693E00"/>
<path d="M174.103 179.972C174.382 171.139 181.764 163.651 190.591 163.246L289.617 158.698C298.444 158.293 305.374 165.124 305.096 173.956L303.182 234.592C302.904 243.424 295.522 250.912 286.695 251.318L187.668 255.865C178.841 256.271 171.911 249.439 172.19 240.607L174.103 179.972Z" fill="#894E00"/>
<path fill-rule="evenodd" clip-rule="evenodd" d="M289.302 168.693L190.275 173.241C186.965 173.393 184.197 176.201 184.093 179.513L182.179 240.148C182.075 243.46 184.673 246.022 187.984 245.87L287.01 241.323C290.32 241.171 293.088 238.363 293.193 235.051L295.106 174.415C295.211 171.103 292.612 168.541 289.302 168.693ZM190.591 163.246C181.764 163.651 174.382 171.139 174.103 179.972L172.19 240.607C171.911 249.439 178.841 256.271 187.668 255.865L286.695 251.318C295.522 250.912 302.904 243.424 303.182 234.592L305.096 173.956C305.374 165.124 298.444 158.293 289.617 158.698L190.591 163.246Z" fill="#3D2505"/>
<path d="M203.392 190.903C203.462 188.695 205.307 186.823 207.514 186.722L271.162 183.799C273.368 183.698 275.101 185.405 275.031 187.614L273.894 223.66C273.824 225.868 271.979 227.74 269.772 227.841L206.124 230.764C203.918 230.865 202.185 229.157 202.255 226.949L203.392 190.903Z" fill="#894E00"/>
<rect x="-4.83705" y="-4.76815" width="81.7145" height="54.0641" rx="9" transform="matrix(0.998947 -0.0458729 -0.031538 0.999502 203.363 186.681)" stroke="#3D2505" stroke-width="10"/>
<path fill-rule="evenodd" clip-rule="evenodd" d="M202.253 227.112L263.445 224.302L264.374 194.879C264.505 190.724 266.208 186.867 268.894 183.904L271.161 183.8C273.368 183.699 275.101 185.407 275.031 187.615L273.894 223.661C273.824 225.869 271.979 227.741 269.772 227.842L206.124 230.765C203.972 230.864 202.27 229.241 202.253 227.112Z" fill="#693E00"/>
<path d="M63.4056 272.444C62.1753 263.693 68.1732 255.057 76.8023 253.153L173.606 231.799C182.235 229.895 190.227 235.446 191.458 244.196L199.904 304.271C201.134 313.022 195.136 321.659 186.507 323.562L89.7041 344.916C81.075 346.82 73.0824 341.269 71.8521 332.519L63.4056 272.444Z" fill="#894E00"/>
<path fill-rule="evenodd" clip-rule="evenodd" d="M174.998 241.702L78.1946 263.056C74.9587 263.769 72.7095 267.008 73.1709 270.29L81.6173 330.365C82.0787 333.646 85.0759 335.727 88.3118 335.014L185.115 313.66C188.351 312.946 190.6 309.707 190.139 306.426L181.692 246.351C181.231 243.069 178.234 240.988 174.998 241.702ZM76.8023 253.153C68.1732 255.057 62.1753 263.693 63.4056 272.444L71.8521 332.519C73.0824 341.269 81.075 346.82 89.7041 344.916L186.507 323.562C195.136 321.659 201.134 313.022 199.904 304.271L191.458 244.196C190.227 235.446 182.235 229.895 173.606 231.799L76.8023 253.153Z" fill="#3D2505"/>
<path d="M94.1292 278.225C93.8216 276.037 95.3211 273.878 97.4784 273.402L159.697 259.677C161.854 259.201 163.852 260.589 164.16 262.776L169.181 298.489C169.489 300.677 167.989 302.836 165.832 303.312L103.613 317.037C101.456 317.513 99.4579 316.125 99.1504 313.938L94.1292 278.225Z" fill="#894E00"/>
<rect x="-5.57876" y="-3.87423" width="81.7145" height="54.0641" rx="9" transform="matrix(0.976523 -0.215414 0.139229 0.99026 93.9807 273.024)" stroke="#3D2505" stroke-width="10"/>
<path fill-rule="evenodd" clip-rule="evenodd" d="M99.176 314.098L158.995 300.902L154.896 271.751C154.318 267.635 155.338 263.544 157.48 260.167L159.697 259.678C161.854 259.202 163.852 260.59 164.16 262.777L169.181 298.49C169.489 300.678 167.989 302.837 165.832 303.313L103.613 317.038C101.509 317.502 99.556 316.193 99.176 314.098Z" fill="#693E00"/>
</svg>
