<svg width="207" height="351" viewBox="0 0 207 351" fill="none" xmlns="http://www.w3.org/2000/svg">
<g clip-path="url(#clip0_164_1741)">
<mask id="path-1-inside-1_164_1741" fill="white">
<path fill-rule="evenodd" clip-rule="evenodd" d="M162.263 8.39361C149.951 5.09461 137.296 12.4011 133.997 24.7132L90.2672 187.915C66.515 190.962 45.8055 207.967 39.2238 232.53L24.477 287.566C21.0464 300.369 28.6444 313.529 41.4476 316.96L112.61 336.027C125.413 339.458 138.573 331.86 142.004 319.057L156.75 264.021C163.332 239.458 153.9 214.376 134.853 199.862L178.583 36.6599C181.882 24.3479 174.575 11.6926 162.263 8.39361Z"/>
</mask>
<path fill-rule="evenodd" clip-rule="evenodd" d="M162.263 8.39361C149.951 5.09461 137.296 12.4011 133.997 24.7132L90.2672 187.915C66.515 190.962 45.8055 207.967 39.2238 232.53L24.477 287.566C21.0464 300.369 28.6444 313.529 41.4476 316.96L112.61 336.027C125.413 339.458 138.573 331.86 142.004 319.057L156.75 264.021C163.332 239.458 153.9 214.376 134.853 199.862L178.583 36.6599C181.882 24.3479 174.575 11.6926 162.263 8.39361Z" fill="#FEFAE6"/>
<path d="M133.997 24.7132L143.656 27.3014L133.997 24.7132ZM90.2672 187.915L91.5395 197.834L98.1909 196.98L99.9265 190.503L90.2672 187.915ZM39.2238 232.53L48.8831 235.118L48.8831 235.118L39.2238 232.53ZM24.477 287.566L14.8178 284.978L24.477 287.566ZM41.4476 316.96L38.8594 326.619L38.8594 326.619L41.4476 316.96ZM112.61 336.027L115.198 326.368L115.198 326.368L112.61 336.027ZM142.004 319.057L151.663 321.645L151.663 321.645L142.004 319.057ZM156.75 264.021L147.091 261.433L147.091 261.433L156.75 264.021ZM134.853 199.862L125.194 197.274L123.458 203.751L128.792 207.815L134.853 199.862ZM178.583 36.6599L188.242 39.2481L178.583 36.6599ZM143.656 27.3014C145.526 20.324 152.698 16.1833 159.675 18.0529L164.852 -1.26565C147.205 -5.99407 129.066 4.47827 124.338 22.125L143.656 27.3014ZM99.9265 190.503L143.656 27.3014L124.338 22.125L80.608 185.327L99.9265 190.503ZM48.8831 235.118C54.3789 214.608 71.6714 200.382 91.5395 197.834L88.9949 177.996C61.3586 181.541 37.2322 201.326 29.5646 229.942L48.8831 235.118ZM34.1363 290.154L48.8831 235.118L29.5646 229.942L14.8178 284.978L34.1363 290.154ZM44.0358 307.3C36.5673 305.299 32.1351 297.622 34.1363 290.154L14.8178 284.978C9.95775 303.115 20.7215 321.759 38.8594 326.619L44.0358 307.3ZM115.198 326.368L44.0358 307.3L38.8594 326.619L110.021 345.687L115.198 326.368ZM132.344 316.469C130.343 323.937 122.666 328.369 115.198 326.368L110.021 345.687C128.159 350.547 146.803 339.783 151.663 321.645L132.344 316.469ZM147.091 261.433L132.344 316.469L151.663 321.645L166.41 266.609L147.091 261.433ZM128.792 207.815C144.724 219.957 152.587 240.922 147.091 261.433L166.41 266.609C174.077 237.993 163.075 208.796 140.914 191.908L128.792 207.815ZM168.924 34.0717L125.194 197.274L144.512 202.45L188.242 39.2481L168.924 34.0717ZM159.675 18.0529C166.653 19.9225 170.793 27.0943 168.924 34.0717L188.242 39.2481C192.971 21.6014 182.498 3.46277 164.852 -1.26565L159.675 18.0529Z" fill="#3D2505" mask="url(#path-1-inside-1_164_1741)"/>
</g>
<defs>
<clipPath id="clip0_164_1741">
<rect width="207" height="351" fill="white"/>
</clipPath>
</defs>
</svg>
