<svg width="204" height="351" viewBox="0 0 204 351" fill="none" xmlns="http://www.w3.org/2000/svg">
<mask id="path-1-inside-1_126_6623" fill="white">
<path fill-rule="evenodd" clip-rule="evenodd" d="M144.789 16.2348C132.477 12.9358 119.821 20.2423 116.522 32.5544L72.7925 195.756C49.0403 198.803 28.3309 215.808 21.7492 240.371L7.00243 295.407C3.57183 308.21 11.1698 321.37 23.973 324.801L95.135 343.869C107.938 347.299 121.098 339.701 124.529 326.898L139.276 271.862C145.857 247.299 136.425 222.218 117.378 207.703L161.108 44.5011C164.407 32.1891 157.101 19.5338 144.789 16.2348Z"/>
</mask>
<path fill-rule="evenodd" clip-rule="evenodd" d="M144.789 16.2348C132.477 12.9358 119.821 20.2423 116.522 32.5544L72.7925 195.756C49.0403 198.803 28.3309 215.808 21.7492 240.371L7.00243 295.407C3.57183 308.21 11.1698 321.37 23.973 324.801L95.135 343.869C107.938 347.299 121.098 339.701 124.529 326.898L139.276 271.862C145.857 247.299 136.425 222.218 117.378 207.703L161.108 44.5011C164.407 32.1891 157.101 19.5338 144.789 16.2348Z" fill="#FEFAE6"/>
<path d="M72.7925 195.756L74.0648 205.675L80.7162 204.822L82.4518 198.344L72.7925 195.756ZM117.378 207.703L107.719 205.115L105.984 211.592L111.317 215.657L117.378 207.703ZM126.182 35.1426C128.051 28.1652 135.223 24.0245 142.2 25.8941L147.377 6.57556C129.73 1.84714 111.591 12.3195 106.863 29.9662L126.182 35.1426ZM82.4518 198.344L126.182 35.1426L106.863 29.9662L63.1333 193.168L82.4518 198.344ZM31.4085 242.959C36.9042 222.449 54.1967 208.224 74.0648 205.675L71.5202 185.837C43.884 189.383 19.7576 209.167 12.09 237.783L31.4085 242.959ZM16.6617 297.995L31.4085 242.959L12.09 237.783L-2.65683 292.819L16.6617 297.995ZM26.5612 315.142C19.0927 313.14 14.6605 305.464 16.6617 297.995L-2.65683 292.819C-7.51685 310.957 3.24695 329.6 21.3848 334.46L26.5612 315.142ZM97.7232 334.209L26.5612 315.142L21.3848 334.46L92.5468 353.528L97.7232 334.209ZM114.87 324.31C112.868 331.778 105.192 336.211 97.7232 334.209L92.5468 353.528C110.685 358.388 129.328 347.624 134.188 329.486L114.87 324.31ZM129.616 269.274L114.87 324.31L134.188 329.486L148.935 274.45L129.616 269.274ZM111.317 215.657C127.249 227.798 135.112 248.764 129.616 269.274L148.935 274.45C156.603 245.834 145.601 216.637 123.44 199.749L111.317 215.657ZM151.449 41.9129L107.719 205.115L127.038 210.291L170.767 47.0893L151.449 41.9129ZM142.2 25.8941C149.178 27.7637 153.319 34.9356 151.449 41.9129L170.767 47.0893C175.496 29.4426 165.024 11.304 147.377 6.57556L142.2 25.8941Z" fill="#3D2505" mask="url(#path-1-inside-1_126_6623)"/>
</svg>
