<svg width="60" height="120" viewBox="0 0 60 120" fill="none" xmlns="http://www.w3.org/2000/svg">
<g clip-path="url(#clip0_133_364)">
<path d="M8.25968 113.638L8.70791 104.963C8.75576 104.037 9.64493 103.39 10.5407 103.63L16.0013 105.093C16.8817 105.329 17.332 106.306 16.9395 107.129L13.2186 114.927C12.9161 115.561 12.2044 115.889 11.5259 115.707L9.33801 115.121C8.67368 114.943 8.22419 114.325 8.25968 113.638Z" fill="#56390A" stroke="#3D2505" stroke-width="3"/>
<path d="M10.0983 97.0384L19.632 99.593C20.4578 99.8142 20.9003 100.712 20.5731 101.501L18.3311 106.913C18.0593 107.569 17.3435 107.922 16.6576 107.738L8.60515 105.581C7.9196 105.397 7.47618 104.734 7.56834 104.03L8.32906 98.2215C8.44012 97.3735 9.27224 96.8171 10.0983 97.0384Z" fill="#56390A" stroke="#3D2505" stroke-width="3"/>
<path d="M27.6463 4.1122L50.8914 10.3407C53.334 10.9952 54.6984 13.5948 53.8494 15.9768L24.6264 97.9736C23.8689 100.099 21.6064 101.286 19.427 100.702L9.63079 98.0776C7.44978 97.4932 6.08395 95.331 6.49315 93.1104L22.2673 7.50997C22.7253 5.02473 25.2054 3.45814 27.6463 4.1122Z" fill="#FEEA46" stroke="#3D2505" stroke-width="3"/>
<path d="M53.8514 15.9778L52.117 20.8443L21.3323 12.5956L22.2693 7.51095C22.7272 5.02571 25.2073 3.45912 27.6483 4.11318L50.8934 10.3417C53.336 10.9962 54.7003 13.5958 53.8514 15.9778Z" fill="#FFF4E5" stroke="#3D2505" stroke-width="3"/>
</g>
<defs>
<clipPath id="clip0_133_364">
<rect width="60" height="120" fill="white"/>
</clipPath>
</defs>
</svg>
