<svg width="24" height="25" viewBox="0 0 24 25" fill="none" xmlns="http://www.w3.org/2000/svg">
<path d="M20.4093 13.2213L20.4084 13.2236C20.3382 13.4187 20.2233 13.5881 20.0786 13.7328L13.4786 20.3328C13.1846 20.6268 12.8157 20.7793 12.4 20.7793C11.9907 20.7793 11.6269 20.6308 11.3462 20.333C11.0448 20.0487 10.9005 19.6789 10.9122 19.2652L10.9122 19.264C10.9244 18.8663 11.0643 18.5078 11.3464 18.2257L15.3929 14.1793H5.425C5.01548 14.1793 4.64866 14.0351 4.35845 13.7448C4.06854 13.4549 3.925 13.0883 3.925 12.6793C3.925 12.2703 4.0685 11.9037 4.35783 11.6133L4.35906 11.6121C4.6494 11.3228 5.01603 11.1793 5.425 11.1793H15.3929L11.3464 7.13283C11.0521 6.83845 10.9001 6.4688 10.9122 6.05176L10.9122 6.05051C10.925 5.64683 11.0836 5.29273 11.3791 5.01812C11.6722 4.72873 12.0391 4.57948 12.4525 4.59149L12.4538 4.59153C12.8472 4.60394 13.1996 4.74673 13.4786 5.02573L20.0786 11.6257C20.2233 11.7705 20.3382 11.9399 20.4084 12.1349L20.4084 12.1349L20.4093 12.1373C20.471 12.3116 20.5 12.4935 20.5 12.6793C20.5 12.8651 20.471 13.047 20.4093 13.2213Z" fill="#FF5A80" stroke="#FF5A80"/>
</svg>
