<svg width="40" height="40" viewBox="0 0 40 40" fill="none" xmlns="http://www.w3.org/2000/svg">
<g clip-path="url(#clip0_135_455)">
<path d="M22.8325 24.7429C21.103 26.0691 18.9392 26.8574 16.5913 26.8574C10.9217 26.8574 6.32568 22.2613 6.32568 16.5918C6.32568 10.9222 10.9217 6.32617 16.5913 6.32617C22.2608 6.32617 26.8569 10.9222 26.8569 16.5918C26.8569 18.9404 26.0682 21.1047 24.7412 22.8345L26.2526 24.3459C26.999 23.9807 27.9256 24.1082 28.546 24.7287L33.0889 29.2715C33.8699 30.0525 33.8699 31.3189 33.0889 32.0999L32.1002 33.0886C31.3191 33.8696 30.0528 33.8696 29.2718 33.0886L24.7289 28.5458C24.1093 27.9261 23.9812 27.001 24.3448 26.2552L22.8325 24.7429Z" fill="#C1BCB5"/>
<path d="M16.5913 29.8574C18.3143 29.8574 19.963 29.5277 21.4758 28.9283C21.719 29.5615 22.0961 30.1556 22.6076 30.6671L27.1504 35.2099C29.1031 37.1625 32.2689 37.1625 34.2215 35.2099L35.2102 34.2212C37.1628 32.2686 37.1628 29.1028 35.2102 27.1502L30.6674 22.6073C30.1558 22.0957 29.5616 21.7186 28.9282 21.4753C29.5273 19.9629 29.8569 18.3144 29.8569 16.5918C29.8569 9.26538 23.9177 3.32617 16.5913 3.32617C9.26489 3.32617 3.32568 9.26538 3.32568 16.5918C3.32568 23.9182 9.26489 29.8574 16.5913 29.8574Z" fill="#C1BCB5" stroke="#FF5A80" stroke-width="6"/>
<path fill-rule="evenodd" clip-rule="evenodd" d="M22.1623 27.5216C20.4899 28.3755 18.5954 28.8574 16.5913 28.8574C9.81718 28.8574 4.32568 23.3659 4.32568 16.5918C4.32568 9.81767 9.81718 4.32617 16.5913 4.32617C23.3654 4.32617 28.8569 9.81767 28.8569 16.5918C28.8569 18.5956 28.3751 20.4898 27.5215 22.162C28.411 22.2483 29.2777 22.6318 29.9603 23.3145L34.5031 27.8573C36.0652 29.4194 36.0652 31.952 34.5031 33.5141L33.5144 34.5028C31.9523 36.0649 29.4196 36.0649 27.8575 34.5028L23.3147 29.96C22.6322 29.2775 22.2487 28.411 22.1623 27.5216ZM24.3448 26.2552C23.9812 27.001 24.1093 27.9261 24.7289 28.5458L29.2718 33.0886C30.0528 33.8696 31.3191 33.8696 32.1002 33.0886L33.0889 32.0999C33.8699 31.3189 33.8699 30.0525 33.0889 29.2715L28.546 24.7287C27.9256 24.1082 26.999 23.9807 26.2526 24.3459L24.7412 22.8345C26.0682 21.1047 26.8569 18.9404 26.8569 16.5918C26.8569 10.9222 22.2608 6.32617 16.5913 6.32617C10.9217 6.32617 6.32568 10.9222 6.32568 16.5918C6.32568 22.2613 10.9217 26.8574 16.5913 26.8574C18.9392 26.8574 21.103 26.0691 22.8325 24.7429L24.3448 26.2552Z" fill="#3D2505"/>
<circle cx="16.5913" cy="16.5918" r="7.98435" fill="white"/>
</g>
<defs>
<clipPath id="clip0_135_455">
<rect width="40" height="40" fill="white"/>
</clipPath>
</defs>
</svg>
