<svg width="39" height="40" viewBox="0 0 39 40" fill="none" xmlns="http://www.w3.org/2000/svg">
<path d="M16.0913 27.8574C18.3506 27.8574 20.4565 27.1914 22.2208 26.0454L22.7042 26.5288C22.5096 27.482 22.7812 28.5122 23.5218 29.2529L28.0646 33.7957C29.2362 34.9673 31.1357 34.9673 32.3073 33.7957L33.296 32.807C34.4675 31.6354 34.4675 29.7359 33.296 28.5644L28.7532 24.0216C28.0116 23.28 26.9798 23.0086 26.0256 23.2047L25.5438 22.7229C26.6905 20.9583 27.3569 18.8517 27.3569 16.5918C27.3569 10.37 22.3131 5.32617 16.0913 5.32617C9.86946 5.32617 4.82568 10.37 4.82568 16.5918C4.82568 22.8136 9.86946 27.8574 16.0913 27.8574Z" fill="#C1BCB5" stroke="#3D2505" stroke-width="2"/>
<circle cx="16.0913" cy="16.5918" r="7.98435" fill="white"/>
</svg>
