<svg width="32" height="33" viewBox="0 0 32 33" fill="none" xmlns="http://www.w3.org/2000/svg">
<g clip-path="url(#clip0_135_418)">
<path d="M12.1767 24.4179C14.436 24.4179 16.5419 23.7519 18.3062 22.6059L18.7897 23.0894C18.595 24.0425 18.8666 25.0728 19.6073 25.8134L24.1501 30.3563C25.3217 31.5278 27.2212 31.5278 28.3927 30.3563L29.3814 29.3676C30.553 28.196 30.553 26.2965 29.3814 25.1249L24.8386 20.5821C24.097 19.8405 23.0652 19.5692 22.1111 19.7652L21.6293 19.2834C22.7759 17.5188 23.4423 15.4123 23.4423 13.1523C23.4423 6.9305 18.3985 1.88672 12.1767 1.88672C5.95491 1.88672 0.911133 6.9305 0.911133 13.1523C0.911133 19.3741 5.95491 24.4179 12.1767 24.4179Z" fill="#FF5A80" stroke="#3D2505" stroke-width="2"/>
<circle cx="12.1767" cy="13.1523" r="7.98435" fill="#F9DBDB"/>
</g>
<defs>
<clipPath id="clip0_135_418">
<rect width="32" height="32" fill="white" transform="translate(0 0.975586)"/>
</clipPath>
</defs>
</svg>
