<svg width="33" height="33" viewBox="0 0 33 33" fill="none" xmlns="http://www.w3.org/2000/svg">
<g clip-path="url(#clip0_135_395)">
<path d="M12.768 24.4179C15.0273 24.4179 17.1332 23.7519 18.8975 22.6059L19.381 23.0894C19.1863 24.0425 19.4579 25.0728 20.1986 25.8134L24.7414 30.3563C25.913 31.5278 27.8125 31.5278 28.984 30.3563L29.9727 29.3676C31.1443 28.196 31.1443 26.2965 29.9727 25.1249L25.4299 20.5821C24.6884 19.8405 23.6565 19.5692 22.7024 19.7652L22.2206 19.2834C23.3672 17.5188 24.0336 15.4123 24.0336 13.1523C24.0336 6.9305 18.9899 1.88672 12.768 1.88672C6.54622 1.88672 1.50244 6.9305 1.50244 13.1523C1.50244 19.3741 6.54622 24.4179 12.768 24.4179Z" fill="#C1BCB5" stroke="#3D2505" stroke-width="2"/>
<circle cx="12.768" cy="13.1523" r="7.98435" fill="#F0F0F0"/>
</g>
<defs>
<clipPath id="clip0_135_395">
<rect width="32" height="32" fill="white" transform="translate(0.591309 0.975586)"/>
</clipPath>
</defs>
</svg>
