<svg width="41" height="41" viewBox="0 0 41 41" fill="none" xmlns="http://www.w3.org/2000/svg">
<g clip-path="url(#clip0_135_615)">
<path d="M21.3501 34.2822C18.2131 34.2822 15.4001 33.3551 12.9112 31.5009C10.4223 29.6477 8.7501 27.2304 7.89454 24.2489C7.76491 23.7822 7.81054 23.3415 8.03143 22.9267C8.25128 22.5119 8.59454 22.2526 9.06121 22.1489C9.50195 22.0452 9.89758 22.1422 10.2481 22.4398C10.5976 22.7384 10.8371 23.1082 10.9668 23.5489C11.6408 25.8304 12.9439 27.6711 14.8759 29.0711C16.8068 30.4711 18.9649 31.1711 21.3501 31.1711C24.3834 31.1711 26.9563 30.1144 29.0688 28.0009C31.1822 25.8884 32.239 23.3156 32.239 20.2822C32.239 17.2489 31.1822 14.6755 29.0688 12.562C26.9563 10.4496 24.3834 9.39334 21.3501 9.39334C19.5612 9.39334 17.889 9.80815 16.3334 10.6378C14.7779 11.4674 13.4686 12.6082 12.4057 14.06H15.1279C15.5686 14.06 15.9383 14.2088 16.237 14.5064C16.5346 14.8051 16.6834 15.1748 16.6834 15.6156C16.6834 16.0563 16.5346 16.4255 16.237 16.7231C15.9383 17.0218 15.5686 17.1711 15.1279 17.1711H8.90565C8.46491 17.1711 8.09573 17.0218 7.7981 16.7231C7.49943 16.4255 7.3501 16.0563 7.3501 15.6156V9.39334C7.3501 8.9526 7.49943 8.58289 7.7981 8.28423C8.09573 7.9866 8.46491 7.83778 8.90565 7.83778C9.34639 7.83778 9.7161 7.9866 10.0148 8.28423C10.3124 8.58289 10.4612 8.9526 10.4612 9.39334V11.4933C11.7834 9.83408 13.3976 8.55075 15.3037 7.64334C17.2087 6.73593 19.2242 6.28223 21.3501 6.28223C23.2945 6.28223 25.1161 6.65141 26.8148 7.38978C28.5124 8.12919 29.9902 9.12734 31.2481 10.3842C32.505 11.6422 33.5031 13.1199 34.2425 14.8176C34.9809 16.5162 35.3501 18.3378 35.3501 20.2822C35.3501 22.2267 34.9809 24.0477 34.2425 25.7453C33.5031 27.444 32.505 28.9218 31.2481 30.1787C29.9902 31.4366 28.5124 32.4353 26.8148 33.1747C25.1161 33.913 23.2945 34.2822 21.3501 34.2822Z" fill="white" stroke="#3D2505" stroke-width="2"/>
<path d="M21.3501 34.2822C18.2131 34.2822 15.4001 33.3551 12.9112 31.5009C10.4223 29.6477 8.7501 27.2304 7.89454 24.2489C7.76491 23.7822 7.81054 23.3415 8.03143 22.9267C8.25128 22.5119 8.59454 22.2526 9.06121 22.1489C9.50195 22.0452 9.89758 22.1422 10.2481 22.4398C10.5976 22.7384 10.8371 23.1082 10.9668 23.5489C11.6408 25.8304 12.9439 27.6711 14.8759 29.0711C16.8068 30.4711 18.9649 31.1711 21.3501 31.1711C24.3834 31.1711 26.9563 30.1144 29.0688 28.0009C31.1822 25.8884 32.239 23.3156 32.239 20.2822C32.239 17.2489 31.1822 14.6755 29.0688 12.562C26.9563 10.4496 24.3834 9.39334 21.3501 9.39334C19.5612 9.39334 17.889 9.80815 16.3334 10.6378C14.7779 11.4674 13.4686 12.6082 12.4057 14.06H15.1279C15.5686 14.06 15.9383 14.2088 16.237 14.5064C16.5346 14.8051 16.6834 15.1748 16.6834 15.6156C16.6834 16.0563 16.5346 16.4255 16.237 16.7231C15.9383 17.0218 15.5686 17.1711 15.1279 17.1711H8.90565C8.46491 17.1711 8.09573 17.0218 7.7981 16.7231C7.49943 16.4255 7.3501 16.0563 7.3501 15.6156V9.39334C7.3501 8.9526 7.49943 8.58289 7.7981 8.28423C8.09573 7.9866 8.46491 7.83778 8.90565 7.83778C9.34639 7.83778 9.7161 7.9866 10.0148 8.28423C10.3124 8.58289 10.4612 8.9526 10.4612 9.39334V11.4933C11.7834 9.83408 13.3976 8.55075 15.3037 7.64334C17.2087 6.73593 19.2242 6.28223 21.3501 6.28223C23.2945 6.28223 25.1161 6.65141 26.8148 7.38978C28.5124 8.12919 29.9902 9.12734 31.2481 10.3842C32.505 11.6422 33.5031 13.1199 34.2425 14.8176C34.9809 16.5162 35.3501 18.3378 35.3501 20.2822C35.3501 22.2267 34.9809 24.0477 34.2425 25.7453C33.5031 27.444 32.505 28.9218 31.2481 30.1787C29.9902 31.4366 28.5124 32.4353 26.8148 33.1747C25.1161 33.913 23.2945 34.2822 21.3501 34.2822Z" fill="#3D2505"/>
</g>
<defs>
<clipPath id="clip0_135_615">
<rect width="40" height="40" fill="white" transform="translate(0.581543 0.282227)"/>
</clipPath>
</defs>
</svg>
