<svg width="41" height="41" viewBox="0 0 41 41" fill="none" xmlns="http://www.w3.org/2000/svg">
<g clip-path="url(#clip0_136_636)">
<path d="M21.6616 34.2822C18.5246 34.2822 15.7116 33.3551 13.2227 31.5009C10.7338 29.6477 9.06162 27.2304 8.20607 24.2489C8.07644 23.7822 8.12207 23.3415 8.34295 22.9267C8.56281 22.5119 8.90607 22.2526 9.37273 22.1489C9.81347 22.0452 10.2091 22.1422 10.5596 22.4398C10.9091 22.7384 11.1487 23.1082 11.2783 23.5489C11.9524 25.8304 13.2554 27.6711 15.1874 29.0711C17.1184 30.4711 19.2764 31.1711 21.6616 31.1711C24.695 31.1711 27.2678 30.1144 29.3803 28.0009C31.4938 25.8884 32.5505 23.3156 32.5505 20.2822C32.5505 17.2489 31.4938 14.6755 29.3803 12.562C27.2678 10.4496 24.695 9.39334 21.6616 9.39334C19.8727 9.39334 18.2005 9.80815 16.645 10.6378C15.0894 11.4674 13.7801 12.6082 12.7172 14.06H15.4394C15.8801 14.06 16.2498 14.2088 16.5485 14.5064C16.8461 14.8051 16.995 15.1748 16.995 15.6156C16.995 16.0563 16.8461 16.4255 16.5485 16.7231C16.2498 17.0218 15.8801 17.1711 15.4394 17.1711H9.21718C8.77644 17.1711 8.40725 17.0218 8.10962 16.7231C7.81095 16.4255 7.66162 16.0563 7.66162 15.6156V9.39334C7.66162 8.9526 7.81095 8.58289 8.10962 8.28423C8.40725 7.9866 8.77644 7.83778 9.21718 7.83778C9.65792 7.83778 10.0276 7.9866 10.3263 8.28423C10.6239 8.58289 10.7727 8.9526 10.7727 9.39334V11.4933C12.095 9.83408 13.7091 8.55075 15.6152 7.64334C17.5202 6.73593 19.5357 6.28223 21.6616 6.28223C23.6061 6.28223 25.4276 6.65141 27.1263 7.38978C28.8239 8.12919 30.3017 9.12734 31.5596 10.3842C32.8165 11.6422 33.8147 13.1199 34.5541 14.8176C35.2924 16.5162 35.6616 18.3378 35.6616 20.2822C35.6616 22.2267 35.2924 24.0477 34.5541 25.7453C33.8147 27.444 32.8165 28.9218 31.5596 30.1787C30.3017 31.4366 28.8239 32.4353 27.1263 33.1747C25.4276 33.913 23.6061 34.2822 21.6616 34.2822Z" fill="white" stroke="#FF5A80" stroke-width="2"/>
<path d="M21.6616 34.2822C18.5246 34.2822 15.7116 33.3551 13.2227 31.5009C10.7338 29.6477 9.06162 27.2304 8.20607 24.2489C8.07644 23.7822 8.12207 23.3415 8.34295 22.9267C8.56281 22.5119 8.90607 22.2526 9.37273 22.1489C9.81347 22.0452 10.2091 22.1422 10.5596 22.4398C10.9091 22.7384 11.1487 23.1082 11.2783 23.5489C11.9524 25.8304 13.2554 27.6711 15.1874 29.0711C17.1184 30.4711 19.2764 31.1711 21.6616 31.1711C24.695 31.1711 27.2678 30.1144 29.3803 28.0009C31.4938 25.8884 32.5505 23.3156 32.5505 20.2822C32.5505 17.2489 31.4938 14.6755 29.3803 12.562C27.2678 10.4496 24.695 9.39334 21.6616 9.39334C19.8727 9.39334 18.2005 9.80815 16.645 10.6378C15.0894 11.4674 13.7801 12.6082 12.7172 14.06H15.4394C15.8801 14.06 16.2498 14.2088 16.5485 14.5064C16.8461 14.8051 16.995 15.1748 16.995 15.6156C16.995 16.0563 16.8461 16.4255 16.5485 16.7231C16.2498 17.0218 15.8801 17.1711 15.4394 17.1711H9.21718C8.77644 17.1711 8.40725 17.0218 8.10962 16.7231C7.81095 16.4255 7.66162 16.0563 7.66162 15.6156V9.39334C7.66162 8.9526 7.81095 8.58289 8.10962 8.28423C8.40725 7.9866 8.77644 7.83778 9.21718 7.83778C9.65792 7.83778 10.0276 7.9866 10.3263 8.28423C10.6239 8.58289 10.7727 8.9526 10.7727 9.39334V11.4933C12.095 9.83408 13.7091 8.55075 15.6152 7.64334C17.5202 6.73593 19.5357 6.28223 21.6616 6.28223C23.6061 6.28223 25.4276 6.65141 27.1263 7.38978C28.8239 8.12919 30.3017 9.12734 31.5596 10.3842C32.8165 11.6422 33.8147 13.1199 34.5541 14.8176C35.2924 16.5162 35.6616 18.3378 35.6616 20.2822C35.6616 22.2267 35.2924 24.0477 34.5541 25.7453C33.8147 27.444 32.8165 28.9218 31.5596 30.1787C30.3017 31.4366 28.8239 32.4353 27.1263 33.1747C25.4276 33.913 23.6061 34.2822 21.6616 34.2822Z" fill="#FF5A80"/>
</g>
<defs>
<clipPath id="clip0_136_636">
<rect width="40" height="40" fill="white" transform="translate(0.893066 0.282227)"/>
</clipPath>
</defs>
</svg>
