<svg width="112" height="112" viewBox="0 0 112 112" fill="none" xmlns="http://www.w3.org/2000/svg">
<path d="M34.9572 92.0487C17.4364 79.7531 39.5624 36.2317 55.9564 16.7544C73.4796 38.6191 91.7861 80.3511 79.4198 91.2747C71.8774 97.9371 63.1395 94.6798 58.5944 92.3453C57.8078 91.9412 57.3148 91.2747 55.5598 91.2747C53.8048 91.2747 53.7177 91.2747 52.607 92.0487C48.0963 95.1916 40.1105 95.4021 34.9572 92.0487Z" fill="#FA2B2B"/>
<path fill-rule="evenodd" clip-rule="evenodd" d="M56.0854 6.00078C59.3036 6.03946 62.3354 7.51745 64.3482 10.0289C73.8712 21.9114 83.4046 38.8595 89.0175 54.4811C91.8157 62.269 93.8627 70.3343 94.1791 77.6317C94.479 84.5496 93.2995 93.3637 86.5394 99.3352L79.4195 91.2749C90.2436 81.7136 77.5682 48.5487 62.4874 25.7633C60.3388 22.5169 58.1414 19.4813 55.9561 16.7546C53.7834 19.3359 51.51 22.3396 49.2415 25.637C34.3937 47.2193 19.7581 81.3828 34.9569 92.0489C40.1102 95.4023 48.096 95.1918 52.6067 92.0489C53.7174 91.2749 53.8044 91.2749 55.5595 91.2749C56.9043 91.2749 57.5081 91.6663 58.0708 92.031C58.2424 92.1423 58.4103 92.2511 58.5941 92.3455C63.1392 94.68 71.8771 97.9373 79.4195 91.2749L86.5394 99.3352C74.7872 109.716 61.6086 105.572 55.4531 102.771C51.7843 104.487 47.7783 105.209 44.1111 105.239C39.2519 105.279 33.7868 104.119 29.0912 101.063C28.9859 100.994 28.8819 100.924 28.7791 100.852C20.6048 95.1156 17.9659 86.1779 17.789 78.0705C17.6145 70.0766 19.7162 61.4512 22.6291 53.4256C28.4795 37.3072 38.7736 20.4678 47.7282 9.82912C49.8007 7.36678 52.8671 5.96209 56.0854 6.00078ZM52.1636 101.018C52.1471 101.008 52.1378 101.002 52.137 101.002C52.1361 101.001 52.1446 101.006 52.1636 101.018Z" fill="#AF1515"/>
<circle cx="43.6991" cy="78.0248" r="3.03628" fill="#FF9D00"/>
<circle cx="55.9997" cy="62.531" r="3.03628" fill="#FF9D00"/>
<circle cx="46.7351" cy="45.1813" r="3.03628" fill="#FF9D00"/>
<circle cx="66.2544" cy="45.1813" r="3.03628" fill="#FF9D00"/>
<circle cx="70.3756" cy="78.0248" r="3.03628" fill="#FF9D00"/>
</svg>
