<svg width="112" height="112" viewBox="0 0 112 112" fill="none" xmlns="http://www.w3.org/2000/svg">
<rect x="27.1273" y="15.3959" width="9.35755" height="33.7576" rx="4.67878" transform="rotate(35.7672 27.1273 15.3959)" fill="#FFBBE1" stroke="#FF6ADA" stroke-width="2"/>
<rect x="102.947" y="41.6266" width="9.35755" height="30.7646" rx="4.67878" transform="rotate(115.052 102.947 41.6266)" fill="#FCEDAA" stroke="#F9D329" stroke-width="2"/>
<rect x="35.7813" y="41.6409" width="9.35755" height="27.2933" rx="4.67878" transform="rotate(-28.3266 35.7813 41.6409)" fill="#96FDF9" stroke="#0EAAED" stroke-width="2"/>
<rect x="74.848" y="95.1247" width="9.35755" height="29.4408" rx="4.67878" transform="rotate(124.631 74.848 95.1247)" fill="#A2F683" stroke="#43C215" stroke-width="2"/>
<rect x="33.5112" y="67.5498" width="9.35755" height="24.7549" rx="4.67878" transform="rotate(51.6064 33.5112 67.5498)" fill="#F89543" stroke="#F06C00" stroke-width="2"/>
<rect x="76.5266" y="49.1533" width="9.35755" height="23.9733" rx="4.67878" transform="rotate(24.2529 76.5266 49.1533)" fill="#E5A6D9" stroke="#CD41D9" stroke-width="2"/>
<path d="M53.828 16.1359C55.2297 16.1359 56.472 15.2333 56.9051 13.9002C57.275 12.762 58.8853 12.762 59.2551 13.9002C59.6883 15.2333 60.9305 16.1359 62.3322 16.1359C63.5291 16.1359 64.0267 17.6674 63.0584 18.3709C61.9244 19.1947 61.4499 20.6551 61.8831 21.9882C62.2529 23.1265 60.9501 24.073 59.9819 23.3695C58.8479 22.5456 57.3123 22.5456 56.1783 23.3695C55.2101 24.073 53.9073 23.1265 54.2772 21.9882C54.7103 20.6551 54.2358 19.1947 53.1018 18.3709C52.1335 17.6674 52.6312 16.1359 53.828 16.1359Z" fill="#A2F683" stroke="#43C215" stroke-width="2"/>
<path d="M20.158 54.3835C21.5597 54.3835 22.802 53.4809 23.2351 52.1478C23.605 51.0096 25.2153 51.0096 25.5851 52.1478C26.0183 53.4809 27.2606 54.3835 28.6622 54.3835C29.8591 54.3835 30.3567 55.915 29.3884 56.6185C28.2544 57.4424 27.7799 58.9028 28.2131 60.2359C28.5829 61.3741 27.2801 62.3206 26.3119 61.6172C25.1779 60.7933 23.6424 60.7933 22.5084 61.6172C21.5401 62.3206 20.2373 61.3741 20.6072 60.2359C21.0403 58.9028 20.5658 57.4424 19.4318 56.6185C18.4636 55.915 18.9612 54.3835 20.158 54.3835Z" fill="#FCEDAA" stroke="#F9D329" stroke-width="2"/>
<path d="M90.0428 76.2871C91.4445 76.2871 92.6868 75.3845 93.1199 74.0514C93.4898 72.9132 95.1001 72.9132 95.4699 74.0514C95.9031 75.3845 97.1454 76.2871 98.547 76.2871C99.7439 76.2871 100.241 77.8186 99.2732 78.5221C98.1392 79.346 97.6647 80.8064 98.0979 82.1394C98.4677 83.2777 97.1649 84.2242 96.1967 83.5207C95.0627 82.6968 93.5272 82.6968 92.3932 83.5207C91.4249 84.2242 90.1221 83.2777 90.492 82.1394C90.9251 80.8064 90.4506 79.346 89.3166 78.5221C88.3484 77.8186 88.846 76.2871 90.0428 76.2871Z" fill="#FFBBE1" stroke="#FF6ADA" stroke-width="2"/>
</svg>
