<svg width="112" height="112" viewBox="0 0 112 112" fill="none" xmlns="http://www.w3.org/2000/svg">
<path fill-rule="evenodd" clip-rule="evenodd" d="M30.3199 26.3849C27.8494 24.8308 27.1064 21.5682 28.6605 19.0976C30.2146 16.6271 33.4772 15.8841 35.9478 17.4382C36.0157 17.4809 36.0823 17.5249 36.1476 17.5702C36.1868 17.5012 36.2277 17.4328 36.2704 17.365C37.8244 14.8945 41.0871 14.1515 43.5576 15.7056C46.0282 17.2597 46.7712 20.5223 45.2171 22.9929C44.9595 23.4024 44.655 23.7644 44.3149 24.0764C44.2782 24.3523 44.1829 24.625 44.025 24.8761L40.5724 30.3648C39.9592 31.3396 38.6718 31.6328 37.6969 31.0196L32.2083 27.567C31.9566 27.4087 31.7524 27.2036 31.5997 26.9701C31.159 26.8362 30.7286 26.642 30.3199 26.3849Z" fill="#F9739E"/>
<path d="M28.6605 19.0976L27.814 18.5652L28.6605 19.0976ZM30.3199 26.3849L30.8524 25.5384L30.8524 25.5384L30.3199 26.3849ZM35.9478 17.4382L35.4153 18.2846L35.4153 18.2846L35.9478 17.4382ZM36.1476 17.5702L35.578 18.3921L36.4765 19.0148L37.0169 18.0645L36.1476 17.5702ZM36.2704 17.365L35.4239 16.8326L35.4239 16.8326L36.2704 17.365ZM45.2171 22.9929L46.0635 23.5253L46.0635 23.5253L45.2171 22.9929ZM44.3149 24.0764L43.6389 23.3395L43.3715 23.5847L43.3236 23.9444L44.3149 24.0764ZM37.6969 31.0196L38.2294 30.1731L38.2294 30.1731L37.6969 31.0196ZM32.2083 27.567L32.7407 26.7206L32.7407 26.7206L32.2083 27.567ZM31.5997 26.9701L32.4365 26.4228L32.2378 26.1189L31.8904 26.0134L31.5997 26.9701ZM27.814 18.5652C25.9659 21.5032 26.8494 25.3832 29.7875 27.2314L30.8524 25.5384C28.8493 24.2784 28.2469 21.6332 29.5069 19.6301L27.814 18.5652ZM36.4802 16.5917C33.5422 14.7436 29.6622 15.6271 27.814 18.5652L29.5069 19.6301C30.767 17.627 33.4122 17.0246 35.4153 18.2846L36.4802 16.5917ZM36.7172 16.7483C36.6397 16.6946 36.5607 16.6424 36.4802 16.5917L35.4153 18.2846C35.4706 18.3194 35.5249 18.3553 35.578 18.3921L36.7172 16.7483ZM37.0169 18.0645C37.0488 18.0084 37.0821 17.9527 37.1168 17.8975L35.4239 16.8326C35.3734 16.9129 35.3248 16.9941 35.2783 17.0759L37.0169 18.0645ZM37.1168 17.8975C38.3768 15.8944 41.0221 15.292 43.0252 16.552L44.0901 14.8591C41.152 13.011 37.2721 13.8945 35.4239 16.8326L37.1168 17.8975ZM43.0252 16.552C45.0283 17.8121 45.6306 20.4573 44.3706 22.4604L46.0635 23.5253C47.9117 20.5873 47.0282 16.7073 44.0901 14.8591L43.0252 16.552ZM44.3706 22.4604C44.1609 22.7938 43.9139 23.0872 43.6389 23.3395L44.9909 24.8132C45.3961 24.4416 45.7581 24.0109 46.0635 23.5253L44.3706 22.4604ZM44.8714 25.4086C45.1074 25.0335 45.2509 24.6238 45.3062 24.2083L43.3236 23.9444C43.3055 24.0809 43.2585 24.2166 43.1785 24.3437L44.8714 25.4086ZM41.4189 30.8972L44.8714 25.4086L43.1785 24.3437L39.726 29.8323L41.4189 30.8972ZM37.1644 31.866C38.6068 32.7733 40.5116 32.3396 41.4189 30.8972L39.726 29.8323C39.4068 30.3397 38.7367 30.4923 38.2294 30.1731L37.1644 31.866ZM31.6758 28.4135L37.1644 31.866L38.2294 30.1731L32.7407 26.7206L31.6758 28.4135ZM30.7628 27.5175C30.9927 27.869 31.2999 28.177 31.6758 28.4135L32.7407 26.7206C32.6133 26.6404 32.5121 26.5383 32.4365 26.4228L30.7628 27.5175ZM29.7875 27.2314C30.2721 27.5362 30.7838 27.7674 31.3089 27.9269L31.8904 26.0134C31.5341 25.905 31.1851 25.7477 30.8524 25.5384L29.7875 27.2314Z" fill="#E92563"/>
<path fill-rule="evenodd" clip-rule="evenodd" d="M46.732 56.8079C45.7439 54.3311 46.9506 51.5223 49.4274 50.5342C51.9041 49.546 54.7129 50.7528 55.7011 53.2295C55.7283 53.2978 55.7539 53.3664 55.7778 53.4352C55.8442 53.4052 55.9115 53.3766 55.9798 53.3493C58.4565 52.3612 61.2654 53.5679 62.2535 56.0447C63.2416 58.5214 62.0349 61.3302 59.5582 62.3184C59.1193 62.4935 58.6701 62.5996 58.2223 62.642C58.028 62.8494 57.7862 63.0184 57.5048 63.1306L52.1629 65.2619C51.1856 65.6518 50.0773 65.1756 49.6874 64.1983L47.5561 58.8565C47.4438 58.575 47.4 58.2832 47.4166 57.9994C47.1393 57.6455 46.9071 57.2466 46.732 56.8079Z" fill="white"/>
<path d="M49.4274 50.5342L49.7979 51.463L49.4274 50.5342ZM46.732 56.8079L45.8032 57.1784L45.8032 57.1784L46.732 56.8079ZM55.7011 53.2295L54.7723 53.6001L54.7723 53.6001L55.7011 53.2295ZM55.7778 53.4352L54.8334 53.7639L55.1929 54.7967L56.1895 54.3465L55.7778 53.4352ZM55.9798 53.3493L55.6092 52.4205L55.6092 52.4205L55.9798 53.3493ZM62.2535 56.0447L63.1823 55.6741L63.1823 55.6741L62.2535 56.0447ZM59.5582 62.3184L59.1876 61.3896L59.1876 61.3896L59.5582 62.3184ZM58.2223 62.642L58.128 61.6465L57.7514 61.6822L57.4927 61.9582L58.2223 62.642ZM57.5048 63.1306L57.1342 62.2018L57.1342 62.2018L57.5048 63.1306ZM52.1629 65.2619L52.5335 66.1907L52.5335 66.1907L52.1629 65.2619ZM49.6874 64.1983L50.6162 63.8277L50.6162 63.8277L49.6874 64.1983ZM47.5561 58.8565L46.6273 59.227L46.6273 59.227L47.5561 58.8565ZM47.4166 57.9994L48.4149 58.058L48.4371 57.6804L48.2037 57.3826L47.4166 57.9994ZM49.0568 49.6054C46.0671 50.7982 44.6104 54.1887 45.8032 57.1784L47.6608 56.4373C46.8773 54.4735 47.8342 52.2465 49.7979 51.463L49.0568 49.6054ZM56.6299 52.8589C55.4371 49.8692 52.0465 48.4126 49.0568 49.6054L49.7979 51.463C51.7617 50.6795 53.9888 51.6363 54.7723 53.6001L56.6299 52.8589ZM56.7223 53.1065C56.6934 53.0236 56.6626 52.9411 56.6299 52.8589L54.7723 53.6001C54.794 53.6545 54.8144 53.7091 54.8334 53.7639L56.7223 53.1065ZM56.1895 54.3465C56.2423 54.3227 56.2959 54.2999 56.3504 54.2781L55.6092 52.4205C55.5271 52.4533 55.4461 52.4878 55.3662 52.5239L56.1895 54.3465ZM56.3504 54.2781C58.3141 53.4947 60.5412 54.4515 61.3247 56.4152L63.1823 55.6741C61.9895 52.6844 58.5989 51.2277 55.6092 52.4205L56.3504 54.2781ZM61.3247 56.4152C62.1082 58.379 61.1514 60.6061 59.1876 61.3896L59.9287 63.2472C62.9184 62.0544 64.3751 58.6638 63.1823 55.6741L61.3247 56.4152ZM59.1876 61.3896C58.8381 61.529 58.4819 61.613 58.128 61.6465L58.3166 63.6376C58.8582 63.5863 59.4005 63.4579 59.9287 63.2472L59.1876 61.3896ZM57.8754 64.0594C58.2957 63.8917 58.6594 63.638 58.9519 63.3259L57.4927 61.9582C57.3966 62.0608 57.2766 62.145 57.1342 62.2018L57.8754 64.0594ZM52.5335 66.1907L57.8754 64.0594L57.1342 62.2018L51.7924 64.3331L52.5335 66.1907ZM48.7586 64.5689C49.3531 66.0591 51.0432 66.7853 52.5335 66.1907L51.7924 64.3331C51.328 64.5183 50.8014 64.2921 50.6162 63.8277L48.7586 64.5689ZM46.6273 59.227L48.7586 64.5689L50.6162 63.8277L48.4849 58.4859L46.6273 59.227ZM46.4183 57.9408C46.3933 58.368 46.4596 58.8065 46.6273 59.227L48.4849 58.4859C48.4281 58.3435 48.4067 58.1984 48.4149 58.058L46.4183 57.9408ZM45.8032 57.1784C46.0139 57.7065 46.2941 58.1882 46.6295 58.6163L48.2037 57.3826C47.9845 57.1028 47.8002 56.7867 47.6608 56.4373L45.8032 57.1784Z" fill="#ACACAC"/>
<path fill-rule="evenodd" clip-rule="evenodd" d="M79.3188 92.4171C79.1637 92.6573 78.9543 92.8678 78.6954 93.0288L73.8766 96.0255C72.9919 96.5757 71.8287 96.3045 71.2785 95.4198L68.2818 90.601C68.1209 90.3422 68.0262 90.0609 67.9933 89.777C67.6589 89.4792 67.3611 89.129 67.1126 88.7294C65.7183 86.4874 66.4056 83.5396 68.6476 82.1454C70.8896 80.7511 73.8374 81.4384 75.2317 83.6804C75.2699 83.7419 75.3065 83.8039 75.3416 83.8663C75.4009 83.8257 75.4613 83.7863 75.5229 83.748C77.7649 82.3537 80.7127 83.041 82.1069 85.283C83.5012 87.525 82.8139 90.4728 80.5719 91.8671C80.1724 92.1155 79.7504 92.2979 79.3188 92.4171Z" fill="#F53737"/>
<path d="M78.6954 93.0288L79.2235 93.878L79.2235 93.878L78.6954 93.0288ZM79.3188 92.4171L79.0525 91.4532L78.6855 91.5546L78.4789 91.8745L79.3188 92.4171ZM73.8766 96.0255L73.3485 95.1763L73.3485 95.1763L73.8766 96.0255ZM71.2785 95.4198L70.4293 95.9479L70.4293 95.9479L71.2785 95.4198ZM68.2818 90.601L69.131 90.0729L69.131 90.0729L68.2818 90.601ZM67.9933 89.777L68.9866 89.6616L68.9426 89.2835L68.6584 89.0303L67.9933 89.777ZM67.1126 88.7294L67.9618 88.2013L67.9618 88.2013L67.1126 88.7294ZM68.6476 82.1454L69.1757 82.9946L69.1757 82.9946L68.6476 82.1454ZM75.2317 83.6804L76.0809 83.1523L76.0809 83.1523L75.2317 83.6804ZM75.3416 83.8663L74.4698 84.3562L75.0053 85.3092L75.907 84.6912L75.3416 83.8663ZM75.5229 83.748L74.9948 82.8988L74.9948 82.8988L75.5229 83.748ZM82.1069 85.283L82.9561 84.7549L82.9561 84.7549L82.1069 85.283ZM80.5719 91.8671L81.1 92.7162L81.1 92.7162L80.5719 91.8671ZM79.2235 93.878C79.6103 93.6375 79.9252 93.3213 80.1588 92.9597L78.4789 91.8745C78.4021 91.9933 78.2983 92.0982 78.1673 92.1796L79.2235 93.878ZM74.4047 96.8747L79.2235 93.878L78.1673 92.1796L73.3485 95.1763L74.4047 96.8747ZM70.4293 95.9479C71.2712 97.3016 73.051 97.7165 74.4047 96.8747L73.3485 95.1763C72.9328 95.4349 72.3862 95.3074 72.1277 94.8917L70.4293 95.9479ZM67.4326 91.1291L70.4293 95.9479L72.1277 94.8917L69.131 90.0729L67.4326 91.1291ZM66.9999 89.8924C67.0496 90.3198 67.1922 90.7424 67.4326 91.1291L69.131 90.0729C69.0496 89.942 69.0029 89.8021 68.9866 89.6616L66.9999 89.8924ZM66.2634 89.2575C66.563 89.7393 66.923 90.1629 67.3282 90.5238L68.6584 89.0303C68.3948 88.7955 68.1591 88.5187 67.9618 88.2013L66.2634 89.2575ZM68.1195 81.2962C65.4085 82.9821 64.5775 86.5465 66.2634 89.2575L67.9618 88.2013C66.8592 86.4283 67.4027 84.0972 69.1757 82.9946L68.1195 81.2962ZM76.0809 83.1523C74.395 80.4413 70.8305 79.6103 68.1195 81.2962L69.1757 82.9946C70.9487 81.892 73.2799 82.4355 74.3825 84.2085L76.0809 83.1523ZM76.2135 83.3765C76.1711 83.3011 76.1269 83.2264 76.0809 83.1523L74.3825 84.2085C74.4129 84.2574 74.442 84.3066 74.4698 84.3562L76.2135 83.3765ZM75.907 84.6912C75.954 84.659 76.002 84.6276 76.051 84.5971L74.9948 82.8988C74.9206 82.9449 74.8478 82.9925 74.7763 83.0415L75.907 84.6912ZM76.051 84.5972C77.824 83.4946 80.1552 84.038 81.2578 85.8111L82.9561 84.7549C81.2702 82.0439 77.7058 81.2129 74.9948 82.8988L76.051 84.5972ZM81.2578 85.8111C82.3604 87.5841 81.8169 89.9153 80.0438 91.0179L81.1 92.7162C83.811 91.0303 84.642 87.4659 82.9561 84.7549L81.2578 85.8111ZM80.0438 91.0179C79.7265 91.2152 79.3928 91.3592 79.0525 91.4532L79.5851 93.381C80.1081 93.2365 80.6183 93.0158 81.1 92.7162L80.0438 91.0179Z" fill="#8C0B0B"/>
<path fill-rule="evenodd" clip-rule="evenodd" d="M9.51158 52.4849C7.04101 50.9308 6.29805 47.6682 7.85213 45.1976C9.40622 42.727 12.6688 41.9841 15.1394 43.5381C15.2073 43.5809 15.2739 43.6249 15.3392 43.6701C15.3784 43.6012 15.4194 43.5328 15.462 43.465C17.0161 40.9944 20.2787 40.2515 22.7493 41.8056C25.2199 43.3596 25.9628 46.6223 24.4087 49.0928C24.1508 49.5028 23.8459 49.8652 23.5053 50.1775C23.4684 50.4529 23.3732 50.725 23.2156 50.9756L19.763 56.4643C19.1498 57.4392 17.8624 57.7323 16.8875 57.1191L11.3989 53.6665C11.1473 53.5083 10.9431 53.3032 10.7904 53.0698C10.35 52.9359 9.91996 52.7418 9.51158 52.4849Z" fill="#F53737"/>
<path d="M7.85213 45.1976L7.00568 44.6651L7.85213 45.1976ZM9.51158 52.4849L8.97913 53.3313L8.97913 53.3313L9.51158 52.4849ZM15.1394 43.5381L14.607 44.3846L14.607 44.3846L15.1394 43.5381ZM15.3392 43.6701L14.7696 44.492L15.6682 45.1148L16.2085 44.1644L15.3392 43.6701ZM15.462 43.465L14.6156 42.9325L14.6156 42.9325L15.462 43.465ZM23.5053 50.1775L22.8295 49.4404L22.5623 49.6854L22.5141 50.0447L23.5053 50.1775ZM23.2156 50.9756L22.3691 50.4432L22.3691 50.4432L23.2156 50.9756ZM19.763 56.4643L20.6095 56.9967L20.6095 56.9967L19.763 56.4643ZM16.8875 57.1191L17.42 56.2726L17.42 56.2726L16.8875 57.1191ZM11.3989 53.6665L11.9313 52.8201L11.9313 52.8201L11.3989 53.6665ZM10.7904 53.0698L11.6272 52.5224L11.4285 52.2187L11.0813 52.1131L10.7904 53.0698ZM7.00568 44.6651C5.15753 47.6032 6.04107 51.4832 8.97913 53.3313L10.044 51.6384C8.04095 50.3784 7.43858 47.7331 8.69859 45.73L7.00568 44.6651ZM15.6719 42.6917C12.7338 40.8435 8.85383 41.7271 7.00568 44.6651L8.69859 45.73C9.95861 43.727 12.6039 43.1246 14.607 44.3846L15.6719 42.6917ZM15.9089 42.8482C15.8314 42.7945 15.7524 42.7423 15.6719 42.6917L14.607 44.3846C14.6623 44.4194 14.7165 44.4552 14.7696 44.492L15.9089 42.8482ZM16.2085 44.1644C16.2404 44.1084 16.2737 44.0527 16.3085 43.9975L14.6156 42.9325C14.565 43.0129 14.5165 43.094 14.4699 43.1758L16.2085 44.1644ZM16.3085 43.9975C17.5685 41.9944 20.2138 41.392 22.2168 42.652L23.2817 40.9591C20.3437 39.1109 16.4637 39.9945 14.6156 42.9325L16.3085 43.9975ZM22.2168 42.652C24.2199 43.912 24.8223 46.5573 23.5623 48.5604L25.2552 49.6253C27.1033 46.6872 26.2198 42.8072 23.2817 40.9591L22.2168 42.652ZM23.5623 48.5604C23.3523 48.8941 23.105 49.1879 22.8295 49.4404L24.1811 50.9146C24.5868 50.5426 24.9493 50.1115 25.2552 49.6253L23.5623 48.5604ZM24.062 51.5081C24.2975 51.1338 24.4409 50.7249 24.4965 50.3102L22.5141 50.0447C22.4959 50.181 22.4489 50.3163 22.3691 50.4432L24.062 51.5081ZM20.6095 56.9967L24.062 51.5081L22.3691 50.4432L18.9166 55.9318L20.6095 56.9967ZM16.355 57.9656C17.7974 58.8729 19.7022 58.4391 20.6095 56.9967L18.9166 55.9318C18.5974 56.4392 17.9273 56.5918 17.42 56.2726L16.355 57.9656ZM10.8664 54.513L16.355 57.9656L17.42 56.2726L11.9313 52.8201L10.8664 54.513ZM9.95352 53.6173C10.1834 53.9687 10.4906 54.2766 10.8664 54.513L11.9313 52.8201C11.804 52.74 11.7027 52.6378 11.6272 52.5224L9.95352 53.6173ZM8.97913 53.3313C9.46344 53.636 9.97476 53.867 10.4994 54.0265L11.0813 52.1131C10.7252 52.0048 10.3765 51.8475 10.044 51.6384L8.97913 53.3313Z" fill="#8C0B0B"/>
<path fill-rule="evenodd" clip-rule="evenodd" d="M34.7558 87.7478C34.7231 88.0372 34.6265 88.3239 34.461 88.587L31.7841 92.8426C31.2761 93.6501 30.2097 93.8929 29.4022 93.385L25.1466 90.708C24.8832 90.5423 24.6717 90.3253 24.5169 90.0781C24.0945 89.9677 23.6816 89.7917 23.2925 89.5469C21.2461 88.2596 20.6307 85.5572 21.9179 83.5108C23.2052 81.4644 25.9077 80.849 27.9541 82.1362C28.0102 82.1716 28.0653 82.2079 28.1193 82.2454C28.1518 82.1882 28.1857 82.1316 28.221 82.0754C29.5083 80.029 32.2107 79.4136 34.2571 80.7009C36.3035 81.9881 36.9189 84.6906 35.6317 86.737C35.3863 87.127 35.0896 87.465 34.7558 87.7478Z" fill="#F9739E"/>
<path d="M34.7558 87.7478L34.1094 86.9848L33.8066 87.2413L33.7621 87.6357L34.7558 87.7478ZM29.4022 93.385L28.8698 94.2314L28.8698 94.2314L29.4022 93.385ZM25.1466 90.708L25.6791 89.8616L25.6791 89.8616L25.1466 90.708ZM24.5169 90.0781L25.3644 89.5473L25.1537 89.211L24.7698 89.1106L24.5169 90.0781ZM23.2925 89.5469L22.76 90.3934L22.76 90.3934L23.2925 89.5469ZM21.9179 83.5108L21.0715 82.9783L21.0715 82.9783L21.9179 83.5108ZM27.9541 82.1362L27.4216 82.9827L27.4216 82.9827L27.9541 82.1362ZM28.1193 82.2454L27.5497 83.0673L28.4482 83.6899L28.9886 82.7396L28.1193 82.2454ZM28.221 82.0754L29.0674 82.6079L29.0674 82.6079L28.221 82.0754ZM34.2571 80.7009L33.7247 81.5473L33.7247 81.5473L34.2571 80.7009ZM35.3075 89.1194C35.5547 88.7264 35.7003 88.2955 35.7495 87.86L33.7621 87.6357C33.7459 87.7789 33.6983 87.9215 33.6146 88.0545L35.3075 89.1194ZM32.6305 93.3751L35.3075 89.1194L33.6146 88.0545L30.9376 92.3101L32.6305 93.3751ZM28.8698 94.2314C30.1448 95.0335 31.8285 94.65 32.6305 93.3751L30.9376 92.3101C30.7237 92.6502 30.2747 92.7524 29.9347 92.5385L28.8698 94.2314ZM24.6141 91.5545L28.8698 94.2314L29.9347 92.5385L25.6791 89.8616L24.6141 91.5545ZM23.6693 90.6089C23.9023 90.9809 24.2206 91.3069 24.6141 91.5545L25.6791 89.8616C25.5458 89.7777 25.441 89.6697 25.3644 89.5473L23.6693 90.6089ZM22.76 90.3934C23.2366 90.6932 23.7439 90.9096 24.2639 91.0456L24.7698 89.1106C24.4451 89.0257 24.1266 88.8902 23.8249 88.7004L22.76 90.3934ZM21.0715 82.9783C19.4901 85.4922 20.2461 88.812 22.76 90.3934L23.8249 88.7004C22.246 87.7072 21.7712 85.6221 22.7644 84.0432L21.0715 82.9783ZM28.4865 81.2898C25.9726 79.7084 22.6528 80.4644 21.0715 82.9783L22.7644 84.0432C23.7576 82.4643 25.8427 81.9895 27.4216 82.9827L28.4865 81.2898ZM28.6888 81.4234C28.6227 81.3776 28.5552 81.333 28.4865 81.2898L27.4216 82.9827C27.4652 83.0101 27.5079 83.0383 27.5497 83.0673L28.6888 81.4234ZM28.9886 82.7396C29.0137 82.6954 29.04 82.6515 29.0674 82.6079L27.3745 81.5429C27.3313 81.6117 27.2898 81.6811 27.25 81.7511L28.9886 82.7396ZM29.0674 82.6079C30.0606 81.0289 32.1458 80.5541 33.7247 81.5473L34.7896 79.8544C32.2757 78.2731 28.9559 79.0291 27.3745 81.5429L29.0674 82.6079ZM33.7247 81.5473C35.3036 82.5405 35.7784 84.6256 34.7852 86.2045L36.4781 87.2695C38.0594 84.7556 37.3035 81.4357 34.7896 79.8544L33.7247 81.5473ZM34.7852 86.2045C34.595 86.5069 34.366 86.7674 34.1094 86.9848L35.4022 88.5108C35.8132 88.1627 36.1777 87.7471 36.4781 87.2695L34.7852 86.2045Z" fill="#E92563"/>
<path fill-rule="evenodd" clip-rule="evenodd" d="M68.7286 31.0889C67.3458 28.5185 68.3086 25.3138 70.879 23.9311C73.4494 22.5483 76.654 23.5111 78.0368 26.0815C78.0749 26.1524 78.1113 26.2238 78.1459 26.2957C78.2142 26.2549 78.2838 26.2155 78.3545 26.1774C80.9249 24.7946 84.1295 25.7574 85.5123 28.3278C86.8951 30.8982 85.9323 34.1028 83.3619 35.4856C82.9348 35.7153 82.4903 35.8803 82.0394 35.984C81.8715 36.2054 81.6545 36.3952 81.3937 36.5354L75.6833 39.6074C74.6691 40.153 73.4045 39.7731 72.8589 38.7588L69.787 33.0484C69.6459 32.7862 69.5693 32.5065 69.5518 32.2276C69.2351 31.8941 68.957 31.5134 68.7286 31.0889Z" fill="#F53737"/>
<path d="M70.879 23.9311L70.4052 23.0504L70.4052 23.0504L70.879 23.9311ZM68.7286 31.0889L69.6092 30.6151L69.6092 30.6151L68.7286 31.0889ZM78.0368 26.0815L77.1561 26.5552L77.1561 26.5552L78.0368 26.0815ZM78.1459 26.2957L77.245 26.7296L77.7195 27.7149L78.6585 27.1543L78.1459 26.2957ZM78.3545 26.1774L78.8283 27.058L78.8283 27.058L78.3545 26.1774ZM85.5123 28.3278L86.393 27.854L86.393 27.854L85.5123 28.3278ZM83.3619 35.4856L82.8882 34.6049L82.8882 34.6049L83.3619 35.4856ZM82.0394 35.984L81.8154 35.0094L81.4619 35.0906L81.2427 35.3797L82.0394 35.984ZM81.3937 36.5354L80.92 35.6548L80.92 35.6548L81.3937 36.5354ZM75.6833 39.6074L76.1571 40.488L76.1571 40.488L75.6833 39.6074ZM72.8589 38.7588L73.7396 38.2851L73.7396 38.2851L72.8589 38.7588ZM69.787 33.0484L68.9063 33.5222L68.9063 33.5222L69.787 33.0484ZM69.5518 32.2276L70.5498 32.1649L70.5271 31.8024L70.2769 31.539L69.5518 32.2276ZM70.4052 23.0504C67.3485 24.6948 66.2035 28.5059 67.8479 31.5626L69.6092 30.6151C68.4881 28.5311 69.2687 25.9328 71.3527 24.8117L70.4052 23.0504ZM78.9174 25.6077C77.273 22.5509 73.462 21.406 70.4052 23.0504L71.3527 24.8117C73.4368 23.6906 76.035 24.4712 77.1561 26.5552L78.9174 25.6077ZM79.0469 25.8618C79.0058 25.7765 78.9627 25.6918 78.9174 25.6077L77.1561 26.5552C77.1872 26.613 77.2168 26.6711 77.245 26.7296L79.0469 25.8618ZM78.6585 27.1543C78.714 27.1212 78.7706 27.0891 78.8283 27.058L77.8808 25.2967C77.7969 25.3418 77.7144 25.3886 77.6334 25.437L78.6585 27.1543ZM78.8283 27.058C80.9123 25.9369 83.5105 26.7175 84.6316 28.8015L86.393 27.854C84.7486 24.7973 80.9375 23.6523 77.8808 25.2967L78.8283 27.058ZM84.6316 28.8015C85.7528 30.8856 84.9722 33.4838 82.8882 34.6049L83.8357 36.3662C86.8924 34.7218 88.0374 30.9108 86.393 27.854L84.6316 28.8015ZM82.8882 34.6049C82.5405 34.792 82.18 34.9256 81.8154 35.0094L82.2634 36.9585C82.8005 36.8351 83.3292 36.6387 83.8357 36.3662L82.8882 34.6049ZM81.8675 37.4161C82.257 37.2066 82.5834 36.9216 82.8362 36.5882L81.2427 35.3797C81.1596 35.4892 81.052 35.5838 80.92 35.6548L81.8675 37.4161ZM76.1571 40.488L81.8675 37.4161L80.92 35.6548L75.2096 38.7267L76.1571 40.488ZM71.9783 39.2326C72.7855 40.7332 74.6565 41.2953 76.1571 40.488L75.2096 38.7267C74.6817 39.0107 74.0236 38.813 73.7396 38.2851L71.9783 39.2326ZM68.9063 33.5222L71.9783 39.2326L73.7396 38.2851L70.6676 32.5747L68.9063 33.5222ZM68.5538 32.2903C68.5802 32.7102 68.6956 33.1305 68.9063 33.5222L70.6676 32.5747C70.5962 32.442 70.5585 32.3029 70.5498 32.1649L68.5538 32.2903ZM67.8479 31.5626C68.1188 32.0661 68.4494 32.5189 68.8267 32.9163L70.2769 31.539C70.0208 31.2693 69.7952 30.9607 69.6092 30.6151L67.8479 31.5626Z" fill="#8C0B0B"/>
<path fill-rule="evenodd" clip-rule="evenodd" d="M102.456 64.2592C104.949 62.6906 105.699 59.3975 104.131 56.9039C102.562 54.4102 99.2689 53.6603 96.7752 55.2289C96.707 55.2719 96.6401 55.3161 96.5745 55.3615C96.5351 55.2922 96.494 55.2235 96.4511 55.1553C94.8825 52.6617 91.5894 51.9118 89.0957 53.4804C86.6021 55.049 85.8522 58.3421 87.4208 60.8357C87.6787 61.2457 87.9831 61.6085 88.323 61.9216C88.3599 62.197 88.4551 62.4692 88.6127 62.7197L92.1075 68.2755C92.7264 69.2594 94.0259 69.5553 95.0098 68.9364L100.566 65.4416C100.816 65.2839 101.02 65.0798 101.172 64.8473C101.614 64.7122 102.046 64.517 102.456 64.2592Z" fill="#F9739E"/>
<path d="M104.131 56.9039L103.284 57.4363L103.284 57.4363L104.131 56.9039ZM102.456 64.2592L101.923 63.4128L101.923 63.4128L102.456 64.2592ZM96.7752 55.2289L97.3077 56.0754L97.3077 56.0754L96.7752 55.2289ZM96.5745 55.3615L97.1439 56.1835L96.2456 56.8058L95.7053 55.856L96.5745 55.3615ZM96.4511 55.1553L95.6046 55.6878L95.6046 55.6878L96.4511 55.1553ZM89.0957 53.4804L89.6282 54.3269L89.6282 54.3269L89.0957 53.4804ZM87.4208 60.8357L88.2673 60.3033L88.2673 60.3033L87.4208 60.8357ZM88.323 61.9216L89.0006 61.1862L89.2662 61.4309L89.3141 61.7889L88.323 61.9216ZM88.6127 62.7197L89.4592 62.1873L88.6127 62.7197ZM92.1075 68.2755L91.261 68.8079L92.1075 68.2755ZM95.0098 68.9364L95.5423 69.7828L95.5423 69.7828L95.0098 68.9364ZM100.566 65.4416L100.033 64.5952L100.033 64.5952L100.566 65.4416ZM101.172 64.8473L100.336 64.2987L100.535 63.9967L100.88 63.891L101.172 64.8473ZM104.977 56.3714C106.84 59.3326 105.949 63.243 102.988 65.1057L101.923 63.4128C103.949 62.1382 104.559 59.4625 103.284 57.4363L104.977 56.3714ZM96.2428 54.3825C99.2039 52.5198 103.114 53.4103 104.977 56.3714L103.284 57.4363C102.01 55.4102 99.3338 54.8009 97.3077 56.0754L96.2428 54.3825ZM96.005 54.5395C96.0828 54.4856 96.162 54.4333 96.2428 54.3825L97.3077 56.0754C97.252 56.1104 97.1974 56.1465 97.1439 56.1835L96.005 54.5395ZM95.7053 55.856C95.6732 55.7995 95.6396 55.7434 95.6046 55.6878L97.2975 54.6229C97.3483 54.7035 97.397 54.7849 97.4437 54.867L95.7053 55.856ZM95.6046 55.6878C94.3301 53.6616 91.6544 53.0523 89.6282 54.3269L88.5633 52.6339C91.5244 50.7713 95.4349 51.6618 97.2975 54.6229L95.6046 55.6878ZM89.6282 54.3269C87.602 55.6014 86.9927 58.2771 88.2673 60.3033L86.5743 61.3682C84.7117 58.4071 85.6022 54.4966 88.5633 52.6339L89.6282 54.3269ZM88.2673 60.3033C88.4776 60.6377 88.7251 60.9324 89.0006 61.1862L87.6454 62.657C87.2411 62.2846 86.8797 61.8536 86.5743 61.3682L88.2673 60.3033ZM87.7662 63.2522C87.5308 62.8779 87.3874 62.469 87.3318 62.0544L89.3141 61.7889C89.3324 61.9251 89.3794 62.0604 89.4592 62.1873L87.7662 63.2522ZM91.261 68.8079L87.7662 63.2522L89.4592 62.1873L92.9539 67.743L91.261 68.8079ZM95.5423 69.7828C94.0908 70.6959 92.174 70.2594 91.261 68.8079L92.9539 67.743C93.2788 68.2595 93.9609 68.4148 94.4774 68.0899L95.5423 69.7828ZM101.098 66.2881L95.5423 69.7828L94.4774 68.0899L100.033 64.5952L101.098 66.2881ZM102.008 65.396C101.779 65.7459 101.472 66.0525 101.098 66.2881L100.033 64.5952C100.16 64.5153 100.261 64.4136 100.336 64.2987L102.008 65.396ZM102.988 65.1057C102.503 65.411 101.99 65.6429 101.465 65.8036L100.88 63.891C101.238 63.7815 101.589 63.6231 101.923 63.4128L102.988 65.1057Z" fill="#E92563"/>
</svg>
