<svg width="33" height="33" viewBox="0 0 33 33" fill="none" xmlns="http://www.w3.org/2000/svg">
<mask id="mask0_161_1555" style="mask-type:alpha" maskUnits="userSpaceOnUse" x="0" y="0" width="33" height="33">
<rect x="0.939453" y="0.380859" width="32" height="32" rx="16" fill="#D9D9D9"/>
</mask>
<g mask="url(#mask0_161_1555)">
<path d="M11.0587 25.7352L12.278 20.4358C12.4082 19.8701 13.0267 19.5681 13.5528 19.8135L16.7603 21.3092C17.2774 21.5503 17.4489 22.2016 17.1174 22.6661L13.9758 27.0691C13.7204 27.427 13.246 27.5519 12.8474 27.366L11.5623 26.7668C11.172 26.5848 10.9621 26.1548 11.0587 25.7352Z" fill="#56390A"/>
<path fill-rule="evenodd" clip-rule="evenodd" d="M13.2638 20.4331C13.1323 20.3717 12.9777 20.4472 12.9451 20.5887L11.7258 25.888C11.7016 25.9929 11.7541 26.1004 11.8517 26.1459L13.1368 26.7452C13.2364 26.7917 13.355 26.7605 13.4189 26.671L16.5606 22.268C16.6434 22.1518 16.6006 21.989 16.4713 21.9287L13.2638 20.4331ZM11.6113 20.2818C11.8391 19.2917 12.9215 18.7633 13.8422 19.1927L17.0497 20.6883C17.9547 21.1103 18.2547 22.2501 17.6747 23.0629L14.533 27.4659C14.086 28.0923 13.2558 28.3108 12.5584 27.9856L11.2732 27.3863C10.5904 27.0679 10.223 26.3154 10.392 25.5811L11.6113 20.2818Z" fill="#3D2505"/>
<path d="M11.8834 15.9577C12.2143 14.9056 13.3958 14.3853 14.3954 14.8514L19.9953 17.4627C20.9945 17.9286 21.3555 19.1674 20.7631 20.0972L18.7926 23.1899C18.3005 23.9622 17.3123 24.2502 16.4824 23.8632L11.7525 21.6576C10.9229 21.2708 10.5083 20.3293 10.7829 19.4561L11.8834 15.9577Z" fill="#56390A"/>
<path fill-rule="evenodd" clip-rule="evenodd" d="M19.4169 18.7031L13.817 16.0918C13.5671 15.9753 13.2717 16.1054 13.189 16.3684L12.0885 19.8668C12.0199 20.0851 12.1235 20.3205 12.3309 20.4172L17.0608 22.6227C17.2683 22.7195 17.5153 22.6475 17.6383 22.4544L19.6088 19.3617C19.7569 19.1293 19.6667 18.8196 19.4169 18.7031ZM14.3954 14.8514C13.3958 14.3853 12.2143 14.9056 11.8834 15.9577L10.7829 19.4561C10.5083 20.3293 10.9229 21.2708 11.7525 21.6576L16.4824 23.8632C17.3123 24.2502 18.3005 23.9622 18.7926 23.1899L20.7631 20.0972C21.3555 19.1674 20.9945 17.9286 19.9953 17.4627L14.3954 14.8514Z" fill="#3D2505"/>
<path d="M30.3525 -38.4986C31.0964 -40.4945 33.3843 -41.4319 35.3148 -40.5317L48.9686 -34.1648C50.9004 -33.264 51.6524 -30.9065 50.5991 -29.0534L23.6691 18.3217C22.7292 19.9751 20.6773 20.6296 18.9537 19.8259L13.1996 17.1427C11.4747 16.3384 10.6574 14.3436 11.3221 12.5603L30.3525 -38.4986Z" fill="#FFE938"/>
<path fill-rule="evenodd" clip-rule="evenodd" d="M48.3902 -32.9244L34.7364 -39.2913C33.5299 -39.8539 32.0999 -39.268 31.6349 -38.0206L12.6046 13.0383C12.1892 14.1529 12.6999 15.3996 13.778 15.9023L19.5321 18.5855C20.6094 19.0878 21.8918 18.6787 22.4792 17.6454L49.4092 -29.7298C50.0675 -30.8879 49.5975 -32.3614 48.3902 -32.9244ZM35.3148 -40.5317C33.3843 -41.4319 31.0964 -40.4945 30.3525 -38.4986L11.3221 12.5603C10.6574 14.3436 11.4747 16.3384 13.1996 17.1427L18.9537 19.8259C20.6773 20.6296 22.7292 19.9751 23.6691 18.3217L50.5991 -29.0534C51.6524 -30.9065 50.9004 -33.264 48.9686 -34.1648L35.3148 -40.5317Z" fill="#3D2505"/>
</g>
</svg>
