<svg width="33" height="33" viewBox="0 0 33 33" fill="none" xmlns="http://www.w3.org/2000/svg">
<mask id="mask0_161_1545" style="mask-type:alpha" maskUnits="userSpaceOnUse" x="0" y="0" width="33" height="33">
<rect x="0.863281" y="0.380859" width="32" height="32" rx="16" fill="#D9D9D9"/>
</mask>
<g mask="url(#mask0_161_1545)">
<path d="M10.9825 25.7352L12.2019 20.4358C12.332 19.8701 12.9505 19.5681 13.4767 19.8135L16.6841 21.3092C17.2013 21.5503 17.3727 22.2016 17.0413 22.6661L13.8996 27.0691C13.6442 27.427 13.1698 27.5519 12.7713 27.366L11.4861 26.7668C11.0959 26.5848 10.886 26.1548 10.9825 25.7352Z" fill="#56390A"/>
<path fill-rule="evenodd" clip-rule="evenodd" d="M13.1876 20.4331C13.0561 20.3717 12.9015 20.4472 12.8689 20.5887L11.6496 25.888C11.6254 25.9929 11.6779 26.1004 11.7755 26.1459L13.0606 26.7452C13.1603 26.7917 13.2789 26.7605 13.3427 26.671L16.4844 22.268C16.5673 22.1518 16.5244 21.989 16.3951 21.9287L13.1876 20.4331ZM11.5351 20.2818C11.763 19.2917 12.8453 18.7633 13.7661 19.1927L16.9735 20.6883C17.8785 21.1103 18.1785 22.2501 17.5985 23.0629L14.4568 27.4659C14.0099 28.0923 13.1797 28.3108 12.4822 27.9856L11.1971 27.3863C10.5142 27.0679 10.1468 26.3154 10.3158 25.5811L11.5351 20.2818Z" fill="#3D2505"/>
<path d="M11.8072 15.9577C12.1382 14.9056 13.3196 14.3853 14.3192 14.8514L19.9191 17.4627C20.9183 17.9286 21.2793 19.1674 20.6869 20.0972L18.7164 23.1899C18.2244 23.9622 17.2361 24.2502 16.4062 23.8632L11.6763 21.6576C10.8468 21.2708 10.4321 20.3293 10.7068 19.4561L11.8072 15.9577Z" fill="#56390A"/>
<path fill-rule="evenodd" clip-rule="evenodd" d="M19.3407 18.7031L13.7408 16.0918C13.4909 15.9753 13.1955 16.1054 13.1128 16.3684L12.0123 19.8668C11.9437 20.0851 12.0473 20.3205 12.2547 20.4172L16.9846 22.6227C17.1921 22.7195 17.4391 22.6475 17.5622 22.4544L19.5327 19.3617C19.6808 19.1293 19.5905 18.8196 19.3407 18.7031ZM14.3192 14.8514C13.3196 14.3853 12.1382 14.9056 11.8072 15.9577L10.7068 19.4561C10.4321 20.3293 10.8468 21.2708 11.6763 21.6576L16.4062 23.8632C17.2361 24.2502 18.2244 23.9622 18.7164 23.1899L20.6869 20.0972C21.2793 19.1674 20.9183 17.9286 19.9191 17.4627L14.3192 14.8514Z" fill="#3D2505"/>
<path d="M30.2763 -38.4986C31.0202 -40.4945 33.3082 -41.4319 35.2386 -40.5317L48.8924 -34.1648C50.8242 -33.264 51.5762 -30.9065 50.5229 -29.0534L23.5929 18.3217C22.6531 19.9751 20.6011 20.6296 18.8775 19.8259L13.1234 17.1427C11.3985 16.3384 10.5813 14.3436 11.2459 12.5603L30.2763 -38.4986Z" fill="#F22A0B"/>
<path fill-rule="evenodd" clip-rule="evenodd" d="M48.314 -32.9244L34.6602 -39.2913C33.4537 -39.8539 32.0237 -39.268 31.5588 -38.0206L12.5284 13.0383C12.113 14.1529 12.6238 15.3996 13.7018 15.9023L19.4559 18.5855C20.5332 19.0878 21.8156 18.6787 22.403 17.6454L49.333 -29.7298C49.9914 -30.8879 49.5214 -32.3614 48.314 -32.9244ZM35.2386 -40.5317C33.3082 -41.4319 31.0202 -40.4945 30.2763 -38.4986L11.2459 12.5603C10.5813 14.3436 11.3985 16.3384 13.1234 17.1427L18.8775 19.8259C20.6011 20.6296 22.6531 19.9751 23.5929 18.3217L50.5229 -29.0534C51.5762 -30.9065 50.8242 -33.264 48.8924 -34.1648L35.2386 -40.5317Z" fill="#3D2505"/>
</g>
</svg>
