<svg width="33" height="33" viewBox="0 0 33 33" fill="none" xmlns="http://www.w3.org/2000/svg">
<mask id="mask0_161_1565" style="mask-type:alpha" maskUnits="userSpaceOnUse" x="0" y="0" width="33" height="33">
<rect x="0.015625" y="0.380859" width="32" height="32" rx="16" fill="#D9D9D9"/>
</mask>
<g mask="url(#mask0_161_1565)">
<path d="M10.1349 25.7352L11.3542 20.4358C11.4844 19.8701 12.1029 19.5681 12.629 19.8135L15.8365 21.3092C16.3536 21.5503 16.525 22.2016 16.1936 22.6661L13.0519 27.0691C12.7965 27.427 12.3221 27.5519 11.9236 27.366L10.6384 26.7668C10.2482 26.5848 10.0383 26.1548 10.1349 25.7352Z" fill="#56390A"/>
<path fill-rule="evenodd" clip-rule="evenodd" d="M12.34 20.4331C12.2084 20.3717 12.0538 20.4472 12.0213 20.5887L10.8019 25.888C10.7778 25.9929 10.8303 26.1004 10.9278 26.1459L12.213 26.7452C12.3126 26.7917 12.4312 26.7605 12.4951 26.671L15.6367 22.268C15.7196 22.1518 15.6767 21.989 15.5475 21.9287L12.34 20.4331ZM10.6875 20.2818C10.9153 19.2917 11.9976 18.7633 12.9184 19.1927L16.1259 20.6883C17.0309 21.1103 17.3308 22.2501 16.7509 23.0629L13.6092 27.4659C13.1622 28.0923 12.332 28.3108 11.6346 27.9856L10.3494 27.3863C9.66653 27.0679 9.29918 26.3154 9.46814 25.5811L10.6875 20.2818Z" fill="#3D2505"/>
<path d="M10.9595 15.9577C11.2905 14.9056 12.4719 14.3853 13.4715 14.8514L19.0715 17.4627C20.0707 17.9286 20.4317 19.1674 19.8393 20.0972L17.8688 23.1899C17.3767 23.9622 16.3885 24.2502 15.5585 23.8632L10.8287 21.6576C9.99912 21.2708 9.58447 20.3293 9.85911 19.4561L10.9595 15.9577Z" fill="#56390A"/>
<path fill-rule="evenodd" clip-rule="evenodd" d="M18.4931 18.7031L12.8931 16.0918C12.6432 15.9753 12.3479 16.1054 12.2651 16.3684L11.1647 19.8668C11.096 20.0851 11.1997 20.3205 11.4071 20.4172L16.1369 22.6227C16.3444 22.7195 16.5915 22.6475 16.7145 22.4544L18.685 19.3617C18.8331 19.1293 18.7429 18.8196 18.4931 18.7031ZM13.4715 14.8514C12.4719 14.3853 11.2905 14.9056 10.9595 15.9577L9.85911 19.4561C9.58447 20.3293 9.99912 21.2708 10.8287 21.6576L15.5585 23.8632C16.3885 24.2502 17.3767 23.9622 17.8688 23.1899L19.8393 20.0972C20.4317 19.1674 20.0707 17.9286 19.0715 17.4627L13.4715 14.8514Z" fill="#3D2505"/>
<path d="M29.4286 -38.4986C30.1726 -40.4945 32.4605 -41.4319 34.391 -40.5317L48.0447 -34.1648C49.9765 -33.264 50.7286 -30.9065 49.6752 -29.0534L22.7452 18.3217C21.8054 19.9751 19.7535 20.6296 18.0299 19.8259L12.2758 17.1427C10.5509 16.3384 9.73361 14.3436 10.3983 12.5603L29.4286 -38.4986Z" fill="#9FF71E"/>
<path fill-rule="evenodd" clip-rule="evenodd" d="M47.4663 -32.9244L33.8126 -39.2913C32.606 -39.8539 31.1761 -39.268 30.7111 -38.0206L11.6808 13.0383C11.2653 14.1529 11.7761 15.3996 12.8542 15.9023L18.6083 18.5855C19.6855 19.0878 20.968 18.6787 21.5554 17.6454L48.4854 -29.7298C49.1437 -30.8879 48.6737 -32.3614 47.4663 -32.9244ZM34.391 -40.5317C32.4605 -41.4319 30.1726 -40.4945 29.4286 -38.4986L10.3983 12.5603C9.73361 14.3436 10.5509 16.3384 12.2758 17.1427L18.0299 19.8259C19.7535 20.6296 21.8054 19.9751 22.7452 18.3217L49.6752 -29.0534C50.7286 -30.9065 49.9765 -33.264 48.0447 -34.1648L34.391 -40.5317Z" fill="#3D2505"/>
</g>
</svg>
