<svg width="33" height="33" viewBox="0 0 33 33" fill="none" xmlns="http://www.w3.org/2000/svg">
<mask id="mask0_161_1220" style="mask-type:alpha" maskUnits="userSpaceOnUse" x="0" y="0" width="33" height="33">
<rect x="0.710938" y="0.380859" width="32" height="32" rx="16" fill="#D9D9D9"/>
</mask>
<g mask="url(#mask0_161_1220)">
<path d="M10.8302 25.7352L12.0495 20.4358C12.1797 19.8701 12.7982 19.5681 13.3243 19.8135L16.5318 21.3092C17.0489 21.5503 17.2203 22.2016 16.8889 22.6661L13.7473 27.0691C13.4918 27.427 13.0174 27.5519 12.6189 27.366L11.3338 26.7668C10.9435 26.5848 10.7336 26.1548 10.8302 25.7352Z" fill="#56390A"/>
<path fill-rule="evenodd" clip-rule="evenodd" d="M13.0353 20.4331C12.9038 20.3717 12.7491 20.4472 12.7166 20.5887L11.4972 25.888C11.4731 25.9929 11.5256 26.1004 11.6231 26.1459L12.9083 26.7452C13.0079 26.7917 13.1265 26.7605 13.1904 26.671L16.3321 22.268C16.4149 22.1518 16.3721 21.989 16.2428 21.9287L13.0353 20.4331ZM11.3828 20.2818C11.6106 19.2917 12.6929 18.7633 13.6137 19.1927L16.8212 20.6883C17.7262 21.1103 18.0261 22.2501 17.4462 23.0629L14.3045 27.4659C13.8575 28.0923 13.0273 28.3108 12.3299 27.9856L11.0447 27.3863C10.3618 27.0679 9.99449 26.3154 10.1634 25.5811L11.3828 20.2818Z" fill="#3D2505"/>
<path d="M11.6549 15.9577C11.9858 14.9056 13.1672 14.3853 14.1669 14.8514L19.7668 17.4627C20.766 17.9286 21.127 19.1674 20.5346 20.0972L18.5641 23.1899C18.072 23.9622 17.0838 24.2502 16.2538 23.8632L11.524 21.6576C10.6944 21.2708 10.2798 20.3293 10.5544 19.4561L11.6549 15.9577Z" fill="#56390A"/>
<path fill-rule="evenodd" clip-rule="evenodd" d="M19.1884 18.7031L13.5884 16.0918C13.3385 15.9753 13.0432 16.1054 12.9604 16.3684L11.86 19.8668C11.7913 20.0851 11.895 20.3205 12.1024 20.4172L16.8323 22.6227C17.0397 22.7195 17.2868 22.6475 17.4098 22.4544L19.3803 19.3617C19.5284 19.1293 19.4382 18.8196 19.1884 18.7031ZM14.1669 14.8514C13.1672 14.3853 11.9858 14.9056 11.6549 15.9577L10.5544 19.4561C10.2798 20.3293 10.6944 21.2708 11.524 21.6576L16.2538 23.8632C17.0838 24.2502 18.072 23.9622 18.5641 23.1899L20.5346 20.0972C21.127 19.1674 20.766 17.9286 19.7668 17.4627L14.1669 14.8514Z" fill="#3D2505"/>
<path d="M30.124 -38.4986C30.8679 -40.4945 33.1558 -41.4319 35.0863 -40.5317L48.7401 -34.1648C50.6718 -33.264 51.4239 -30.9065 50.3705 -29.0534L23.4405 18.3217C22.5007 19.9751 20.4488 20.6296 18.7252 19.8259L12.9711 17.1427C11.2462 16.3384 10.4289 14.3436 11.0936 12.5603L30.124 -38.4986Z" fill="white"/>
<path fill-rule="evenodd" clip-rule="evenodd" d="M48.1616 -32.9244L34.5079 -39.2913C33.3013 -39.8539 31.8714 -39.268 31.4064 -38.0206L12.3761 13.0383C11.9606 14.1529 12.4714 15.3996 13.5495 15.9023L19.3036 18.5855C20.3809 19.0878 21.6633 18.6787 22.2507 17.6454L49.1807 -29.7298C49.839 -30.8879 49.369 -32.3614 48.1616 -32.9244ZM35.0863 -40.5317C33.1558 -41.4319 30.8679 -40.4945 30.124 -38.4986L11.0936 12.5603C10.4289 14.3436 11.2462 16.3384 12.9711 17.1427L18.7252 19.8259C20.4488 20.6296 22.5007 19.9751 23.4405 18.3217L50.3705 -29.0534C51.4239 -30.9065 50.6718 -33.264 48.7401 -34.1648L35.0863 -40.5317Z" fill="#3D2505"/>
</g>
</svg>
