<svg width="33" height="33" viewBox="0 0 33 33" fill="none" xmlns="http://www.w3.org/2000/svg">
<mask id="mask0_161_1535" style="mask-type:alpha" maskUnits="userSpaceOnUse" x="0" y="0" width="33" height="33">
<rect x="0.787109" y="0.380859" width="32" height="32" rx="16" fill="#D9D9D9"/>
</mask>
<g mask="url(#mask0_161_1535)">
<path d="M10.9063 25.7352L12.1257 20.4358C12.2559 19.8701 12.8743 19.5681 13.4005 19.8135L16.608 21.3092C17.1251 21.5503 17.2965 22.2016 16.9651 22.6661L13.8234 27.0691C13.568 27.427 13.0936 27.5519 12.6951 27.366L11.4099 26.7668C11.0197 26.5848 10.8098 26.1548 10.9063 25.7352Z" fill="#56390A"/>
<path fill-rule="evenodd" clip-rule="evenodd" d="M13.1115 20.4331C12.9799 20.3717 12.8253 20.4472 12.7928 20.5887L11.5734 25.888C11.5493 25.9929 11.6018 26.1004 11.6993 26.1459L12.9845 26.7452C13.0841 26.7917 13.2027 26.7605 13.2666 26.671L16.4082 22.268C16.4911 22.1518 16.4482 21.989 16.3189 21.9287L13.1115 20.4331ZM11.459 20.2818C11.6868 19.2917 12.7691 18.7633 13.6899 19.1927L16.8974 20.6883C17.8023 21.1103 18.1023 22.2501 17.5223 23.0629L14.3807 27.4659C13.9337 28.0923 13.1035 28.3108 12.4061 27.9856L11.1209 27.3863C10.438 27.0679 10.0707 26.3154 10.2396 25.5811L11.459 20.2818Z" fill="#3D2505"/>
<path d="M11.731 15.9577C12.062 14.9056 13.2434 14.3853 14.243 14.8514L19.843 17.4627C20.8422 17.9286 21.2032 19.1674 20.6108 20.0972L18.6402 23.1899C18.1482 23.9622 17.1599 24.2502 16.33 23.8632L11.6002 21.6576C10.7706 21.2708 10.356 20.3293 10.6306 19.4561L11.731 15.9577Z" fill="#56390A"/>
<path fill-rule="evenodd" clip-rule="evenodd" d="M19.2645 18.7031L13.6646 16.0918C13.4147 15.9753 13.1193 16.1054 13.0366 16.3684L11.9362 19.8668C11.8675 20.0851 11.9712 20.3205 12.1786 20.4172L16.9084 22.6227C17.1159 22.7195 17.363 22.6475 17.486 22.4544L19.4565 19.3617C19.6046 19.1293 19.5143 18.8196 19.2645 18.7031ZM14.243 14.8514C13.2434 14.3853 12.062 14.9056 11.731 15.9577L10.6306 19.4561C10.356 20.3293 10.7706 21.2708 11.6002 21.6576L16.33 23.8632C17.1599 24.2502 18.1482 23.9622 18.6402 23.1899L20.6108 20.0972C21.2032 19.1674 20.8422 17.9286 19.843 17.4627L14.243 14.8514Z" fill="#3D2505"/>
<path d="M30.2001 -38.4986C30.944 -40.4945 33.232 -41.4319 35.1625 -40.5317L48.8162 -34.1648C50.748 -33.264 51.5 -30.9065 50.4467 -29.0534L23.5167 18.3217C22.5769 19.9751 20.525 20.6296 18.8014 19.8259L13.0472 17.1427C11.3224 16.3384 10.5051 14.3436 11.1698 12.5603L30.2001 -38.4986Z" fill="#FF81B7"/>
<path fill-rule="evenodd" clip-rule="evenodd" d="M48.2378 -32.9244L34.5841 -39.2913C33.3775 -39.8539 31.9475 -39.268 31.4826 -38.0206L12.4522 13.0383C12.0368 14.1529 12.5476 15.3996 13.6257 15.9023L19.3798 18.5855C20.457 19.0878 21.7395 18.6787 22.3269 17.6454L49.2569 -29.7298C49.9152 -30.8879 49.4452 -32.3614 48.2378 -32.9244ZM35.1625 -40.5317C33.232 -41.4319 30.944 -40.4945 30.2001 -38.4986L11.1698 12.5603C10.5051 14.3436 11.3224 16.3384 13.0472 17.1427L18.8014 19.8259C20.525 20.6296 22.5769 19.9751 23.5167 18.3217L50.4467 -29.0534C51.5 -30.9065 50.748 -33.264 48.8162 -34.1648L35.1625 -40.5317Z" fill="#3D2505"/>
</g>
</svg>
