<svg width="33" height="33" viewBox="0 0 33 33" fill="none" xmlns="http://www.w3.org/2000/svg">
<mask id="mask0_161_1575" style="mask-type:alpha" maskUnits="userSpaceOnUse" x="0" y="0" width="33" height="33">
<rect x="0.0917969" y="0.380859" width="32" height="32" rx="16" fill="#D9D9D9"/>
</mask>
<g mask="url(#mask0_161_1575)">
<path d="M10.211 25.7352L11.4304 20.4358C11.5606 19.8701 12.179 19.5681 12.7052 19.8135L15.9127 21.3092C16.4298 21.5503 16.6012 22.2016 16.2698 22.6661L13.1281 27.0691C12.8727 27.427 12.3983 27.5519 11.9998 27.366L10.7146 26.7668C10.3244 26.5848 10.1145 26.1548 10.211 25.7352Z" fill="#56390A"/>
<path fill-rule="evenodd" clip-rule="evenodd" d="M12.4162 20.4331C12.2846 20.3717 12.13 20.4472 12.0975 20.5887L10.8781 25.888C10.854 25.9929 10.9064 26.1004 11.004 26.1459L12.2892 26.7452C12.3888 26.7917 12.5074 26.7605 12.5712 26.671L15.7129 22.268C15.7958 22.1518 15.7529 21.989 15.6236 21.9287L12.4162 20.4331ZM10.7637 20.2818C10.9915 19.2917 12.0738 18.7633 12.9946 19.1927L16.202 20.6883C17.107 21.1103 17.407 22.2501 16.827 23.0629L13.6854 27.4659C13.2384 28.0923 12.4082 28.3108 11.7107 27.9856L10.4256 27.3863C9.7427 27.0679 9.37535 26.3154 9.54431 25.5811L10.7637 20.2818Z" fill="#3D2505"/>
<path d="M11.0357 15.9577C11.3667 14.9056 12.5481 14.3853 13.5477 14.8514L19.1476 17.4627C20.1468 17.9286 20.5079 19.1674 19.9154 20.0972L17.9449 23.1899C17.4529 23.9622 16.4646 24.2502 15.6347 23.8632L10.9048 21.6576C10.0753 21.2708 9.66064 20.3293 9.93528 19.4561L11.0357 15.9577Z" fill="#56390A"/>
<path fill-rule="evenodd" clip-rule="evenodd" d="M18.5692 18.7031L12.9693 16.0918C12.7194 15.9753 12.424 16.1054 12.3413 16.3684L11.2409 19.8668C11.1722 20.0851 11.2759 20.3205 11.4833 20.4172L16.2131 22.6227C16.4206 22.7195 16.6677 22.6475 16.7907 22.4544L18.7612 19.3617C18.9093 19.1293 18.819 18.8196 18.5692 18.7031ZM13.5477 14.8514C12.5481 14.3853 11.3667 14.9056 11.0357 15.9577L9.93528 19.4561C9.66064 20.3293 10.0753 21.2708 10.9048 21.6576L15.6347 23.8632C16.4646 24.2502 17.4529 23.9622 17.9449 23.1899L19.9154 20.0972C20.5079 19.1674 20.1468 17.9286 19.1476 17.4627L13.5477 14.8514Z" fill="#3D2505"/>
<path d="M29.5048 -38.4986C30.2487 -40.4945 32.5367 -41.4319 34.4672 -40.5317L48.1209 -34.1648C50.0527 -33.264 50.8047 -30.9065 49.7514 -29.0534L22.8214 18.3217C21.8816 19.9751 19.8297 20.6296 18.106 19.8259L12.3519 17.1427C10.627 16.3384 9.80978 14.3436 10.4745 12.5603L29.5048 -38.4986Z" fill="#3C2503"/>
<path fill-rule="evenodd" clip-rule="evenodd" d="M47.5425 -32.9244L33.8887 -39.2913C32.6822 -39.8539 31.2522 -39.268 30.7873 -38.0206L11.7569 13.0383C11.3415 14.1529 11.8523 15.3996 12.9303 15.9023L18.6845 18.5855C19.7617 19.0878 21.0442 18.6787 21.6316 17.6454L48.5616 -29.7298C49.2199 -30.8879 48.7499 -32.3614 47.5425 -32.9244ZM34.4672 -40.5317C32.5367 -41.4319 30.2487 -40.4945 29.5048 -38.4986L10.4745 12.5603C9.80978 14.3436 10.627 16.3384 12.3519 17.1427L18.106 19.8259C19.8297 20.6296 21.8816 19.9751 22.8214 18.3217L49.7514 -29.0534C50.8047 -30.9065 50.0527 -33.264 48.1209 -34.1648L34.4672 -40.5317Z" fill="#3D2505"/>
</g>
</svg>
