<svg width="33" height="32" viewBox="0 0 33 32" fill="none" xmlns="http://www.w3.org/2000/svg">
<mask id="mask0_161_1500" style="mask-type:alpha" maskUnits="userSpaceOnUse" x="0" y="0" width="33" height="32">
<rect x="0.421875" width="32" height="32" rx="16" fill="#FFF5BA"/>
</mask>
<g mask="url(#mask0_161_1500)">
<path d="M10.6277 27.8719C8.61959 26.9355 9.7052 22.4975 10.499 20.3955L16.3612 23.1291C15.2868 25.1002 12.6359 28.8084 10.6277 27.8719Z" fill="#979797"/>
<path fill-rule="evenodd" clip-rule="evenodd" d="M10.2636 19.8219C10.4239 19.7566 10.6042 19.761 10.7611 19.8342L16.6233 22.5678C16.779 22.6404 16.8977 22.7741 16.9514 22.9373C17.005 23.1005 16.9888 23.2786 16.9066 23.4294C16.3524 24.4462 15.3884 25.9198 14.2854 27.0316C13.7355 27.5859 13.1201 28.082 12.4744 28.3729C11.8195 28.6679 11.08 28.7722 10.364 28.4383C9.6489 28.1049 9.25071 27.4713 9.05041 26.78C8.85266 26.0974 8.82893 25.3047 8.89167 24.5236C9.01748 22.9571 9.50668 21.2626 9.91617 20.1783C9.97734 20.0163 10.1032 19.8871 10.2636 19.8219ZM10.8572 21.2519C10.5372 22.2271 10.2239 23.4788 10.1319 24.6232C10.0751 25.3313 10.1069 25.9551 10.2455 26.4337C10.3817 26.9036 10.6008 27.1759 10.8898 27.3107C11.1778 27.445 11.5228 27.4369 11.9633 27.2384C12.4131 27.0358 12.904 26.6573 13.4021 26.1552C14.209 25.3419 14.9535 24.2877 15.4834 23.4091L10.8572 21.2519Z" fill="#5A4325"/>
<path d="M14.9222 -9.1862C19.9232 -16.945 26.8913 -15.0019 29.9638 -13.5692C33.1439 -12.0863 39.1653 -7.86544 36.2513 0.759708C32.6087 11.5411 20.3953 27.1509 12.8704 23.0876C5.28367 19.5498 8.67097 0.512314 14.9222 -9.1862Z" fill="#533608"/>
<path fill-rule="evenodd" clip-rule="evenodd" d="M23.0987 -15.4452C26.0084 -15.7678 28.6389 -14.8763 30.2278 -14.1354C31.8719 -13.3687 34.2857 -11.8807 35.9123 -9.42941C37.5601 -6.94624 38.3588 -3.5336 36.8418 0.956504C34.9901 6.43717 30.9775 13.1111 26.4715 17.9138C24.2188 20.3148 21.8104 22.2832 19.4514 23.3901C17.0949 24.4958 14.7056 24.7747 12.592 23.6413C10.4763 22.6473 9.18769 20.6005 8.5114 18.0747C7.833 15.541 7.74496 12.4434 8.0895 9.19305C8.77829 2.69506 11.2156 -4.58451 14.4004 -9.52559C16.9979 -13.5556 20.1536 -15.1187 23.0987 -15.4452ZM23.2358 -14.2085C20.6786 -13.925 17.8497 -12.5803 15.4462 -8.85149C12.3798 -4.09405 9.9978 2.99438 9.32683 9.32421C8.99148 12.4878 9.08843 15.419 9.71333 17.7529C10.3386 20.0881 11.4666 21.7437 13.1344 22.5214C13.1455 22.5265 13.1564 22.532 13.1671 22.5378C14.8121 23.4261 16.7651 23.2761 18.9228 22.2636C21.0841 21.2496 23.3676 19.4036 25.5641 17.0624C29.9566 12.3807 33.8721 5.85901 35.663 0.558236C37.06 -3.57681 36.305 -6.58717 34.8755 -8.74144C33.4249 -10.9276 31.2379 -12.2915 29.7019 -13.0077C28.2184 -13.6995 25.8286 -14.4959 23.2358 -14.2085Z" fill="#5A4325"/>
</g>
</svg>
