<svg width="33" height="32" viewBox="0 0 33 32" fill="none" xmlns="http://www.w3.org/2000/svg">
<mask id="mask0_161_1440" style="mask-type:alpha" maskUnits="userSpaceOnUse" x="0" y="0" width="33" height="32">
<rect x="0.419922" width="32" height="32" rx="16" fill="#FFF5BA"/>
</mask>
<g mask="url(#mask0_161_1440)">
<path d="M10.6258 27.8719C8.61764 26.9355 9.70325 22.4975 10.4971 20.3955L16.3593 23.1291C15.2848 25.1002 12.6339 28.8084 10.6258 27.8719Z" fill="#979797"/>
<path fill-rule="evenodd" clip-rule="evenodd" d="M10.2616 19.8219C10.422 19.7566 10.6023 19.761 10.7592 19.8342L16.6214 22.5678C16.777 22.6404 16.8958 22.7741 16.9494 22.9373C17.0031 23.1005 16.9869 23.2786 16.9047 23.4294C16.3504 24.4462 15.3864 25.9198 14.2835 27.0316C13.7335 27.5859 13.1181 28.082 12.4724 28.3729C11.8176 28.6679 11.0781 28.7722 10.362 28.4383C9.64695 28.1049 9.24875 27.4713 9.04846 26.78C8.85071 26.0974 8.82698 25.3047 8.88972 24.5236C9.01553 22.9571 9.50473 21.2626 9.91422 20.1783C9.97539 20.0163 10.1013 19.8871 10.2616 19.8219ZM10.8553 21.2519C10.5352 22.2271 10.2219 23.4788 10.13 24.6232C10.0731 25.3313 10.1049 25.9551 10.2436 26.4337C10.3797 26.9036 10.5989 27.1759 10.8879 27.3107C11.1759 27.445 11.5208 27.4369 11.9614 27.2384C12.4111 27.0358 12.9021 26.6573 13.4002 26.1552C14.2071 25.3419 14.9516 24.2877 15.4814 23.4091L10.8553 21.2519Z" fill="#5A4325"/>
<path d="M14.9202 -9.1862C19.9212 -16.945 26.8894 -15.0019 29.9618 -13.5692C33.1419 -12.0863 39.1634 -7.86544 36.2493 0.759708C32.6067 11.5411 20.3934 27.1509 12.8685 23.0876C5.28171 19.5498 8.66901 0.512314 14.9202 -9.1862Z" fill="#FFF1AC"/>
<path fill-rule="evenodd" clip-rule="evenodd" d="M23.0968 -15.4452C26.0065 -15.7678 28.637 -14.8763 30.2258 -14.1354C31.87 -13.3687 34.2838 -11.8807 35.9104 -9.42941C37.5581 -6.94624 38.3568 -3.5336 36.8398 0.956504C34.9881 6.43717 30.9756 13.1111 26.4696 17.9138C24.2169 20.3148 21.8084 22.2832 19.4494 23.3901C17.0929 24.4958 14.7036 24.7747 12.5901 23.6413C10.4744 22.6473 9.18574 20.6005 8.50945 18.0747C7.83105 15.541 7.743 12.4434 8.08754 9.19305C8.77634 2.69506 11.2136 -4.58451 14.3984 -9.52559C16.996 -13.5556 20.1516 -15.1187 23.0968 -15.4452ZM23.2339 -14.2085C20.6766 -13.925 17.8477 -12.5803 15.4443 -8.85149C12.3778 -4.09405 9.99585 2.99438 9.32488 9.32421C8.98953 12.4878 9.08648 15.419 9.71138 17.7529C10.3366 20.0881 11.4647 21.7437 13.1325 22.5214C13.1435 22.5265 13.1544 22.532 13.1652 22.5378C14.8101 23.4261 16.7632 23.2761 18.9209 22.2636C21.0821 21.2496 23.3656 19.4036 25.5622 17.0624C29.9547 12.3807 33.8701 5.85901 35.661 0.558236C37.0581 -3.57681 36.3031 -6.58717 34.8736 -8.74144C33.4229 -10.9276 31.2359 -12.2915 29.7 -13.0077C28.2164 -13.6995 25.8266 -14.4959 23.2339 -14.2085Z" fill="#5A4325"/>
</g>
</svg>
