<svg width="33" height="32" viewBox="0 0 33 32" fill="none" xmlns="http://www.w3.org/2000/svg">
<mask id="mask0_161_1464" style="mask-type:alpha" maskUnits="userSpaceOnUse" x="0" y="0" width="33" height="32">
<rect x="0.420898" width="32" height="32" rx="16" fill="#FFF5BA"/>
</mask>
<g mask="url(#mask0_161_1464)">
<path d="M10.6268 27.8719C8.61862 26.9355 9.70423 22.4975 10.498 20.3955L16.3602 23.1291C15.2858 25.1002 12.6349 28.8084 10.6268 27.8719Z" fill="#979797"/>
<path fill-rule="evenodd" clip-rule="evenodd" d="M10.2626 19.8219C10.4229 19.7566 10.6032 19.761 10.7601 19.8342L16.6223 22.5678C16.778 22.6404 16.8968 22.7741 16.9504 22.9373C17.0041 23.1005 16.9879 23.2786 16.9057 23.4294C16.3514 24.4462 15.3874 25.9198 14.2845 27.0316C13.7345 27.5859 13.1191 28.082 12.4734 28.3729C11.8185 28.6679 11.0791 28.7722 10.363 28.4383C9.64792 28.1049 9.24973 27.4713 9.04944 26.78C8.85168 26.0974 8.82795 25.3047 8.89069 24.5236C9.0165 22.9571 9.5057 21.2626 9.9152 20.1783C9.97636 20.0163 10.1022 19.8871 10.2626 19.8219ZM10.8562 21.2519C10.5362 22.2271 10.2229 23.4788 10.131 24.6232C10.0741 25.3313 10.1059 25.9551 10.2446 26.4337C10.3807 26.9036 10.5999 27.1759 10.8889 27.3107C11.1769 27.445 11.5218 27.4369 11.9623 27.2384C12.4121 27.0358 12.9031 26.6573 13.4012 26.1552C14.208 25.3419 14.9526 24.2877 15.4824 23.4091L10.8562 21.2519Z" fill="#5A4325"/>
<path d="M14.9212 -9.1862C19.9222 -16.945 26.8904 -15.0019 29.9628 -13.5692C33.1429 -12.0863 39.1644 -7.86544 36.2503 0.759708C32.6077 11.5411 20.3944 27.1509 12.8694 23.0876C5.28269 19.5498 8.66999 0.512314 14.9212 -9.1862Z" fill="#E54932"/>
<path fill-rule="evenodd" clip-rule="evenodd" d="M23.0978 -15.4452C26.0075 -15.7678 28.638 -14.8763 30.2268 -14.1354C31.871 -13.3687 34.2848 -11.8807 35.9113 -9.42941C37.5591 -6.94624 38.3578 -3.5336 36.8408 0.956504C34.9891 6.43717 30.9766 13.1111 26.4705 17.9138C24.2178 20.3148 21.8094 22.2832 19.4504 23.3901C17.0939 24.4958 14.7046 24.7747 12.5911 23.6413C10.4753 22.6473 9.18672 20.6005 8.51043 18.0747C7.83202 15.541 7.74398 12.4434 8.08852 9.19305C8.77732 2.69506 11.2146 -4.58451 14.3994 -9.52559C16.9969 -13.5556 20.1526 -15.1187 23.0978 -15.4452ZM23.2349 -14.2085C20.6776 -13.925 17.8487 -12.5803 15.4452 -8.85149C12.3788 -4.09405 9.99682 2.99438 9.32585 9.32421C8.99051 12.4878 9.08745 15.419 9.71236 17.7529C10.3376 20.0881 11.4657 21.7437 13.1335 22.5214C13.1445 22.5265 13.1554 22.532 13.1661 22.5378C14.8111 23.4261 16.7641 23.2761 18.9219 22.2636C21.0831 21.2496 23.3666 19.4036 25.5631 17.0624C29.9557 12.3807 33.8711 5.85901 35.662 0.558236C37.059 -3.57681 36.3041 -6.58717 34.8746 -8.74144C33.4239 -10.9276 31.2369 -12.2915 29.701 -13.0077C28.2174 -13.6995 25.8276 -14.4959 23.2349 -14.2085Z" fill="#5A4325"/>
</g>
</svg>
