<svg width="24" height="24" viewBox="0 0 24 24" fill="none" xmlns="http://www.w3.org/2000/svg">
<path fill-rule="evenodd" clip-rule="evenodd" d="M19.8711 5.1835C19.8711 4.63122 19.4234 4.1835 18.8711 4.1835H5.74413C5.19184 4.1835 4.74413 4.63122 4.74413 5.1835V18.3105C4.74413 18.8628 5.19184 19.3105 5.74412 19.3105H11.9281C12.1798 19.3105 12.4222 19.2156 12.607 19.0447L19.5501 12.6243C19.7548 12.435 19.8711 12.1688 19.8711 11.8901V5.1835Z" fill="#894E00"/>
<path d="M19.5501 12.6243L18.8711 11.8901L19.5501 12.6243ZM12.607 19.0447L13.2859 19.7789L12.607 19.0447ZM5.74413 5.1835H18.8711V3.1835H5.74413V5.1835ZM5.74413 18.3105V5.1835H3.74413V18.3105H5.74413ZM11.9281 18.3105H5.74412V20.3105H11.9281V18.3105ZM13.2859 19.7789L20.229 13.3585L18.8711 11.8901L11.9281 18.3105L13.2859 19.7789ZM18.8711 5.1835V11.8901H20.8711V5.1835H18.8711ZM20.229 13.3585C20.6384 12.9799 20.8711 12.4476 20.8711 11.8901H18.8711L18.8711 11.8901L20.229 13.3585ZM11.9281 20.3105C12.4315 20.3105 12.9164 20.1207 13.2859 19.7789L11.9281 18.3105L11.9281 18.3105V20.3105ZM3.74413 18.3105C3.74413 19.4151 4.63955 20.3105 5.74412 20.3105V18.3105L5.74413 18.3105H3.74413ZM18.8711 5.1835L18.8711 5.1835H20.8711C20.8711 4.07893 19.9757 3.1835 18.8711 3.1835V5.1835ZM5.74413 3.1835C4.63956 3.1835 3.74413 4.07893 3.74413 5.1835H5.74413L5.74413 5.1835V3.1835Z" fill="#3E2504"/>
<path d="M19.7621 12.3407L12.3076 19.0696V12.3407H19.7621Z" fill="#FEF9E1" stroke="#3E2504" stroke-width="2" stroke-linejoin="round"/>
</svg>
