<svg width="49" height="49" viewBox="0 0 49 49" fill="none" xmlns="http://www.w3.org/2000/svg">
<circle cx="24.5293" cy="24.8394" r="24" fill="#FFE812"/>
<path d="M24.5293 11.92C16.7973 11.92 10.5293 16.8622 10.5293 22.9585C10.5293 26.8999 13.1497 30.3583 17.0915 32.3112C16.8771 33.0508 15.7135 37.069 15.6672 37.3847C15.6672 37.3847 15.6393 37.6219 15.7929 37.7124C15.9465 37.8028 16.1271 37.7325 16.1271 37.7325C16.5676 37.671 21.2349 34.3926 22.0427 33.8233C22.8497 33.9376 23.6807 33.997 24.5293 33.997C32.2613 33.997 38.5293 29.055 38.5293 22.9585C38.5293 16.8622 32.2613 11.92 24.5293 11.92Z" fill="black"/>
</svg>
