<svg width="28" height="29" viewBox="0 0 28 29" fill="none" xmlns="http://www.w3.org/2000/svg">
<path d="M14 24.3447C11.7593 24.3447 9.75 23.6825 7.97222 22.3581C6.19444 21.0344 5 19.3077 4.38889 17.1781C4.2963 16.8447 4.32889 16.5299 4.48667 16.2336C4.6437 15.9373 4.88889 15.7521 5.22222 15.6781C5.53704 15.604 5.81963 15.6732 6.07 15.8858C6.31963 16.0992 6.49074 16.3632 6.58333 16.6781C7.06481 18.3077 7.99556 19.6225 9.37556 20.6225C10.7548 21.6225 12.2963 22.1225 14 22.1225C16.1667 22.1225 18.0044 21.3677 19.5133 19.8581C21.023 18.3492 21.7778 16.5114 21.7778 14.3447C21.7778 12.1781 21.023 10.3399 19.5133 8.83028C18.0044 7.32139 16.1667 6.56695 14 6.56695C12.7222 6.56695 11.5278 6.86325 10.4167 7.45584C9.30556 8.04843 8.37037 8.86325 7.61111 9.90028H9.55556C9.87037 9.90028 10.1344 10.0066 10.3478 10.2192C10.5604 10.4325 10.6667 10.6966 10.6667 11.0114C10.6667 11.3262 10.5604 11.5899 10.3478 11.8025C10.1344 12.0158 9.87037 12.1225 9.55556 12.1225H5.11111C4.7963 12.1225 4.53259 12.0158 4.32 11.8025C4.10667 11.5899 4 11.3262 4 11.0114V6.56695C4 6.25213 4.10667 5.98806 4.32 5.77473C4.53259 5.56213 4.7963 5.45584 5.11111 5.45584C5.42593 5.45584 5.69 5.56213 5.90333 5.77473C6.11593 5.98806 6.22222 6.25213 6.22222 6.56695V8.06695C7.16667 6.88176 8.31963 5.9651 9.68111 5.31695C11.0419 4.6688 12.4815 4.34473 14 4.34473C15.3889 4.34473 16.69 4.60843 17.9033 5.13584C19.1159 5.66399 20.1715 6.37695 21.07 7.27473C21.9678 8.17325 22.6807 9.2288 23.2089 10.4414C23.7363 11.6547 24 12.9558 24 14.3447C24 15.7336 23.7363 17.0344 23.2089 18.2469C22.6807 19.4603 21.9678 20.5158 21.07 21.4136C20.1715 22.3121 19.1159 23.0255 17.9033 23.5536C16.69 24.081 15.3889 24.3447 14 24.3447Z" fill="black"/>
</svg>
