<svg width="28" height="29" viewBox="0 0 28 29" fill="none" xmlns="http://www.w3.org/2000/svg">
<path d="M13.9998 18.5169C13.8443 18.5169 13.6984 18.4924 13.5623 18.4434C13.4262 18.3951 13.2998 18.3127 13.1832 18.196L8.98317 13.996C8.76928 13.7821 8.66234 13.5099 8.66234 13.1794C8.66234 12.8488 8.76928 12.5766 8.98317 12.3627C9.19706 12.1488 9.47395 12.0368 9.81384 12.0267C10.1545 12.0174 10.4318 12.1196 10.6457 12.3335L12.8332 14.521V6.17936C12.8332 5.84881 12.9452 5.57153 13.1692 5.34753C13.3924 5.12431 13.6693 5.0127 13.9998 5.0127C14.3304 5.0127 14.6077 5.12431 14.8317 5.34753C15.0549 5.57153 15.1665 5.84881 15.1665 6.17936V14.521L17.354 12.3335C17.5679 12.1196 17.8452 12.0174 18.1858 12.0267C18.5257 12.0368 18.8026 12.1488 19.0165 12.3627C19.2304 12.5766 19.3373 12.8488 19.3373 13.1794C19.3373 13.5099 19.2304 13.7821 19.0165 13.996L14.8165 18.196C14.6998 18.3127 14.5734 18.3951 14.4373 18.4434C14.3012 18.4924 14.1554 18.5169 13.9998 18.5169ZM6.99984 23.6794C6.35817 23.6794 5.80906 23.4511 5.3525 22.9945C4.89517 22.5372 4.6665 21.9877 4.6665 21.346V19.0127C4.6665 18.6821 4.77812 18.4049 5.00134 18.1809C5.22534 17.9576 5.50261 17.846 5.83317 17.846C6.16373 17.846 6.441 17.9576 6.665 18.1809C6.88823 18.4049 6.99984 18.6821 6.99984 19.0127V21.346H20.9998V19.0127C20.9998 18.6821 21.1118 18.4049 21.3358 18.1809C21.5591 17.9576 21.8359 17.846 22.1665 17.846C22.4971 17.846 22.7739 17.9576 22.9972 18.1809C23.2212 18.4049 23.3332 18.6821 23.3332 19.0127V21.346C23.3332 21.9877 23.1049 22.5372 22.6483 22.9945C22.191 23.4511 21.6415 23.6794 20.9998 23.6794H6.99984Z" fill="black"/>
</svg>
