<svg width="28" height="29" viewBox="0 0 28 29" fill="none" xmlns="http://www.w3.org/2000/svg">
<path d="M7.14286 9.20312C4.30254 9.20312 2 11.5057 2 14.346C2 17.1863 4.30254 19.4888 7.14286 19.4888H9.2C9.76807 19.4888 10.2286 19.0283 10.2286 18.4603C10.2286 17.8922 9.76807 17.4317 9.2 17.4317H7.14286C5.43866 17.4317 4.05714 16.0502 4.05714 14.346C4.05714 12.6418 5.43866 11.2603 7.14286 11.2603H12.9714C14.4863 11.2603 15.7143 12.4883 15.7143 14.0031C15.7143 14.5712 16.1748 15.0317 16.7429 15.0317C17.3109 15.0317 17.7714 14.5712 17.7714 14.0031C17.7714 11.3522 15.6224 9.20312 12.9714 9.20312H7.14286Z" fill="black"/>
<path d="M20.8571 19.4888C23.6975 19.4888 26 17.1863 26 14.346C26 11.5057 23.6975 9.20312 20.8571 9.20313L18.8 9.20312C18.2319 9.20312 17.7714 9.66363 17.7714 10.2317C17.7714 10.7998 18.2319 11.2603 18.8 11.2603L20.8571 11.2603C22.5613 11.2603 23.9429 12.6418 23.9429 14.346C23.9429 16.0502 22.5613 17.4317 20.8571 17.4317L15.0286 17.4317C13.5137 17.4317 12.2857 16.2037 12.2857 14.6888C12.2857 14.1208 11.8252 13.6603 11.2571 13.6603C10.6891 13.6603 10.2286 14.1208 10.2286 14.6888C10.2286 17.3398 12.3776 19.4888 15.0286 19.4888H20.8571Z" fill="black"/>
</svg>
