<svg width="29" height="29" viewBox="0 0 29 29" fill="none" xmlns="http://www.w3.org/2000/svg">
<circle cx="14.8958" cy="14.4935" r="13" fill="white" stroke="#3D2505" stroke-width="2"/>
<path d="M15.3819 16.116L15.3819 16.116L15.3813 16.1209C15.3409 16.4488 15.0776 16.6798 14.78 16.6798C14.3933 16.6798 14.1005 16.3473 14.1407 15.9941C14.1827 15.6381 14.2628 15.3033 14.4334 14.9988L14.4334 14.9988L14.4345 14.9968C14.6874 14.5401 15.0647 14.1633 15.5048 13.7548C15.5521 13.7109 15.6003 13.6665 15.6492 13.6215C16.0363 13.265 16.4663 12.8689 16.7933 12.4016C17.2441 11.7618 17.3375 10.8663 17.0096 10.1215C16.6646 9.33785 15.8811 8.77439 14.7109 8.77439C13.6043 8.77439 12.8782 9.36479 12.4485 10.0322L12.4484 10.0321L12.4428 10.0412C12.3214 10.2389 12.0394 10.3364 11.7644 10.2252C11.4148 10.0746 11.3029 9.6592 11.4807 9.39141C12.1407 8.41224 13.2345 7.70209 14.6956 7.70209C16.3342 7.70209 17.4037 8.44036 17.9375 9.31233C18.1621 9.68155 18.3518 10.2354 18.3891 10.8339C18.4262 11.429 18.3112 12.0316 17.9731 12.5326C17.543 13.1669 17.1232 13.5807 16.7328 13.9588C16.7151 13.9759 16.6974 13.993 16.6797 14.0101C16.3142 14.3635 15.9378 14.7275 15.6696 15.2198C15.5262 15.4782 15.4365 15.7066 15.3819 16.116ZM15.7383 20.2499C15.7383 20.818 15.2714 21.285 14.7032 21.285C14.1351 21.285 13.6682 20.818 13.6682 20.2499C13.6682 19.6818 14.1351 19.2149 14.7032 19.2149C15.2714 19.2149 15.7383 19.6818 15.7383 20.2499Z" fill="#3D2505" stroke="#3D2505"/>
</svg>
