<svg width="40" height="40" viewBox="0 0 40 40" fill="none" xmlns="http://www.w3.org/2000/svg">
<mask id="path-1-inside-1_142_2463" fill="white">
<path d="M4 15.4873C4 11.069 7.58172 7.4873 12 7.4873H28C32.4183 7.4873 36 11.069 36 15.4873V31.9995C36 33.1041 35.1046 33.9995 34 33.9995H6C4.89543 33.9995 4 33.1041 4 31.9995V15.4873Z"/>
</mask>
<path d="M4 15.4873C4 11.069 7.58172 7.4873 12 7.4873H28C32.4183 7.4873 36 11.069 36 15.4873V31.9995C36 33.1041 35.1046 33.9995 34 33.9995H6C4.89543 33.9995 4 33.1041 4 31.9995V15.4873Z" fill="#FFF0AF" stroke="#FEDB3D" stroke-width="6" mask="url(#path-1-inside-1_142_2463)"/>
<path d="M14.0631 20.1818L13.1465 19.4742L12.2299 20.1818C10.6202 21.4244 8.556 22.1768 6.29297 22.1768C6.02564 22.1768 5.76118 22.1663 5.5 22.1457V15.0622C5.5 11.7833 8.33193 8.9873 12 8.9873H28C31.6681 8.9873 34.5 11.7833 34.5 15.0622V22.1457C34.2388 22.1663 33.9744 22.1768 33.707 22.1768C31.444 22.1768 29.3798 21.4244 27.7701 20.1818L26.8535 19.4742L25.9369 20.1818C24.3273 21.4244 22.263 22.1768 20 22.1768C17.737 22.1768 15.6727 21.4244 14.0631 20.1818Z" fill="#FFBFBF" stroke="#FF9E9E" stroke-width="3"/>
<path d="M21.9893 11.4882C22.3464 10.9438 22.6994 10.3284 22.9728 9.69916C23.2389 9.08653 23.4695 8.37043 23.4972 7.64821C23.5259 6.89993 23.3329 6.00845 22.5891 5.33738C21.8867 4.70356 20.9455 4.50045 20 4.50045C19.0545 4.50045 18.1133 4.70356 17.4109 5.33738C16.6671 6.00845 16.4741 6.89993 16.5028 7.64821C16.5305 8.37043 16.7611 9.08653 17.0272 9.69916C17.3006 10.3284 17.6536 10.9438 18.0107 11.4882C18.9555 12.9282 21.0445 12.9282 21.9893 11.4882L21.9893 11.4882Z" fill="#FF2929" stroke="#C92020" stroke-width="3"/>
</svg>
