<svg width="40" height="40" viewBox="0 0 40 40" fill="none" xmlns="http://www.w3.org/2000/svg">
<path d="M20 7.36554C18.3771 6.19154 16.3629 5.5 14.1896 5.5C8.89976 5.5 4.5 9.62323 4.5 14.8441C4.5 16.7537 5.09482 18.5263 6.10723 20C5.09482 21.4737 4.5 23.2463 4.5 25.1559C4.5 30.3768 8.89976 34.5 14.1896 34.5C16.3629 34.5 18.3771 33.8085 20 32.6345C21.6229 33.8085 23.6371 34.5 25.8104 34.5C31.1002 34.5 35.5 30.3768 35.5 25.1559C35.5 23.2463 34.9052 21.4737 33.8928 20C34.9052 18.5263 35.5 16.7537 35.5 14.8441C35.5 9.62323 31.1002 5.5 25.8104 5.5C23.6371 5.5 21.6229 6.19154 20 7.36554Z" fill="#C6FF85" stroke="#87E74C" stroke-width="3"/>
</svg>
