<svg width="40" height="40" viewBox="0 0 40 40" fill="none" xmlns="http://www.w3.org/2000/svg">
<path d="M18.1231 5.86833C13.9882 10.6829 9.1205 17.7128 7.83134 23.6948C7.18014 26.7164 7.379 29.797 9.456 32.1058C11.4962 34.3738 15.0035 35.5 20 35.5C24.9965 35.5 28.5038 34.3738 30.544 32.1058C32.621 29.797 32.8199 26.7164 32.1687 23.6948C30.8795 17.7128 26.0118 10.6829 21.8769 5.86833C20.8884 4.71733 19.1116 4.71733 18.1231 5.86833Z" fill="#FF3A3A" stroke="#C80000" stroke-width="3"/>
<path d="M19.9997 31.3715C9.86502 31.3715 14.9144 22.3859 19.2675 17.1686C19.6509 16.7091 20.3484 16.7091 20.7319 17.1686C25.085 22.3859 30.1343 31.3715 19.9997 31.3715Z" fill="#FBD92D"/>
</svg>
