<svg width="40" height="40" viewBox="0 0 40 40" fill="none" xmlns="http://www.w3.org/2000/svg">
<path d="M36.112 15.9298C34.9289 12.4471 31.3932 10.4162 27.8253 10.8226C27.2404 7.19679 23.9777 4.5 20.154 4.5C16.4555 4.5 13.2818 7.02321 12.5486 10.4698C8.85679 9.87162 5.11238 11.921 3.88801 15.5254C2.70383 19.0114 4.31023 22.6619 7.42531 24.3716C5.71524 27.6172 6.67923 31.6576 9.81535 33.837C12.8482 35.9447 16.9527 35.6444 19.6179 33.2674C22.2693 35.8711 26.5513 36.2664 29.6874 34.087C32.7187 31.9804 33.7207 28.1351 32.2399 24.9494C35.5731 23.3237 37.3379 19.5386 36.112 15.9298Z" fill="#FFA8CE" stroke="#FF5FA4" stroke-width="3"/>
</svg>
