<svg width="40" height="40" viewBox="0 0 40 40" fill="none" xmlns="http://www.w3.org/2000/svg">
<path d="M7.23772 9.61022L7.23771 9.61022C6.08585 10.7799 4.90965 12.8374 4.58656 15.3061C4.2554 17.8366 4.82652 20.7728 7.15549 23.5596C11.4142 28.6556 17.0035 32.1823 19.3308 33.3425C19.7522 33.5525 20.2478 33.5525 20.6692 33.3425C22.9965 32.1823 28.5858 28.6556 32.8445 23.5596C35.1735 20.7728 35.7446 17.8366 35.4134 15.3061C35.0904 12.8374 33.9142 10.7799 32.7623 9.61022L31.7019 10.6545L32.7623 9.61022C29.9742 6.77898 27.005 6.16336 24.4229 6.65177C22.6265 6.99157 21.1012 7.84682 20 8.68525C18.8988 7.84682 17.3735 6.99157 15.5771 6.65177C12.995 6.16336 10.0258 6.77898 7.23772 9.61022Z" fill="#FF9898" stroke="#FF5151" stroke-width="3" stroke-linecap="round" stroke-linejoin="round"/>
</svg>
