<svg width="62" height="146" viewBox="0 0 62 146" fill="none" xmlns="http://www.w3.org/2000/svg">
<path d="M31.4429 144.493C26.1006 144.493 23.9506 133.689 23.5435 128.287H39.1387C38.7994 133.689 36.7852 144.493 31.4429 144.493Z" fill="#979797" stroke="#3D2505" stroke-width="3" stroke-linejoin="round"/>
<path d="M3.06467 59.1387C6.08673 37.0886 23.2932 34.2344 31.4668 34.2344C39.9268 34.2344 57.3856 37.322 59.8066 59.1387C62.8328 86.4095 52.0503 132.964 31.4668 131.753C11.2837 131.753 -0.712906 86.7012 3.06467 59.1387Z" fill="#FFF1AC" stroke="#3D2505" stroke-width="3" stroke-linejoin="round"/>
<path d="M16.6191 6.86793C21.7145 4.97216 24.0189 9.5465 24.559 11.759C23.9435 8.59842 24.4692 2.27734 31.4955 2.27734C38.5219 2.27734 38.8911 8.52607 38.1826 11.759C38.7149 9.32999 40.9979 5.40434 46.4166 6.86793C51.8664 8.33991 49.7094 20.2743 48.2514 23.7815C46.4166 28.1951 45.209 30.7662 42.6167 33.7314C33.0924 37.1975 23.5464 35.1756 19.9639 33.7314C16.6191 31.275 14.3375 26.0836 13.5884 22.8607C12.5669 18.4651 11.56 8.7502 16.6191 6.86793Z" fill="#FEFAE6" stroke="#3D2505" stroke-width="3" stroke-linejoin="round"/>
<path d="M17.8733 37.0478C18.364 35.2145 18.9845 34.3342 19.8385 33.7329C29.2976 37.2235 39.5904 35.1897 42.5735 33.7353C43.9001 34.8583 44.7604 36.3885 44.8166 36.7809C36.7616 43.3241 17.412 38.7718 17.8733 37.0478Z" fill="#FEACB1" stroke="#3D2505" stroke-width="3" stroke-linejoin="round"/>
</svg>
