<svg width="201" height="187" viewBox="0 0 201 187" fill="none" xmlns="http://www.w3.org/2000/svg">
<mask id="path-1-inside-1_99_453" fill="white">
<path fill-rule="evenodd" clip-rule="evenodd" d="M36.9247 29.0331C36.9247 13.4319 49.5719 0.784668 65.1731 0.784668C80.7743 0.784668 93.4216 13.4319 93.4216 29.0331V46.7889C96.2548 46.655 99.1618 46.5863 102.144 46.5863C103.922 46.5863 105.671 46.6132 107.391 46.6658V29.0331C107.391 13.4319 120.038 0.784668 135.639 0.784668C151.24 0.784668 163.888 13.4319 163.888 29.0331V61.6362C191.025 78.0437 200.406 104.095 200.406 120.122C200.406 144.907 188.842 186.849 102.144 186.849C15.4457 186.849 0.406039 148.72 0.40625 120.122C0.40625 100.682 11.1183 77.0434 36.9247 61.9085V29.0331Z"/>
</mask>
<path fill-rule="evenodd" clip-rule="evenodd" d="M36.9247 29.0331C36.9247 13.4319 49.5719 0.784668 65.1731 0.784668C80.7743 0.784668 93.4216 13.4319 93.4216 29.0331V46.7889C96.2548 46.655 99.1618 46.5863 102.144 46.5863C103.922 46.5863 105.671 46.6132 107.391 46.6658V29.0331C107.391 13.4319 120.038 0.784668 135.639 0.784668C151.24 0.784668 163.888 13.4319 163.888 29.0331V61.6362C191.025 78.0437 200.406 104.095 200.406 120.122C200.406 144.907 188.842 186.849 102.144 186.849C15.4457 186.849 0.406039 148.72 0.40625 120.122C0.40625 100.682 11.1183 77.0434 36.9247 61.9085V29.0331Z" fill="#894E00"/>
<path d="M93.4216 46.7889H83.4216V57.2726L93.8935 56.7778L93.4216 46.7889ZM107.391 46.6658L107.085 56.6611L117.391 56.9768V46.6658H107.391ZM163.888 61.6362H153.888V67.2758L158.714 70.1937L163.888 61.6362ZM0.40625 120.122L10.4063 120.122V120.122H0.40625ZM36.9247 61.9085L41.9836 70.5344L46.9247 67.6366V61.9085H36.9247ZM65.1731 -9.21533C44.0491 -9.21533 26.9247 7.90907 26.9247 29.0331H46.9247C46.9247 18.9548 55.0948 10.7847 65.1731 10.7847V-9.21533ZM103.422 29.0331C103.422 7.90906 86.2971 -9.21533 65.1731 -9.21533V10.7847C75.2514 10.7847 83.4216 18.9548 83.4216 29.0331H103.422ZM103.422 46.7889V29.0331H83.4216V46.7889H103.422ZM102.144 36.5863C99.0083 36.5863 95.9438 36.6586 92.9496 36.8L93.8935 56.7778C96.5657 56.6515 99.3153 56.5863 102.144 56.5863V36.5863ZM107.697 36.6705C105.874 36.6147 104.023 36.5863 102.144 36.5863V56.5863C103.822 56.5863 105.468 56.6116 107.085 56.6611L107.697 36.6705ZM117.391 46.6658V29.0331H97.3908V46.6658H117.391ZM117.391 29.0331C117.391 18.9548 125.561 10.7847 135.639 10.7847V-9.21533C114.515 -9.21533 97.3908 7.90907 97.3908 29.0331H117.391ZM135.639 10.7847C145.718 10.7847 153.888 18.9548 153.888 29.0331H173.888C173.888 7.90907 156.763 -9.21533 135.639 -9.21533V10.7847ZM153.888 29.0331V61.6362H173.888V29.0331H153.888ZM210.406 120.122C210.406 100.844 199.402 71.423 169.062 53.0788L158.714 70.1937C182.648 84.6645 190.406 107.346 190.406 120.122H210.406ZM102.144 196.849C146.939 196.849 174.518 186.019 190.82 169.889C207.17 153.711 210.406 133.959 210.406 120.122H190.406C190.406 131.07 187.861 144.682 176.753 155.672C165.599 166.708 144.046 176.849 102.144 176.849V196.849ZM-9.59375 120.122C-9.59387 136.15 -5.33227 156.014 12.0821 171.651C29.261 187.076 57.5605 196.849 102.144 196.849V176.849C60.0291 176.849 37.4597 167.558 25.4443 156.769C13.6643 146.192 10.4062 132.692 10.4063 120.122L-9.59375 120.122ZM31.8657 53.2825C3.04069 70.1879 -9.59375 97.0847 -9.59375 120.122H10.4063C10.4063 104.278 19.196 83.899 41.9836 70.5344L31.8657 53.2825ZM26.9247 29.0331V61.9085H46.9247V29.0331H26.9247Z" fill="#3D2505" mask="url(#path-1-inside-1_99_453)"/>
</svg>
