<svg width="211" height="182" viewBox="0 0 211 182" fill="none" xmlns="http://www.w3.org/2000/svg">
<path fill-rule="evenodd" clip-rule="evenodd" d="M185.908 105.938C185.823 106.082 185.719 106.219 185.595 106.343L121.712 170.225C112.848 179.089 98.4773 179.089 89.6135 170.225L25.7312 106.343C25.6074 106.219 25.5032 106.083 25.4186 105.939C24.4257 105.073 23.4554 104.167 22.5099 103.222C0.0468357 80.7586 0.0468357 44.3388 22.5099 21.8758C44.9729 -0.587296 81.3927 -0.587296 103.856 21.8758C104.475 22.4951 105.077 23.125 105.663 23.765C106.248 23.125 106.85 22.495 107.469 21.8756C129.932 -0.587441 166.352 -0.587441 188.815 21.8756C211.278 44.3387 211.278 80.7584 188.815 103.221C187.87 104.167 186.9 105.072 185.908 105.938Z" fill="#894E00"/>
<path d="M185.595 106.343L189.13 109.879L189.13 109.878L185.595 106.343ZM185.908 105.938L182.621 102.169L182.005 102.707L181.592 103.414L185.908 105.938ZM89.6135 170.225L86.078 173.761L86.078 173.761L89.6135 170.225ZM25.7312 106.343L22.1956 109.879L22.1957 109.879L25.7312 106.343ZM25.4186 105.939L29.7328 103.411L29.3202 102.707L28.705 102.171L25.4186 105.939ZM22.5099 103.222L18.9743 106.757L18.9743 106.757L22.5099 103.222ZM22.5099 21.8758L18.9743 18.3402L18.9743 18.3402L22.5099 21.8758ZM103.856 21.8758L100.32 25.4113L100.32 25.4113L103.856 21.8758ZM105.663 23.765L101.973 27.139L105.663 31.1745L109.352 27.139L105.663 23.765ZM107.469 21.8756L111.005 25.4111L111.005 25.4111L107.469 21.8756ZM188.815 21.8756L192.351 18.3401L192.351 18.3401L188.815 21.8756ZM188.815 103.221L192.351 106.757L192.351 106.757L188.815 103.221ZM189.13 109.878C189.559 109.449 189.925 108.972 190.224 108.461L181.592 103.414C181.721 103.192 181.878 102.988 182.059 102.808L189.13 109.878ZM125.248 173.761L189.13 109.879L182.059 102.808L118.177 166.69L125.248 173.761ZM86.078 173.761C96.8944 184.577 114.431 184.577 125.248 173.761L118.177 166.69C111.265 173.601 100.06 173.601 93.1491 166.69L86.078 173.761ZM22.1957 109.879L86.078 173.761L93.1491 166.69L29.2667 102.808L22.1957 109.879ZM21.1044 108.466C21.4026 108.975 21.7677 109.451 22.1956 109.879L29.2668 102.808C29.447 102.988 29.6038 103.191 29.7328 103.411L21.1044 108.466ZM18.9743 106.757C20.0003 107.783 21.0537 108.767 22.1323 109.707L28.705 102.171C27.7977 101.379 26.9105 100.551 26.0454 99.6861L18.9743 106.757ZM18.9743 18.3402C-5.44132 42.7559 -5.44132 82.3415 18.9743 106.757L26.0454 99.6861C5.53499 79.1757 5.53499 45.9217 26.0454 25.4113L18.9743 18.3402ZM107.391 18.3402C82.9756 -6.07545 43.39 -6.07545 18.9743 18.3402L26.0454 25.4113C46.5558 4.90086 79.8098 4.90086 100.32 25.4113L107.391 18.3402ZM109.352 20.3909C108.717 19.696 108.063 19.0122 107.391 18.3402L100.32 25.4113C100.887 25.9779 101.438 26.554 101.973 27.139L109.352 20.3909ZM109.352 27.139C109.887 26.554 110.438 25.9778 111.005 25.4111L103.934 18.3401C103.262 19.0121 102.608 19.696 101.973 20.3909L109.352 27.139ZM111.005 25.4111C131.515 4.90071 164.769 4.90071 185.28 25.4111L192.351 18.3401C167.935 -6.0756 128.35 -6.0756 103.934 18.3401L111.005 25.4111ZM185.28 25.4111C205.79 45.9216 205.79 79.1755 185.28 99.6859L192.351 106.757C216.766 82.3413 216.766 42.7557 192.351 18.3401L185.28 25.4111ZM185.28 99.6859C184.415 100.551 183.528 101.378 182.621 102.169L189.194 109.706C190.272 108.765 191.325 107.783 192.351 106.757L185.28 99.6859Z" fill="#3D2505"/>
</svg>
