<svg width="201" height="179" viewBox="0 0 201 179" fill="none" xmlns="http://www.w3.org/2000/svg">
<mask id="path-1-inside-1_99_429" fill="white">
<path fill-rule="evenodd" clip-rule="evenodd" d="M102.4 16.18C94.8085 16.18 87.7031 16.6964 81.0642 17.6624C76.369 7.68088 66.2217 0.770996 54.4605 0.770996C38.2323 0.770996 25.0767 13.9266 25.0767 30.1548C25.0767 34.2456 25.9126 38.1411 27.423 41.6799C8.64337 58.9271 0.662598 82.0214 0.662598 101.488C0.662387 134.663 15.7021 178.897 102.4 178.897C189.098 178.897 200.663 130.24 200.663 101.488C200.663 85.1087 193.382 59.7062 173.098 40.8767C174.4 37.5549 175.115 33.9384 175.115 30.1548C175.115 13.9266 161.96 0.770996 145.731 0.770996C134.155 0.770996 124.143 7.46494 119.354 17.1931C114.024 16.5315 108.378 16.18 102.4 16.18Z"/>
</mask>
<path fill-rule="evenodd" clip-rule="evenodd" d="M102.4 16.18C94.8085 16.18 87.7031 16.6964 81.0642 17.6624C76.369 7.68088 66.2217 0.770996 54.4605 0.770996C38.2323 0.770996 25.0767 13.9266 25.0767 30.1548C25.0767 34.2456 25.9126 38.1411 27.423 41.6799C8.64337 58.9271 0.662598 82.0214 0.662598 101.488C0.662387 134.663 15.7021 178.897 102.4 178.897C189.098 178.897 200.663 130.24 200.663 101.488C200.663 85.1087 193.382 59.7062 173.098 40.8767C174.4 37.5549 175.115 33.9384 175.115 30.1548C175.115 13.9266 161.96 0.770996 145.731 0.770996C134.155 0.770996 124.143 7.46494 119.354 17.1931C114.024 16.5315 108.378 16.18 102.4 16.18Z" fill="#894E00"/>
<path d="M81.0642 17.6624L72.0154 21.9189L75.17 28.6254L82.5042 27.5582L81.0642 17.6624ZM27.423 41.6799L34.1872 49.045L39.3971 44.2603L36.6203 37.7544L27.423 41.6799ZM0.662598 101.488L10.6626 101.488V101.488H0.662598ZM173.098 40.8767L163.788 37.2263L161.3 43.57L166.294 48.2057L173.098 40.8767ZM119.354 17.1931L118.122 27.117L125.183 27.9936L128.325 21.6101L119.354 17.1931ZM82.5042 27.5582C88.639 26.6655 95.262 26.18 102.4 26.18V6.18004C94.3549 6.18004 86.7672 6.72728 79.6243 7.76666L82.5042 27.5582ZM54.4605 10.771C62.204 10.771 68.9072 15.3113 72.0154 21.9189L90.1131 13.4059C83.8308 0.0504101 70.2394 -9.229 54.4605 -9.229V10.771ZM35.0767 30.1548C35.0767 19.4494 43.7551 10.771 54.4605 10.771V-9.229C32.7094 -9.229 15.0767 8.40374 15.0767 30.1548H35.0767ZM36.6203 37.7544C35.6299 35.4339 35.0767 32.8719 35.0767 30.1548H15.0767C15.0767 35.6193 16.1953 40.8484 18.2257 45.6054L36.6203 37.7544ZM10.6626 101.488C10.6626 84.5669 17.6497 64.2331 34.1872 49.045L20.6588 34.3147C-0.36299 53.6212 -9.3374 79.4758 -9.3374 101.488H10.6626ZM102.4 168.897C60.6351 168.897 38.2797 158.256 26.2334 145.708C14.1283 133.098 10.6625 116.731 10.6626 101.488L-9.3374 101.488C-9.33752 119.42 -5.28359 141.757 11.8057 159.559C28.9537 177.421 57.4672 188.897 102.4 188.897V168.897ZM190.663 101.488C190.663 114.746 187.962 131.253 176.503 144.406C165.264 157.307 143.897 168.897 102.4 168.897V188.897C147.602 188.897 175.366 176.159 191.583 157.543C207.581 139.18 210.663 116.982 210.663 101.488H190.663ZM166.294 48.2057C184.268 64.8899 190.663 87.4945 190.663 101.488H210.663C210.663 82.7228 202.497 54.5225 179.901 33.5476L166.294 48.2057ZM165.115 30.1548C165.115 32.6691 164.642 35.0487 163.788 37.2263L182.408 44.527C184.159 40.0612 185.115 35.2077 185.115 30.1548H165.115ZM145.731 10.771C156.437 10.771 165.115 19.4494 165.115 30.1548H185.115C185.115 8.40375 167.483 -9.229 145.731 -9.229V10.771ZM128.325 21.6101C131.497 15.1685 138.11 10.771 145.731 10.771V-9.229C130.201 -9.229 116.789 -0.238656 110.382 12.7762L128.325 21.6101ZM102.4 26.18C107.986 26.18 113.22 26.5084 118.122 27.117L120.586 7.26933C114.829 6.5546 108.77 6.18004 102.4 6.18004V26.18Z" fill="#3D2505" mask="url(#path-1-inside-1_99_429)"/>
</svg>
