<svg width="211" height="184" viewBox="0 0 211 184" fill="none" xmlns="http://www.w3.org/2000/svg">
<path fill-rule="evenodd" clip-rule="evenodd" d="M31.2782 41.0276L50.5462 9.16775C52.9802 5.14322 58.344 4.07657 62.1325 6.86372L78.5178 18.9182C87.2077 17.12 96.775 16.1328 107.272 16.1328C116.654 16.1328 125.219 16.9985 133.025 18.5703L148.937 6.86372C152.726 4.07657 158.089 5.14322 160.523 9.16775L179.791 41.0276C180.306 41.8784 180.643 42.7467 180.825 43.6083C198.942 62.0971 205.535 85.8543 205.535 101.441C205.535 130.193 193.97 178.85 107.272 178.85C20.5741 178.85 5.53446 134.616 5.53467 101.441C5.53467 82.6953 12.9351 60.5859 30.2523 43.573C30.4359 42.7229 30.7707 41.8667 31.2782 41.0276Z" fill="#894E00"/>
<path d="M50.5462 9.16775L54.8247 11.7552L54.8247 11.7552L50.5462 9.16775ZM31.2782 41.0276L35.5566 43.6151L35.5566 43.6151L31.2782 41.0276ZM62.1325 6.86372L59.1695 10.8912L59.1695 10.8912L62.1325 6.86372ZM78.5178 18.9182L75.5548 22.9457L77.3493 24.2659L79.531 23.8145L78.5178 18.9182ZM133.025 18.5703L132.038 23.4719L134.206 23.9085L135.988 22.5978L133.025 18.5703ZM148.937 6.86372L151.9 10.8912L151.9 10.8912L148.937 6.86372ZM160.523 9.16775L156.245 11.7552L156.245 11.7552L160.523 9.16775ZM179.791 41.0276L184.07 38.4401L184.07 38.4401L179.791 41.0276ZM180.825 43.6083L175.933 44.6414L176.234 46.0671L177.254 47.1078L180.825 43.6083ZM5.53467 101.441L10.5347 101.441V101.441H5.53467ZM30.2523 43.573L33.7564 47.1397L34.8236 46.0912L35.1395 44.6289L30.2523 43.573ZM46.2678 6.58026L26.9998 38.4401L35.5566 43.6151L54.8247 11.7552L46.2678 6.58026ZM65.0955 2.83622C58.9392 -1.6929 50.223 0.0404132 46.2678 6.58026L54.8247 11.7552C55.7374 10.246 57.7488 9.84604 59.1695 10.8912L65.0955 2.83622ZM81.4808 14.8907L65.0955 2.83622L59.1695 10.8912L75.5548 22.9457L81.4808 14.8907ZM107.272 11.1328C96.4612 11.1328 86.5529 12.1496 77.5046 14.0219L79.531 23.8145C87.8625 22.0905 97.0888 21.1328 107.272 21.1328V11.1328ZM134.012 13.6686C125.859 12.0271 116.963 11.1328 107.272 11.1328V21.1328C116.346 21.1328 124.579 21.97 132.038 23.4719L134.012 13.6686ZM145.974 2.83622L130.062 14.5428L135.988 22.5978L151.9 10.8912L145.974 2.83622ZM164.802 6.58027C160.847 0.040413 152.13 -1.6929 145.974 2.83623L151.9 10.8912C153.321 9.84604 155.332 10.246 156.245 11.7552L164.802 6.58027ZM184.07 38.4401L164.802 6.58026L156.245 11.7552L175.513 43.6151L184.07 38.4401ZM185.717 42.5753C185.416 41.1503 184.867 39.7581 184.07 38.4401L175.513 43.6151C175.745 43.9986 175.87 44.3431 175.933 44.6414L185.717 42.5753ZM210.535 101.441C210.535 84.7031 203.534 59.6389 184.396 40.1088L177.254 47.1078C194.351 64.5554 200.535 87.0055 200.535 101.441H210.535ZM107.272 183.85C151.548 183.85 177.712 171.398 192.685 154.212C207.548 137.151 210.535 116.376 210.535 101.441H200.535C200.535 115.258 197.739 133.187 185.145 147.643C172.662 161.973 149.695 173.85 107.272 173.85V183.85ZM0.534668 101.441C0.534558 118.701 4.44146 139.545 20.2847 156.049C36.1573 172.582 63.1313 183.85 107.272 183.85V173.85C64.7152 173.85 40.8203 163 27.4985 149.123C14.1474 135.216 10.5346 117.356 10.5347 101.441L0.534668 101.441ZM26.7482 40.0063C8.3969 58.0352 0.534668 81.4661 0.534668 101.441H10.5347C10.5347 83.9244 17.4733 63.1367 33.7564 47.1397L26.7482 40.0063ZM26.9998 38.4401C26.2137 39.7399 25.6686 41.1121 25.365 42.5171L35.1395 44.6289C35.2033 44.3338 35.3278 43.9935 35.5566 43.6151L26.9998 38.4401Z" fill="#3D2505"/>
</svg>
