<svg width="12" height="11" viewBox="0 0 12 11" fill="none" xmlns="http://www.w3.org/2000/svg">
<path d="M1.7752 0.918996C1.91661 0.508146 2.42102 0.359483 2.76266 0.627974L3.82602 1.4637C4.07097 1.42317 4.3225 1.40209 4.57895 1.40209H7.42105C7.64431 1.40209 7.86382 1.41806 8.07852 1.44893L9.12309 0.627974C9.46472 0.359483 9.96913 0.508146 10.1105 0.918996L10.7828 2.8721C11.5383 3.68862 12 4.78091 12 5.98103C12 8.50991 9.94993 10.56 7.42105 10.56H4.57895C2.05007 10.56 0 8.50991 0 5.98103C0 4.88467 0.385331 3.87829 1.02793 3.08995L1.7752 0.918996Z" fill="#894E00"/>
</svg>
