<svg width="12" height="11" viewBox="0 0 12 11" fill="none" xmlns="http://www.w3.org/2000/svg">
<path d="M1.11621 2.36631C1.11621 1.44156 1.86587 0.691895 2.79063 0.691895C3.45046 0.691895 4.02115 1.07355 4.29398 1.62816C4.31815 1.62776 4.34236 1.62756 4.36662 1.62756H7.63338C7.65758 1.62756 7.68175 1.62776 7.70586 1.62815C7.97869 1.07355 8.54938 0.691895 9.20921 0.691895C10.134 0.691895 10.8836 1.44156 10.8836 2.36631V2.76029C10.8836 2.85925 10.875 2.95619 10.8586 3.05043C11.5676 3.82676 12 4.85997 12 5.99418C12 8.4058 10.045 10.3608 7.63338 10.3608H4.36662C1.955 10.3608 0 8.4058 0 5.99418C0 4.86005 0.432376 3.8269 1.14128 3.05058C1.1248 2.95629 1.11621 2.8593 1.11621 2.76029V2.36631Z" fill="#894E00"/>
</svg>
